<svg width="400" height="355" viewBox="0 0 400 355" fill="none" xmlns="http://www.w3.org/2000/svg">
<path d="M197.131 129.244C197.131 129.244 224.78 156.022 225.236 167.355C225.506 174.029 217.358 193.451 212.794 201.846C208.23 210.242 200.22 217.279 200.22 217.279L194.94 197.373L205.846 173.275L188.62 155.758L180.362 136.567L197.131 129.244Z" fill="#223A42"/>
<path d="M172.424 161.485L177.648 180.295L172.517 179.899L168.504 159.746L172.424 161.485Z" fill="#677DA8"/>
<path d="M176.696 176.873L235.087 181.852L236.281 188.702L172.32 179.162L176.696 176.873Z" fill="#505F85"/>
<path d="M262.64 237.195L248.594 266.336L250.265 267.141L264.311 238L262.64 237.195Z" fill="#8D8D8D"/>
<path d="M226.04 222.937L224.42 223.84L248.615 267.228L250.235 266.325L226.04 222.937Z" fill="#8D8D8D"/>
<path d="M237.702 218.5L235.907 218.971L248.528 267.013L250.322 266.543L237.702 218.5Z" fill="#8D8D8D"/>
<path d="M215.852 230.13L214.508 231.408L248.765 267.396L250.109 266.118L215.852 230.13Z" fill="#8D8D8D"/>
<path d="M216.762 246.937L215.839 248.545L248.969 267.553L249.893 265.945L216.762 246.937Z" fill="#8D8D8D"/>
<path d="M218.201 262.886L218.028 264.732L249.343 267.669L249.516 265.823L218.201 262.886Z" fill="#8D8D8D"/>
<path d="M277.346 250.343L248.989 265.936L249.883 267.56L278.241 251.968L277.346 250.343Z" fill="#8D8D8D"/>
<path d="M249.528 265.824L249.313 267.666L281.462 271.406L281.677 269.564L249.528 265.824Z" fill="#8D8D8D"/>
<path d="M249.906 265.985L248.973 267.588L283.363 287.574L284.296 285.971L249.906 265.985Z" fill="#8D8D8D"/>
<path d="M250.104 266.125L248.767 267.41L281.434 301.37L282.771 300.085L250.104 266.125Z" fill="#8D8D8D"/>
<path d="M250.226 266.29L248.637 267.246L275.446 311.765L277.036 310.809L250.226 266.29Z" fill="#8D8D8D"/>
<path d="M250.316 266.499L248.542 267.039L262.39 312.504L264.165 311.964L250.316 266.499Z" fill="#8D8D8D"/>
<path d="M249.833 267.361L247.978 267.398L248.807 308.838L250.663 308.801L249.833 267.361Z" fill="#8D8D8D"/>
<path d="M248.55 266.428L237.512 296.834L239.256 297.466L250.294 267.06L248.55 266.428Z" fill="#8D8D8D"/>
<path d="M248.954 265.958L226.706 279.396L227.665 280.983L249.914 267.545L248.954 265.958Z" fill="#8D8D8D"/>
<path d="M117.849 156.131V164.164C122 164.164 126.861 165.704 131.904 168.615C141.373 174.078 150.732 184.02 157.581 195.865C164.43 207.711 168.355 220.783 168.355 231.71C168.355 240.931 165.707 247.665 160.895 250.708C158.819 251.961 156.427 252.595 154.002 252.534C149.846 252.534 144.99 250.994 139.947 248.083C130.478 242.631 121.119 232.728 114.27 220.855C107.421 208.982 103.501 195.931 103.501 185.005C103.501 178.006 105.048 172.35 107.966 168.719C110.378 165.699 113.708 164.164 117.876 164.164V156.131H117.849ZM117.876 156.131C104.597 156.131 95.4801 166.711 95.4801 185.005C95.4801 210.797 113.598 242.163 135.95 255.06C142.447 258.812 148.585 260.561 154.03 260.561C157.958 260.614 161.819 259.547 165.162 257.486C172.11 253.084 176.376 244.204 176.376 231.688C176.376 205.895 158.253 174.529 135.901 161.633C129.404 157.886 123.266 156.131 117.826 156.131H117.876Z" fill="black"/>
<path d="M142.965 180.654L128.919 209.795L130.591 210.6L144.637 181.459L142.965 180.654Z" fill="#8D8D8D"/>
<path d="M106.365 166.386L104.744 167.289L128.939 210.677L130.56 209.775L106.365 166.386Z" fill="#8D8D8D"/>
<path d="M117.656 162.031L115.866 162.516L128.864 210.458L130.654 209.973L117.656 162.031Z" fill="#8D8D8D"/>
<path d="M129.404 166.825L128.835 210.215L130.69 210.239L131.259 166.85L129.404 166.825Z" fill="#8D8D8D"/>
<path d="M96.1736 173.579L94.8293 174.857L129.086 210.846L130.431 209.568L96.1736 173.579Z" fill="#8D8D8D"/>
<path d="M97.089 190.39L96.1653 191.998L129.296 211.006L130.219 209.398L97.089 190.39Z" fill="#8D8D8D"/>
<path d="M98.5269 206.34L98.3536 208.186L129.668 211.122L129.842 209.276L98.5269 206.34Z" fill="#8D8D8D"/>
<path d="M157.673 193.794L129.316 209.387L130.21 211.011L158.567 195.419L157.673 193.794Z" fill="#8D8D8D"/>
<path d="M129.853 209.281L129.638 211.123L161.787 214.863L162.002 213.021L129.853 209.281Z" fill="#8D8D8D"/>
<path d="M130.225 209.432L129.292 211.035L163.682 231.021L164.615 229.419L130.225 209.432Z" fill="#8D8D8D"/>
<path d="M130.424 209.569L129.087 210.854L161.754 244.814L163.091 243.529L130.424 209.569Z" fill="#8D8D8D"/>
<path d="M130.553 209.735L128.963 210.691L155.773 255.211L157.362 254.255L130.553 209.735Z" fill="#8D8D8D"/>
<path d="M130.64 209.946L128.865 210.486L143.723 259.267L145.498 258.728L130.64 209.946Z" fill="#8D8D8D"/>
<path d="M130.676 210.201L128.821 210.242L129.716 250.583L131.571 250.542L130.676 210.201Z" fill="#8D8D8D"/>
<path d="M128.878 209.879L117.84 240.285L119.584 240.917L130.622 210.511L128.878 209.879Z" fill="#8D8D8D"/>
<path d="M129.271 209.426L106.358 223.266L107.318 224.852L130.231 211.012L129.271 209.426Z" fill="#8D8D8D"/>
<path d="M111.682 157.984V166.017C115.834 166.017 120.695 167.558 125.738 170.468C135.207 175.931 144.561 185.873 151.409 197.719C158.258 209.564 162.189 222.637 162.189 233.563C162.189 240.562 160.647 246.217 157.724 249.849C155.313 252.869 151.982 254.404 147.814 254.404C143.647 254.404 138.802 252.864 133.759 249.953C124.29 244.495 114.936 234.548 108.087 222.708C101.239 210.868 97.3079 197.785 97.3079 186.858C97.3079 179.86 98.8494 174.204 101.773 170.573C104.184 167.552 107.515 166.017 111.682 166.017V157.984ZM111.682 157.984C98.4034 157.984 89.2865 168.564 89.2865 186.858C89.2865 212.651 107.405 244.017 129.757 256.913C136.253 260.665 142.392 262.415 147.831 262.415C161.11 262.415 170.227 251.84 170.227 233.541C170.227 207.749 152.109 176.383 129.757 163.486C123.26 159.739 117.122 157.984 111.682 157.984Z" fill="#2A2B2A"/>
<path d="M180.935 188.058L196.323 223.237L192.249 225.713L174.94 186.814L180.935 188.058Z" fill="#677DA8"/>
<path d="M142.688 204.643L194.676 224.95L195.898 230.826L136.087 206.26L142.688 204.643Z" fill="#505F85"/>
<path d="M239.925 159.981C239.825 159.338 239.599 158.721 239.26 158.165C238.921 157.609 238.476 157.126 237.951 156.742C237.425 156.358 236.829 156.081 236.196 155.928C235.563 155.774 234.906 155.746 234.263 155.846C233.619 155.947 233.002 156.172 232.446 156.511C231.889 156.849 231.406 157.294 231.021 157.819C230.637 158.345 230.36 158.941 230.207 159.573C230.053 160.206 230.025 160.862 230.125 161.505L233.803 184.86L174.202 178.808L168.377 157.351C167.986 156.139 167.142 155.125 166.022 154.518C164.901 153.911 163.59 153.759 162.361 154.094C161.131 154.428 160.078 155.223 159.419 156.313C158.761 157.403 158.548 158.705 158.825 159.948L164.611 181.317L129.377 205.624C128.637 206.136 128.051 206.84 127.681 207.66C127.311 208.48 127.171 209.385 127.277 210.278C127.383 211.171 127.73 212.018 128.281 212.729C128.833 213.439 129.567 213.987 130.406 214.312L187.844 236.501L187.976 236.55C188.119 236.605 188.268 236.655 188.411 236.699L188.796 236.792L188.984 236.82H189.099C189.185 236.825 189.272 236.825 189.358 236.82C189.49 236.828 189.622 236.828 189.754 236.82C189.897 236.828 190.041 236.828 190.184 236.82C190.285 236.814 190.386 236.803 190.487 236.787C190.682 236.758 190.875 236.716 191.065 236.66C191.13 236.644 191.194 236.624 191.257 236.6C191.35 236.58 191.441 236.551 191.527 236.512H191.593L191.802 236.418C191.802 236.418 191.835 236.418 191.841 236.418C191.947 236.374 192.05 236.322 192.149 236.264L192.281 236.193C192.512 236.056 192.731 235.902 192.936 235.731C192.95 235.715 192.967 235.702 192.986 235.692L236.11 199.589L244.175 189.042L248.634 185.95L239.925 159.981ZM142.689 208.458L168.013 190.984L180.924 223.236L142.689 208.458ZM191.808 223.77L177.951 189.141L227.18 194.153L191.808 223.77Z" fill="#222B5C"/>
<path d="M180.158 253.676L201.987 203.752" stroke="#2A2B2A" stroke-width="10.11" stroke-miterlimit="10"/>
<path d="M183.049 255.59L204.883 205.666" stroke="black" stroke-width="8.99" stroke-miterlimit="10"/>
<path d="M209.194 208.773L194.781 200.459V195.898L209.194 204.217V208.773Z" fill="black"/>
<path d="M188.015 265.839L169.968 255.424V249.719L188.015 260.128V265.839Z" fill="black"/>
<path d="M188.014 265.837L192.721 262.844V257.139L188.014 260.126V265.837Z" fill="#2A2B2A"/>
<path d="M209.194 208.773L212.954 206.385V201.824L209.194 204.218V208.773Z" fill="#2A2B2A"/>
<path d="M169.968 249.718L188.015 260.127L192.722 257.14L174.681 246.725L169.968 249.718Z" fill="#8D8D8D"/>
<path d="M194.781 195.9L209.194 204.218L212.954 201.825L198.547 193.512L194.781 195.9Z" fill="#8D8D8D"/>
<path d="M184.43 216.838L188.758 214.83C190.47 214.208 192.573 214.863 193.244 215.21C196.35 216.808 199.043 219.103 201.112 221.916C204.305 226.318 205.136 233.19 204.91 234.389C204.685 235.588 203.534 239.891 200.627 241.03C197.605 242.224 196.151 242.224 196.151 242.224" fill="#2A2B2A"/>
<path d="M198.425 241.571C202.354 239.304 202.354 231.954 198.426 225.154C194.497 218.354 188.128 214.68 184.199 216.946C180.27 219.213 180.27 226.563 184.199 233.363C188.127 240.163 194.496 243.837 198.425 241.571Z" fill="#8D8D8D"/>
<path d="M194.868 235.416C196.832 234.283 196.832 230.608 194.868 227.208C192.904 223.808 189.719 221.971 187.755 223.104C185.791 224.237 185.79 227.912 187.755 231.312C189.719 234.712 192.904 236.55 194.868 235.416Z" fill="#2A2B2A"/>
<path d="M183.881 162.854L183.622 166.799C183.49 167.63 182.675 168.224 180.743 168.45C175.815 168.961 169.391 163.58 161.518 161.407C155.611 159.757 142.761 159.944 142.508 155.174L142.761 151.322L144.699 151.741C144.859 151.586 145.051 151.421 145.249 151.245C152.544 144.753 162.525 143.334 162.525 143.334C165.581 142.673 167.64 143.147 170.905 144.819C174.169 146.492 179.097 158.783 181.189 161.831C181.591 162.409 181.992 162.986 182.356 163.547L183.881 162.854Z" fill="#222B5C"/>
<path d="M183.935 162.855L183.677 166.794C183.539 167.63 182.73 168.224 180.797 168.444C175.842 168.951 169.44 163.575 161.572 161.397C155.665 159.746 142.816 159.933 142.562 155.168L142.871 150.063L144.748 151.713C144.913 151.554 145.1 151.389 145.298 151.218C152.593 144.726 162.574 143.306 162.574 143.306C165.63 142.646 167.689 143.119 170.954 144.786C174.218 146.454 179.151 158.75 181.243 161.798C181.64 162.376 182.047 162.954 182.41 163.52L183.935 162.855Z" fill="#8D4E37"/>
<path d="M183.935 162.855L183.677 166.794C183.539 167.63 182.73 168.224 180.797 168.444C175.842 168.951 169.44 163.575 161.572 161.397C155.665 159.746 142.816 159.933 142.562 155.168L142.871 150.063L144.748 151.713C144.913 151.554 145.1 151.389 145.298 151.218C152.593 144.726 162.574 143.306 162.574 143.306C165.63 142.646 167.689 143.119 170.954 144.786C174.218 146.454 179.151 158.75 181.243 161.798C181.64 162.376 182.047 162.954 182.41 163.52L183.935 162.855Z" fill="#8D4E37"/>
<path d="M162.789 137.888C162.789 137.888 152.582 139.071 145.513 145.806C136.578 154.311 152.384 153.305 162.541 156.017C170.436 158.13 176.09 163.522 181.018 163.015C185.945 162.509 183.545 159.434 181.453 156.386C179.36 153.338 174.428 141.046 171.163 139.374C167.898 137.701 165.845 137.228 162.789 137.888Z" fill="#BA6348"/>
<path d="M157.047 128.488C157.047 128.488 151.459 136.037 150.671 140.323C149.884 144.609 150.671 153.131 155.5 158.561C162.844 166.814 179.789 175.304 196.322 189.141C196.322 189.141 174.851 239.631 175.666 241.095C176.481 242.558 187.056 257.419 191.94 245.282C191.94 245.282 215.118 193.416 215.129 188.701C215.14 183.985 209.117 177.295 206.1 172.591C203.083 167.887 190.795 150.325 190.795 150.325L180.577 136.444L157.047 128.488Z" fill="#2D4854"/>
<path d="M177.18 237.055C180.89 239.657 185.311 240.807 187.904 242.469C189.254 243.35 190.657 244.148 192.105 244.856C192.215 246.16 192.732 248.427 193.481 249.291C195.958 252.157 198.585 253.78 199.812 257.351C200.198 258.451 199.68 259.172 198.684 260.151C197.687 261.131 195.171 260.636 194.131 260.151C187.843 257.329 181.902 253.792 176.425 249.61C172.819 246.897 172.483 246.243 174.168 242.045C174.856 240.339 175.313 238.425 177.18 237.055Z" fill="#1C2E33"/>
<path d="M137.673 223.915C142.044 221.393 142.044 213.215 137.673 205.65C133.303 198.084 126.216 193.995 121.845 196.517C117.474 199.039 117.474 207.217 121.844 214.783C126.215 222.348 133.302 226.437 137.673 223.915Z" fill="#8D8D8D"/>
<path d="M257.846 143.185C257.846 143.251 257.846 143.317 257.846 143.378C257.158 150.75 243.961 157.903 243.961 157.903C220.244 167.559 205.203 162.855 200.133 161.661C197.749 161.11 196.681 159.773 196.83 158.431V153.529L202.665 154.827C208.793 154.277 215.757 159.179 220.282 159.553C224.164 159.867 227.99 157.996 231.189 156.621C234.387 155.245 252.869 143.306 247.826 139.362C244.484 136.754 239.485 135.323 239.122 132.605V131.637V126.383L241.77 128.881C246.62 126.889 251.41 131.186 256.794 139.395C256.794 139.395 256.822 139.433 256.822 139.45L257.791 136.633C257.791 136.633 257.972 141.337 257.846 143.185Z" fill="#828D95"/>
<path d="M257.846 143.185C257.846 143.251 257.846 143.317 257.846 143.378C257.158 150.75 243.961 157.903 243.961 157.903C222.05 168.874 205.203 162.855 200.133 161.661C197.749 161.11 196.681 159.774 196.83 158.431V153.529L202.665 154.827C208.793 154.277 215.757 159.179 220.282 159.553C224.164 159.867 227.99 157.996 231.189 156.621C234.387 155.245 252.869 143.306 247.826 139.362C244.484 136.754 239.485 135.323 239.122 132.605V131.637V126.383L241.77 128.881C246.62 126.889 251.41 131.186 256.794 139.395C256.794 139.395 256.822 139.433 256.822 139.45L257.791 136.633C257.791 136.633 257.972 141.337 257.846 143.185Z" fill="#829095"/>
<path d="M219.891 155.944C215.217 155.559 208.406 148.973 202.158 149.859C195.909 150.745 195.711 153.919 200.148 156.637C202.829 158.288 209.711 160.516 218.817 160.78C225.913 160.989 231.881 158.904 243.977 152.88C243.977 152.88 262.409 142.894 256.815 134.371C251.222 125.849 246.272 121.541 241.23 124.105C236.187 126.669 239.859 130.707 247.192 133.755C258.307 138.382 238.774 149.386 235.564 150.756C232.355 152.126 223.772 156.252 219.891 155.944Z" fill="#CCCDD1"/>
<path d="M213.973 75.5264C213.973 75.5264 206.21 75.0477 206.061 78.9485C205.913 82.8494 212.96 111.723 218.531 115.217C224.102 118.71 232.471 121.907 236.55 123.734C240.63 125.56 241.015 129.967 242.468 131.189C243.806 132.316 244.252 131.821 244.379 131.189C244.505 130.556 243.201 128.405 242.953 127.271C242.705 126.138 242.854 123.915 244.863 125.621C247.385 127.739 250.44 131.398 253.121 129.439C254.432 128.482 254.602 123.937 245.513 119.107C238.565 115.404 227.345 108.526 226.866 107.701C226.387 106.876 218.977 86.3485 218.184 83.8562C217.496 81.694 213.973 75.5264 213.973 75.5264Z" fill="#F9B392"/>
<path d="M207.234 72.773C204.575 73.4222 202.83 84.6735 212.079 106.565C212.178 106.796 212.36 106.981 212.59 107.083C212.82 107.185 213.08 107.197 213.317 107.116L224.961 103.132C225.151 103.073 225.313 102.946 225.414 102.776C225.516 102.605 225.551 102.403 225.512 102.208C224.477 97.4708 218.135 70.1321 207.234 72.773Z" fill="#D6495D"/>
<path d="M185.218 79.9584C183.187 79.5568 166.77 101.658 165.256 100.145C162.916 97.8174 160.637 95.6167 157.631 93.9551C154.41 92.178 153.777 87.4959 155.908 83.6556C157.036 81.6145 157.334 80.0849 156.161 78.0438C155.17 76.3217 154.856 74.0604 156.106 72.4869C158.44 69.5324 161.242 68.1349 162.971 66.2038C166.071 62.7486 165.504 58.4462 171.301 53.5165C173.718 51.4643 179.256 46.5787 179.619 46.3641C187.806 41.3299 188.648 37.3411 199.4 37.7427C204.768 38.2929 207.923 39.2722 210.78 41.5115C214.87 44.7246 212.432 44.4 214.441 49.2471C215.063 50.7546 216.093 52.2346 214.32 53.0984C213.497 52.7882 212.706 52.3994 211.958 51.9375C208.165 49.1866 208.066 51.8825 205.005 55.5027C204.221 56.566 203.362 57.5717 202.434 58.5122C200.463 60.2673 199.23 60.0197 197.87 57.7585C197.49 57.1257 197.253 56.416 196.879 55.7833C195.591 53.5825 194.236 52.9058 192.695 53.7421C190.817 54.7654 191.126 56.3555 191.775 57.9565C192.051 58.6387 192.43 59.2825 192.7 59.9647C193.68 62.4515 193.185 64.6138 191.076 66.2808C190.047 67.0951 188.874 67.7278 187.773 68.4485C187.294 68.5476 189.094 70.8749 189.182 71.6341C189.188 71.6341 186.523 80.217 185.218 79.9584Z" fill="#926752"/>
<path d="M168.668 80.4736C168.057 80.9412 162.612 82.7953 161.896 101.193C161.12 121.721 158.566 125.682 157.046 128.488C155.527 131.294 168.844 140.532 175.764 140.323C182.685 140.114 196.74 137.132 199.564 130.419C202.389 123.707 211.946 104.742 212.821 100.423C213.697 96.1043 217.611 85.9809 216.978 81.2658C216.345 76.5507 212.942 72.6279 211.34 72.5234C209.738 72.4189 184.105 71.9732 175.489 76.4517C173.115 77.6149 170.835 78.9595 168.668 80.4736Z" fill="#E34F58"/>
<path d="M187.244 73.5265C187.844 72.0433 188.595 70.6256 189.485 69.2956L201.877 68.8555C201.877 68.8555 204.867 73.0369 204.889 76.7506C204.889 77.8015 202.874 76.6186 202.406 77.3833C201.938 78.1481 198.783 82.1534 195.998 81.5262C193.03 80.8495 188.444 75.4742 187.365 74.1978C187.291 74.1048 187.241 73.9947 187.219 73.8775C187.198 73.7603 187.207 73.6397 187.244 73.5265Z" fill="#EAA58B"/>
<path d="M169.627 81.6309C169.627 81.6309 157.383 84.9705 164.066 110.328C170.75 135.687 194.781 150.327 194.781 150.327C194.781 150.327 205.571 162.948 211.435 157.996C217.298 153.045 210.141 147.769 201.987 144.555C193.834 141.342 179.173 120.743 178.634 110.185C178.094 99.6274 178.859 94.8298 177.455 90.5879C176.051 86.3459 174.983 81.0862 169.627 81.6309Z" fill="#F9B392"/>
<path d="M170.227 80.9774C167.507 81.0489 158.39 85.0818 162.519 107.936C162.584 108.293 162.774 108.615 163.056 108.843C163.338 109.071 163.693 109.191 164.055 109.18L177.885 108.707C178.253 108.696 178.603 108.55 178.87 108.298C179.137 108.045 179.302 107.703 179.333 107.337C179.817 101.785 180.891 80.6968 170.227 80.9774Z" fill="#EF5463"/>
<path d="M185.703 59.7819C183.958 61.4324 186.969 70.7856 193.664 76.8871C200.358 82.9887 207.075 82.3394 209.563 78.7577C210.736 77.0797 212.129 72.8268 213.252 68.0732C214.523 62.6979 215.454 56.6733 215.305 52.9981C215.046 46.0658 188.527 56.8494 188.527 56.8494C187.639 57.877 186.696 58.856 185.703 59.7819Z" fill="#F9B392"/>
<path d="M197.247 38.3084C197.247 38.3084 186.6 42.2257 184.166 50.1319C181.028 60.2993 187.723 69.2068 187.723 69.2068C187.723 69.2068 172.858 68.3595 176.597 67.4022C178.623 66.885 183.996 72.3538 185.218 72.4859C187.172 72.7169 190.833 61.2456 196.053 60.0902C198.992 59.4355 201.134 56.4975 204.349 56.503C207.564 56.5085 213.543 56.6185 214.931 53.8676C216.318 51.1167 217.364 45.0647 209.557 40.7237C201.751 36.3827 197.247 38.3084 197.247 38.3084Z" fill="#926752"/>
<path d="M163.67 79.084C163.67 79.084 165.525 101.603 171.14 101.053C176.756 100.503 174.961 91.8813 178.474 88.7562C181.986 85.6312 189.908 79.9092 189.793 75.5133C189.677 71.1173 196.052 57.8744 196.052 57.8744L179.619 55.1895L163.67 79.084Z" fill="#926752"/>
<path d="M253.854 272.379C253.854 272.346 253.805 272.269 253.749 272.17L246.642 276.23C245.745 274.668 244.077 271.752 244.17 230.565V229.261C244.17 192.866 243.372 190.093 243.372 190.093L236.512 161.093L239.892 159.789L246.091 177.5L248.211 183.552C248.42 184.344 248.64 185.202 248.855 186.187C250.567 193.823 252.362 207.094 252.362 229.239C252.362 229.552 252.362 229.998 252.362 230.565C252.274 265.094 253.469 271.295 253.854 272.379Z" fill="#505F85"/>
<path d="M248.205 183.564L246.085 177.512C246.992 179.454 247.702 181.481 248.205 183.564Z" fill="#505F85"/>
<path d="M237.525 212.686V220.718C241.681 220.718 246.537 222.259 251.58 225.164C261.049 230.627 270.408 240.569 277.257 252.414C284.106 264.26 288.037 277.338 288.037 288.264C288.037 297.48 285.383 304.22 280.577 307.262C278.5 308.52 276.106 309.158 273.679 309.1C269.528 309.1 264.666 307.565 259.623 304.654C250.154 299.191 240.795 289.249 233.946 277.404C227.097 265.558 223.172 252.486 223.172 241.559C223.172 234.561 224.714 228.905 227.631 225.274C230.048 222.253 233.374 220.718 237.541 220.718V212.686H237.525ZM237.541 212.686C224.262 212.686 215.145 223.26 215.145 241.559C215.145 267.352 233.269 298.718 255.621 311.614C262.117 315.361 268.283 317.116 273.695 317.116C277.642 317.178 281.524 316.109 284.882 314.035C291.824 309.633 296.091 300.754 296.091 288.242C296.091 262.444 277.973 231.084 255.621 218.187C249.125 214.435 242.986 212.686 237.541 212.686Z" fill="black"/>
<path d="M231.359 214.539V222.572C235.51 222.572 240.371 224.112 245.414 227.017C254.884 232.481 264.243 242.422 271.091 254.268C277.94 266.113 281.876 279.191 281.876 290.118C281.876 297.116 280.335 302.772 277.417 306.403C275 309.424 271.675 310.953 267.507 310.953C263.34 310.953 258.49 309.418 253.447 306.508C243.983 301.045 234.624 291.103 227.775 279.257C220.926 267.412 216.995 254.339 216.995 243.413C216.995 236.414 218.542 230.759 221.46 227.127C223.872 224.107 227.202 222.572 231.37 222.572V214.539H231.359ZM231.37 214.539C218.091 214.539 208.974 225.114 208.974 243.413C208.974 269.205 227.092 300.571 249.444 313.468C255.941 317.215 262.079 318.97 267.524 318.97C280.797 318.97 289.92 308.39 289.92 290.096C289.92 264.298 271.796 232.937 249.444 220.041C242.948 216.289 236.809 214.539 231.37 214.539Z" fill="#2A2B2A"/>
<path d="M245.607 268.45C241.136 258.338 238.318 246.927 236.985 233.563C235.884 222.422 236.033 211.93 236.149 204.271C236.149 203.589 236.16 202.923 236.182 202.274C236.286 194.808 234.794 190.027 234.783 189.983L242.739 187.402C242.821 187.644 244.676 193.454 244.55 202.395C244.55 203.044 244.55 203.715 244.517 204.398C244.275 220.127 243.889 243.895 253.248 265.072L245.607 268.45Z" fill="#222B5C"/>
<path d="M257.347 280.465C261.718 277.943 261.718 269.766 257.347 262.2C252.976 254.635 245.89 250.546 241.519 253.068C237.148 255.59 237.147 263.768 241.518 271.333C245.889 278.899 252.976 282.987 257.347 280.465Z" fill="#8D8D8D"/>
</svg>
