<svg width="403" height="356" viewBox="0 0 403 356" fill="none" xmlns="http://www.w3.org/2000/svg">
<g clip-path="url(#clip0)">
<path d="M403 173.017V290.899C403.003 291.914 402.738 292.911 402.232 293.791C401.725 294.67 400.995 295.4 400.115 295.908L297.758 354.915C296.878 355.42 295.881 355.686 294.866 355.685V231.986L402.216 170.137C402.726 171.011 402.996 172.005 403 173.017ZM393.636 200.476C393.636 198.754 392.45 198.053 390.958 198.911L307.931 246.749C307.14 247.266 306.481 247.96 306.004 248.774C305.528 249.589 305.247 250.503 305.183 251.444L304.751 291.15C304.751 292.871 305.936 293.573 307.429 292.715L390.456 244.877C391.246 244.359 391.906 243.666 392.382 242.851C392.859 242.037 393.14 241.123 393.203 240.181L393.636 200.476ZM383.344 294.28C388.75 291.15 393.172 283.518 393.172 277.288C393.172 271.059 388.781 268.523 383.344 271.654C377.906 274.784 373.509 282.416 373.509 288.645C373.509 294.875 377.937 297.398 383.344 294.28ZM363.688 302.475V297.41C363.688 295.689 362.433 294.981 360.972 295.845L336.9 309.706C336.111 310.223 335.455 310.916 334.983 311.732C334.512 312.547 334.238 313.462 334.185 314.402V319.467C334.185 321.188 335.408 321.896 336.9 321.032L360.959 307.171C361.751 306.656 362.41 305.963 362.884 305.148C363.358 304.332 363.633 303.417 363.688 302.475ZM314.541 333.923C319.947 330.792 324.369 323.161 324.369 316.931C324.369 310.702 319.979 308.166 314.541 311.297C309.103 314.427 304.707 322.059 304.707 328.288C304.707 334.517 309.135 337.04 314.541 333.923Z" fill="#285163"/>
<path d="M402.229 170.136L294.879 231.985L0.771484 62.5086C1.27901 61.6345 2.00794 60.909 2.88511 60.405L105.211 1.45431C106.089 0.950002 107.083 0.68457 108.096 0.68457C109.109 0.68457 110.103 0.950002 110.981 1.45431L400.115 168.026C400.994 168.531 401.723 169.259 402.229 170.136Z" fill="#222B5C"/>
<path d="M390.958 198.911C392.451 198.053 393.655 198.754 393.636 200.476L393.204 240.181C393.14 241.123 392.859 242.037 392.383 242.851C391.906 243.666 391.247 244.359 390.456 244.877L307.429 292.715C305.937 293.573 304.732 292.871 304.751 291.15L305.184 251.444C305.247 250.503 305.528 249.589 306.005 248.774C306.481 247.96 307.141 247.266 307.931 246.749L390.958 198.911Z" fill="#6BADC4"/>
<path d="M393.172 277.288C393.172 283.517 388.782 291.161 383.344 294.279C377.906 297.397 373.51 294.849 373.51 288.645C373.51 282.44 377.938 274.746 383.344 271.616C388.75 268.485 393.172 271.058 393.172 277.288Z" fill="#E28B79"/>
<path d="M363.694 297.41V302.475C363.64 303.416 363.366 304.331 362.893 305.146C362.42 305.962 361.762 306.655 360.972 307.17L336.913 321.032C335.42 321.896 334.197 321.188 334.197 319.466V314.402C334.251 313.461 334.524 312.547 334.996 311.731C335.468 310.916 336.124 310.222 336.913 309.706L360.978 295.845C362.471 294.981 363.694 295.688 363.694 297.41Z" fill="#5F9979"/>
<path d="M324.369 316.931C324.369 323.192 319.979 330.805 314.541 333.923C309.104 337.04 304.707 334.492 304.707 328.288C304.707 322.084 309.135 314.414 314.541 311.296C319.948 308.179 324.369 310.702 324.369 316.931Z" fill="#E28B79"/>
<path d="M52.0504 191.122C44.8629 190.615 39.1429 194.146 36.2641 200.914C36.1184 201.255 35.9376 201.58 35.7247 201.884C35.0018 202.919 33.9172 203.645 32.6843 203.921C31.4515 204.197 30.1599 204.002 29.064 203.374L2.88513 188.286C2.00452 187.779 1.27383 187.049 0.767148 186.17C0.260469 185.29 -0.00417128 184.292 6.44625e-05 183.278V65.42C-0.00476097 64.3986 0.261405 63.3942 0.771507 62.5088L294.879 231.986V355.684C293.866 355.684 292.872 355.419 291.994 354.914L273.806 344.44L285.032 350.908L285.616 273.945C285.587 273.358 285.423 272.786 285.136 272.273C284.848 271.76 284.446 271.321 283.96 270.99L261.531 257.905L260.973 331.719L256.332 334.392L252.788 332.345C252.063 331.922 251.438 331.348 250.957 330.662C250.475 329.976 250.148 329.194 249.997 328.369C246.862 311.634 235.089 293.71 221.147 285.715C218.153 283.925 214.866 282.677 211.438 282.027C210.635 281.883 209.825 281.789 209.011 281.746C201.886 281.351 196.241 284.951 193.431 291.763C193.295 292.092 193.125 292.407 192.923 292.702C192.227 293.702 191.18 294.404 189.99 294.671C188.799 294.937 187.552 294.749 186.495 294.142L98.9391 243.656L95.4958 241.671C94.771 241.251 94.1461 240.68 93.6642 239.996C93.1823 239.311 92.855 238.531 92.7048 237.708C89.5689 220.979 77.7903 203.068 63.8541 195.073C60.8063 193.253 57.4564 191.994 53.9634 191.354C53.3299 191.245 52.6915 191.168 52.0504 191.122ZM235.898 251.494V223.772C235.846 222.831 235.573 221.916 235.102 221.1C234.63 220.285 233.972 219.591 233.183 219.076L209.136 205.253C207.643 204.389 206.42 205.096 206.42 206.818V234.528C206.473 235.468 206.746 236.383 207.218 237.198C207.689 238.014 208.347 238.708 209.136 239.223L233.157 253.059C234.682 253.917 235.898 253.216 235.898 251.494ZM196.586 228.843V201.127C196.534 200.186 196.26 199.272 195.789 198.456C195.317 197.64 194.66 196.947 193.87 196.431L169.811 182.57C168.319 181.706 167.096 182.414 167.096 184.135V211.845C167.151 212.782 167.425 213.693 167.897 214.505C168.369 215.318 169.024 216.008 169.811 216.522L193.864 230.389C195.363 231.266 196.586 230.565 196.586 228.843ZM157.268 206.192V178.476C157.215 177.535 156.942 176.62 156.47 175.805C155.999 174.989 155.341 174.296 154.552 173.78L130.505 159.919C129.007 159.061 127.79 159.762 127.79 161.484V189.194C127.842 190.135 128.115 191.051 128.586 191.868C129.058 192.685 129.715 193.379 130.505 193.896L154.552 207.757C156.045 208.621 157.268 207.913 157.268 206.192ZM117.949 183.54V155.824C117.897 154.884 117.624 153.969 117.152 153.154C116.68 152.338 116.023 151.644 115.233 151.129L91.187 137.268C89.6943 136.41 88.4713 137.111 88.4713 138.833V166.549C88.5247 167.489 88.7983 168.404 89.2699 169.219C89.7415 170.034 90.3982 170.728 91.187 171.244L115.246 185.106C116.726 185.97 117.949 185.262 117.949 183.54ZM78.6307 160.896V133.173C78.5773 132.233 78.3037 131.319 77.8321 130.503C77.3605 129.688 76.7038 128.994 75.915 128.478L51.8999 114.617C50.4072 113.759 49.1842 114.46 49.1842 116.182V143.898C49.2376 144.838 49.5112 145.752 49.9828 146.568C50.4544 147.383 51.1111 148.077 51.8999 148.593L75.9463 162.461C77.4077 163.306 78.6307 162.617 78.6307 160.896ZM39.3185 138.263V110.522C39.2654 109.581 38.9913 108.666 38.5184 107.85C38.0456 107.035 37.3872 106.341 36.5965 105.827L12.5501 91.9716C11.0574 91.1076 9.83438 91.8151 9.83438 93.5368V121.247C9.88685 122.187 10.16 123.102 10.6317 123.917C11.1034 124.733 11.7606 125.427 12.5501 125.942L36.6028 139.81C38.1018 140.667 39.3185 139.966 39.3185 138.263Z" fill="#515F85"/>
<path d="M260.973 331.718L261.531 257.936L283.959 270.99C284.455 271.319 284.866 271.759 285.16 272.276C285.454 272.792 285.623 273.37 285.653 273.963L285.07 350.926L273.843 344.459L260.954 337.034L260.973 331.718Z" fill="#E35058"/>
<path d="M260.973 331.687L260.936 337.015L256.332 334.36L260.973 331.687Z" fill="#515F85"/>
<path d="M256.363 334.361L236.293 345.93C240.182 343.163 242.565 337.917 242.565 330.704C242.565 315.134 231.508 296.02 217.998 288.232C213.821 285.821 209.876 284.77 206.42 284.926L211.488 282.002C214.916 282.652 218.203 283.9 221.197 285.69C235.127 293.685 246.912 311.609 250.048 328.344C250.189 329.169 250.507 329.953 250.98 330.644C251.453 331.334 252.07 331.914 252.788 332.345L256.363 334.361Z" fill="black"/>
<path d="M236.294 345.93C231.784 349.148 225.242 349.061 217.986 344.866C204.476 337.078 193.419 317.945 193.419 302.394C193.419 297.579 194.479 293.629 196.342 290.73L206.414 284.926C209.87 284.77 213.815 285.822 217.992 288.232C231.502 296.02 242.559 315.153 242.559 330.704C242.528 337.917 240.151 343.163 236.294 345.93ZM228.962 322.872C228.962 315.917 224.026 307.377 217.986 303.896C211.946 300.415 207.01 303.27 207.01 310.226C207.01 317.181 211.952 325.721 217.986 329.196C224.019 332.67 228.93 329.84 228.93 322.872H228.962Z" fill="#2B2B2B"/>
<path d="M235.898 223.772V251.494C235.898 253.216 234.682 253.917 233.183 253.059L209.136 239.192C208.347 238.676 207.689 237.983 207.218 237.167C206.746 236.351 206.473 235.437 206.42 234.496V206.786C206.42 205.065 207.643 204.357 209.136 205.221L233.157 219.076C233.952 219.589 234.614 220.281 235.091 221.097C235.567 221.913 235.843 222.829 235.898 223.772Z" fill="#6BADC4"/>
<path d="M217.954 303.896C223.994 307.377 228.936 315.917 228.93 322.872C228.924 329.828 223.994 332.676 217.954 329.195C211.914 325.715 206.979 317.181 206.979 310.226C206.979 303.27 211.921 300.415 217.954 303.896Z" fill="#8E8E8E"/>
<path d="M211.45 282.002L206.383 284.926C204.529 284.987 202.713 285.458 201.064 286.304L209.023 281.721C209.837 281.764 210.648 281.858 211.45 282.002Z" fill="black"/>
<path d="M200.198 286.804C198.626 287.808 197.297 289.149 196.31 290.73L192.936 292.677C193.137 292.382 193.307 292.067 193.444 291.738C196.253 284.926 201.898 281.326 209.023 281.721L201.064 286.304C200.766 286.455 200.478 286.622 200.198 286.804Z" fill="#222C5C"/>
<path d="M206.383 284.926L196.31 290.73C197.298 289.149 198.626 287.808 200.199 286.804L201.064 286.304C202.713 285.458 204.53 284.987 206.383 284.926Z" fill="#2B2B2B"/>
<path d="M201.064 286.304L200.199 286.805C200.478 286.622 200.767 286.455 201.064 286.304Z" fill="black"/>
<path d="M196.586 201.127V228.843C196.586 230.565 195.363 231.266 193.87 230.408L169.811 216.522C169.022 216.007 168.365 215.313 167.893 214.497C167.421 213.682 167.148 212.767 167.096 211.827V184.136C167.096 182.414 168.319 181.706 169.811 182.57L193.864 196.432C194.655 196.946 195.313 197.64 195.786 198.455C196.259 199.271 196.533 200.186 196.586 201.127Z" fill="#6BADC4"/>
<path d="M157.267 178.476V206.192C157.267 207.914 156.044 208.621 154.552 207.757L130.505 193.896C129.715 193.379 129.058 192.685 128.586 191.868C128.114 191.051 127.842 190.136 127.79 189.194V161.484C127.79 159.763 129.006 159.062 130.505 159.919L154.552 173.78C155.341 174.296 155.998 174.99 156.47 175.805C156.942 176.621 157.215 177.536 157.267 178.476Z" fill="#6BADC4"/>
<path d="M117.949 155.825V183.541C117.949 185.262 116.726 185.97 115.233 185.106L91.1869 171.245C90.3981 170.728 89.7414 170.035 89.2698 169.219C88.7982 168.404 88.5246 167.489 88.4712 166.549V138.833C88.4712 137.111 89.6942 136.41 91.1869 137.268L115.246 151.129C116.033 151.646 116.688 152.34 117.157 153.156C117.627 153.971 117.898 154.885 117.949 155.825Z" fill="#6BADC4"/>
<path d="M98.9391 243.656L79.7534 254.712C83.1904 251.826 85.2601 246.817 85.2601 240.081C85.2601 224.51 74.2028 205.397 60.6869 197.608C56.3969 195.135 52.3515 194.09 48.833 194.315L54.001 191.341C57.4941 191.981 60.844 193.241 63.8918 195.06C77.8091 203.055 89.5626 220.967 92.7425 237.695C92.8927 238.518 93.22 239.299 93.7019 239.983C94.1837 240.667 94.8087 241.239 95.5335 241.658L98.9391 243.656Z" fill="black"/>
<path d="M79.7532 254.712C75.2374 258.518 68.3571 258.662 60.6866 254.242C47.1707 246.454 36.1196 227.321 36.1196 211.764C36.1196 206.818 37.236 202.798 39.1991 199.868L48.8327 194.315C52.3513 194.09 56.3966 195.135 60.6866 197.608C74.2025 205.396 85.2599 224.529 85.2599 240.081C85.2599 246.83 83.1901 251.838 79.7532 254.712ZM71.6624 232.249C71.6624 225.293 66.7264 216.753 60.6866 213.272C54.6468 209.791 49.7108 212.646 49.7108 219.602C49.7108 226.558 54.6531 235.097 60.6866 238.572C66.7202 242.047 71.6624 239.217 71.6624 232.261V232.249Z" fill="#2B2B2B"/>
<path d="M78.6306 133.173V160.896C78.6306 162.617 77.3762 163.318 75.9149 162.461L51.8998 148.593C51.1109 148.077 50.4543 147.383 49.9827 146.568C49.5111 145.752 49.2375 144.838 49.1841 143.898V116.182C49.1841 114.46 50.4071 113.759 51.8998 114.617L75.9462 128.478C76.7293 128.997 77.3798 129.693 77.8459 130.508C78.3119 131.323 78.5807 132.236 78.6306 133.173Z" fill="#6BADC4"/>
<path d="M60.6804 213.285C66.7202 216.766 71.6562 225.306 71.6562 232.262C71.6562 239.217 66.7202 242.066 60.6804 238.585C54.6406 235.104 49.7046 226.571 49.7046 219.615C49.7046 212.659 54.6531 209.811 60.6804 213.285Z" fill="#8E8E8E"/>
<path d="M54.0009 191.354L48.8329 194.328C47.5852 194.398 46.355 194.654 45.1826 195.086L52.0503 191.123C52.704 191.167 53.355 191.245 54.0009 191.354Z" fill="black"/>
<path d="M52.0503 191.122L45.1826 195.085C42.7181 195.991 40.6171 197.674 39.1992 199.881L35.7246 201.884C35.9375 201.58 36.1182 201.255 36.264 200.914C39.1428 194.146 44.8627 190.615 52.0503 191.122Z" fill="#222C5C"/>
<path d="M45.1826 195.086C46.355 194.654 47.5852 194.399 48.8328 194.328L39.1992 199.881C40.6171 197.675 42.7181 195.991 45.1826 195.086Z" fill="#2B2B2B"/>
<path d="M39.3186 110.522V138.263C39.3186 139.985 38.0956 140.686 36.6029 139.829L12.5502 125.942C11.7606 125.427 11.1035 124.733 10.6318 123.918C10.1601 123.102 9.88694 122.187 9.83447 121.247V93.537C9.83447 91.8153 11.0575 91.1078 12.5502 91.9718L36.5966 105.827C37.3873 106.342 38.0457 107.035 38.5185 107.85C38.9914 108.666 39.2654 109.581 39.3186 110.522Z" fill="#6BADC4"/>
<path d="M217.954 303.896C223.994 307.377 228.936 315.917 228.93 322.872C228.924 329.828 223.994 332.676 217.954 329.195C211.914 325.715 206.979 317.181 206.979 310.226C206.979 303.27 211.921 300.415 217.954 303.896Z" stroke="#231F20" stroke-width="0.5" stroke-linecap="round" stroke-linejoin="round"/>
<path d="M60.6804 213.285C66.7202 216.766 71.6562 225.306 71.6562 232.262C71.6562 239.217 66.7202 242.066 60.6804 238.585C54.6406 235.104 49.7046 226.571 49.7046 219.615C49.7046 212.659 54.6531 209.811 60.6804 213.285Z" stroke="#231F20" stroke-width="0.5" stroke-linecap="round" stroke-linejoin="round"/>
<path d="M201.064 286.304C202.713 285.458 204.529 284.987 206.382 284.926C209.838 284.77 213.783 285.822 217.96 288.232C231.47 296.02 242.527 315.153 242.527 330.704C242.527 337.917 240.15 343.163 236.255 345.93C231.746 349.148 225.204 349.061 217.948 344.866C204.438 337.078 193.381 317.945 193.381 302.394C193.381 297.579 194.441 293.629 196.304 290.73C197.291 289.149 198.62 287.808 200.192 286.805" stroke="#231F20" stroke-width="0.5" stroke-linecap="round" stroke-linejoin="round"/>
</g>
<defs>
<clipPath id="clip0">
<path d="M0 0.68457H403V355.685H0V0.68457Z" fill="white"/>
</clipPath>
</defs>
</svg>
