<svg width="373" height="324" viewBox="0 0 373 324" fill="none" xmlns="http://www.w3.org/2000/svg">
<g clip-path="url(#clip0)">
<path d="M373 157.285V264.873C373.003 265.799 372.758 266.71 372.289 267.512C371.82 268.315 371.144 268.981 370.33 269.444L275.592 323.299C274.778 323.76 273.855 324.002 272.916 324.002V211.105L372.274 154.656C372.747 155.454 372.997 156.361 373 157.285ZM364.333 182.346C364.333 180.775 363.236 180.135 361.854 180.918L285.008 224.578C284.276 225.051 283.666 225.683 283.225 226.427C282.784 227.17 282.524 228.005 282.465 228.864L282.065 265.102C282.065 266.673 283.162 267.313 284.543 266.53L361.39 222.87C362.121 222.397 362.732 221.765 363.173 221.021C363.614 220.278 363.874 219.443 363.933 218.584L364.333 182.346ZM354.807 267.959C359.811 265.102 363.903 258.136 363.903 252.451C363.903 246.766 359.84 244.451 354.807 247.308C349.774 250.165 345.705 257.131 345.705 262.816C345.705 268.502 349.803 270.804 354.807 267.959ZM336.614 275.438V270.816C336.614 269.244 335.453 268.599 334.101 269.387L311.821 282.038C311.091 282.509 310.483 283.142 310.047 283.887C309.61 284.631 309.357 285.466 309.308 286.324V290.946C309.308 292.518 310.439 293.163 311.821 292.375L334.089 279.724C334.822 279.254 335.432 278.622 335.871 277.877C336.309 277.133 336.564 276.298 336.614 275.438ZM291.126 304.14C296.13 301.283 300.223 294.317 300.223 288.632C300.223 282.947 296.159 280.632 291.126 283.489C286.093 286.346 282.024 293.312 282.024 298.997C282.024 304.683 286.122 306.985 291.126 304.14Z" fill="#285163"/>
<path d="M372.286 154.654L272.928 211.103L0.713867 56.4253C1.18361 55.6275 1.85828 54.9654 2.67015 54.5054L97.3787 0.702523C98.1909 0.242253 99.1117 0 100.049 0C100.986 0 101.907 0.242253 102.719 0.702523L370.33 152.729C371.143 153.189 371.818 153.854 372.286 154.654Z" fill="#222B5C"/>
<path d="M361.854 180.916C363.236 180.133 364.35 180.773 364.333 182.345L363.932 218.583C363.874 219.442 363.614 220.276 363.173 221.02C362.732 221.763 362.121 222.396 361.39 222.868L284.543 266.529C283.162 267.312 282.047 266.672 282.065 265.1L282.465 228.862C282.524 228.003 282.784 227.169 283.225 226.425C283.666 225.682 284.276 225.049 285.008 224.577L361.854 180.916Z" fill="#6BADC4"/>
<path d="M363.904 252.449C363.904 258.135 359.84 265.112 354.807 267.957C349.774 270.803 345.705 268.477 345.705 262.815C345.705 257.152 349.803 250.13 354.807 247.273C359.811 244.416 363.904 246.764 363.904 252.449Z" fill="#E28B79"/>
<path d="M336.62 270.816V275.438C336.571 276.297 336.317 277.132 335.879 277.877C335.442 278.621 334.832 279.254 334.101 279.724L311.833 292.375C310.451 293.163 309.319 292.518 309.319 290.946V286.324C309.369 285.466 309.622 284.631 310.058 283.887C310.495 283.142 311.103 282.509 311.833 282.038L334.107 269.387C335.488 268.599 336.62 269.245 336.62 270.816Z" fill="#5F9979"/>
<path d="M300.223 288.632C300.223 294.346 296.16 301.294 291.127 304.14C286.094 306.985 282.024 304.66 282.024 298.997C282.024 293.335 286.123 286.335 291.127 283.489C296.131 280.644 300.223 282.946 300.223 288.632Z" fill="#E28B79"/>
<path d="M48.1757 173.808C41.5232 173.345 36.229 176.568 33.5646 182.745C33.4297 183.056 33.2624 183.353 33.0653 183.63C32.3962 184.574 31.3923 185.238 30.2513 185.489C29.1102 185.741 27.9148 185.563 26.9004 184.99L2.67036 171.22C1.8553 170.757 1.179 170.091 0.710041 169.288C0.24108 168.485 -0.00386076 167.575 5.96638e-05 166.648V59.0828C-0.00440655 58.1506 0.241945 57.2339 0.714074 56.4258L272.928 211.103V324C271.991 324 271.07 323.758 270.258 323.297L253.423 313.738L263.814 319.64L264.354 249.398C264.328 248.863 264.175 248.341 263.91 247.873C263.644 247.405 263.271 247.004 262.821 246.701L242.063 234.759L241.546 302.127L237.25 304.567L233.97 302.698C233.299 302.313 232.721 301.789 232.275 301.163C231.829 300.537 231.526 299.823 231.387 299.07C228.485 283.797 217.589 267.437 204.684 260.141C201.913 258.507 198.871 257.368 195.698 256.775C194.955 256.644 194.205 256.558 193.452 256.518C186.857 256.158 181.633 259.444 179.032 265.66C178.906 265.961 178.748 266.248 178.562 266.517C177.917 267.43 176.948 268.071 175.847 268.314C174.745 268.558 173.591 268.385 172.612 267.832L91.5739 221.754L88.3869 219.943C87.7161 219.56 87.1377 219.038 86.6917 218.414C86.2457 217.789 85.9427 217.077 85.8037 216.326C82.9012 201.058 71.9994 184.71 59.1007 177.414C56.2798 175.753 53.1793 174.603 49.9463 174.02C49.36 173.921 48.7691 173.85 48.1757 173.808ZM218.338 228.908V203.607C218.289 202.748 218.037 201.913 217.6 201.169C217.164 200.424 216.555 199.791 215.824 199.321L193.568 186.705C192.186 185.916 191.054 186.562 191.054 188.133V213.423C191.103 214.281 191.355 215.116 191.792 215.861C192.229 216.605 192.837 217.238 193.568 217.709L215.801 230.337C217.211 231.119 218.338 230.479 218.338 228.908ZM181.952 208.235V182.939C181.903 182.081 181.651 181.246 181.214 180.501C180.777 179.757 180.169 179.124 179.438 178.654L157.17 166.003C155.789 165.214 154.657 165.86 154.657 167.431V192.721C154.708 193.577 154.962 194.408 155.399 195.149C155.835 195.891 156.442 196.521 157.17 196.99L179.433 209.646C180.82 210.446 181.952 209.806 181.952 208.235ZM145.56 187.562V162.266C145.512 161.408 145.259 160.573 144.822 159.828C144.386 159.084 143.778 158.451 143.047 157.98L120.79 145.33C119.403 144.547 118.277 145.187 118.277 146.758V172.048C118.325 172.907 118.578 173.743 119.014 174.489C119.451 175.234 120.059 175.868 120.79 176.339L143.047 188.99C144.428 189.779 145.56 189.133 145.56 187.562ZM109.169 166.888V141.593C109.12 140.734 108.867 139.899 108.431 139.155C107.994 138.411 107.386 137.778 106.655 137.307L84.3989 124.656C83.0173 123.874 81.8854 124.514 81.8854 126.085V151.381C81.9348 152.239 82.188 153.073 82.6245 153.818C83.061 154.562 83.6688 155.195 84.3989 155.666L106.667 168.317C108.037 169.106 109.169 168.46 109.169 166.888ZM72.7773 146.221V120.92C72.7278 120.061 72.4747 119.227 72.0381 118.483C71.6016 117.738 70.9939 117.105 70.2637 116.634L48.0364 103.983C46.6548 103.2 45.5228 103.84 45.5228 105.412V130.708C45.5723 131.566 45.8255 132.4 46.262 133.144C46.6985 133.889 47.3063 134.522 48.0364 134.993L70.2928 147.65C71.6453 148.421 72.7773 147.792 72.7773 146.221ZM36.3916 125.565V100.246C36.3424 99.3876 36.0887 98.5523 35.6511 97.8079C35.2134 97.0634 34.6041 96.4307 33.8722 95.9608L11.6159 83.3158C10.2343 82.5273 9.10229 83.1729 9.10229 84.7443V110.034C9.15086 110.893 9.40364 111.728 9.84025 112.472C10.2769 113.216 10.8851 113.849 11.6159 114.32L33.878 126.976C35.2654 127.759 36.3916 127.119 36.3916 125.565Z" fill="#515F85"/>
<path d="M241.546 302.128L242.062 234.789L262.821 246.703C263.28 247.003 263.66 247.405 263.933 247.876C264.205 248.348 264.361 248.875 264.388 249.417L263.849 319.659L253.458 313.756L241.528 306.979L241.546 302.128Z" fill="#E35058"/>
<path d="M241.546 302.098L241.511 306.96L237.25 304.537L241.546 302.098Z" fill="#515F85"/>
<path d="M237.279 304.54L218.703 315.099C222.302 312.574 224.508 307.785 224.508 301.203C224.508 286.992 214.274 269.548 201.77 262.439C197.904 260.239 194.252 259.279 191.054 259.422L195.744 256.754C198.917 257.347 201.959 258.486 204.73 260.119C217.623 267.416 228.531 283.775 231.433 299.049C231.564 299.801 231.858 300.517 232.296 301.148C232.734 301.778 233.305 302.307 233.97 302.7L237.279 304.54Z" fill="black"/>
<path d="M218.703 315.097C214.53 318.034 208.475 317.954 201.759 314.126C189.255 307.018 179.021 289.556 179.021 275.362C179.021 270.968 180.002 267.363 181.726 264.717L191.048 259.42C194.247 259.277 197.898 260.237 201.764 262.437C214.268 269.545 224.503 287.007 224.503 301.201C224.474 307.783 222.273 312.572 218.703 315.097ZM211.917 294.052C211.917 287.704 207.349 279.91 201.759 276.733C196.168 273.556 191.6 276.162 191.6 282.51C191.6 288.859 196.174 296.652 201.759 299.824C207.343 302.995 211.888 300.412 211.888 294.052H211.917Z" fill="#2B2B2B"/>
<path d="M218.337 203.607V228.908C218.337 230.48 217.211 231.12 215.824 230.337L193.567 217.68C192.837 217.21 192.228 216.577 191.792 215.833C191.355 215.088 191.102 214.253 191.054 213.395V188.105C191.054 186.534 192.186 185.888 193.567 186.676L215.8 199.321C216.536 199.789 217.149 200.421 217.59 201.166C218.03 201.91 218.287 202.747 218.337 203.607Z" fill="#6BADC4"/>
<path d="M201.729 276.734C207.319 279.911 211.894 287.705 211.888 294.053C211.882 300.401 207.319 303.001 201.729 299.824C196.139 296.647 191.57 288.859 191.57 282.511C191.57 276.162 196.145 273.557 201.729 276.734Z" fill="#8E8E8E"/>
<path d="M195.71 256.753L191.019 259.422C189.304 259.477 187.623 259.907 186.097 260.679L193.463 256.496C194.217 256.536 194.967 256.622 195.71 256.753Z" fill="black"/>
<path d="M185.295 261.135C183.84 262.051 182.61 263.275 181.696 264.718L178.573 266.495C178.759 266.226 178.917 265.939 179.043 265.638C181.644 259.421 186.869 256.136 193.463 256.495L186.097 260.678C185.821 260.816 185.554 260.969 185.295 261.135Z" fill="#222C5C"/>
<path d="M191.019 259.422L181.696 264.719C182.61 263.276 183.84 262.052 185.295 261.136L186.096 260.679C187.623 259.907 189.304 259.478 191.019 259.422Z" fill="#2B2B2B"/>
<path d="M186.097 260.676L185.296 261.133C185.554 260.966 185.822 260.814 186.097 260.676Z" fill="black"/>
<path d="M181.951 182.941V208.237C181.951 209.808 180.819 210.448 179.438 209.665L157.17 196.991C156.439 196.521 155.831 195.888 155.394 195.144C154.958 194.399 154.705 193.564 154.656 192.706V167.433C154.656 165.862 155.788 165.216 157.17 166.005L179.432 178.655C180.164 179.125 180.773 179.758 181.211 180.502C181.648 181.247 181.902 182.082 181.951 182.941Z" fill="#6BADC4"/>
<path d="M145.56 162.266V187.562C145.56 189.134 144.428 189.779 143.046 188.991L120.79 176.34C120.059 175.869 119.45 175.235 119.014 174.489C118.577 173.744 118.324 172.908 118.276 172.049V146.759C118.276 145.187 119.403 144.547 120.79 145.33L143.046 157.981C143.777 158.451 144.385 159.084 144.822 159.829C145.259 160.573 145.511 161.408 145.56 162.266Z" fill="#6BADC4"/>
<path d="M109.169 141.591V166.886C109.169 168.458 108.037 169.103 106.656 168.315L84.3993 155.664C83.6692 155.193 83.0614 154.56 82.6249 153.816C82.1884 153.071 81.9352 152.237 81.8857 151.379V126.083C81.8857 124.512 83.0177 123.872 84.3993 124.654L106.667 137.305C107.396 137.777 108.002 138.41 108.436 139.155C108.871 139.899 109.122 140.733 109.169 141.591Z" fill="#6BADC4"/>
<path d="M91.5734 221.754L73.8159 231.845C76.997 229.211 78.9127 224.639 78.9127 218.491C78.9127 204.281 68.6785 186.836 56.1687 179.728C52.1981 177.47 48.4539 176.516 45.1973 176.722L49.9806 174.008C53.2136 174.592 56.3141 175.741 59.1351 177.402C72.0163 184.699 82.8949 201.046 85.838 216.314C85.977 217.065 86.28 217.777 86.726 218.402C87.172 219.026 87.7504 219.548 88.4213 219.931L91.5734 221.754Z" fill="black"/>
<path d="M73.816 231.845C69.6364 235.32 63.2683 235.451 56.1688 231.417C43.6591 224.309 33.4307 206.847 33.4307 192.647C33.4307 188.133 34.464 184.465 36.2809 181.791L45.1974 176.723C48.454 176.517 52.1982 177.471 56.1688 179.728C68.6786 186.836 78.9128 204.298 78.9128 218.492C78.9128 224.652 76.9972 229.223 73.816 231.845ZM66.3276 211.344C66.3276 204.995 61.759 197.202 56.1688 194.025C50.5786 190.848 46.0101 193.453 46.0101 199.801C46.0101 206.15 50.5844 213.943 56.1688 217.115C61.7532 220.286 66.3276 217.703 66.3276 211.355V211.344Z" fill="#2B2B2B"/>
<path d="M72.7769 120.919V146.22C72.7769 147.792 71.6159 148.432 70.2634 147.649L48.036 134.992C47.3059 134.521 46.6982 133.888 46.2616 133.144C45.8251 132.399 45.5719 131.565 45.5225 130.707V105.411C45.5225 103.84 46.6544 103.2 48.036 103.983L70.2924 116.633C71.0171 117.108 71.6192 117.742 72.0506 118.486C72.482 119.23 72.7307 120.063 72.7769 120.919Z" fill="#6BADC4"/>
<path d="M56.1636 194.036C61.7538 197.213 66.3224 205.007 66.3224 211.355C66.3224 217.703 61.7538 220.303 56.1636 217.126C50.5734 213.949 46.0049 206.161 46.0049 199.813C46.0049 193.464 50.585 190.865 56.1636 194.036Z" fill="#8E8E8E"/>
<path d="M49.9812 174.02L45.1978 176.734C44.0431 176.798 42.9044 177.031 41.8193 177.426L48.1758 173.809C48.7808 173.849 49.3833 173.92 49.9812 174.02Z" fill="black"/>
<path d="M48.1758 173.809L41.8194 177.426C39.5383 178.253 37.5938 179.789 36.2814 181.803L33.0654 183.632C33.2625 183.354 33.4298 183.057 33.5647 182.746C36.2292 176.569 41.5233 173.347 48.1758 173.809Z" fill="#222C5C"/>
<path d="M41.8192 177.426C42.9043 177.032 44.043 176.799 45.1977 176.734L36.2812 181.803C37.5936 179.789 39.5382 178.252 41.8192 177.426Z" fill="#2B2B2B"/>
<path d="M36.3918 100.248V125.566C36.3918 127.138 35.2599 127.778 33.8783 126.995L11.6161 114.321C10.8853 113.851 10.2771 113.218 9.84049 112.473C9.40388 111.729 9.1511 110.894 9.10254 110.036V84.7455C9.10254 83.1742 10.2345 82.5285 11.6161 83.317L33.8725 95.9621C34.6043 96.432 35.2137 97.0647 35.6513 97.8091C36.089 98.5536 36.3426 99.3889 36.3918 100.248Z" fill="#6BADC4"/>
<path d="M201.729 276.734C207.319 279.911 211.894 287.705 211.888 294.053C211.882 300.401 207.319 303.001 201.729 299.824C196.139 296.647 191.57 288.859 191.57 282.511C191.57 276.162 196.145 273.557 201.729 276.734Z" stroke="#231F20" stroke-width="0.5" stroke-linecap="round" stroke-linejoin="round"/>
<path d="M56.1636 194.036C61.7538 197.213 66.3224 205.007 66.3224 211.355C66.3224 217.703 61.7538 220.303 56.1636 217.126C50.5734 213.949 46.0049 206.161 46.0049 199.813C46.0049 193.464 50.585 190.865 56.1636 194.036Z" stroke="#231F20" stroke-width="0.5" stroke-linecap="round" stroke-linejoin="round"/>
<path d="M186.096 260.677C187.623 259.905 189.304 259.476 191.019 259.42C194.218 259.277 197.869 260.237 201.735 262.437C214.239 269.545 224.473 287.007 224.473 301.201C224.473 307.783 222.273 312.572 218.668 315.097C214.495 318.034 208.44 317.954 201.724 314.126C189.22 307.018 178.985 289.556 178.985 275.362C178.985 270.968 179.966 267.363 181.69 264.717C182.604 263.274 183.834 262.05 185.29 261.134" stroke="#231F20" stroke-width="0.5" stroke-linecap="round" stroke-linejoin="round"/>
</g>
<defs>
<clipPath id="clip0">
<path d="M0 0H373V324H0V0Z" fill="white"/>
</clipPath>
</defs>
</svg>
