<svg width="460" height="408" viewBox="0 0 460 408" fill="none" xmlns="http://www.w3.org/2000/svg">
<path d="M426.724 201.536V320.707C426.727 321.733 426.46 322.741 425.949 323.63C425.437 324.519 424.7 325.258 423.811 325.77L320.505 385.441C319.617 385.952 318.611 386.22 317.586 386.22V261.15L425.951 198.625C426.46 199.511 426.726 200.515 426.724 201.536ZM417.271 229.296C417.271 227.555 416.075 226.847 414.568 227.714L330.762 276.074C329.964 276.597 329.298 277.298 328.817 278.122C328.336 278.946 328.052 279.869 327.989 280.821L327.552 320.96C327.552 322.701 328.748 323.41 330.255 322.543L414.061 274.182C414.859 273.659 415.525 272.958 416.006 272.134C416.487 271.311 416.771 270.387 416.834 269.435L417.271 229.296ZM406.888 324.125C412.346 320.96 416.809 313.245 416.809 306.948C416.809 300.65 412.346 298.087 406.888 301.251C401.431 304.416 396.967 312.106 396.967 318.403C396.967 324.701 401.431 327.277 406.888 324.125ZM387.046 332.41V327.289C387.046 325.549 385.78 324.834 384.305 325.707L360.005 339.72C359.209 340.242 358.546 340.943 358.07 341.767C357.594 342.592 357.318 343.516 357.264 344.467V349.587C357.264 351.327 358.53 352.043 360.005 351.169L384.305 337.157C385.101 336.635 385.764 335.934 386.241 335.109C386.717 334.285 386.993 333.36 387.046 332.41ZM337.454 364.201C342.911 361.036 347.375 353.321 347.375 347.024C347.375 340.726 342.943 338.163 337.454 341.327C331.965 344.492 327.526 352.207 327.526 358.505C327.526 364.802 331.977 367.353 337.454 364.201Z" fill="#285163"/>
<path d="M425.95 198.624L317.585 261.149L20.6963 89.8706C21.2086 88.9869 21.9444 88.2535 22.8299 87.744L126.149 28.0985C127.035 27.5886 128.039 27.3203 129.061 27.3203C130.083 27.3203 131.088 27.5886 131.974 28.0985L423.842 196.491C424.72 197.005 425.447 197.74 425.95 198.624Z" fill="#222B5C"/>
<path d="M414.573 227.714C416.08 226.847 417.296 227.556 417.277 229.296L416.84 269.435C416.776 270.387 416.493 271.311 416.011 272.134C415.53 272.958 414.865 273.659 414.067 274.182L330.254 322.543C328.748 323.41 327.532 322.701 327.551 320.961L327.988 280.821C328.052 279.87 328.335 278.946 328.816 278.122C329.298 277.299 329.963 276.598 330.761 276.075L414.573 227.714Z" fill="#6AACC3"/>
<path d="M416.809 306.963C416.809 313.261 412.345 320.989 406.888 324.14C401.43 327.292 396.96 324.716 396.96 318.444C396.96 312.172 401.43 304.419 406.888 301.267C412.345 298.115 416.809 300.634 416.809 306.963Z" fill="#E18A79"/>
<path d="M387.052 327.291V332.411C386.998 333.362 386.721 334.287 386.244 335.112C385.766 335.936 385.102 336.637 384.304 337.158L360.018 351.171C358.511 352.044 357.276 351.329 357.276 349.588V344.468C357.33 343.518 357.606 342.593 358.083 341.769C358.559 340.945 359.221 340.243 360.018 339.721L384.304 325.709C385.817 324.835 387.052 325.551 387.052 327.291Z" fill="#5F987A"/>
<path d="M347.355 347.024C347.355 353.353 342.923 361.049 337.434 364.201C331.945 367.353 327.506 364.777 327.506 358.505C327.506 352.233 331.976 344.48 337.434 341.328C342.891 338.176 347.355 340.726 347.355 347.024Z" fill="#E18A79"/>
<path d="M72.4602 219.841C65.211 219.329 59.4306 222.898 56.5246 229.746C56.3774 230.091 56.195 230.42 55.9801 230.727C55.2503 231.773 54.1554 232.507 52.9109 232.786C51.6665 233.065 50.3627 232.868 49.2563 232.234L22.8299 216.981C21.9409 216.468 21.2033 215.73 20.6919 214.841C20.1804 213.952 19.9133 212.943 19.9175 211.917V92.7655C19.9215 91.7501 20.1899 90.7533 20.6963 89.873L317.585 261.151V386.202C316.561 386.21 315.552 385.948 314.66 385.442L296.3 374.854L307.696 381.373L308.285 303.569C308.255 302.969 308.085 302.385 307.788 301.863C307.491 301.341 307.076 300.895 306.576 300.563L283.922 287.341L283.359 361.93L278.674 364.632L275.097 362.569C274.365 362.142 273.734 361.562 273.247 360.868C272.761 360.174 272.431 359.384 272.279 358.55C269.114 341.632 257.23 323.512 243.156 315.43C240.134 313.621 236.816 312.359 233.355 311.702C232.545 311.556 231.727 311.461 230.905 311.417C223.713 311.018 218.015 314.658 215.178 321.544C215.04 321.877 214.868 322.195 214.665 322.493C213.962 323.504 212.906 324.214 211.704 324.483C210.502 324.753 209.244 324.562 208.176 323.949L119.799 272.936L116.323 270.93C115.591 270.506 114.96 269.928 114.474 269.236C113.987 268.544 113.657 267.755 113.505 266.924C110.34 250.012 98.4498 231.905 84.3819 223.822C81.3052 221.983 77.9236 220.709 74.3975 220.063C73.7558 219.957 73.1092 219.883 72.4602 219.841ZM258.047 280.873V252.848C257.994 251.897 257.719 250.972 257.243 250.147C256.766 249.323 256.103 248.622 255.305 248.101L231.032 234.094C229.525 233.221 228.29 233.936 228.29 235.677V263.689C228.343 264.64 228.619 265.565 229.095 266.389C229.571 267.214 230.235 267.915 231.032 268.436L255.305 282.455C256.819 283.322 258.047 282.613 258.047 280.873ZM218.363 257.974V229.955C218.31 229.005 218.034 228.08 217.558 227.255C217.082 226.431 216.418 225.73 215.621 225.208L191.341 211.196C189.834 210.322 188.6 211.037 188.6 212.778V240.791C188.653 241.741 188.928 242.666 189.405 243.491C189.881 244.315 190.544 245.016 191.341 245.537L215.621 259.556C217.16 260.424 218.363 259.715 218.363 257.974ZM178.672 235.075V207.056C178.62 206.106 178.344 205.181 177.868 204.356C177.391 203.532 176.728 202.831 175.931 202.31L151.657 188.297C150.144 187.43 148.916 188.139 148.916 189.879V217.892C148.968 218.843 149.244 219.769 149.72 220.595C150.196 221.421 150.86 222.123 151.657 222.645L175.931 236.658C177.438 237.531 178.672 236.816 178.672 235.075ZM138.982 212.177V184.177C138.929 183.226 138.654 182.301 138.177 181.477C137.701 180.652 137.038 179.951 136.241 179.43L111.967 165.417C110.46 164.55 109.226 165.259 109.226 167V195C109.279 195.95 109.556 196.874 110.032 197.699C110.508 198.523 111.171 199.224 111.967 199.746L136.241 213.759C137.748 214.632 138.982 213.924 138.982 212.177ZM99.2918 189.284V161.259C99.2379 160.309 98.9618 159.384 98.4857 158.56C98.0096 157.735 97.3468 157.034 96.5504 156.512L72.2766 142.5C70.7698 141.632 69.5352 142.341 69.5352 144.082V172.101C69.5891 173.051 69.8652 173.976 70.3413 174.8C70.8174 175.624 71.4803 176.326 72.2766 176.848L96.5504 190.867C98.0573 191.734 99.2918 191.025 99.2918 189.284ZM59.6079 166.386V138.36C59.5542 137.409 59.2775 136.484 58.8002 135.659C58.3229 134.835 57.6583 134.134 56.8601 133.614L32.5863 119.62C31.0794 118.746 29.8449 119.462 29.8449 121.202V149.215C29.8978 150.165 30.1735 151.09 30.6497 151.915C31.1259 152.739 31.7892 153.44 32.5863 153.962L56.8664 167.981C58.3733 168.835 59.6079 168.126 59.6079 166.386Z" fill="#505F85"/>
<path d="M283.359 361.941L283.923 287.34L306.544 300.549C307.044 300.881 307.459 301.327 307.756 301.849C308.053 302.371 308.223 302.955 308.254 303.555L307.696 381.371L296.364 374.833L283.321 367.327L283.359 361.941Z" fill="#E35058"/>
<path d="M283.359 361.943L283.321 367.329L278.674 364.646L283.359 361.943Z" fill="#505F85"/>
<path d="M278.674 364.645L258.414 376.341C262.34 373.544 264.746 368.24 264.746 360.949C264.746 345.208 253.584 325.886 239.946 318.012C235.73 315.576 231.716 314.512 228.259 314.671L233.374 311.715C236.835 312.372 240.153 313.634 243.175 315.443C257.237 323.525 269.133 341.645 272.299 358.563C272.45 359.396 272.78 360.187 273.267 360.881C273.753 361.575 274.384 362.155 275.116 362.582L278.674 364.645Z" fill="black"/>
<path d="M258.414 376.34C253.862 379.594 247.259 379.505 239.934 375.265C226.296 367.391 215.134 348.049 215.134 332.328C215.134 327.461 216.204 323.467 218.085 320.537L228.253 314.67C231.741 314.511 235.723 315.575 239.94 318.011C253.577 325.885 264.739 345.227 264.739 360.948C264.739 368.239 262.34 373.543 258.414 376.34ZM251.013 353.03C251.013 345.999 246.031 337.366 239.934 333.847C233.837 330.328 228.854 333.214 228.854 340.246C228.854 347.277 233.843 355.91 239.934 359.423C246.024 362.935 251.013 360.062 251.013 353.03Z" fill="#2A2B2A"/>
<path d="M258.048 252.849V280.874C258.048 282.614 256.819 283.323 255.306 282.456L231.032 268.437C230.235 267.916 229.572 267.215 229.096 266.39C228.62 265.566 228.344 264.641 228.291 263.69V235.678C228.291 233.937 229.526 233.222 231.032 234.095L255.306 248.102C256.104 248.623 256.767 249.324 257.243 250.148C257.72 250.973 257.995 251.898 258.048 252.849Z" fill="#6AACC3"/>
<path d="M239.952 333.849C246.049 337.368 251.038 346.001 251.032 353.033C251.026 360.065 246.049 362.944 239.952 359.425C233.855 355.906 228.873 347.28 228.873 340.248C228.873 333.217 233.843 330.337 239.952 333.849Z" fill="#8D8D8D"/>
<path d="M233.368 311.713L228.252 314.668C226.382 314.73 224.548 315.206 222.883 316.061L230.918 311.428C231.739 311.472 232.558 311.567 233.368 311.713Z" fill="black"/>
<path d="M222.01 316.571C220.423 317.586 219.082 318.941 218.085 320.54L214.679 322.508C214.882 322.21 215.054 321.892 215.192 321.559C218.028 314.672 223.726 311.033 230.918 311.432L222.859 316.065C222.567 316.218 222.284 316.387 222.01 316.571Z" fill="#222C5C"/>
<path d="M228.252 314.67L218.084 320.537C219.081 318.939 220.422 317.583 222.01 316.569L222.884 316.062C224.548 315.207 226.382 314.732 228.252 314.67Z" fill="#2A2B2A"/>
<path d="M222.858 316.062L221.984 316.569C222.266 316.384 222.558 316.215 222.858 316.062Z" fill="black"/>
<path d="M218.364 229.956V257.975C218.364 259.716 217.129 260.425 215.622 259.558L191.342 245.57C190.545 245.049 189.882 244.348 189.405 243.524C188.929 242.699 188.654 241.774 188.601 240.824V212.779C188.601 211.039 189.835 210.324 191.342 211.197L215.622 225.21C216.419 225.731 217.083 226.432 217.559 227.256C218.035 228.081 218.311 229.006 218.364 229.956Z" fill="#6AACC3"/>
<path d="M178.673 207.058V235.077C178.673 236.817 177.439 237.532 175.932 236.659L151.658 222.646C150.86 222.124 150.197 221.422 149.721 220.596C149.244 219.771 148.969 218.845 148.917 217.893V189.874C148.917 188.134 150.145 187.425 151.658 188.292L175.932 202.305C176.73 202.826 177.393 203.528 177.87 204.354C178.346 205.18 178.621 206.106 178.673 207.058Z" fill="#6AACC3"/>
<path d="M138.983 184.178V212.197C138.983 213.937 137.716 214.652 136.241 213.779L111.967 199.747C111.171 199.225 110.508 198.524 110.032 197.7C109.556 196.875 109.28 195.951 109.226 195.001V166.982C109.226 165.241 110.461 164.532 111.967 165.399L136.241 179.412C137.041 179.935 137.706 180.639 138.182 181.467C138.658 182.295 138.933 183.224 138.983 184.178Z" fill="#6AACC3"/>
<path d="M119.811 272.95L100.425 284.139C103.895 281.222 105.984 276.158 105.984 269.348C105.984 253.608 94.8221 234.285 81.1784 226.412C76.8478 223.88 72.7642 222.855 69.2124 223.082L74.4293 220.076C77.9554 220.723 81.337 221.996 84.4136 223.836C98.4626 231.918 110.327 250.026 113.537 266.937C113.689 267.769 114.019 268.558 114.506 269.249C114.992 269.941 115.623 270.519 116.355 270.943L119.811 272.95Z" fill="black"/>
<path d="M100.426 284.138C95.8676 287.986 88.9223 288.132 81.1792 283.663C67.5355 275.79 56.3799 256.448 56.3799 240.72C56.3799 235.72 57.5068 231.657 59.4885 228.695L69.2132 223.081C72.765 222.853 76.8487 223.91 81.1792 226.41C94.823 234.283 105.985 253.625 105.985 269.347C105.985 276.157 103.896 281.22 100.426 284.138ZM92.2588 261.429C92.2588 254.397 87.2762 245.764 81.1792 242.246C75.0823 238.727 70.0996 241.613 70.0996 248.644C70.0996 255.676 75.0886 264.309 81.1792 267.821C87.2698 271.334 92.2588 268.461 92.2588 261.429Z" fill="#2A2B2A"/>
<path d="M99.2923 161.26V189.286C99.2923 191.026 98.0261 191.735 96.5509 190.868L72.2771 176.849C71.4807 176.327 70.8179 175.626 70.3418 174.801C69.8657 173.977 69.5896 173.053 69.5356 172.102V144.083C69.5356 142.343 70.8019 141.634 72.2771 142.501L96.5509 156.514C97.3472 157.035 98.0101 157.737 98.4862 158.561C98.9622 159.386 99.2384 160.31 99.2923 161.26Z" fill="#6AACC3"/>
<path d="M81.1792 242.246C87.2762 245.765 92.2588 254.398 92.2588 261.429C92.2588 268.461 87.2762 271.341 81.1792 267.822C75.0823 264.303 70.0996 255.676 70.0996 248.645C70.0996 241.613 75.0886 238.733 81.1792 242.246Z" fill="#8D8D8D"/>
<path d="M74.4295 220.074L69.2126 223.08C67.9532 223.152 66.7113 223.41 65.5278 223.846L72.4922 219.84C73.1414 219.886 73.788 219.964 74.4295 220.074Z" fill="black"/>
<path d="M72.4612 219.843L65.4968 223.85C63.03 224.776 60.9305 226.477 59.5138 228.698L56.0063 230.723C56.2212 230.416 56.4037 230.087 56.5508 229.742C59.4315 222.9 65.2119 219.331 72.4612 219.843Z" fill="#222C5C"/>
<path d="M65.5278 223.846C66.7113 223.409 67.9531 223.151 69.2126 223.08L59.5132 228.694C60.938 226.468 63.0493 224.766 65.5278 223.846Z" fill="#2A2B2A"/>
<path d="M59.6087 138.362V166.388C59.6087 168.128 58.3425 168.837 56.8673 167.97L32.5871 153.951C31.7901 153.43 31.1267 152.729 30.6505 151.904C30.1744 151.08 29.8987 150.155 29.8457 149.204V121.191C29.8457 119.451 31.1119 118.736 32.5871 119.609L56.861 133.615C57.6592 134.136 58.3237 134.837 58.8011 135.661C59.2784 136.486 59.555 137.411 59.6087 138.362Z" fill="#6AACC3"/>
<path d="M244.859 361.088C243.084 361.025 241.357 360.497 239.851 359.556C233.703 356.012 228.695 347.347 228.695 340.246C228.695 336.784 229.879 334.195 232.026 332.955C234.172 331.714 237.015 331.98 240.009 333.708C246.169 337.265 251.177 345.93 251.171 353.031C251.171 356.486 249.987 359.075 247.835 360.316C246.929 360.832 245.902 361.099 244.859 361.088ZM235.014 332.499C234.023 332.486 233.046 332.737 232.184 333.227C230.139 334.411 229.018 336.898 229.018 340.246C229.018 347.246 233.95 355.784 240.015 359.284C242.915 360.955 245.638 361.227 247.683 360.043C249.728 358.86 250.848 356.373 250.848 353.031C250.848 346.031 245.916 337.486 239.845 333.98C238.39 333.076 236.725 332.566 235.014 332.499Z" fill="#231F20"/>
<path d="M86.104 269.487C84.3292 269.424 82.6022 268.896 81.096 267.955C74.9484 264.411 69.9404 255.747 69.9404 248.645C69.9404 245.183 71.1244 242.595 73.2706 241.348C75.4169 240.101 78.2596 240.379 81.2543 242.107C87.4082 245.658 92.4162 254.322 92.4162 261.43C92.4162 264.886 91.2323 267.474 89.0797 268.715C88.1739 269.232 87.1469 269.498 86.104 269.487ZM76.259 240.898C75.2677 240.885 74.2908 241.137 73.4289 241.626C71.3839 242.81 70.2633 245.297 70.2633 248.645C70.2633 255.645 75.1953 264.183 81.2606 267.683C84.1603 269.354 86.8828 269.626 88.9277 268.443C90.9727 267.259 92.0933 264.772 92.0933 261.43C92.0933 254.424 87.155 245.879 81.0897 242.379C79.6351 241.475 77.9704 240.965 76.259 240.898Z" fill="#231F20"/>
<path d="M250.963 378.771C247.538 378.771 243.739 377.645 239.851 375.398C226.138 367.48 214.976 348.183 214.976 332.36C214.976 327.632 216.002 323.499 217.952 320.48C218.96 318.86 220.319 317.487 221.928 316.461C221.964 316.442 222.005 316.436 222.045 316.445C222.085 316.454 222.12 316.478 222.143 316.512C222.165 316.548 222.172 316.592 222.162 316.633C222.153 316.674 222.128 316.71 222.092 316.733C220.524 317.734 219.2 319.072 218.218 320.651C216.318 323.645 215.293 327.695 215.293 332.36C215.293 348.088 226.379 367.29 239.984 375.157C246.949 379.183 253.634 379.588 258.294 376.24C262.334 373.366 264.556 367.942 264.556 360.98C264.556 345.246 253.464 326.05 239.864 318.176C235.831 315.847 231.817 314.702 228.265 314.86C226.416 314.916 224.604 315.385 222.96 316.233C222.941 316.243 222.921 316.249 222.9 316.25C222.879 316.252 222.858 316.25 222.838 316.243C222.818 316.237 222.799 316.226 222.783 316.213C222.767 316.199 222.754 316.183 222.744 316.164C222.735 316.145 222.729 316.125 222.727 316.104C222.726 316.083 222.728 316.062 222.735 316.042C222.741 316.022 222.752 316.003 222.765 315.987C222.779 315.971 222.795 315.958 222.814 315.949C224.502 315.087 226.359 314.607 228.253 314.544C231.868 314.385 235.932 315.544 240.022 317.904C253.742 325.822 264.904 345.119 264.904 360.98C264.904 368.05 262.631 373.563 258.509 376.499C256.297 378.035 253.655 378.831 250.963 378.771Z" fill="#231F20"/>
</svg>
