<svg width="300" height="249" viewBox="0 0 300 249" fill="none" xmlns="http://www.w3.org/2000/svg">
<g clip-path="url(#clip0)">
<path d="M262.735 128.842C261.055 129.448 259.435 130.205 257.892 131.102C244.073 139.042 232.641 157.988 231.536 174.161C231.503 174.654 231.395 175.138 231.216 175.598C230.832 176.616 230.108 177.47 229.165 178.018L195.292 198.09C194.919 198.307 194.497 198.426 194.065 198.435C193.633 198.444 193.206 198.342 192.824 198.14C192.443 197.938 192.12 197.642 191.886 197.28C191.652 196.918 191.514 196.503 191.487 196.073C191.451 195.309 191.36 194.548 191.217 193.796C189.015 183.303 180.84 178.673 170.564 182.227C168.756 182.857 167.013 183.659 165.359 184.622C151.86 192.393 140.589 210.667 139.087 226.631C139.013 227.414 138.796 228.177 138.446 228.882C137.866 230.064 136.943 231.045 135.797 231.697L108.394 247.366C107.618 247.818 106.756 248.105 105.863 248.207V207.819C105.906 206.554 106.275 205.322 106.935 204.24C107.548 203.128 108.437 202.191 109.516 201.518L141.863 182.916C142.971 182.229 143.97 181.379 144.824 180.396C145.789 179.374 146.589 178.209 147.195 176.942L170.294 123.86C170.871 122.631 171.634 121.498 172.555 120.499C173.443 119.481 174.478 118.6 175.626 117.886L225.512 89.2109L238.581 96.8986L228.457 102.687C227.395 103.379 226.511 104.31 225.876 105.405C225.242 106.499 224.874 107.727 224.804 108.989V130.976C224.804 133.287 226.449 134.236 228.457 133.077L264.667 112.274L297.908 131.825C298.543 132.189 299.067 132.718 299.426 133.354L299.966 135.186C300.019 135.965 299.85 136.744 299.478 137.432C299.107 138.12 298.548 138.69 297.865 139.076L287.784 144.419C287.351 144.649 286.861 144.75 286.373 144.708C285.885 144.666 285.42 144.484 285.033 144.184C284.77 143.982 284.552 143.729 284.391 143.44C284.23 143.151 284.13 142.832 284.097 142.504C282.671 130.329 273.914 124.818 262.735 128.842ZM211.617 138.622V116.609C211.617 114.299 209.93 113.358 207.956 114.509L188.83 125.515C186.557 126.975 184.79 129.096 183.768 131.59L173.357 161.651C172.597 163.836 173.618 164.676 175.626 163.525L207.947 144.923C209.012 144.233 209.9 143.303 210.537 142.209C211.175 141.114 211.545 139.885 211.617 138.622Z" fill="#E26856"/>
<path d="M278.9 63.2484L299.452 133.387C299.093 132.75 298.569 132.222 297.933 131.857L264.693 112.307L274.066 106.921C275.068 106.297 275.838 105.364 276.259 104.265C276.681 103.166 276.732 101.96 276.403 100.83L270.607 83.2615C270.471 82.763 270.219 82.3035 269.872 81.9204C269.524 81.5374 269.09 81.2416 268.605 81.0573C268.121 80.873 267.6 80.8054 267.084 80.8599C266.568 80.9145 266.073 81.0896 265.638 81.3711L238.565 96.9312L225.496 89.2436L274.066 61.316C274.784 60.8823 275.635 60.7212 276.462 60.8623C277.053 60.9914 277.595 61.2838 278.026 61.7058C278.457 62.1279 278.76 62.6626 278.9 63.2484Z" fill="#E26856"/>
<path d="M285.059 144.219L278.942 140.698C278.43 139.371 277.648 138.163 276.644 137.151C275.641 136.139 274.439 135.344 273.112 134.817L262.735 128.852C273.914 124.819 282.671 130.339 284.122 142.58C284.161 142.902 284.264 143.212 284.424 143.494C284.585 143.775 284.801 144.021 285.059 144.219Z" fill="#A43B5C"/>
<path d="M273.112 134.808C274.438 135.335 275.641 136.13 276.644 137.142C277.647 138.154 278.43 139.362 278.942 140.689C279.899 143.073 280.363 145.625 280.309 148.192C280.309 160.727 271.383 176.12 260.474 182.387C254.889 185.597 249.827 185.824 246.208 183.597C242.757 181.471 240.631 177.111 240.631 170.994C240.631 158.459 249.557 143.067 260.474 136.799C265.266 134.06 269.678 133.489 273.112 134.808ZM260.457 167.987C264.464 165.676 267.746 160.022 267.746 155.384C267.746 150.746 264.464 148.889 260.457 151.183C256.45 153.477 253.159 159.156 253.159 163.786C253.159 168.415 256.458 170.289 260.474 167.987H260.457Z" fill="#2B2B2B"/>
<path d="M276.513 60.635L276.462 60.8618C275.635 60.7206 274.784 60.8817 274.066 61.3155L225.496 89.2431L202.422 75.6658C201.289 74.9975 199.982 74.6815 198.667 74.7584V74.4223L173.054 2.37692C172.799 1.60779 172.287 0.949217 171.603 0.511719L276.513 60.635Z" fill="#E35058"/>
<path d="M276.403 100.828C276.731 101.958 276.681 103.164 276.259 104.263C275.838 105.363 275.068 106.295 274.066 106.919L264.693 112.305L238.539 96.9295L265.612 81.3693C266.047 81.0878 266.543 80.9127 267.058 80.8582C267.574 80.8036 268.095 80.8713 268.58 81.0556C269.064 81.2399 269.498 81.5356 269.846 81.9187C270.194 82.3017 270.446 82.7612 270.582 83.2597L276.403 100.828Z" fill="#6BAEC5"/>
<path d="M262.736 128.84L273.113 134.805C269.679 133.486 265.267 134.041 260.458 136.796C249.541 143.064 240.615 158.456 240.615 170.992C240.615 177.117 242.741 181.477 246.191 183.594L246.048 183.838L231.959 175.739L231.199 175.587C231.378 175.127 231.486 174.643 231.52 174.151C232.625 157.944 244.057 139.031 257.876 131.092C259.424 130.196 261.051 129.442 262.736 128.84Z" fill="black"/>
<path d="M267.764 155.4C267.764 160.021 264.482 165.675 260.475 168.003C256.467 170.33 253.177 168.423 253.177 163.802C253.177 159.181 256.459 153.526 260.475 151.199C264.49 148.872 267.764 150.787 267.764 155.4Z" fill="#8E8E8E"/>
<path d="M238.564 96.9297L264.718 112.305L228.508 133.108C226.5 134.267 224.854 133.318 224.854 131.007V109.02C224.925 107.758 225.292 106.53 225.927 105.436C226.562 104.341 227.445 103.41 228.508 102.719L238.564 96.9297Z" fill="#6BAEC5"/>
<path d="M202.422 75.6657L225.496 89.243L175.61 117.918C174.453 118.63 173.409 119.511 172.514 120.531L171.932 120.019L145.019 104.593L195.731 75.6153C196.627 75.1092 197.63 74.8213 198.659 74.7751C199.974 74.6915 201.285 75.0016 202.422 75.6657Z" fill="#E35058"/>
<path d="M211.6 116.607V138.62C211.529 139.882 211.162 141.11 210.527 142.204C209.893 143.299 209.009 144.229 207.947 144.921L175.575 163.523C173.567 164.674 172.547 163.834 173.306 161.649L183.759 131.588C184.781 129.094 186.548 126.974 188.821 125.513L207.947 114.507C209.955 113.356 211.6 114.297 211.6 116.607Z" fill="#6BAEC5"/>
<path d="M198.667 74.4054V74.7415C197.638 74.7877 196.635 75.0756 195.739 75.5817L145.027 104.559L66.5654 59.5762C67.421 58.5939 68.4191 57.7443 69.5267 57.0557L167.991 0.520014C168.482 0.214698 169.043 0.0376956 169.621 0.00538644C170.199 -0.0269227 170.776 0.0865056 171.298 0.335174L171.602 0.511612C172.286 0.94911 172.799 1.60768 173.053 2.37681L198.667 74.4054Z" fill="#E35058"/>
<path d="M192.652 198.064L186.578 194.578C185.689 192.055 183.883 189.957 181.516 188.696L181.6 188.528L170.548 182.177C180.824 178.656 188.999 183.252 191.201 193.746C191.344 194.498 191.434 195.259 191.471 196.023C191.486 196.433 191.601 196.834 191.807 197.19C192.013 197.545 192.303 197.846 192.652 198.064Z" fill="#A43B5C"/>
<path d="M186.552 194.62C187.388 196.893 187.794 199.3 187.75 201.72C187.75 214.255 178.824 229.647 167.916 235.915C162.567 238.99 157.69 239.326 154.113 237.377L153.632 237.1C150.199 234.974 148.081 230.622 148.081 224.497C148.081 211.961 157.007 196.569 167.916 190.302C173.172 187.277 177.964 186.899 181.516 188.73C183.875 189.998 185.672 192.099 186.552 194.62ZM167.916 221.506C171.932 219.195 175.213 213.533 175.213 208.903C175.213 204.274 171.932 202.409 167.916 204.702C163.9 206.996 160.618 212.676 160.618 217.305C160.618 221.934 163.908 223.808 167.916 221.506Z" fill="#2B2B2B"/>
<path d="M181.6 188.58L181.515 188.748C177.964 186.916 173.172 187.294 167.915 190.319C157.007 196.587 148.081 211.979 148.081 224.514C148.081 230.622 150.198 234.975 153.632 237.117L139.61 229.051L138.396 228.917C138.746 228.212 138.963 227.448 139.037 226.665C140.538 210.702 151.776 192.394 165.309 184.656C166.963 183.694 168.706 182.892 170.514 182.262L181.6 188.58Z" fill="black"/>
<path d="M175.213 208.919C175.213 213.532 171.931 219.195 167.915 221.522C163.899 223.849 160.617 221.942 160.617 217.321C160.617 212.7 163.908 207.046 167.915 204.719C171.922 202.391 175.213 204.307 175.213 208.919Z" fill="#8E8E8E"/>
<path d="M171.957 120.019L172.539 120.532C171.617 121.531 170.855 122.664 170.278 123.893L147.203 176.958C146.598 178.225 145.798 179.39 144.833 180.412L78.6807 142.511L85.835 138.428L136.759 167.725C137.215 168.001 137.726 168.176 138.257 168.236C138.788 168.296 139.325 168.241 139.832 168.074C140.339 167.907 140.804 167.632 141.194 167.269C141.584 166.905 141.89 166.462 142.091 165.969L159.555 125.875C159.991 124.812 160.032 123.629 159.67 122.539C159.308 121.448 158.567 120.522 157.581 119.927L137.923 108.643L145.01 104.594L171.957 120.019Z" fill="#A43B5C"/>
<path d="M157.581 119.928C158.567 120.523 159.308 121.449 159.67 122.54C160.032 123.63 159.991 124.813 159.555 125.877L142.091 165.987C141.89 166.48 141.584 166.923 141.194 167.287C140.804 167.65 140.339 167.925 139.832 168.092C139.325 168.259 138.788 168.314 138.257 168.254C137.726 168.194 137.215 168.019 136.759 167.743L85.835 138.429L137.923 108.645L157.581 119.928Z" fill="#6BAEC5"/>
<path d="M145.043 104.593L137.956 108.642L72.5721 71.0442C72.1167 70.7661 71.6059 70.5902 71.0753 70.5286C70.5447 70.467 70.0069 70.5212 69.4995 70.6876C68.9921 70.8539 68.5271 71.1283 68.1369 71.4917C67.7467 71.855 67.4407 72.2987 67.2401 72.7918L49.81 112.877C49.3751 113.941 49.335 115.125 49.6967 116.217C50.0584 117.308 50.7984 118.236 51.7841 118.834L85.8346 138.427L78.6803 142.51L39.4244 120.01L38.4795 119.892C39.5566 118.8 40.4433 117.536 41.1033 116.153L64.2114 63.0709C64.8137 61.802 65.6107 60.6342 66.5736 59.6094L145.043 104.593Z" fill="#A43B5C"/>
<path d="M78.681 142.512L144.808 180.412C143.953 181.396 142.955 182.246 141.846 182.933L109.5 201.534C108.421 202.208 107.532 203.145 106.919 204.257L105.847 203.635L38.8936 165.247L78.681 142.512Z" fill="#E35058"/>
<path d="M137.923 108.642L85.8349 138.427L51.7844 118.834C50.7987 118.236 50.0587 117.308 49.697 116.217C49.3353 115.125 49.3754 113.941 49.8103 112.877L67.2404 72.7917C67.441 72.2987 67.747 71.855 68.1372 71.4916C68.5274 71.1282 68.9924 70.8538 69.4998 70.6875C70.0072 70.5212 70.545 70.4669 71.0756 70.5285C71.6062 70.5901 72.117 70.7661 72.5724 71.0442L137.923 108.642Z" fill="#6BAEC5"/>
<path d="M2.2608 186.865C2.53334 186.218 3.03041 185.69 3.66129 185.378L8.16648 182.79C9.30541 185.126 11.076 187.098 13.2791 188.487C16.9575 190.595 19.961 188.865 19.9694 184.639C19.8626 182.055 19.0391 179.551 17.5903 177.405L38.8929 165.23L105.863 203.618L106.935 204.24C106.275 205.322 105.906 206.554 105.863 207.819V248.198C104.441 248.369 103.002 248.074 101.763 247.358L3.62754 189.604C2.36204 188.856 1.90646 187.831 2.2608 186.865ZM99.2826 230.269C99.2826 226.068 96.2707 220.85 92.5923 218.733C88.914 216.616 85.9021 218.347 85.9021 222.573C85.9021 226.799 88.914 231.991 92.5923 234.108C96.2707 236.226 99.308 234.495 99.308 230.269H99.2826Z" fill="#A43B5C"/>
<path d="M92.618 218.734C96.2964 220.851 99.3083 226.035 99.3083 230.269C99.3083 234.504 96.2964 236.226 92.618 234.109C88.9396 231.992 85.9277 226.808 85.9277 222.573C85.9277 218.339 88.9396 216.617 92.618 218.734Z" fill="#5F9979"/>
<path d="M78.6802 142.512L38.8928 165.247L0.927734 143.47C1.50747 142.344 2.38195 141.395 3.45874 140.723L35.805 122.113C36.8052 121.5 37.7164 120.754 38.5132 119.895L39.4581 120.012L78.6802 142.512Z" fill="#E35058"/>
<path d="M0.894125 143.469L38.8592 165.246L17.5903 177.42C16.5064 175.674 15.0307 174.202 13.2792 173.119C9.60078 171.027 6.58889 172.707 6.58889 176.967C6.64337 179.023 7.18387 181.038 8.16655 182.848L3.66136 185.419C3.03048 185.731 2.53341 186.259 2.26087 186.906L0.00827288 147.014C-0.0168896 145.775 0.288812 144.552 0.894125 143.469Z" fill="#A43B5C"/>
<path d="M17.5908 177.422C19.0396 179.568 19.8631 182.072 19.9699 184.656C19.9699 188.857 16.958 190.613 13.2796 188.504C11.0741 187.111 9.30334 185.132 8.16699 182.791L17.5908 177.422Z" fill="#5F9979"/>
<path d="M17.5903 177.419L8.16653 182.788C7.18385 180.978 6.64335 178.963 6.58887 176.906C6.58887 172.705 9.60076 170.949 13.2792 173.058C15.0374 174.158 16.5136 175.651 17.5903 177.419Z" fill="#5F9979"/>
</g>
<defs>
<clipPath id="clip0">
<path d="M0 0H300V248.239H0V0Z" fill="white"/>
</clipPath>
</defs>
</svg>
