<svg width="526" height="467" viewBox="0 0 526 467" fill="none" xmlns="http://www.w3.org/2000/svg">
<path d="M351.924 244.975C350.483 245.496 349.092 246.148 347.768 246.92C335.91 253.755 326.1 270.064 325.152 283.986C325.123 284.41 325.031 284.827 324.877 285.223C324.548 286.099 323.927 286.835 323.118 287.306L294.036 304.584C293.716 304.771 293.354 304.874 292.983 304.881C292.612 304.889 292.246 304.801 291.918 304.627C291.591 304.453 291.314 304.198 291.113 303.887C290.912 303.576 290.795 303.218 290.771 302.848C290.74 302.19 290.662 301.536 290.539 300.888C288.65 291.855 281.635 287.87 272.817 290.929C271.265 291.472 269.77 292.162 268.35 292.991C256.767 299.681 247.095 315.411 245.806 329.153C245.743 329.827 245.556 330.484 245.256 331.091C244.759 332.108 243.966 332.952 242.983 333.514L219.497 346.973C218.832 347.362 218.092 347.609 217.325 347.696V312.959C217.362 311.87 217.679 310.809 218.245 309.878C218.771 308.921 219.534 308.115 220.46 307.535L248.217 291.522C249.168 290.931 250.025 290.2 250.758 289.353C251.586 288.473 252.272 287.47 252.792 286.38L272.614 240.686C273.109 239.629 273.764 238.653 274.554 237.793C275.316 236.917 276.204 236.159 277.19 235.544L319.99 210.889L331.204 217.506L322.553 222.489C321.642 223.085 320.883 223.886 320.339 224.828C319.794 225.771 319.479 226.827 319.418 227.914V246.841C319.418 248.83 320.83 249.647 322.553 248.649L353.604 230.713L382.128 247.542C382.673 247.856 383.123 248.311 383.431 248.859L383.894 250.435C383.94 251.106 383.795 251.777 383.476 252.369C383.157 252.961 382.677 253.452 382.091 253.784L373.44 258.384C373.069 258.582 372.649 258.668 372.23 258.632C371.811 258.596 371.412 258.44 371.08 258.181C370.855 258.007 370.667 257.789 370.529 257.541C370.391 257.292 370.305 257.018 370.276 256.735C369.031 246.255 361.516 241.503 351.924 244.975ZM308.059 253.393V234.445C308.059 232.456 306.648 231.646 304.917 232.636L288.505 242.111C286.555 243.368 285.039 245.193 284.161 247.34L275.192 273.217C274.54 275.098 275.416 275.821 277.139 274.83L304.917 258.818C305.83 258.223 306.59 257.422 307.136 256.48C307.682 255.538 307.998 254.48 308.059 253.393Z" fill="#E36956"/>
<path d="M365.795 188.511L383.431 248.887C383.123 248.339 382.673 247.884 382.128 247.571L353.604 230.712L361.647 226.076C362.506 225.539 363.167 224.736 363.529 223.79C363.891 222.844 363.934 221.805 363.652 220.832L358.679 205.71C358.562 205.28 358.346 204.885 358.048 204.555C357.749 204.225 357.377 203.971 356.961 203.812C356.545 203.654 356.098 203.595 355.655 203.642C355.213 203.689 354.788 203.84 354.415 204.082L324.381 221.51L319.99 210.888L361.669 186.848C362.285 186.474 363.015 186.335 363.725 186.457C364.228 186.572 364.688 186.825 365.054 187.188C365.42 187.551 365.677 188.009 365.795 188.511Z" fill="#E36956"/>
<path d="M371.08 258.197L365.831 255.167C365.392 254.024 364.72 252.984 363.859 252.113C362.998 251.242 361.967 250.558 360.829 250.104L351.924 244.969C361.516 241.497 369.031 246.249 370.276 256.787C370.309 257.063 370.397 257.331 370.535 257.573C370.673 257.815 370.859 258.027 371.08 258.197Z" fill="#A43B5C"/>
<path d="M360.829 250.109C361.967 250.563 362.998 251.247 363.859 252.118C364.72 252.99 365.392 254.029 365.831 255.172C366.652 257.224 367.051 259.421 367.004 261.63C367.004 272.421 359.344 285.671 349.984 291.066C345.191 293.829 340.847 294.024 337.741 292.108C334.78 290.278 332.956 286.524 332.956 281.259C332.956 270.468 340.616 257.219 349.984 251.823C354.096 249.451 357.882 248.974 360.829 250.109ZM349.969 278.67C353.408 276.681 356.224 271.814 356.224 267.821C356.224 263.829 353.408 262.231 349.969 264.205C346.53 266.18 343.707 271.069 343.707 275.054C343.707 279.039 346.538 280.652 349.984 278.67H349.969Z" fill="#2A2B2A"/>
<path d="M363.746 186.263L363.702 186.458C362.992 186.336 362.262 186.475 361.646 186.849L319.99 210.889L300.189 199.201C299.222 198.629 297.939 198.431 296.816 198.494L296.674 198.068L274.967 136.113C274.748 135.451 274.309 134.884 273.721 134.508L363.746 186.263Z" fill="#E34F58"/>
<path d="M363.652 220.86C363.934 221.833 363.891 222.871 363.529 223.817C363.167 224.764 362.507 225.566 361.647 226.103L348.251 233.87L331.161 217.475L354.393 204.081C354.766 203.838 355.191 203.688 355.634 203.641C356.076 203.594 356.524 203.652 356.939 203.811C357.355 203.969 357.727 204.224 358.026 204.554C358.324 204.883 358.541 205.279 358.657 205.708L363.652 220.86Z" fill="#6BAEC5"/>
<path d="M351.924 244.977L360.828 250.112C357.882 248.976 354.096 249.453 349.969 251.826C340.601 257.221 332.941 270.471 332.941 281.261C332.941 286.534 334.766 290.287 337.727 292.11L337.604 292.32L325.514 285.348L324.862 285.217C325.016 284.821 325.108 284.404 325.137 283.981C326.086 270.029 335.895 253.749 347.754 246.915C349.082 246.144 350.478 245.495 351.924 244.977Z" fill="black"/>
<path d="M356.239 267.837C356.239 271.815 353.422 276.682 349.984 278.686C346.545 280.689 343.721 279.047 343.721 275.07C343.721 271.092 346.538 266.224 349.984 264.221C353.43 262.218 356.239 263.867 356.239 267.837Z" fill="#8D8D8D"/>
<path d="M331.183 217.508L353.625 230.743L322.531 248.65C320.808 249.648 319.396 248.831 319.396 246.842V227.915C319.457 226.829 319.772 225.772 320.317 224.83C320.861 223.888 321.62 223.086 322.531 222.491L331.183 217.508Z" fill="#6BAEC5"/>
<path d="M300.168 199.203L325.518 207.73L277.182 235.575C276.197 236.19 275.309 236.948 274.547 237.824L274.048 237.383L250.953 224.105L294.471 199.16C295.239 198.725 296.1 198.477 296.983 198.437C298.097 198.374 299.205 198.64 300.168 199.203Z" fill="#E34F58"/>
<path d="M308.045 234.443V253.392C307.985 254.478 307.669 255.535 307.125 256.477C306.58 257.42 305.822 258.221 304.911 258.816L277.147 274.829C275.424 275.82 274.548 275.096 275.199 273.216L284.169 247.346C285.046 245.199 286.563 243.374 288.513 242.117L304.925 232.642C306.634 231.644 308.045 232.454 308.045 234.443Z" fill="#6BAEC5"/>
<path d="M296.946 198.165V198.454C296.064 198.494 295.203 198.742 294.434 199.177L250.917 224.122L183.589 185.4C184.323 184.554 185.18 183.823 186.13 183.23L270.623 134.52C271.045 134.257 271.526 134.105 272.022 134.077C272.518 134.049 273.013 134.147 273.461 134.361L273.722 134.513C274.309 134.889 274.749 135.456 274.967 136.118L296.946 198.165Z" fill="#E34F58"/>
<path d="M291.756 304.561V304.597L286.543 301.595C285.781 299.424 284.231 297.618 282.2 296.533L282.272 296.388L272.788 290.92C281.606 287.89 288.621 291.846 290.511 300.879C290.634 301.526 290.711 302.181 290.742 302.839C290.761 303.186 290.863 303.524 291.039 303.823C291.215 304.123 291.461 304.376 291.756 304.561Z" fill="#A43B5C"/>
<path d="M286.55 301.589C287.267 303.546 287.616 305.618 287.578 307.701C287.578 318.491 279.919 331.741 270.558 337.136C265.968 339.784 261.783 340.073 258.714 338.395L258.301 338.156C255.355 336.326 253.538 332.58 253.538 327.308C253.538 316.517 261.197 303.267 270.558 297.872C275.068 295.268 279.18 294.943 282.228 296.519C284.252 297.61 285.794 299.419 286.55 301.589ZM270.558 324.733C274.004 322.744 276.82 317.869 276.82 313.884C276.82 309.899 274.004 308.294 270.558 310.268C267.112 312.243 264.296 317.132 264.296 321.117C264.296 325.102 267.141 326.722 270.558 324.733Z" fill="#2A2B2A"/>
<path d="M282.301 296.398L282.228 296.543C279.181 294.966 275.069 295.292 270.558 297.895C261.197 303.291 253.538 316.54 253.538 327.331C253.538 332.589 255.355 336.336 258.302 338.18L246.298 331.244L245.256 331.128C245.556 330.521 245.743 329.864 245.806 329.19C247.095 315.448 256.738 299.689 268.35 293.028C269.77 292.2 271.265 291.509 272.817 290.967L282.301 296.398Z" fill="black"/>
<path d="M276.82 313.884C276.82 317.855 274.004 322.729 270.558 324.733C267.112 326.736 264.296 325.094 264.296 321.117C264.296 317.139 267.12 312.271 270.558 310.268C273.997 308.265 276.82 309.935 276.82 313.884Z" fill="#8D8D8D"/>
<path d="M274.026 237.382L274.526 237.823C273.735 238.683 273.08 239.659 272.585 240.716L252.763 286.403C252.243 287.493 251.557 288.496 250.729 289.376L194.021 256.75L200.16 253.236L243.822 278.448C244.214 278.686 244.653 278.836 245.108 278.888C245.563 278.939 246.025 278.892 246.46 278.748C246.895 278.604 247.294 278.368 247.628 278.055C247.963 277.742 248.225 277.36 248.398 276.936L263.384 242.423C263.758 241.508 263.793 240.489 263.482 239.551C263.172 238.612 262.536 237.815 261.69 237.303L244.85 227.59L250.932 224.104L274.026 237.382Z" fill="#A43B5C"/>
<path d="M261.69 237.303C262.536 237.815 263.172 238.612 263.482 239.551C263.793 240.49 263.758 241.508 263.384 242.423L248.398 276.936C248.225 277.361 247.963 277.742 247.628 278.055C247.293 278.368 246.895 278.605 246.46 278.748C246.024 278.892 245.563 278.94 245.108 278.888C244.652 278.836 244.214 278.686 243.822 278.448L200.124 253.229L244.85 227.59L261.69 237.303Z" fill="#6BAEC5"/>
<path d="M250.932 224.104L244.85 227.59L188.743 195.225C188.353 194.985 187.914 194.834 187.459 194.781C187.004 194.728 186.542 194.775 186.107 194.918C185.671 195.061 185.272 195.297 184.938 195.61C184.603 195.923 184.34 196.305 184.168 196.729L169.211 231.235C168.838 232.151 168.803 233.17 169.114 234.11C169.424 235.049 170.059 235.848 170.905 236.362L200.124 253.228L194.021 256.751L160.335 237.382L159.524 237.281C160.449 236.341 161.21 235.253 161.776 234.063L181.605 188.368C182.122 187.276 182.806 186.271 183.632 185.389L250.932 224.104Z" fill="#A43B5C"/>
<path d="M194.021 256.748L250.765 289.373C250.032 290.22 249.175 290.952 248.224 291.543L220.467 307.555C219.541 308.135 218.778 308.942 218.252 309.899L217.332 309.364L159.879 276.333L194.021 256.748Z" fill="#E34F58"/>
<path d="M244.85 227.587L200.124 253.226L170.905 236.36C170.059 235.846 169.424 235.047 169.113 234.108C168.803 233.168 168.837 232.149 169.211 231.232L184.168 196.719C184.34 196.295 184.602 195.913 184.937 195.6C185.272 195.287 185.671 195.051 186.106 194.908C186.542 194.765 187.003 194.718 187.459 194.771C187.914 194.824 188.352 194.976 188.743 195.215L244.85 227.587Z" fill="#6BAEC5"/>
<path d="M128.409 294.923C128.636 294.367 129.054 293.91 129.589 293.635L133.455 291.422C134.432 293.433 135.951 295.131 137.842 296.326C140.998 298.141 143.576 296.651 143.583 293.013C143.491 290.789 142.784 288.634 141.541 286.786L159.821 276.307L217.275 309.337L218.194 309.872C217.628 310.803 217.311 311.864 217.275 312.953V347.712C216.054 347.859 214.819 347.605 213.756 346.989L129.589 297.252C128.495 296.637 128.141 295.74 128.409 294.923ZM211.664 332.285C211.664 328.669 209.079 324.178 205.923 322.355C202.766 320.533 200.182 322.023 200.182 325.66C200.182 329.298 202.766 333.768 205.923 335.59C209.079 337.413 211.686 335.923 211.686 332.285H211.664Z" fill="#A43B5C"/>
<path d="M205.945 322.354C209.102 324.176 211.686 328.639 211.686 332.284C211.686 335.929 209.102 337.412 205.945 335.589C202.789 333.767 200.204 329.304 200.204 325.659C200.204 322.014 202.789 320.531 205.945 322.354Z" fill="#5F987A"/>
<path d="M194.021 256.753L159.879 276.324L127.301 257.577C127.798 256.608 128.548 255.791 129.472 255.212L157.229 239.193C158.087 238.665 158.869 238.023 159.553 237.283L160.364 237.384L194.021 256.753Z" fill="#E34F58"/>
<path d="M127.236 257.568L159.814 276.315L141.534 286.794C140.604 285.291 139.338 284.024 137.835 283.091C134.679 281.276 132.094 282.766 132.094 286.404C132.146 288.162 132.61 289.883 133.448 291.43L129.589 293.636C129.048 293.905 128.621 294.359 128.387 294.916L126.454 260.613C126.441 259.547 126.71 258.496 127.236 257.568Z" fill="#A43B5C"/>
<path d="M141.563 286.795C142.807 288.642 143.513 290.798 143.605 293.022C143.605 296.638 141.02 298.15 137.864 296.334C135.973 295.139 134.454 293.441 133.477 291.431L141.563 286.795Z" fill="#5F987A"/>
<path d="M141.563 286.793L133.476 291.465C132.633 289.907 132.169 288.173 132.123 286.403C132.123 282.786 134.707 281.275 137.864 283.09C139.367 284.022 140.633 285.29 141.563 286.793Z" fill="#5F987A"/>
</svg>
