<svg width="276" height="60" viewBox="0 0 276 60" fill="none" xmlns="http://www.w3.org/2000/svg">
<path d="M56.35 1.18289H61.9218V9.66121H70.5485V1.18289H76.1282V21.9768H70.5485V13.9914H61.9218V21.9768H56.35V1.18289Z" fill="white"/>
<path d="M95.9765 21.9768L94.5114 18.2988H85.2769L83.7807 21.9768H78.053L87.2251 1.18289H92.9529L101.946 21.9768H95.9765ZM86.9524 14.143H92.8671L89.937 6.72641L86.9524 14.143Z" fill="white"/>
<path d="M116.246 6.2033C115.38 5.7239 114.405 5.46318 113.409 5.44495C112.376 5.42588 111.359 5.68858 110.471 6.2033C109.587 6.72986 108.865 7.47925 108.383 8.37217C107.881 9.32231 107.619 10.3752 107.619 11.4435C107.619 12.5118 107.881 13.5646 108.383 14.5148C108.864 15.4069 109.586 16.1543 110.471 16.6761C111.359 17.1908 112.376 17.4535 113.409 17.4344C114.361 17.4145 115.298 17.1919 116.152 16.7822C117.11 16.3426 117.978 15.7389 118.716 15.0001L121.973 18.4582C120.8 19.6566 119.397 20.6201 117.843 21.2944C116.197 22.0397 114.393 22.3958 112.578 22.3339C110.763 22.272 108.989 21.7937 107.401 20.938C105.724 20.0188 104.334 18.6744 103.38 17.0477C102.394 15.3702 101.888 13.4665 101.915 11.5345C101.885 9.63619 102.391 7.7664 103.378 6.1285C104.364 4.49061 105.794 3.14731 107.51 2.24473C109.303 1.30641 111.311 0.828754 113.347 0.856954C114.956 0.865282 116.547 1.19299 118.022 1.82005C119.494 2.42282 120.821 3.3163 121.919 4.44393L118.693 8.23567C118.026 7.40475 117.194 6.71347 116.246 6.2033Z" fill="white"/>
<path d="M144.892 21.9768H138.221L132.611 13.908L129.93 16.8124V21.9768H124.35V1.18289H129.93V10.1996L137.949 1.18289H144.409L136.484 9.75221L144.892 21.9768Z" fill="white"/>
<path d="M56.2642 37.8036H61.8438V58.5975H56.2642V37.8036Z" fill="white"/>
<path d="M65.9896 37.8036H71.5536V53.9716H80.6089V58.5975H65.9896V37.8036Z" fill="white"/>
<path d="M84.8561 37.8036H90.4357V53.9716H99.491V58.5975H84.8561V37.8036Z" fill="white"/>
<path d="M102.6 37.8036H108.18V58.5975H102.6V37.8036Z" fill="white"/>
<path d="M127.498 37.8036H132.681V58.5975H127.802L118.116 46.1758V58.5975H112.902V37.8036H117.812L127.53 50.3088L127.498 37.8036Z" fill="white"/>
<path d="M153.519 38.8728C155.225 39.7523 156.657 41.0619 157.665 42.6646C158.676 44.3139 159.197 46.2042 159.169 48.1247C159.2 50.0438 158.69 51.9346 157.693 53.5912C156.697 55.2478 155.253 56.6069 153.519 57.5206C151.713 58.4851 149.68 58.9764 147.62 58.9463C145.562 58.9742 143.531 58.4886 141.72 57.5358C139.998 56.637 138.563 55.2936 137.575 53.653C136.563 51.9788 136.043 50.0667 136.071 48.1247C136.045 46.2295 136.556 44.364 137.547 42.7323C138.538 41.1006 139.971 39.7654 141.689 38.8728C143.513 37.9558 145.536 37.4773 147.588 37.4773C149.641 37.4773 151.664 37.9558 153.488 38.8728H153.519ZM144.736 42.8769C143.831 43.4144 143.09 44.1793 142.593 45.0913C142.067 46.0412 141.799 47.1062 141.814 48.1853C141.788 49.2777 142.056 50.3577 142.593 51.3173C143.097 52.2266 143.836 52.9924 144.736 53.5393C145.612 54.0801 146.629 54.3644 147.666 54.3583C148.696 54.3652 149.706 54.0806 150.573 53.5393C151.463 52.9964 152.185 52.2284 152.662 51.3173C153.164 50.3523 153.425 49.2859 153.425 48.2043C153.425 47.1227 153.164 46.0563 152.662 45.0913C152.185 44.1823 151.463 43.4168 150.573 42.8769C149.696 42.3639 148.689 42.1011 147.666 42.1186C146.637 42.1041 145.623 42.3665 144.736 42.8769Z" fill="white"/>
<path d="M161.67 37.8036H167.25V58.5975H161.67V37.8036Z" fill="white"/>
<path d="M182.212 42.4599C181.17 42.093 180.077 41.8833 178.97 41.8381C178.402 41.81 177.837 41.9388 177.341 42.2097C177.151 42.3219 176.995 42.4816 176.889 42.6723C176.784 42.863 176.733 43.0777 176.741 43.2941C176.74 43.5102 176.785 43.7241 176.875 43.9216C176.965 44.1191 177.098 44.2956 177.263 44.4392C177.635 44.77 178.069 45.0275 178.541 45.1976C179.048 45.3872 179.804 45.6298 180.801 45.9559C182.052 46.2938 183.278 46.7118 184.472 47.2072C185.453 47.6294 186.308 48.2869 186.958 49.1182C187.686 50.0935 188.052 51.281 187.994 52.4853C188.028 53.7546 187.631 54.9994 186.864 56.0268C186.064 57.0395 184.982 57.8079 183.747 58.2411C182.351 58.7559 180.868 59.013 179.375 58.9995C177.571 58.9959 175.782 58.6907 174.084 58.0971C172.423 57.5491 170.878 56.7114 169.525 55.6249L171.692 51.3781C172.826 52.3412 174.12 53.1104 175.518 53.6532C176.744 54.1961 178.068 54.5001 179.414 54.548C180.102 54.5817 180.785 54.4266 181.386 54.1006C181.614 53.9653 181.801 53.773 181.927 53.5436C182.053 53.3142 182.114 53.0561 182.103 52.7962C182.109 52.5714 182.065 52.3479 181.972 52.142C181.879 51.9361 181.74 51.7528 181.565 51.6056C181.175 51.268 180.719 51.0101 180.225 50.8473C179.687 50.6577 178.931 50.4378 177.957 50.1799C176.719 49.8613 175.505 49.4584 174.326 48.9741C173.367 48.5648 172.524 47.935 171.871 47.1389C171.15 46.1924 170.789 45.0318 170.85 43.8553C170.825 42.6376 171.202 41.4442 171.925 40.4503C172.676 39.4265 173.715 38.6362 174.918 38.1753C176.348 37.6356 177.873 37.3778 179.406 37.4169C180.955 37.4169 182.495 37.6314 183.981 38.0539C185.381 38.433 186.717 39.0078 187.947 39.7602L185.843 44.0904C184.696 43.4231 183.478 42.8765 182.212 42.4599Z" fill="white"/>
<path d="M11.6581 23.6604H29.0672V12.945H40.5694V0H7.72269L0 12.945H11.6581V23.6604Z" fill="white"/>
<path d="M29.0672 34.9675H11.6581V45.6829H0V58.6279H33.1507L40.5694 45.6829H29.0672V34.9675Z" fill="white"/>
<path d="M201.896 59V55.85L209.996 48.2C210.636 47.62 211.106 47.1 211.406 46.64C211.706 46.18 211.906 45.76 212.006 45.38C212.126 45 212.186 44.65 212.186 44.33C212.186 43.49 211.896 42.85 211.316 42.41C210.756 41.95 209.926 41.72 208.826 41.72C207.946 41.72 207.126 41.89 206.366 42.23C205.626 42.57 204.996 43.1 204.476 43.82L200.936 41.54C201.736 40.34 202.856 39.39 204.296 38.69C205.736 37.99 207.396 37.64 209.276 37.64C210.836 37.64 212.196 37.9 213.356 38.42C214.536 38.92 215.446 39.63 216.086 40.55C216.746 41.47 217.076 42.57 217.076 43.85C217.076 44.53 216.986 45.21 216.806 45.89C216.646 46.55 216.306 47.25 215.786 47.99C215.286 48.73 214.546 49.56 213.566 50.48L206.846 56.81L205.916 55.04H217.766V59H201.896ZM229.371 59.36C227.651 59.36 226.111 58.94 224.751 58.1C223.391 57.24 222.321 56 221.541 54.38C220.761 52.76 220.371 50.8 220.371 48.5C220.371 46.2 220.761 44.24 221.541 42.62C222.321 41 223.391 39.77 224.751 38.93C226.111 38.07 227.651 37.64 229.371 37.64C231.111 37.64 232.651 38.07 233.991 38.93C235.351 39.77 236.421 41 237.201 42.62C237.981 44.24 238.371 46.2 238.371 48.5C238.371 50.8 237.981 52.76 237.201 54.38C236.421 56 235.351 57.24 233.991 58.1C232.651 58.94 231.111 59.36 229.371 59.36ZM229.371 55.25C230.191 55.25 230.901 55.02 231.501 54.56C232.121 54.1 232.601 53.37 232.941 52.37C233.301 51.37 233.481 50.08 233.481 48.5C233.481 46.92 233.301 45.63 232.941 44.63C232.601 43.63 232.121 42.9 231.501 42.44C230.901 41.98 230.191 41.75 229.371 41.75C228.571 41.75 227.861 41.98 227.241 42.44C226.641 42.9 226.161 43.63 225.801 44.63C225.461 45.63 225.291 46.92 225.291 48.5C225.291 50.08 225.461 51.37 225.801 52.37C226.161 53.37 226.641 54.1 227.241 54.56C227.861 55.02 228.571 55.25 229.371 55.25ZM241.035 59V55.85L249.135 48.2C249.775 47.62 250.245 47.1 250.545 46.64C250.845 46.18 251.045 45.76 251.145 45.38C251.265 45 251.325 44.65 251.325 44.33C251.325 43.49 251.035 42.85 250.455 42.41C249.895 41.95 249.065 41.72 247.965 41.72C247.085 41.72 246.265 41.89 245.505 42.23C244.765 42.57 244.135 43.1 243.615 43.82L240.075 41.54C240.875 40.34 241.995 39.39 243.435 38.69C244.875 37.99 246.535 37.64 248.415 37.64C249.975 37.64 251.335 37.9 252.495 38.42C253.675 38.92 254.585 39.63 255.225 40.55C255.885 41.47 256.215 42.57 256.215 43.85C256.215 44.53 256.125 45.21 255.945 45.89C255.785 46.55 255.445 47.25 254.925 47.99C254.425 48.73 253.685 49.56 252.705 50.48L245.985 56.81L245.055 55.04H256.905V59H241.035ZM266.32 59.36C264.86 59.36 263.41 59.17 261.97 58.79C260.53 58.39 259.31 57.83 258.31 57.11L260.2 53.39C261 53.97 261.93 54.43 262.99 54.77C264.05 55.11 265.12 55.28 266.2 55.28C267.42 55.28 268.38 55.04 269.08 54.56C269.78 54.08 270.13 53.42 270.13 52.58C270.13 51.78 269.82 51.15 269.2 50.69C268.58 50.23 267.58 50 266.2 50H263.98V46.79L269.83 40.16L270.37 41.9H259.36V38H274.06V41.15L268.24 47.78L265.78 46.37H267.19C269.77 46.37 271.72 46.95 273.04 48.11C274.36 49.27 275.02 50.76 275.02 52.58C275.02 53.76 274.71 54.87 274.09 55.91C273.47 56.93 272.52 57.76 271.24 58.4C269.96 59.04 268.32 59.36 266.32 59.36Z" fill="white"/>
</svg>
