<svg width="1920" height="1080" viewBox="0 0 1920 1080" fill="none" xmlns="http://www.w3.org/2000/svg">
<g clip-path="url(#clip0_6_5212)">
<rect width="1920" height="1080" fill="white"/>
<rect width="1920" height="1080" fill="#0D387C"/>
<rect y="328" width="1920" height="752" fill="url(#paint0_linear_6_5212)"/>
<path d="M942.715 723.795C346.029 575.71 155.729 533.018 1 575.71V1080H1920V808.343C1753.41 872.214 1443.97 848.195 942.715 723.795Z" fill="url(#paint1_linear_6_5212)"/>
<g opacity="0.8" filter="url(#filter0_f_6_5212)">
<path d="M64.7355 821.601C65.4324 821.109 66.3862 821.66 66.3083 822.509L66.1452 824.289C66.1134 824.635 66.2639 824.973 66.5425 825.181L67.9739 826.251C68.6576 826.761 68.4286 827.839 67.5963 828.027L65.8537 828.422C65.5145 828.499 65.2396 828.746 65.1277 829.075L64.553 830.767C64.2786 831.575 63.1833 831.69 62.7469 830.957L61.833 829.422C61.6551 829.123 61.3347 828.938 60.987 828.933L59.2003 828.909C58.3471 828.898 57.8992 827.892 58.4617 827.25L59.6395 825.907C59.8688 825.645 59.9457 825.283 59.8426 824.951L59.3131 823.245C59.0602 822.43 59.8786 821.693 60.6627 822.029L62.3046 822.734C62.6241 822.872 62.992 822.833 63.2761 822.632L64.7355 821.601Z" fill="#D9D9D9"/>
<path d="M554.969 568.61C554.194 568.252 554.194 567.151 554.969 566.793L556.591 566.045C556.907 565.899 557.124 565.6 557.165 565.255L557.376 563.48C557.476 562.633 558.524 562.293 559.103 562.919L560.316 564.231C560.552 564.486 560.904 564.601 561.245 564.533L562.998 564.185C563.835 564.018 564.482 564.909 564.065 565.654L563.192 567.213C563.023 567.517 563.023 567.886 563.192 568.19L564.065 569.749C564.482 570.494 563.835 571.385 562.998 571.218L561.245 570.87C560.904 570.802 560.552 570.917 560.316 571.172L559.103 572.484C558.524 573.11 557.476 572.77 557.376 571.923L557.165 570.148C557.124 569.803 556.907 569.504 556.591 569.358L554.969 568.61Z" fill="#FE7098"/>
<circle cx="420.253" cy="554.58" r="1.5" transform="rotate(-59.6743 420.253 554.58)" fill="#C9D2E5"/>
<circle cx="144.809" cy="646.037" r="1.5" transform="rotate(77.262 144.809 646.037)" fill="#C9D2E5"/>
<circle cx="257.656" cy="687.168" r="1.5" transform="rotate(-102.738 257.656 687.168)" fill="#C9D2E5"/>
<path d="M1048.18 26.0324C1047.52 25.4866 1047.81 24.4228 1048.65 24.2781L1049.84 24.0731C1050.18 24.0141 1050.47 23.7813 1050.6 23.4583L1051.05 22.3349C1051.37 21.5424 1052.47 21.4847 1052.86 22.2399L1053.43 23.3102C1053.59 23.618 1053.9 23.8194 1054.25 23.8423L1055.45 23.9216C1056.3 23.9776 1056.7 25.0057 1056.1 25.6171L1055.26 26.4837C1055.02 26.7329 1054.92 27.0902 1055.01 27.4273L1055.3 28.5997C1055.51 29.4269 1054.66 30.1199 1053.89 29.7427L1052.81 29.2079C1052.5 29.0541 1052.13 29.0735 1051.83 29.259L1050.81 29.9043C1050.09 30.3595 1049.16 29.7597 1049.29 28.9151L1049.46 27.718C1049.51 27.3738 1049.38 27.0285 1049.11 26.806L1048.18 26.0324Z" fill="#FCDC8F"/>
<path d="M655.763 223.373C655.107 222.827 655.392 221.763 656.233 221.618L657.994 221.315C658.336 221.257 658.624 221.024 658.753 220.701L659.415 219.041C659.732 218.249 660.831 218.191 661.229 218.946L662.061 220.527C662.223 220.835 662.534 221.037 662.881 221.059L664.663 221.177C665.515 221.233 665.91 222.261 665.314 222.872L664.068 224.152C663.825 224.401 663.729 224.759 663.815 225.096L664.254 226.828C664.464 227.655 663.608 228.348 662.843 227.971L661.24 227.181C660.928 227.027 660.559 227.046 660.265 227.232L658.753 228.185C658.032 228.64 657.108 228.04 657.23 227.196L657.486 225.427C657.536 225.083 657.404 224.738 657.136 224.515L655.763 223.373Z" fill="#D9D9D9"/>
<path d="M732.51 104.308C731.66 104.386 731.11 103.432 731.602 102.735L732.633 101.276C732.833 100.992 732.872 100.624 732.735 100.305L732.03 98.6627C731.693 97.8786 732.43 97.0602 733.245 97.313L734.952 97.8425C735.284 97.9456 735.646 97.8687 735.907 97.6394L737.251 96.4616C737.893 95.8991 738.899 96.347 738.91 97.2003L738.934 98.9869C738.938 99.3347 739.123 99.655 739.422 99.8329L740.958 100.747C741.691 101.183 741.576 102.279 740.768 102.553L739.076 103.128C738.747 103.24 738.499 103.514 738.422 103.854L738.027 105.596C737.839 106.429 736.762 106.658 736.251 105.974L735.182 104.542C734.974 104.264 734.636 104.113 734.289 104.145L732.51 104.308Z" fill="#FCDC8F"/>
<path d="M929.883 280.167C929.588 279.366 930.367 278.588 931.167 278.883L932.302 279.301C932.629 279.422 932.994 279.364 933.267 279.149L934.217 278.4C934.887 277.872 935.869 278.372 935.835 279.224L935.788 280.433C935.774 280.781 935.942 281.11 936.232 281.303L937.237 281.976C937.947 282.45 937.774 283.538 936.953 283.769L935.789 284.098C935.454 284.192 935.193 284.454 935.098 284.789L934.77 285.953C934.538 286.774 933.45 286.946 932.976 286.237L932.304 285.231C932.11 284.942 931.781 284.774 931.433 284.788L930.225 284.835C929.372 284.868 928.872 283.887 929.4 283.217L930.149 282.267C930.364 281.994 930.422 281.628 930.302 281.302L929.883 280.167Z" fill="#FE7098"/>
<path d="M715.527 412.033C714.871 411.487 715.156 410.423 715.997 410.278L717.189 410.073C717.532 410.014 717.82 409.782 717.949 409.459L718.397 408.335C718.713 407.543 719.813 407.485 720.211 408.24L720.774 409.31C720.936 409.618 721.246 409.82 721.593 409.843L722.8 409.922C723.652 409.978 724.046 411.006 723.451 411.617L722.607 412.484C722.365 412.733 722.269 413.09 722.354 413.428L722.652 414.6C722.862 415.427 722.006 416.12 721.241 415.743L720.156 415.208C719.844 415.054 719.474 415.074 719.18 415.259L718.157 415.905C717.435 416.36 716.512 415.76 716.634 414.915L716.807 413.718C716.857 413.374 716.724 413.029 716.457 412.806L715.527 412.033Z" fill="#FCDC8F"/>
<circle cx="600.306" cy="163.22" r="1.5" transform="rotate(-105.132 600.306 163.22)" fill="#C9D2E5"/>
<circle cx="547.84" cy="313.839" r="1.5" transform="rotate(-105.132 547.84 313.839)" fill="#C9D2E5"/>
<path d="M62.1061 449.871C62.2508 449.03 63.3146 448.745 63.8603 449.401L65.0032 450.775C65.2256 451.042 65.571 451.175 65.9152 451.125L67.6835 450.869C68.528 450.746 69.1278 451.67 68.6726 452.392L67.7195 453.903C67.534 454.197 67.5146 454.567 67.6684 454.879L68.4583 456.481C68.8356 457.247 68.1425 458.103 67.3154 457.893L65.5835 457.453C65.2464 457.368 64.8891 457.464 64.6399 457.706L63.3598 458.953C62.7484 459.548 61.7203 459.153 61.6643 458.302L61.547 456.519C61.5242 456.172 61.3227 455.862 61.015 455.7L59.4339 454.867C58.6788 454.47 58.7364 453.37 59.5289 453.054L61.1884 452.391C61.5114 452.262 61.7442 451.975 61.8032 451.632L62.1061 449.871Z" fill="#FE7098"/>
<path d="M360.108 375.128C359.813 374.327 360.592 373.549 361.393 373.844L363.069 374.462C363.395 374.582 363.761 374.524 364.034 374.309L365.437 373.203C366.108 372.675 367.089 373.175 367.055 374.028L366.986 375.813C366.972 376.161 367.14 376.49 367.429 376.684L368.915 377.677C369.624 378.151 369.452 379.239 368.631 379.47L366.911 379.956C366.576 380.05 366.315 380.312 366.22 380.646L365.735 382.366C365.503 383.187 364.415 383.36 363.941 382.65L362.948 381.165C362.755 380.876 362.425 380.708 362.078 380.721L360.292 380.791C359.44 380.824 358.94 379.843 359.468 379.173L360.574 377.769C360.789 377.496 360.847 377.131 360.726 376.805L360.108 375.128Z" fill="#FCDC8F"/>
<path d="M471.058 254.256C470.217 254.112 469.932 253.048 470.588 252.502L471.518 251.729C471.785 251.506 471.918 251.161 471.868 250.817L471.695 249.62C471.573 248.775 472.496 248.175 473.218 248.63L474.241 249.276C474.535 249.461 474.905 249.481 475.217 249.327L476.302 248.792C477.067 248.415 477.923 249.108 477.713 249.935L477.415 251.107C477.33 251.444 477.426 251.802 477.668 252.051L478.512 252.918C479.107 253.529 478.713 254.557 477.861 254.613L476.654 254.692C476.307 254.715 475.997 254.917 475.835 255.224L475.272 256.295C474.874 257.05 473.774 256.992 473.458 256.2L473.01 255.076C472.881 254.753 472.593 254.521 472.25 254.462L471.058 254.256Z" fill="#FE7098"/>
<path d="M406.167 65.6496C405.367 65.9448 404.588 65.166 404.883 64.3654L405.302 63.2305C405.422 62.9042 405.364 62.5388 405.149 62.2656L404.4 61.3156C403.872 60.6453 404.372 59.6641 405.225 59.6974L406.433 59.7446C406.781 59.7582 407.11 59.5903 407.304 59.3011L407.976 58.2955C408.45 57.5861 409.538 57.7584 409.77 58.5796L410.098 59.7438C410.193 60.0785 410.454 60.34 410.789 60.4345L411.953 60.7631C412.774 60.9949 412.947 62.0826 412.237 62.5568L411.232 63.2291C410.942 63.4223 410.774 63.7519 410.788 64.0995L410.835 65.3081C410.869 66.1608 409.887 66.6608 409.217 66.1326L408.267 65.384C407.994 65.1687 407.629 65.1109 407.302 65.2312L406.167 65.6496Z" fill="#FCDC8F"/>
<circle cx="485.84" cy="126.84" r="1.5" transform="rotate(74.8676 485.84 126.84)" fill="#C9D2E5"/>
<circle cx="365.892" cy="447.479" r="1.5" transform="rotate(120.326 365.892 447.479)" fill="#C9D2E5"/>
<path d="M34.5563 82.4012C35.1021 81.7452 36.1658 82.0303 36.3105 82.8712L36.6135 84.6321C36.6724 84.9749 36.9052 85.2624 37.2282 85.3913L38.8877 86.0538C39.6802 86.3701 39.7378 87.4699 38.9827 87.8674L37.4016 88.6997C37.0939 88.8617 36.8924 89.1719 36.8696 89.519L36.7524 91.3019C36.6964 92.1534 35.6682 92.5481 35.0569 91.9527L33.7767 90.7062C33.5276 90.4636 33.1702 90.3678 32.8331 90.4534L31.1012 90.8928C30.2741 91.1027 29.5811 90.2468 29.9583 89.4814L30.7483 87.8788C30.902 87.5668 30.8827 87.1974 30.6971 86.9032L29.744 85.3919C29.2888 84.6701 29.8886 83.7465 30.7331 83.8688L32.5015 84.1248C32.8457 84.1746 33.191 84.042 33.4135 83.7747L34.5563 82.4012Z" fill="#FE7098"/>
<path d="M138.735 120.602C139.432 120.11 140.386 120.66 140.308 121.51L140.145 123.289C140.113 123.636 140.264 123.974 140.542 124.182L141.974 125.251C142.658 125.762 142.429 126.839 141.596 127.028L139.854 127.422C139.515 127.499 139.24 127.747 139.128 128.076L138.553 129.768C138.279 130.576 137.183 130.691 136.747 129.958L135.833 128.422C135.655 128.123 135.335 127.938 134.987 127.934L133.2 127.91C132.347 127.899 131.899 126.893 132.462 126.251L133.64 124.907C133.869 124.646 133.946 124.284 133.843 123.952L133.313 122.245C133.06 121.43 133.879 120.693 134.663 121.03L136.305 121.735C136.624 121.872 136.992 121.834 137.276 121.633L138.735 120.602Z" fill="#D9D9D9"/>
<path d="M279.08 237.156C278.383 237.648 277.429 237.098 277.507 236.248L277.67 234.469C277.702 234.122 277.551 233.784 277.273 233.576L275.841 232.507C275.158 231.996 275.387 230.919 276.219 230.73L277.961 230.336C278.301 230.259 278.576 230.011 278.687 229.682L279.262 227.99C279.537 227.182 280.632 227.067 281.068 227.8L281.982 229.336C282.16 229.634 282.48 229.819 282.828 229.824L284.615 229.848C285.468 229.859 285.916 230.865 285.353 231.507L284.176 232.851C283.946 233.112 283.869 233.474 283.973 233.806L284.502 235.513C284.755 236.328 283.937 237.065 283.152 236.728L281.511 236.023C281.191 235.886 280.823 235.924 280.539 236.125L279.08 237.156Z" fill="#FE7098"/>
<path d="M67.5272 214.033C66.8713 213.487 67.1563 212.423 67.9973 212.278L69.1894 212.073C69.5321 212.014 69.8196 211.782 69.9485 211.459L70.397 210.335C70.7134 209.543 71.8131 209.485 72.2106 210.24L72.774 211.31C72.936 211.618 73.2463 211.82 73.5933 211.843L74.8003 211.922C75.6518 211.978 76.0465 213.006 75.4512 213.617L74.6073 214.484C74.3647 214.733 74.2689 215.09 74.3545 215.428L74.652 216.6C74.8618 217.427 74.006 218.12 73.2406 217.743L72.1556 217.208C71.8437 217.054 71.4742 217.074 71.1801 217.259L70.157 217.905C69.4352 218.36 68.5116 217.76 68.6338 216.915L68.8072 215.718C68.857 215.374 68.7244 215.029 68.4571 214.806L67.5272 214.033Z" fill="#FCDC8F"/>
<circle cx="167.5" cy="309.5" r="4.5" fill="#C9D2E5"/>
<circle cx="186.5" cy="231.5" r="1.5" transform="rotate(-180 186.5 231.5)" fill="#C9D2E5"/>
<circle cx="253.84" cy="80.8396" r="1.5" transform="rotate(-105.132 253.84 80.8396)" fill="#C9D2E5"/>
<circle cx="520.5" cy="83.5" r="8.5" fill="#C9D2E5"/>
<circle cx="908.5" cy="184.5" r="8.5" fill="#C9D2E5"/>
<path d="M1755.97 74.61C1755.19 74.2526 1755.19 73.1513 1755.97 72.7939L1757.59 72.0455C1757.91 71.8999 1758.12 71.6006 1758.17 71.2552L1758.38 69.4809C1758.48 68.6335 1759.52 68.2932 1760.1 68.9197L1761.32 70.2315C1761.55 70.4868 1761.9 70.6011 1762.25 70.5334L1764 70.1851C1764.83 70.0188 1765.48 70.9098 1765.07 71.6544L1764.19 73.2136C1764.02 73.517 1764.02 73.887 1764.19 74.1904L1765.07 75.7496C1765.48 76.4942 1764.83 77.3852 1764 77.2188L1762.25 76.8706C1761.9 76.8028 1761.55 76.9172 1761.32 77.1725L1760.1 78.4843C1759.52 79.1108 1758.48 78.7705 1758.38 77.9231L1758.17 76.1488C1758.12 75.8034 1757.91 75.5041 1757.59 75.3584L1755.97 74.61Z" fill="#FE7098"/>
<path d="M1871.79 595.969C1872.15 595.194 1873.25 595.194 1873.61 595.969L1874.36 597.591C1874.5 597.907 1874.8 598.124 1875.15 598.165L1876.92 598.376C1877.77 598.476 1878.11 599.524 1877.48 600.103L1876.17 601.316C1875.92 601.552 1875.8 601.904 1875.87 602.245L1876.22 603.998C1876.39 604.835 1875.49 605.482 1874.75 605.065L1873.19 604.192C1872.89 604.023 1872.52 604.023 1872.21 604.192L1870.65 605.065C1869.91 605.482 1869.02 604.835 1869.19 603.998L1869.53 602.245C1869.6 601.904 1869.49 601.552 1869.23 601.316L1867.92 600.103C1867.29 599.524 1867.63 598.476 1868.48 598.376L1870.26 598.165C1870.6 598.124 1870.9 597.907 1871.05 597.591L1871.79 595.969Z" fill="#D9D9D9"/>
<path d="M1772.26 476.082C1772.18 475.232 1773.14 474.681 1773.83 475.174L1774.82 475.871C1775.1 476.072 1775.47 476.111 1775.79 475.974L1776.9 475.496C1777.69 475.16 1778.51 475.896 1778.25 476.711L1777.89 477.867C1777.79 478.199 1777.87 478.561 1778.1 478.822L1778.9 479.732C1779.46 480.374 1779.01 481.38 1778.16 481.391L1776.95 481.407C1776.6 481.412 1776.28 481.597 1776.1 481.895L1775.48 482.935C1775.05 483.668 1773.95 483.553 1773.68 482.745L1773.29 481.6C1773.18 481.27 1772.9 481.023 1772.56 480.946L1771.38 480.679C1770.55 480.49 1770.32 479.413 1771 478.902L1771.97 478.179C1772.25 477.97 1772.4 477.632 1772.37 477.286L1772.26 476.082Z" fill="#D9D9D9"/>
<path d="M1685.26 713.082C1685.18 712.232 1686.14 711.681 1686.83 712.174L1687.82 712.871C1688.1 713.072 1688.47 713.111 1688.79 712.974L1689.9 712.496C1690.69 712.16 1691.51 712.896 1691.25 713.711L1690.89 714.867C1690.79 715.199 1690.87 715.561 1691.1 715.822L1691.9 716.732C1692.46 717.374 1692.01 718.38 1691.16 718.391L1689.95 718.407C1689.6 718.412 1689.28 718.597 1689.1 718.895L1688.48 719.935C1688.05 720.668 1686.95 720.553 1686.68 719.745L1686.29 718.6C1686.18 718.27 1685.9 718.023 1685.56 717.946L1684.38 717.679C1683.55 717.49 1683.32 716.413 1684 715.902L1684.97 715.179C1685.25 714.97 1685.4 714.632 1685.37 714.286L1685.26 713.082Z" fill="#D9D9D9"/>
<circle cx="1670.05" cy="276.052" r="1.5" transform="rotate(-59.6743 1670.05 276.052)" fill="#C9D2E5"/>
<circle cx="1793.05" cy="827.052" r="1.5" transform="rotate(120.326 1793.05 827.052)" fill="#C9D2E5"/>
<circle cx="1847.41" cy="934.155" r="1.5" transform="rotate(-59.6743 1847.41 934.155)" fill="#C9D2E5"/>
<circle cx="1807.5" cy="675.5" r="8.5" fill="#C9D2E5"/>
<path d="M1882.18 144.033C1881.52 143.487 1881.81 142.423 1882.65 142.278L1883.84 142.073C1884.18 142.014 1884.47 141.782 1884.6 141.459L1885.05 140.335C1885.37 139.543 1886.47 139.485 1886.86 140.24L1887.43 141.31C1887.59 141.618 1887.9 141.82 1888.25 141.843L1889.45 141.922C1890.3 141.978 1890.7 143.006 1890.1 143.617L1889.26 144.484C1889.02 144.733 1888.92 145.09 1889.01 145.428L1889.3 146.6C1889.51 147.427 1888.66 148.12 1887.89 147.743L1886.81 147.208C1886.5 147.054 1886.13 147.074 1885.83 147.259L1884.81 147.905C1884.09 148.36 1883.16 147.76 1883.29 146.915L1883.46 145.718C1883.51 145.374 1883.38 145.029 1883.11 144.806L1882.18 144.033Z" fill="#FCDC8F"/>
<path d="M1546.76 213.373C1546.11 212.827 1546.39 211.763 1547.23 211.618L1548.99 211.315C1549.34 211.257 1549.62 211.024 1549.75 210.701L1550.42 209.041C1550.73 208.249 1551.83 208.191 1552.23 208.946L1553.06 210.527C1553.22 210.835 1553.53 211.037 1553.88 211.059L1555.66 211.177C1556.51 211.233 1556.91 212.261 1556.31 212.872L1555.07 214.152C1554.83 214.401 1554.73 214.759 1554.81 215.096L1555.25 216.828C1555.46 217.655 1554.61 218.348 1553.84 217.971L1552.24 217.181C1551.93 217.027 1551.56 217.046 1551.26 217.232L1549.75 218.185C1549.03 218.64 1548.11 218.04 1548.23 217.196L1548.49 215.427C1548.54 215.083 1548.4 214.738 1548.14 214.515L1546.76 213.373Z" fill="#D9D9D9"/>
<path d="M1623.51 94.3082C1622.66 94.3861 1622.11 93.4324 1622.6 92.7354L1623.63 91.276C1623.83 90.992 1623.87 90.6241 1623.73 90.3045L1623.03 88.6627C1622.69 87.8786 1623.43 87.0602 1624.25 87.313L1625.95 87.8425C1626.28 87.9456 1626.65 87.8687 1626.91 87.6394L1628.25 86.4616C1628.89 85.8991 1629.9 86.347 1629.91 87.2003L1629.93 88.9869C1629.94 89.3347 1630.12 89.655 1630.42 89.8329L1631.96 90.7468C1632.69 91.1833 1632.58 92.2785 1631.77 92.553L1630.08 93.1277C1629.75 93.2395 1629.5 93.5144 1629.42 93.8536L1629.03 95.5963C1628.84 96.4285 1627.76 96.6575 1627.25 95.9739L1626.18 94.5424C1625.97 94.2638 1625.64 94.1133 1625.29 94.1451L1623.51 94.3082Z" fill="#FCDC8F"/>
<path d="M1820.88 270.167C1820.59 269.367 1821.37 268.588 1822.17 268.883L1823.3 269.302C1823.63 269.422 1823.99 269.364 1824.27 269.149L1825.22 268.4C1825.89 267.872 1826.87 268.372 1826.84 269.225L1826.79 270.433C1826.77 270.781 1826.94 271.11 1827.23 271.304L1828.24 271.976C1828.95 272.45 1828.77 273.538 1827.95 273.77L1826.79 274.098C1826.45 274.193 1826.19 274.454 1826.1 274.789L1825.77 275.953C1825.54 276.774 1824.45 276.947 1823.98 276.237L1823.3 275.232C1823.11 274.942 1822.78 274.775 1822.43 274.788L1821.22 274.835C1820.37 274.869 1819.87 273.887 1820.4 273.217L1821.15 272.267C1821.36 271.994 1821.42 271.629 1821.3 271.302L1820.88 270.167Z" fill="#FE7098"/>
<path d="M1606.53 402.033C1605.87 401.487 1606.16 400.423 1607 400.278L1608.19 400.073C1608.53 400.014 1608.82 399.782 1608.95 399.459L1609.4 398.335C1609.71 397.543 1610.81 397.485 1611.21 398.24L1611.77 399.31C1611.94 399.618 1612.25 399.82 1612.59 399.843L1613.8 399.922C1614.65 399.978 1615.05 401.006 1614.45 401.617L1613.61 402.484C1613.36 402.733 1613.27 403.09 1613.35 403.428L1613.65 404.6C1613.86 405.427 1613.01 406.12 1612.24 405.743L1611.16 405.208C1610.84 405.054 1610.47 405.074 1610.18 405.259L1609.16 405.905C1608.44 406.36 1607.51 405.76 1607.63 404.915L1607.81 403.718C1607.86 403.374 1607.72 403.029 1607.46 402.806L1606.53 402.033Z" fill="#FCDC8F"/>
<circle cx="1491.31" cy="153.22" r="1.5" transform="rotate(-105.132 1491.31 153.22)" fill="#C9D2E5"/>
<circle cx="1438.84" cy="303.84" r="1.5" transform="rotate(-105.132 1438.84 303.84)" fill="#C9D2E5"/>
<path d="M1251.11 365.128C1250.81 364.327 1251.59 363.549 1252.39 363.844L1254.07 364.462C1254.4 364.582 1254.76 364.524 1255.03 364.309L1256.44 363.203C1257.11 362.675 1258.09 363.175 1258.06 364.028L1257.99 365.813C1257.97 366.161 1258.14 366.49 1258.43 366.684L1259.91 367.677C1260.62 368.151 1260.45 369.239 1259.63 369.47L1257.91 369.956C1257.58 370.05 1257.31 370.312 1257.22 370.646L1256.73 372.366C1256.5 373.187 1255.42 373.36 1254.94 372.65L1253.95 371.165C1253.75 370.876 1253.43 370.708 1253.08 370.721L1251.29 370.791C1250.44 370.824 1249.94 369.843 1250.47 369.173L1251.57 367.769C1251.79 367.496 1251.85 367.131 1251.73 366.805L1251.11 365.128Z" fill="#FCDC8F"/>
<path d="M1362.06 244.256C1361.22 244.112 1360.93 243.048 1361.59 242.502L1362.52 241.729C1362.79 241.506 1362.92 241.161 1362.87 240.817L1362.69 239.62C1362.57 238.775 1363.5 238.175 1364.22 238.63L1365.24 239.276C1365.54 239.461 1365.9 239.481 1366.22 239.327L1367.3 238.792C1368.07 238.415 1368.92 239.108 1368.71 239.935L1368.42 241.107C1368.33 241.444 1368.43 241.802 1368.67 242.051L1369.51 242.918C1370.11 243.529 1369.71 244.557 1368.86 244.613L1367.65 244.692C1367.31 244.715 1367 244.917 1366.84 245.224L1366.27 246.295C1365.87 247.05 1364.77 246.992 1364.46 246.2L1364.01 245.076C1363.88 244.753 1363.59 244.521 1363.25 244.462L1362.06 244.256Z" fill="#FE7098"/>
<path d="M1297.17 55.6496C1296.37 55.9448 1295.59 55.166 1295.88 54.3654L1296.3 53.2305C1296.42 52.9042 1296.36 52.5388 1296.15 52.2656L1295.4 51.3156C1294.87 50.6453 1295.37 49.6641 1296.22 49.6974L1297.43 49.7446C1297.78 49.7582 1298.11 49.5903 1298.3 49.3011L1298.98 48.2955C1299.45 47.5861 1300.54 47.7584 1300.77 48.5796L1301.1 49.7438C1301.19 50.0785 1301.45 50.34 1301.79 50.4345L1302.95 50.7631C1303.77 50.9949 1303.95 52.0826 1303.24 52.5568L1302.23 53.2291C1301.94 53.4223 1301.77 53.7519 1301.79 54.0995L1301.84 55.3081C1301.87 56.1608 1300.89 56.6608 1300.22 56.1326L1299.27 55.384C1298.99 55.1687 1298.63 55.1109 1298.3 55.2312L1297.17 55.6496Z" fill="#FCDC8F"/>
<circle cx="1376.84" cy="116.84" r="1.5" transform="rotate(74.8676 1376.84 116.84)" fill="#C9D2E5"/>
<circle cx="1348.05" cy="330.052" r="1.5" transform="rotate(120.326 1348.05 330.052)" fill="#C9D2E5"/>
<path d="M925.556 72.4012C926.102 71.7452 927.166 72.0303 927.311 72.8712L927.613 74.6321C927.672 74.9749 927.905 75.2624 928.228 75.3913L929.888 76.0538C930.68 76.3701 930.738 77.4699 929.983 77.8674L928.402 78.6997C928.094 78.8617 927.892 79.1719 927.87 79.519L927.752 81.3019C927.696 82.1534 926.668 82.5481 926.057 81.9527L924.777 80.7062C924.528 80.4636 924.17 80.3678 923.833 80.4534L922.101 80.8928C921.274 81.1027 920.581 80.2468 920.958 79.4814L921.748 77.8788C921.902 77.5668 921.883 77.1974 921.697 76.9032L920.744 75.3919C920.289 74.6701 920.889 73.7465 921.733 73.8688L923.501 74.1248C923.846 74.1746 924.191 74.042 924.413 73.7747L925.556 72.4012Z" fill="#FE7098"/>
<path d="M1029.74 110.602C1030.43 110.11 1031.39 110.66 1031.31 111.51L1031.15 113.289C1031.11 113.636 1031.26 113.974 1031.54 114.182L1032.97 115.251C1033.66 115.762 1033.43 116.839 1032.6 117.028L1030.85 117.422C1030.51 117.499 1030.24 117.747 1030.13 118.076L1029.55 119.768C1029.28 120.576 1028.18 120.691 1027.75 119.958L1026.83 118.422C1026.66 118.123 1026.33 117.938 1025.99 117.934L1024.2 117.91C1023.35 117.899 1022.9 116.893 1023.46 116.251L1024.64 114.907C1024.87 114.646 1024.95 114.284 1024.84 113.952L1024.31 112.245C1024.06 111.43 1024.88 110.693 1025.66 111.03L1027.3 111.735C1027.62 111.872 1027.99 111.834 1028.28 111.633L1029.74 110.602Z" fill="#D9D9D9"/>
<path d="M1170.08 227.156C1169.38 227.648 1168.43 227.098 1168.51 226.248L1168.67 224.469C1168.7 224.122 1168.55 223.784 1168.27 223.576L1166.84 222.507C1166.16 221.996 1166.39 220.919 1167.22 220.73L1168.96 220.336C1169.3 220.259 1169.58 220.011 1169.69 219.682L1170.26 217.99C1170.54 217.182 1171.63 217.067 1172.07 217.8L1172.98 219.336C1173.16 219.634 1173.48 219.819 1173.83 219.824L1175.61 219.848C1176.47 219.859 1176.92 220.865 1176.35 221.507L1175.18 222.851C1174.95 223.112 1174.87 223.474 1174.97 223.806L1175.5 225.513C1175.75 226.328 1174.94 227.065 1174.15 226.728L1172.51 226.023C1172.19 225.886 1171.82 225.924 1171.54 226.125L1170.08 227.156Z" fill="#FE7098"/>
<circle cx="1058.5" cy="299.5" r="4.5" fill="#C9D2E5"/>
<circle cx="1077.5" cy="221.5" r="1.5" transform="rotate(-180 1077.5 221.5)" fill="#C9D2E5"/>
<circle cx="1144.84" cy="70.8396" r="1.5" transform="rotate(-105.132 1144.84 70.8396)" fill="#C9D2E5"/>
<circle cx="1411.5" cy="73.5" r="8.5" fill="#C9D2E5"/>
<circle cx="1799.5" cy="174.5" r="8.5" fill="#C9D2E5"/>
<circle cx="34.5" cy="1000.5" r="8.5" fill="#C9D2E5"/>
</g>
<path d="M1864.54 954V971.88H1849.08V986.692H1825.67V971.88H1810L1820.37 954H1864.54Z" fill="#C9D2E5"/>
<path d="M1864.54 1017.12L1854.56 1035H1810V1017.12H1825.67V1002.31H1849.08V1017.12H1864.54Z" fill="#C9D2E5"/>
<g opacity="0.94">
<path d="M1864.54 954V971.88H1849.08V986.692H1825.67V971.88H1810L1820.37 954H1864.54Z" fill="white"/>
<path d="M1864.54 1017.12L1854.56 1035H1810V1017.12H1825.67V1002.31H1849.08V1017.12H1864.54Z" fill="white"/>
</g>
<path d="M1864.54 954V971.88H1849.08V986.692H1825.67V971.88H1810L1820.37 954H1864.54Z" fill="#C9D2E5"/>
<path d="M1864.54 1017.12L1854.56 1035H1810V1017.12H1825.67V1002.31H1849.08V1017.12H1864.54Z" fill="#C9D2E5"/>
</g>
<defs>
<filter id="filter0_f_6_5212" x="22" y="17.7056" width="1872.39" height="995.294" filterUnits="userSpaceOnUse" color-interpolation-filters="sRGB">
<feFlood flood-opacity="0" result="BackgroundImageFix"/>
<feBlend mode="normal" in="SourceGraphic" in2="BackgroundImageFix" result="shape"/>
<feGaussianBlur stdDeviation="2" result="effect1_foregroundBlur_6_5212"/>
</filter>
<linearGradient id="paint0_linear_6_5212" x1="960" y1="328" x2="960" y2="1080" gradientUnits="userSpaceOnUse">
<stop stop-color="#088BC1" stop-opacity="0"/>
<stop offset="1" stop-color="#10689A"/>
</linearGradient>
<linearGradient id="paint1_linear_6_5212" x1="960.5" y1="545.551" x2="960.5" y2="1080" gradientUnits="userSpaceOnUse">
<stop stop-color="#0D387C"/>
<stop offset="1" stop-color="#10689A"/>
</linearGradient>
<clipPath id="clip0_6_5212">
<rect width="1920" height="1080" fill="white"/>
</clipPath>
</defs>
</svg>
