<svg width="1800" height="1013" viewBox="0 0 1800 1013" fill="none" xmlns="http://www.w3.org/2000/svg">
<g clip-path="url(#clip0_6_2)">
<rect width="1800" height="1012.5" fill="white"/>
<rect width="1512" height="1345" transform="translate(144 28)" fill="#D9D9D9"/>
<path d="M1811 -10H-24V1096H1811V-10Z" fill="url(#paint0_linear_6_2)"/>
<path d="M1811 -10H-24V1096H1811V-10Z" fill="url(#paint1_linear_6_2)"/>
<g filter="url(#filter0_f_6_2)">
<g opacity="0.5294">
<path d="M179.571 565.289C173.27 549.802 155.806 538.659 135.135 538.659C114.465 538.659 96.8898 549.802 90.6998 565.384C89.926 565.384 89.0418 565.289 88.268 565.289C64.1711 565.289 44.7168 578.604 44.7168 594.941C44.7168 611.278 64.1711 624.593 88.268 624.593C101.311 624.593 166.417 624.593 178.797 624.593C202.894 624.593 222.348 611.278 222.348 594.941C222.238 578.793 203.226 565.572 179.571 565.289Z" fill="url(#paint2_linear_6_2)"/>
</g>
<g opacity="0.5294">
<path d="M434.423 437.615C425.912 422.128 401.926 410.985 373.629 410.985C345.331 410.985 321.345 422.128 312.834 437.709C311.728 437.709 310.623 437.615 309.518 437.615C276.688 437.615 250.049 450.93 250.049 467.267C250.049 483.604 276.688 496.919 309.518 496.919C327.314 496.919 416.295 496.919 433.207 496.919C466.037 496.919 492.676 483.604 492.676 467.267C492.897 451.119 466.81 437.993 434.423 437.615Z" fill="url(#paint3_linear_6_2)"/>
</g>
<g opacity="0.5294">
<path d="M1700.9 544.042C1694.16 528.554 1675.37 517.411 1653.15 517.411C1630.93 517.411 1612.03 528.554 1605.4 544.136C1604.52 544.136 1603.63 544.042 1602.75 544.042C1576.88 544.042 1555.99 557.357 1555.99 573.694C1555.99 590.031 1576.99 603.346 1602.75 603.346C1616.68 603.346 1686.76 603.346 1700.02 603.346C1725.89 603.346 1746.78 590.031 1746.78 573.694C1746.78 557.546 1726.33 544.419 1700.9 544.042Z" fill="url(#paint4_linear_6_2)"/>
</g>
<g opacity="0.5294">
<path d="M1348.65 487.014C1336.38 472.943 1302.22 462.744 1261.77 462.744C1221.31 462.744 1187.05 472.943 1174.89 487.014C1173.34 487.014 1171.68 487.014 1170.13 487.014C1123.16 487.014 1085.02 499.101 1085.02 514.022C1085.02 528.942 1123.16 541.03 1170.13 541.03C1195.56 541.03 1322.78 541.03 1346.99 541.03C1393.97 541.03 1432.1 528.942 1432.1 514.022C1432.1 499.195 1394.96 487.297 1348.65 487.014Z" fill="url(#paint5_linear_6_2)"/>
</g>
<g opacity="0.5294">
<path d="M731.67 609.484C719.401 595.413 685.245 585.215 644.789 585.215C604.333 585.215 570.067 595.413 557.908 609.484C556.36 609.484 554.702 609.484 553.155 609.484C506.177 609.484 468.042 621.572 468.042 636.492C468.042 651.413 506.177 663.5 553.155 663.5C578.578 663.5 705.805 663.5 730.012 663.5C776.99 663.5 815.125 651.413 815.125 636.492C815.125 621.76 777.874 609.767 731.67 609.484Z" fill="url(#paint6_linear_6_2)"/>
</g>
</g>
<path d="M1520.77 766.143L1626.78 601.073L1721.84 765.294" fill="#0D387C"/>
<path d="M1520.77 766.143L1626.78 601.073L1721.84 765.294" stroke="#0D387C" stroke-width="1.2252" stroke-miterlimit="10"/>
<path d="M1672 766L1768.48 551L1855 764.893" fill="#0D387C"/>
<path d="M1672 766L1768.48 551L1855 764.893" stroke="#0D387C" stroke-width="1.2252" stroke-miterlimit="10"/>
<path d="M24 870L129.97 637L225 868.8" fill="#0D387C"/>
<path d="M24 870L129.97 637L225 868.8" stroke="#0D387C" stroke-width="1.2252" stroke-miterlimit="10"/>
<path d="M-60 922L45.9697 689L141 920.8" fill="#0D387C"/>
<path d="M-60 922L45.9697 689L141 920.8" stroke="#0D387C" stroke-width="1.2252" stroke-miterlimit="10"/>
<path d="M1364.71 837.63L1470.71 672.56L1592.3 881.73" fill="#0D387C"/>
<path d="M1364.71 837.63L1470.71 672.56L1592.3 881.73" stroke="#0D387C" stroke-width="1.2252" stroke-miterlimit="10"/>
<path d="M542.212 958.694L613.397 835.458L691.104 989.668" fill="#0D387C"/>
<path d="M542.212 958.694L613.397 835.458L691.104 989.668" stroke="#0D387C" stroke-width="0.8546" stroke-miterlimit="10"/>
<path d="M447 925.236L518.185 802L595.892 956.21" fill="#0D387C"/>
<path d="M447 925.236L518.185 802L595.892 956.21" stroke="#0D387C" stroke-width="0.8546" stroke-miterlimit="10"/>
<g opacity="0.5">
<path opacity="0.7686" d="M158.209 176.689C161.262 176.689 163.736 174.575 163.736 171.967C163.736 169.36 161.262 167.246 158.209 167.246C155.157 167.246 152.682 169.36 152.682 171.967C152.682 174.575 155.157 176.689 158.209 176.689Z" fill="white"/>
<path opacity="0.302" d="M511.593 227.4C514.645 227.4 517.12 225.286 517.12 222.678C517.12 220.071 514.645 217.957 511.593 217.957C508.541 217.957 506.066 220.071 506.066 222.678C506.066 225.286 508.541 227.4 511.593 227.4Z" fill="white"/>
<path opacity="0.2588" d="M170.147 348.086C173.81 348.086 176.779 345.549 176.779 342.42C176.779 339.291 173.81 336.754 170.147 336.754C166.484 336.754 163.515 339.291 163.515 342.42C163.515 345.549 166.484 348.086 170.147 348.086Z" fill="white"/>
<path opacity="0.4902" d="M1279.82 353.752C1283.48 353.752 1286.45 351.215 1286.45 348.086C1286.45 344.957 1283.48 342.42 1279.82 342.42C1276.16 342.42 1273.19 344.957 1273.19 348.086C1273.19 351.215 1276.16 353.752 1279.82 353.752Z" fill="white"/>
<path opacity="0.6" d="M1313.09 248.458C1316.75 248.458 1319.72 245.922 1319.72 242.792C1319.72 239.663 1316.75 237.126 1313.09 237.126C1309.43 237.126 1306.46 239.663 1306.46 242.792C1306.46 245.922 1309.43 248.458 1313.09 248.458Z" fill="white"/>
<path opacity="0.5882" d="M1471.82 191.61C1475.48 191.61 1478.45 189.073 1478.45 185.943C1478.45 182.814 1475.48 180.277 1471.82 180.277C1468.16 180.277 1465.19 182.814 1465.19 185.943C1465.19 189.073 1468.16 191.61 1471.82 191.61Z" fill="white"/>
<path opacity="0.3686" d="M659.38 167.34C663.043 167.34 666.012 164.803 666.012 161.674C666.012 158.545 663.043 156.008 659.38 156.008C655.717 156.008 652.748 158.545 652.748 161.674C652.748 164.803 655.717 167.34 659.38 167.34Z" fill="white"/>
<path opacity="0.6902" d="M269.961 441.67C273.014 441.67 275.488 439.556 275.488 436.948C275.488 434.34 273.014 432.226 269.961 432.226C266.909 432.226 264.434 434.34 264.434 436.948C264.434 439.556 266.909 441.67 269.961 441.67Z" fill="white"/>
<path opacity="0.5294" d="M1097.88 195.387C1100.93 195.387 1103.4 193.273 1103.4 190.665C1103.4 188.057 1100.93 185.943 1097.88 185.943C1094.82 185.943 1092.35 188.057 1092.35 190.665C1092.35 193.273 1094.82 195.387 1097.88 195.387Z" fill="white"/>
<path opacity="0.2196" d="M1149.17 403.519C1152.22 403.519 1154.69 401.405 1154.69 398.797C1154.69 396.189 1152.22 394.075 1149.17 394.075C1146.11 394.075 1143.64 396.189 1143.64 398.797C1143.64 401.405 1146.11 403.519 1149.17 403.519Z" fill="white"/>
<path opacity="0.902" d="M1631.99 299.925C1635.04 299.925 1637.51 297.811 1637.51 295.203C1637.51 292.595 1635.04 290.481 1631.99 290.481C1628.93 290.481 1626.46 292.595 1626.46 295.203C1626.46 297.811 1628.93 299.925 1631.99 299.925Z" fill="white"/>
<path opacity="0.451" d="M1478.45 393.603C1480.28 393.603 1481.77 392.335 1481.77 390.77C1481.77 389.205 1480.28 387.937 1478.45 387.937C1476.62 387.937 1475.14 389.205 1475.14 390.77C1475.14 392.335 1476.62 393.603 1478.45 393.603Z" fill="white"/>
<path d="M1645.8 423.538C1647.64 423.538 1649.12 422.27 1649.12 420.705C1649.12 419.141 1647.64 417.872 1645.8 417.872C1643.97 417.872 1642.49 419.141 1642.49 420.705C1642.49 422.27 1643.97 423.538 1645.8 423.538Z" fill="white"/>
<path opacity="0.7098" d="M984.687 345.253C986.519 345.253 988.004 343.985 988.004 342.42C988.004 340.855 986.519 339.587 984.687 339.587C982.856 339.587 981.371 340.855 981.371 342.42C981.371 343.985 982.856 345.253 984.687 345.253Z" fill="white"/>
<path opacity="0.5216" d="M529.61 523.921C530.831 523.921 531.821 523.076 531.821 522.033C531.821 520.99 530.831 520.144 529.61 520.144C528.39 520.144 527.4 520.99 527.4 522.033C527.4 523.076 528.39 523.921 529.61 523.921Z" fill="white"/>
<path opacity="0.6902" d="M135.66 513.345C136.881 513.345 137.871 512.499 137.871 511.456C137.871 510.413 136.881 509.567 135.66 509.567C134.439 509.567 133.449 510.413 133.449 511.456C133.449 512.499 134.439 513.345 135.66 513.345Z" fill="white"/>
<path d="M767.374 361.873C768.595 361.873 769.584 361.028 769.584 359.985C769.584 358.942 768.595 358.096 767.374 358.096C766.153 358.096 765.163 358.942 765.163 359.985C765.163 361.028 766.153 361.873 767.374 361.873Z" fill="white"/>
<path d="M1186.53 477.177C1187.75 477.177 1188.74 476.331 1188.74 475.288C1188.74 474.245 1187.75 473.399 1186.53 473.399C1185.31 473.399 1184.32 474.245 1184.32 475.288C1184.32 476.331 1185.31 477.177 1186.53 477.177Z" fill="white"/>
<path opacity="0.5686" d="M1364.93 453.379C1366.15 453.379 1367.14 452.534 1367.14 451.491C1367.14 450.448 1366.15 449.602 1364.93 449.602C1363.71 449.602 1362.72 450.448 1362.72 451.491C1362.72 452.534 1363.71 453.379 1364.93 453.379Z" fill="white"/>
<path d="M1522 536.953C1523.22 536.953 1524.21 536.108 1524.21 535.064C1524.21 534.021 1523.22 533.176 1522 533.176C1520.78 533.176 1519.79 534.021 1519.79 535.064C1519.79 536.108 1520.78 536.953 1522 536.953Z" fill="white"/>
<path d="M1234.61 584.264C1235.83 584.264 1236.82 583.419 1236.82 582.376C1236.82 581.333 1235.83 580.487 1234.61 580.487C1233.39 580.487 1232.4 581.333 1232.4 582.376C1232.4 583.419 1233.39 584.264 1234.61 584.264Z" fill="white"/>
<path d="M1653.32 224.567C1654.54 224.567 1655.53 223.721 1655.53 222.678C1655.53 221.635 1654.54 220.79 1653.32 220.79C1652.1 220.79 1651.11 221.635 1651.11 222.678C1651.11 223.721 1652.1 224.567 1653.32 224.567Z" fill="white"/>
<path opacity="0.1882" d="M732.997 245.625C734.828 245.625 736.313 244.357 736.313 242.792C736.313 241.228 734.828 239.959 732.997 239.959C731.165 239.959 729.681 241.228 729.681 242.792C729.681 244.357 731.165 245.625 732.997 245.625Z" fill="white"/>
<path opacity="0.8588" d="M853.371 289.065C855.202 289.065 856.687 287.797 856.687 286.232C856.687 284.667 855.202 283.399 853.371 283.399C851.539 283.399 850.055 284.667 850.055 286.232C850.055 287.797 851.539 289.065 853.371 289.065Z" fill="white"/>
<path opacity="0.3608" d="M1214.16 164.507C1215.99 164.507 1217.48 163.239 1217.48 161.674C1217.48 160.109 1215.99 158.841 1214.16 158.841C1212.33 158.841 1210.84 160.109 1210.84 161.674C1210.84 163.239 1212.33 164.507 1214.16 164.507Z" fill="white"/>
<path d="M921.35 174.8C923.182 174.8 924.666 173.532 924.666 171.967C924.666 170.403 923.182 169.134 921.35 169.134C919.519 169.134 918.034 170.403 918.034 171.967C918.034 173.532 919.519 174.8 921.35 174.8Z" fill="white"/>
<path opacity="0.7686" d="M589.853 311.257C591.684 311.257 593.169 309.988 593.169 308.424C593.169 306.859 591.684 305.591 589.853 305.591C588.021 305.591 586.537 306.859 586.537 308.424C586.537 309.988 588.021 311.257 589.853 311.257Z" fill="white"/>
<path opacity="0.6392" d="M688.672 431.376C690.503 431.376 691.988 430.108 691.988 428.543C691.988 426.979 690.503 425.71 688.672 425.71C686.84 425.71 685.356 426.979 685.356 428.543C685.356 430.108 686.84 431.376 688.672 431.376Z" fill="white"/>
<path opacity="0.8902" d="M428.912 451.019C430.744 451.019 432.228 449.75 432.228 448.186C432.228 446.621 430.744 445.353 428.912 445.353C427.081 445.353 425.596 446.621 425.596 448.186C425.596 449.75 427.081 451.019 428.912 451.019Z" fill="white"/>
<path d="M374.528 255.163C376.36 255.163 377.844 253.895 377.844 252.33C377.844 250.766 376.36 249.497 374.528 249.497C372.697 249.497 371.212 250.766 371.212 252.33C371.212 253.895 372.697 255.163 374.528 255.163Z" fill="white"/>
<path d="M253.16 216.54C254.991 216.54 256.476 215.272 256.476 213.707C256.476 212.142 254.991 210.874 253.16 210.874C251.328 210.874 249.844 212.142 249.844 213.707C249.844 215.272 251.328 216.54 253.16 216.54Z" fill="white"/>
<path opacity="0.4" d="M1581.69 630.537C1584.75 630.537 1587.22 628.423 1587.22 625.815C1587.22 623.207 1584.75 621.094 1581.69 621.094C1578.64 621.094 1576.17 623.207 1576.17 625.815C1576.17 628.423 1578.64 630.537 1581.69 630.537Z" fill="white"/>
</g>
<path d="M1693.78 917.143H102.057V1096H1693.78V917.143Z" fill="url(#paint7_linear_6_2)"/>
<path d="M171.11 683.325V1046.23" stroke="#0D387C" stroke-width="8.0729" stroke-miterlimit="10"/>
<path d="M253.075 641.774V1046.23" stroke="#0D387C" stroke-width="8.5225" stroke-miterlimit="10"/>
<path d="M335.04 619.488V1046.23" stroke="#0D387C" stroke-width="8.7536" stroke-miterlimit="10"/>
<path d="M417.005 612.878V1046.23" stroke="#0D387C" stroke-width="8.8213" stroke-miterlimit="10"/>
<path d="M660.999 651.879V1047.65" stroke="#0D387C" stroke-width="8.4304" stroke-miterlimit="10"/>
<path d="M579.034 629.687V1047.65" stroke="#0D387C" stroke-width="8.6636" stroke-miterlimit="10"/>
<path d="M497.069 612.5V1047.65" stroke="#0D387C" stroke-width="8.8399" stroke-miterlimit="10"/>
<path d="M1150.15 848.584V1014.98" stroke="#0D387C" stroke-width="5.4665" stroke-miterlimit="10"/>
<path d="M1068.18 812.605V1014.98" stroke="#0D387C" stroke-width="6.0288" stroke-miterlimit="10"/>
<path d="M986.218 781.347V1014.98" stroke="#0D387C" stroke-width="6.477" stroke-miterlimit="10"/>
<path d="M905.838 760.194V1009.22" stroke="#0D387C" stroke-width="6.6869" stroke-miterlimit="10"/>
<path d="M823.872 707.972V1009.22" stroke="#0D387C" stroke-width="7.3542" stroke-miterlimit="10"/>
<path d="M741.908 680.964V1009.22" stroke="#0D387C" stroke-width="7.6773" stroke-miterlimit="10"/>
<path d="M126.325 695.318C225.19 602.49 381.304 578.315 521.257 598.429C661.21 618.544 790.495 676.62 920.414 728.464C1050.33 780.309 1193.77 873.42 1335.31 869.171C1476.85 864.921 1618.17 805.239 1672.78 685.497" stroke="#0D387C" stroke-width="8.0664" stroke-miterlimit="10"/>
<path d="M126.325 715.999C225.19 623.171 381.304 598.996 521.257 619.11C661.21 639.225 790.495 697.301 920.414 749.145C1050.23 800.989 1193.77 894.101 1335.31 889.851C1476.85 885.602 1618.17 825.92 1672.78 706.178" stroke="#0D387C" stroke-width="8.0664" stroke-miterlimit="10"/>
<path d="M417.005 598.807C422.839 598.807 427.568 594.579 427.568 589.364C427.568 584.148 422.839 579.92 417.005 579.92C411.172 579.92 406.443 584.148 406.443 589.364C406.443 594.579 411.172 598.807 417.005 598.807Z" fill="url(#paint8_radial_6_2)"/>
<path d="M497.069 601.262C502.902 601.262 507.631 597.035 507.631 591.819C507.631 586.604 502.902 582.376 497.069 582.376C491.235 582.376 486.506 586.604 486.506 591.819C486.506 597.035 491.235 601.262 497.069 601.262Z" fill="url(#paint9_radial_6_2)"/>
<path d="M579.456 617.694C585.29 617.694 590.019 613.466 590.019 608.25C590.019 603.035 585.29 598.807 579.456 598.807C573.623 598.807 568.894 603.035 568.894 608.25C568.894 613.466 573.623 617.694 579.456 617.694Z" fill="url(#paint10_radial_6_2)"/>
<path d="M660.999 638.375C666.832 638.375 671.561 634.147 671.561 628.932C671.561 623.716 666.832 619.488 660.999 619.488C655.165 619.488 650.436 623.716 650.436 628.932C650.436 634.147 655.165 638.375 660.999 638.375Z" fill="url(#paint11_radial_6_2)"/>
<path d="M736.521 661.322C742.354 661.322 747.083 657.094 747.083 651.879C747.083 646.663 742.354 642.435 736.521 642.435C730.687 642.435 725.958 646.663 725.958 651.879C725.958 657.094 730.687 661.322 736.521 661.322Z" fill="url(#paint12_radial_6_2)"/>
<path d="M992.978 769.637C998.812 769.637 1003.54 765.41 1003.54 760.194C1003.54 754.979 998.812 750.751 992.978 750.751C987.145 750.751 982.416 754.979 982.416 760.194C982.416 765.41 987.145 769.637 992.978 769.637Z" fill="url(#paint13_radial_6_2)"/>
<path d="M1068.18 801.273C1074.02 801.273 1078.75 797.045 1078.75 791.829C1078.75 786.614 1074.02 782.386 1068.18 782.386C1062.35 782.386 1057.62 786.614 1057.62 791.829C1057.62 797.045 1062.35 801.273 1068.18 801.273Z" fill="url(#paint14_radial_6_2)"/>
<path d="M1150.15 836.685C1155.98 836.685 1160.71 832.457 1160.71 827.242C1160.71 822.027 1155.98 817.799 1150.15 817.799C1144.31 817.799 1139.59 822.027 1139.59 827.242C1139.59 832.457 1144.31 836.685 1150.15 836.685Z" fill="url(#paint15_radial_6_2)"/>
<path d="M1223.56 864.26C1229.39 864.26 1234.12 860.032 1234.12 854.817C1234.12 849.601 1229.39 845.373 1223.56 845.373C1217.72 845.373 1212.99 849.601 1212.99 854.817C1212.99 860.032 1217.72 864.26 1223.56 864.26Z" fill="url(#paint16_radial_6_2)"/>
<path d="M335.04 608.25C340.874 608.25 345.603 604.023 345.603 598.807C345.603 593.592 340.874 589.364 335.04 589.364C329.207 589.364 324.478 593.592 324.478 598.807C324.478 604.023 329.207 608.25 335.04 608.25Z" fill="url(#paint17_radial_6_2)"/>
<path d="M253.075 628.931C258.909 628.931 263.638 624.703 263.638 619.488C263.638 614.273 258.909 610.045 253.075 610.045C247.242 610.045 242.513 614.273 242.513 619.488C242.513 624.703 247.242 628.931 253.075 628.931Z" fill="url(#paint18_radial_6_2)"/>
<path d="M171.11 665.761C176.944 665.761 181.673 661.533 181.673 656.317C181.673 651.102 176.944 646.874 171.11 646.874C165.277 646.874 160.548 651.102 160.548 656.317C160.548 661.533 165.277 665.761 171.11 665.761Z" fill="url(#paint19_radial_6_2)"/>
<path d="M1421.5 527.887H1407.03C1407.13 527.038 1407.13 526.282 1407.13 525.432C1407.13 504.09 1387.7 486.714 1363.83 486.714C1339.96 486.714 1320.52 504.09 1320.52 525.432C1320.52 526.282 1320.52 527.132 1320.63 527.887H1306.16C1296.12 527.887 1287.88 535.159 1287.88 544.224V581.526C1287.88 590.497 1296.02 597.863 1306.16 597.863H1327.92V1051.52H1399.74V597.768H1421.5C1431.53 597.768 1439.77 590.497 1439.77 581.431V544.13C1439.77 535.253 1431.53 527.887 1421.5 527.887Z" fill="url(#paint20_linear_6_2)"/>
<path d="M1363.83 550.929C1381.33 550.929 1395.52 538.245 1395.52 522.599C1395.52 506.953 1381.33 494.269 1363.83 494.269C1346.33 494.269 1332.14 506.953 1332.14 522.599C1332.14 538.245 1346.33 550.929 1363.83 550.929Z" fill="url(#paint21_radial_6_2)"/>
<path d="M1363.3 620.905C1370.88 620.905 1377.03 615.408 1377.03 608.628C1377.03 601.848 1370.88 596.352 1363.3 596.352C1355.72 596.352 1349.57 601.848 1349.57 608.628C1349.57 615.408 1355.72 620.905 1363.3 620.905Z" fill="url(#paint22_radial_6_2)"/>
<path d="M1363.3 654.901C1370.88 654.901 1377.03 649.404 1377.03 642.624C1377.03 635.844 1370.88 630.348 1363.3 630.348C1355.72 630.348 1349.57 635.844 1349.57 642.624C1349.57 649.404 1355.72 654.901 1363.3 654.901Z" fill="url(#paint23_radial_6_2)"/>
<path d="M1363.3 688.897C1370.88 688.897 1377.03 683.4 1377.03 676.62C1377.03 669.84 1370.88 664.344 1363.3 664.344C1355.72 664.344 1349.57 669.84 1349.57 676.62C1349.57 683.4 1355.72 688.897 1363.3 688.897Z" fill="url(#paint24_radial_6_2)"/>
<path d="M1363.3 722.893C1370.88 722.893 1377.03 717.397 1377.03 710.616C1377.03 703.836 1370.88 698.34 1363.3 698.34C1355.72 698.34 1349.57 703.836 1349.57 710.616C1349.57 717.397 1355.72 722.893 1363.3 722.893Z" fill="url(#paint25_radial_6_2)"/>
<path d="M1363.3 756.889C1370.88 756.889 1377.03 751.393 1377.03 744.613C1377.03 737.832 1370.88 732.336 1363.3 732.336C1355.72 732.336 1349.57 737.832 1349.57 744.613C1349.57 751.393 1355.72 756.889 1363.3 756.889Z" fill="url(#paint26_radial_6_2)"/>
<path d="M1363.3 790.885C1370.88 790.885 1377.03 785.389 1377.03 778.609C1377.03 771.829 1370.88 766.332 1363.3 766.332C1355.72 766.332 1349.57 771.829 1349.57 778.609C1349.57 785.389 1355.72 790.885 1363.3 790.885Z" fill="url(#paint27_radial_6_2)"/>
<path d="M1363.3 824.881C1370.88 824.881 1377.03 819.385 1377.03 812.605C1377.03 805.825 1370.88 800.328 1363.3 800.328C1355.72 800.328 1349.57 805.825 1349.57 812.605C1349.57 819.385 1355.72 824.881 1363.3 824.881Z" fill="url(#paint28_radial_6_2)"/>
<path d="M1363.3 858.877C1370.88 858.877 1377.03 853.381 1377.03 846.601C1377.03 839.821 1370.88 834.324 1363.3 834.324C1355.72 834.324 1349.57 839.821 1349.57 846.601C1349.57 853.381 1355.72 858.877 1363.3 858.877Z" fill="url(#paint29_radial_6_2)"/>
<path d="M467.951 788.43H288.283V1023.38H467.951V788.43Z" fill="url(#paint30_linear_6_2)"/>
<path d="M229.661 1031.12L206.001 783.236L240.646 780.592L264.306 1028.48L229.661 1031.12Z" fill="url(#paint31_linear_6_2)"/>
<path d="M526.678 1031.12L550.232 783.236L515.587 780.592L491.927 1028.48L526.678 1031.12Z" fill="url(#paint32_linear_6_2)"/>
<path d="M563.436 760.761C530.692 745.935 476.189 759.344 465.31 737.152C454.008 714.205 416.406 715.905 405.632 711.561C404.259 710.994 403.203 710.428 402.252 709.767C407.639 706.556 411.019 702.212 411.019 697.396C411.019 687.291 396.337 679.17 378.169 679.17C360.002 679.17 345.32 687.386 345.32 697.396C345.32 702.212 348.594 706.461 354.087 709.767C353.136 710.428 352.08 710.994 350.707 711.561C339.933 715.81 302.225 714.205 291.029 737.152C280.149 759.344 225.753 745.935 192.903 760.761C165.757 773.037 161.216 796.268 161.216 796.268H161.427V809.205H595.123V796.268H595.334C595.123 796.268 590.581 773.131 563.436 760.761Z" fill="url(#paint33_linear_6_2)"/>
<path d="M378.169 730.636C399.52 730.636 416.828 715.162 416.828 696.074C416.828 676.985 399.52 661.511 378.169 661.511C356.819 661.511 339.511 676.985 339.511 696.074C339.511 715.162 356.819 730.636 378.169 730.636Z" fill="url(#paint34_radial_6_2)"/>
<path d="M226.492 842.729C234.717 842.729 241.385 836.768 241.385 829.414C241.385 822.06 234.717 816.099 226.492 816.099C218.267 816.099 211.599 822.06 211.599 829.414C211.599 836.768 218.267 842.729 226.492 842.729Z" fill="url(#paint35_radial_6_2)"/>
<path d="M275.396 838.952C283.622 838.952 290.289 832.99 290.289 825.637C290.289 818.283 283.622 812.322 275.396 812.322C267.171 812.322 260.503 818.283 260.503 825.637C260.503 832.99 267.171 838.952 275.396 838.952Z" fill="url(#paint36_radial_6_2)"/>
<path d="M230.717 886.452C238.942 886.452 245.61 880.491 245.61 873.137C245.61 865.783 238.942 859.822 230.717 859.822C222.492 859.822 215.824 865.783 215.824 873.137C215.824 880.491 222.492 886.452 230.717 886.452Z" fill="url(#paint37_radial_6_2)"/>
<path d="M234.942 930.175C243.167 930.175 249.835 924.213 249.835 916.86C249.835 909.506 243.167 903.544 234.942 903.544C226.717 903.544 220.049 909.506 220.049 916.86C220.049 924.213 226.717 930.175 234.942 930.175Z" fill="url(#paint38_radial_6_2)"/>
<path d="M239.167 973.897C247.392 973.897 254.06 967.936 254.06 960.582C254.06 953.228 247.392 947.267 239.167 947.267C230.942 947.267 224.274 953.228 224.274 960.582C224.274 967.936 230.942 973.897 239.167 973.897Z" fill="url(#paint39_radial_6_2)"/>
<path d="M243.286 1017.62C251.511 1017.62 258.179 1011.66 258.179 1004.31C258.179 996.951 251.511 990.99 243.286 990.99C235.061 990.99 228.393 996.951 228.393 1004.31C228.393 1011.66 235.061 1017.62 243.286 1017.62Z" fill="url(#paint40_radial_6_2)"/>
<path d="M512.947 1017.62C521.172 1017.62 527.84 1011.66 527.84 1004.31C527.84 996.951 521.172 990.99 512.947 990.99C504.722 990.99 498.054 996.951 498.054 1004.31C498.054 1011.66 504.722 1017.62 512.947 1017.62Z" fill="url(#paint41_radial_6_2)"/>
<path d="M517.172 973.897C525.397 973.897 532.065 967.936 532.065 960.582C532.065 953.228 525.397 947.267 517.172 947.267C508.947 947.267 502.279 953.228 502.279 960.582C502.279 967.936 508.947 973.897 517.172 973.897Z" fill="url(#paint42_radial_6_2)"/>
<path d="M521.291 930.175C529.516 930.175 536.184 924.213 536.184 916.86C536.184 909.506 529.516 903.544 521.291 903.544C513.066 903.544 506.398 909.506 506.398 916.86C506.398 924.213 513.066 930.175 521.291 930.175Z" fill="url(#paint43_radial_6_2)"/>
<path d="M525.516 886.452C533.741 886.452 540.409 880.491 540.409 873.137C540.409 865.783 533.741 859.822 525.516 859.822C517.291 859.822 510.623 865.783 510.623 873.137C510.623 880.491 517.291 886.452 525.516 886.452Z" fill="url(#paint44_radial_6_2)"/>
<path d="M529.741 842.729C537.966 842.729 544.634 836.768 544.634 829.414C544.634 822.06 537.966 816.099 529.741 816.099C521.516 816.099 514.848 822.06 514.848 829.414C514.848 836.768 521.516 842.729 529.741 842.729Z" fill="url(#paint45_radial_6_2)"/>
<path d="M480.837 838.952C489.062 838.952 495.73 832.99 495.73 825.637C495.73 818.283 489.062 812.322 480.837 812.322C472.612 812.322 465.944 818.283 465.944 825.637C465.944 832.99 472.612 838.952 480.837 838.952Z" fill="url(#paint46_radial_6_2)"/>
<path d="M1809 1009H-1V1096H1809V1009Z" fill="#0D387C"/>
<path d="M1560.29 744.896L1371.39 856.328C1354.47 866.243 1344.52 882.391 1344.52 899.578V1009.12H1576.65H1808.78V735.264H1596.66C1583.61 735.264 1570.9 738.663 1560.29 744.896Z" fill="url(#paint47_linear_6_2)"/>
<path d="M194.706 854.439L353.215 924.131C359.847 927.058 363.826 932.441 363.826 938.296V1009.12H181.441H-0.943085V848.584H166.187C176.136 848.584 185.973 850.567 194.706 854.439Z" fill="url(#paint48_linear_6_2)"/>
<path d="M1177.19 1022.91L1235.28 693.619L1249.65 695.696L1191.55 1024.99L1177.19 1022.91Z" fill="url(#paint49_linear_6_2)"/>
<path d="M1238.66 705.423C1274.26 724.687 1333.62 715.338 1361.19 684.553C1362.24 717.132 1343.65 749.901 1315.35 765.766C1286.93 781.631 1255.35 781.253 1229.26 762.744" fill="url(#paint50_linear_6_2)"/>
<path d="M1242.46 706.556C1249.81 706.556 1255.77 701.229 1255.77 694.657C1255.77 688.086 1249.81 682.759 1242.46 682.759C1235.11 682.759 1229.16 688.086 1229.16 694.657C1229.16 701.229 1235.11 706.556 1242.46 706.556Z" fill="url(#paint51_linear_6_2)"/>
<g opacity="0.451">
<path d="M251.596 641.774H177.659V1061.91H251.596V641.774Z" fill="url(#paint52_linear_6_2)"/>
<path d="M98.5963 641.774H24.6588V1061.91H98.5963V641.774Z" fill="url(#paint53_linear_6_2)"/>
<path d="M1375.45 641.774H1350.1V1061.91H1375.45V641.774Z" fill="url(#paint54_linear_6_2)"/>
<path d="M630.684 641.774H513.441V1061.91H630.684V641.774Z" fill="url(#paint55_linear_6_2)"/>
<path d="M1194.62 641.774H1184.05V1061.91H1194.62V641.774Z" fill="url(#paint56_linear_6_2)"/>
<path d="M1621.34 641.774H1610.78V1061.91H1621.34V641.774Z" fill="url(#paint57_linear_6_2)"/>
<path d="M333.033 641.774H305.148V1061.91H333.033V641.774Z" fill="url(#paint58_linear_6_2)"/>
<path d="M821.866 641.774H803.909V1061.91H821.866V641.774Z" fill="url(#paint59_linear_6_2)"/>
<path d="M470.346 641.774H423.871V1061.91H470.346V641.774Z" fill="url(#paint60_linear_6_2)"/>
<path d="M947.665 641.774H901.19V1061.91H947.665V641.774Z" fill="url(#paint61_linear_6_2)"/>
<path d="M1266.55 641.774H1222.18V1061.91H1266.55V641.774Z" fill="url(#paint62_linear_6_2)"/>
<path d="M1581.31 641.774H1479.91V1061.91H1581.31V641.774Z" fill="url(#paint63_linear_6_2)"/>
<path d="M1776.31 641.774H1674.91V1061.91H1776.31V641.774Z" fill="url(#paint64_linear_6_2)"/>
</g>
<path opacity="0.5294" d="M252.336 894.007C256.127 894.007 259.201 891.258 259.201 887.868C259.201 884.478 256.127 881.73 252.336 881.73C248.544 881.73 245.47 884.478 245.47 887.868C245.47 891.258 248.544 894.007 252.336 894.007Z" fill="white"/>
<path opacity="0.5294" d="M96.3356 866.007C100.127 866.007 103.201 863.258 103.201 859.868C103.201 856.478 100.127 853.73 96.3356 853.73C92.5439 853.73 89.47 856.478 89.47 859.868C89.47 863.258 92.5439 866.007 96.3356 866.007Z" fill="white"/>
<path opacity="0.5294" d="M540.692 775.209C544.484 775.209 547.557 772.461 547.557 769.071C547.557 765.681 544.484 762.933 540.692 762.933C536.9 762.933 533.826 765.681 533.826 769.071C533.826 772.461 536.9 775.209 540.692 775.209Z" fill="white"/>
<path opacity="0.5294" d="M423.871 947.739C427.662 947.739 430.736 944.991 430.736 941.601C430.736 938.211 427.662 935.463 423.871 935.463C420.079 935.463 417.005 938.211 417.005 941.601C417.005 944.991 420.079 947.739 423.871 947.739Z" fill="white"/>
<path opacity="0.5294" d="M598.152 903.45C601.069 903.45 603.433 901.336 603.433 898.728C603.433 896.121 601.069 894.007 598.152 894.007C595.235 894.007 592.871 896.121 592.871 898.728C592.871 901.336 595.235 903.45 598.152 903.45Z" fill="white"/>
<path opacity="0.5294" d="M453.445 739.985C456.362 739.985 458.727 737.871 458.727 735.264C458.727 732.656 456.362 730.542 453.445 730.542C450.529 730.542 448.164 732.656 448.164 735.264C448.164 737.871 450.529 739.985 453.445 739.985Z" fill="white"/>
<path opacity="0.5294" d="M333.033 1013.84C335.95 1013.84 338.314 1011.73 338.314 1009.12C338.314 1006.51 335.95 1004.4 333.033 1004.4C330.116 1004.4 327.752 1006.51 327.752 1009.12C327.752 1011.73 330.116 1013.84 333.033 1013.84Z" fill="white"/>
<path opacity="0.5294" d="M313.281 884.091C314.74 884.091 315.922 883.034 315.922 881.73C315.922 880.426 314.74 879.369 313.281 879.369C311.823 879.369 310.641 880.426 310.641 881.73C310.641 883.034 311.823 884.091 313.281 884.091Z" fill="white"/>
<path opacity="0.5294" d="M327.752 765.294C329.21 765.294 330.393 764.237 330.393 762.933C330.393 761.629 329.21 760.572 327.752 760.572C326.294 760.572 325.111 761.629 325.111 762.933C325.111 764.237 326.294 765.294 327.752 765.294Z" fill="white"/>
<path opacity="0.5294" d="M201.424 986.268C202.883 986.268 204.065 985.211 204.065 983.907C204.065 982.603 202.883 981.546 201.424 981.546C199.966 981.546 198.784 982.603 198.784 983.907C198.784 985.211 199.966 986.268 201.424 986.268Z" fill="white"/>
<path opacity="0.5294" d="M61.4244 969.268C62.8828 969.268 64.065 968.211 64.065 966.907C64.065 965.603 62.8828 964.546 61.4244 964.546C59.966 964.546 58.7838 965.603 58.7838 966.907C58.7838 968.211 59.966 969.268 61.4244 969.268Z" fill="white"/>
<path opacity="0.5294" d="M235.224 788.43C236.683 788.43 237.865 787.373 237.865 786.069C237.865 784.765 236.683 783.708 235.224 783.708C233.766 783.708 232.584 784.765 232.584 786.069C232.584 787.373 233.766 788.43 235.224 788.43Z" fill="white"/>
<path opacity="0.5294" d="M430.736 685.686C432.195 685.686 433.377 684.629 433.377 683.325C433.377 682.021 432.195 680.964 430.736 680.964C429.278 680.964 428.096 682.021 428.096 683.325C428.096 684.629 429.278 685.686 430.736 685.686Z" fill="white"/>
<path opacity="0.5294" d="M458.727 874.553C460.185 874.553 461.368 873.496 461.368 872.192C461.368 870.889 460.185 869.832 458.727 869.832C457.269 869.832 456.086 870.889 456.086 872.192C456.086 873.496 457.269 874.553 458.727 874.553Z" fill="white"/>
<path opacity="0.5294" d="M576.816 829.603C578.274 829.603 579.456 828.546 579.456 827.242C579.456 825.938 578.274 824.881 576.816 824.881C575.357 824.881 574.175 825.938 574.175 827.242C574.175 828.546 575.357 829.603 576.816 829.603Z" fill="white"/>
<path opacity="0.5294" d="M540.692 964.36C542.15 964.36 543.332 963.303 543.332 961.999C543.332 960.695 542.15 959.638 540.692 959.638C539.233 959.638 538.051 960.695 538.051 961.999C538.051 963.303 539.233 964.36 540.692 964.36Z" fill="white"/>
<path opacity="0.5294" d="M556.536 705.611C557.994 705.611 559.176 704.554 559.176 703.251C559.176 701.947 557.994 700.89 556.536 700.89C555.077 700.89 553.895 701.947 553.895 703.251C553.895 704.554 555.077 705.611 556.536 705.611Z" fill="white"/>
<path opacity="0.5294" d="M812.043 998.544C813.501 998.544 814.683 997.487 814.683 996.184C814.683 994.88 813.501 993.823 812.043 993.823C810.584 993.823 809.402 994.88 809.402 996.184C809.402 997.487 810.584 998.544 812.043 998.544Z" fill="white"/>
<path opacity="0.5294" d="M814.683 753.112C816.142 753.112 817.324 752.055 817.324 750.751C817.324 749.447 816.142 748.39 814.683 748.39C813.225 748.39 812.043 749.447 812.043 750.751C812.043 752.055 813.225 753.112 814.683 753.112Z" fill="white"/>
<path opacity="0.5294" d="M915.027 796.551C916.485 796.551 917.667 795.494 917.667 794.19C917.667 792.886 916.485 791.829 915.027 791.829C913.568 791.829 912.386 792.886 912.386 794.19C912.386 795.494 913.568 796.551 915.027 796.551Z" fill="white"/>
<path opacity="0.5294" d="M931.082 891.457C932.54 891.457 933.723 890.4 933.723 889.096C933.723 887.792 932.54 886.735 931.082 886.735C929.624 886.735 928.441 887.792 928.441 889.096C928.441 890.4 929.624 891.457 931.082 891.457Z" fill="white"/>
<path opacity="0.5294" d="M1235.28 901.089C1236.74 901.089 1237.92 900.032 1237.92 898.728C1237.92 897.424 1236.74 896.367 1235.28 896.367C1233.82 896.367 1232.64 897.424 1232.64 898.728C1232.64 900.032 1233.82 901.089 1235.28 901.089Z" fill="white"/>
<path opacity="0.5294" d="M1245.1 710.333C1246.56 710.333 1247.75 709.276 1247.75 707.972C1247.75 706.668 1246.56 705.611 1245.1 705.611C1243.65 705.611 1242.46 706.668 1242.46 707.972C1242.46 709.276 1243.65 710.333 1245.1 710.333Z" fill="white"/>
<path opacity="0.5294" d="M1370.17 742.346C1371.62 742.346 1372.81 741.289 1372.81 739.985C1372.81 738.681 1371.62 737.625 1370.17 737.625C1368.71 737.625 1367.52 738.681 1367.52 739.985C1367.52 741.289 1368.71 742.346 1370.17 742.346Z" fill="white"/>
<path opacity="0.5294" d="M1356.96 879.275C1358.42 879.275 1359.6 878.218 1359.6 876.914C1359.6 875.61 1358.42 874.553 1356.96 874.553C1355.5 874.553 1354.32 875.61 1354.32 876.914C1354.32 878.218 1355.5 879.275 1356.96 879.275Z" fill="white"/>
<path opacity="0.5294" d="M1390.76 1011.48C1392.22 1011.48 1393.4 1010.42 1393.4 1009.12C1393.4 1007.82 1392.22 1006.76 1390.76 1006.76C1389.3 1006.76 1388.12 1007.82 1388.12 1009.12C1388.12 1010.42 1389.3 1011.48 1390.76 1011.48Z" fill="white"/>
<path opacity="0.5294" d="M1509.59 1011.48C1511.05 1011.48 1512.23 1010.42 1512.23 1009.12C1512.23 1007.82 1511.05 1006.76 1509.59 1006.76C1508.13 1006.76 1506.95 1007.82 1506.95 1009.12C1506.95 1010.42 1508.13 1011.48 1509.59 1011.48Z" fill="white"/>
<path opacity="0.5294" d="M1555.54 726.481C1557 726.481 1558.18 725.424 1558.18 724.12C1558.18 722.817 1557 721.76 1555.54 721.76C1554.08 721.76 1552.9 722.817 1552.9 724.12C1552.9 725.424 1554.08 726.481 1555.54 726.481Z" fill="white"/>
<path opacity="0.5294" d="M1621.34 931.213C1622.8 931.213 1623.98 930.156 1623.98 928.853C1623.98 927.549 1622.8 926.492 1621.34 926.492C1619.88 926.492 1618.7 927.549 1618.7 928.853C1618.7 930.156 1619.88 931.213 1621.34 931.213Z" fill="white"/>
<path opacity="0.5294" d="M1603.6 712.694C1605.05 712.694 1606.24 711.637 1606.24 710.333C1606.24 709.029 1605.05 707.972 1603.6 707.972C1602.14 707.972 1600.96 709.029 1600.96 710.333C1600.96 711.637 1602.14 712.694 1603.6 712.694Z" fill="white"/>
<path opacity="0.5294" d="M193.503 683.325C196.419 683.325 198.784 681.211 198.784 678.604C198.784 675.996 196.419 673.882 193.503 673.882C190.586 673.882 188.221 675.996 188.221 678.604C188.221 681.211 190.586 683.325 193.503 683.325Z" fill="white"/>
<path opacity="0.5294" d="M812.043 862.277C814.959 862.277 817.324 860.163 817.324 857.555C817.324 854.947 814.959 852.833 812.043 852.833C809.126 852.833 806.761 854.947 806.761 857.555C806.761 860.163 809.126 862.277 812.043 862.277Z" fill="white"/>
<path opacity="0.5294" d="M1258.84 786.069C1261.75 786.069 1264.12 783.955 1264.12 781.347C1264.12 778.74 1261.75 776.626 1258.84 776.626C1255.92 776.626 1253.55 778.74 1253.55 781.347C1253.55 783.955 1255.92 786.069 1258.84 786.069Z" fill="white"/>
<path opacity="0.5294" d="M1375.45 933.574C1378.36 933.574 1380.73 931.46 1380.73 928.853C1380.73 926.245 1378.36 924.131 1375.45 924.131C1372.53 924.131 1370.17 926.245 1370.17 928.853C1370.17 931.46 1372.53 933.574 1375.45 933.574Z" fill="white"/>
<path opacity="0.5294" d="M1543.39 876.914C1546.31 876.914 1548.67 874.8 1548.67 872.192C1548.67 869.585 1546.31 867.471 1543.39 867.471C1540.47 867.471 1538.11 869.585 1538.11 872.192C1538.11 874.8 1540.47 876.914 1543.39 876.914Z" fill="white"/>
<path opacity="0.5294" d="M1251.97 996.184C1255.76 996.184 1258.84 993.435 1258.84 990.045C1258.84 986.655 1255.76 983.907 1251.97 983.907C1248.18 983.907 1245.1 986.655 1245.1 990.045C1245.1 993.435 1248.18 996.184 1251.97 996.184Z" fill="white"/>
<path opacity="0.5294" d="M1356.96 831.019C1360.75 831.019 1363.83 828.271 1363.83 824.881C1363.83 821.491 1360.75 818.743 1356.96 818.743C1353.17 818.743 1350.1 821.491 1350.1 824.881C1350.1 828.271 1353.17 831.019 1356.96 831.019Z" fill="white"/>
<path opacity="0.5294" d="M1502.72 781.347C1506.52 781.347 1509.59 778.599 1509.59 775.209C1509.59 771.819 1506.52 769.071 1502.72 769.071C1498.93 769.071 1495.86 771.819 1495.86 775.209C1495.86 778.599 1498.93 781.347 1502.72 781.347Z" fill="white"/>
<path opacity="0.5294" d="M1762.72 776.347C1766.52 776.347 1769.59 773.599 1769.59 770.209C1769.59 766.819 1766.52 764.071 1762.72 764.071C1758.93 764.071 1755.86 766.819 1755.86 770.209C1755.86 773.599 1758.93 776.347 1762.72 776.347Z" fill="white"/>
<path opacity="0.5294" d="M1555.54 970.026C1559.33 970.026 1562.4 967.277 1562.4 963.887C1562.4 960.497 1559.33 957.749 1555.54 957.749C1551.75 957.749 1548.67 960.497 1548.67 963.887C1548.67 967.277 1551.75 970.026 1555.54 970.026Z" fill="white"/>
<path opacity="0.5294" d="M1621.34 818.743C1625.13 818.743 1628.21 815.995 1628.21 812.605C1628.21 809.215 1625.13 806.467 1621.34 806.467C1617.55 806.467 1614.48 809.215 1614.48 812.605C1614.48 815.995 1617.55 818.743 1621.34 818.743Z" fill="white"/>
<path opacity="0.5294" d="M1704.34 909.743C1708.13 909.743 1711.21 906.995 1711.21 903.605C1711.21 900.215 1708.13 897.467 1704.34 897.467C1700.55 897.467 1697.48 900.215 1697.48 903.605C1697.48 906.995 1700.55 909.743 1704.34 909.743Z" fill="white"/>
<path opacity="0.149" d="M204.065 883.902C233.233 883.902 256.878 862.763 256.878 836.685C256.878 810.608 233.233 789.469 204.065 789.469C174.897 789.469 151.253 810.608 151.253 836.685C151.253 862.763 174.897 883.902 204.065 883.902Z" fill="#C9D2E5"/>
<path opacity="0.0509804" d="M1487.62 399.08C1522.62 399.08 1551 373.712 1551 342.42C1551 311.127 1522.62 285.76 1487.62 285.76C1452.62 285.76 1424.25 311.127 1424.25 342.42C1424.25 373.712 1452.62 399.08 1487.62 399.08Z" fill="#C9D2E5"/>
<path opacity="0.0509804" d="M1044.1 305.213C1058.68 305.213 1070.51 294.643 1070.51 281.605C1070.51 268.566 1058.68 257.996 1044.1 257.996C1029.52 257.996 1017.69 268.566 1017.69 281.605C1017.69 294.643 1029.52 305.213 1044.1 305.213Z" fill="white"/>
<path opacity="0.0705882" d="M289.093 401.441C362.012 401.441 421.124 348.592 421.124 283.399C421.124 218.206 362.012 165.357 289.093 165.357C216.174 165.357 157.062 218.206 157.062 283.399C157.062 348.592 216.174 401.441 289.093 401.441Z" fill="#FE7098"/>
<path opacity="0.149" d="M1287.88 262.151C1305.38 262.151 1319.57 249.468 1319.57 233.821C1319.57 218.175 1305.38 205.491 1287.88 205.491C1270.38 205.491 1256.2 218.175 1256.2 233.821C1256.2 249.468 1270.38 262.151 1287.88 262.151Z" fill="#B73C94"/>
<path opacity="0.0509804" d="M660.999 395.869C684.333 395.869 703.249 378.958 703.249 358.096C703.249 337.234 684.333 320.323 660.999 320.323C637.665 320.323 618.749 337.234 618.749 358.096C618.749 378.958 637.665 395.869 660.999 395.869Z" fill="#F99557"/>
<path opacity="0.149" d="M1557.86 1055.96C1581.19 1055.96 1600.11 1039.05 1600.11 1018.19C1600.11 997.325 1581.19 980.413 1557.86 980.413C1534.53 980.413 1515.61 997.325 1515.61 1018.19C1515.61 1039.05 1534.53 1055.96 1557.86 1055.96Z" fill="#F99557"/>
<path opacity="0.149" d="M483.549 622.038C501.049 622.038 515.236 609.354 515.236 593.708C515.236 578.061 501.049 565.378 483.549 565.378C466.048 565.378 451.861 578.061 451.861 593.708C451.861 609.354 466.048 622.038 483.549 622.038Z" fill="#B73C94"/>
<path opacity="0.0392157" d="M1253.55 924.036C1329.39 924.036 1390.87 869.073 1390.87 801.273C1390.87 733.472 1329.39 678.509 1253.55 678.509C1177.72 678.509 1116.24 733.472 1116.24 801.273C1116.24 869.073 1177.72 924.036 1253.55 924.036Z" fill="#FCDC8F"/>
<path d="M1161 1009C1161 1010 1155.86 1011.2 1154 1013C1152.09 1014.85 1152 1019 1150.5 1019C1149 1019 1149.4 1015.55 1147.5 1013C1146.28 1011.37 1140 1010 1140 1009C1140 1008 1146.28 1007.63 1147.5 1006C1149.4 1003.45 1149 999 1150.5 999C1152 999 1152.09 1004.15 1154 1006C1155.86 1007.8 1161 1008 1161 1009Z" fill="#FCDC8F" fill-opacity="0.51"/>
<path d="M98.7542 47.1628H104.213V55.4975H112.664V47.1628H118.13V67.6043H112.664V59.7542H104.213V67.6043H98.7542V47.1628Z" fill="#C9D2E5"/>
<path d="M137.575 67.6043L136.14 63.9886H127.093L125.627 67.6043H120.016L129.002 47.1628H134.613L143.423 67.6043H137.575ZM128.734 59.9033H134.529L131.658 52.6124L128.734 59.9033Z" fill="#C9D2E5"/>
<path d="M157.432 52.0982C156.584 51.6269 155.629 51.3706 154.653 51.3527C153.641 51.334 152.644 51.5922 151.775 52.0982C150.909 52.6158 150.202 53.3525 149.729 54.2303C149.237 55.1643 148.981 56.1994 148.981 57.2496C148.981 58.2997 149.237 59.3348 149.729 60.2688C150.2 61.1458 150.907 61.8805 151.775 62.3935C152.644 62.8995 153.641 63.1577 154.653 63.139C155.586 63.1194 156.503 62.9006 157.34 62.4978C158.278 62.0656 159.129 61.4722 159.852 60.7459L163.043 64.1454C161.894 65.3235 160.519 66.2706 158.997 66.9335C157.384 67.6661 155.617 68.0163 153.839 67.9554C152.061 67.8945 150.323 67.4243 148.767 66.5831C147.124 65.6796 145.763 64.3579 144.828 62.7588C143.862 61.1097 143.367 59.2383 143.392 57.339C143.364 55.4729 143.859 53.6348 144.826 52.0247C145.792 50.4145 147.192 49.094 148.874 48.2067C150.63 47.2843 152.598 46.8147 154.592 46.8425C156.169 46.8507 157.728 47.1728 159.173 47.7892C160.614 48.3818 161.914 49.2601 162.99 50.3687L159.829 54.0961C159.176 53.2793 158.361 52.5997 157.432 52.0982V52.0982Z" fill="#C9D2E5"/>
<path d="M185.496 67.6043H178.961L173.464 59.6722L170.838 62.5275V67.6043H165.372V47.1628H170.838V56.0268L178.694 47.1628H185.023L177.258 55.5869L185.496 67.6043Z" fill="#C9D2E5"/>
<path d="M98.6701 83.1628H104.136V103.604H98.6701V83.1628Z" fill="#C9D2E5"/>
<path d="M108.198 83.1628H113.649V99.0568H122.52V103.604H108.198V83.1628Z" fill="#C9D2E5"/>
<path d="M126.681 83.1628H132.147V99.0568H141.018V103.604H126.681V83.1628Z" fill="#C9D2E5"/>
<path d="M144.064 83.1628H149.53V103.604H144.064V83.1628Z" fill="#C9D2E5"/>
<path d="M168.456 83.1628H173.533V103.604H168.754L159.264 91.3931V103.604H154.157V83.1628H158.966L168.487 95.456L168.456 83.1628Z" fill="#C9D2E5"/>
<path d="M193.947 84.2139C195.619 85.0785 197.022 86.3659 198.009 87.9414C199 89.5628 199.51 91.421 199.482 93.309C199.513 95.1956 199.013 97.0543 198.037 98.6828C197.061 100.311 195.647 101.647 193.947 102.546C192.178 103.494 190.186 103.977 188.168 103.947C186.152 103.975 184.162 103.497 182.389 102.561C180.701 101.677 179.296 100.356 178.327 98.7436C177.336 97.0978 176.827 95.218 176.854 93.309C176.829 91.4459 177.33 89.612 178.3 88.008C179.271 86.4039 180.675 85.0914 182.358 84.2139C184.145 83.3125 186.126 82.842 188.137 82.842C190.148 82.842 192.13 83.3125 193.917 84.2139H193.947ZM185.343 88.1501C184.456 88.6785 183.731 89.4305 183.244 90.327C182.728 91.2608 182.465 92.3078 182.48 93.3686C182.454 94.4425 182.718 95.5042 183.244 96.4475C183.737 97.3413 184.461 98.0942 185.343 98.6318C186.201 99.1634 187.198 99.4429 188.214 99.4369C189.223 99.4437 190.212 99.164 191.061 98.6318C191.933 98.0981 192.641 97.3431 193.107 96.4475C193.599 95.4988 193.855 94.4505 193.855 93.3872C193.855 92.324 193.599 91.2757 193.107 90.327C192.64 89.4334 191.933 88.6809 191.061 88.1501C190.203 87.6458 189.216 87.3875 188.214 87.4046C187.205 87.3904 186.212 87.6484 185.343 88.1501Z" fill="#C9D2E5"/>
<path d="M201.933 83.1628H207.399V103.604H201.933V83.1628Z" fill="#C9D2E5"/>
<path d="M222.057 87.7403C221.036 87.3796 219.965 87.1734 218.881 87.129C218.325 87.1014 217.771 87.228 217.285 87.4943C217.099 87.6046 216.946 87.7616 216.843 87.949C216.739 88.1365 216.689 88.3476 216.698 88.5603C216.696 88.7727 216.741 88.983 216.829 89.1771C216.917 89.3713 217.047 89.5448 217.209 89.686C217.573 90.0112 217.998 90.2644 218.461 90.4315C218.957 90.6179 219.698 90.8564 220.675 91.177C221.9 91.5091 223.101 91.9201 224.271 92.4071C225.232 92.8221 226.07 93.4684 226.706 94.2857C227.42 95.2444 227.778 96.4118 227.722 97.5957C227.755 98.8435 227.366 100.067 226.615 101.077C225.831 102.073 224.771 102.828 223.561 103.254C222.193 103.76 220.741 104.013 219.278 103.999C217.511 103.996 215.757 103.696 214.094 103.112C212.467 102.574 210.953 101.75 209.628 100.682L211.751 96.5073C212.862 97.4541 214.129 98.2102 215.499 98.7438C216.7 99.2775 217.997 99.5764 219.316 99.6234C219.99 99.6565 220.659 99.5041 221.248 99.1836C221.471 99.0506 221.655 98.8616 221.778 98.6361C221.902 98.4106 221.961 98.1569 221.95 97.9014C221.957 97.6803 221.913 97.4606 221.822 97.2582C221.731 97.0558 221.594 96.8757 221.423 96.7309C221.041 96.399 220.595 96.1455 220.11 95.9854C219.583 95.7991 218.843 95.5829 217.889 95.3294C216.676 95.0162 215.487 94.6201 214.331 94.1441C213.392 93.7416 212.566 93.1225 211.926 92.34C211.22 91.4095 210.867 90.2686 210.926 89.112C210.902 87.9149 211.271 86.7418 211.98 85.7647C212.715 84.7582 213.733 83.9814 214.911 83.5282C216.312 82.9977 217.807 82.7443 219.309 82.7827C220.825 82.7827 222.334 82.9936 223.79 83.409C225.161 83.7816 226.47 84.3466 227.676 85.0863L225.615 89.3431C224.49 88.6871 223.298 88.1498 222.057 87.7403V87.7403Z" fill="#C9D2E5"/>
<path d="M54.971 69.2594H72.0262V58.7256H83.2945V46H51.1157L43.55 58.7256H54.971V69.2594Z" fill="#C9D2E5"/>
<path d="M72.0262 80.3748H54.971V90.9086H43.55V103.634H76.0266L83.2945 90.9086H72.0262V80.3748Z" fill="#C9D2E5"/>
</g>
<defs>
<filter id="filter0_f_6_2" x="24.7168" y="390.985" width="1742.06" height="292.515" filterUnits="userSpaceOnUse" color-interpolation-filters="sRGB">
<feFlood flood-opacity="0" result="BackgroundImageFix"/>
<feBlend mode="normal" in="SourceGraphic" in2="BackgroundImageFix" result="shape"/>
<feGaussianBlur stdDeviation="10" result="effect1_foregroundBlur_6_2"/>
</filter>
<linearGradient id="paint0_linear_6_2" x1="893.5" y1="47.8562" x2="893.5" y2="1455.79" gradientUnits="userSpaceOnUse">
<stop stop-color="#0D387C"/>
<stop offset="0.2753" stop-color="#856D93"/>
<stop offset="0.5505" stop-color="#FEA3AA"/>
<stop offset="0.6698" stop-color="#FEADA5"/>
<stop offset="0.8717" stop-color="#FDC899"/>
<stop offset="1" stop-color="#FCDC8F"/>
</linearGradient>
<linearGradient id="paint1_linear_6_2" x1="893.5" y1="47.8562" x2="893.5" y2="1455.79" gradientUnits="userSpaceOnUse">
<stop stop-color="#0D387C"/>
<stop offset="0.2753" stop-color="#856D93"/>
<stop offset="0.5505" stop-color="#FEA3AA"/>
<stop offset="0.6698" stop-color="#FEADA5"/>
<stop offset="0.8717" stop-color="#FDC899"/>
<stop offset="1" stop-color="#FCDC8F"/>
</linearGradient>
<linearGradient id="paint2_linear_6_2" x1="133.435" y1="522.986" x2="133.435" y2="658.301" gradientUnits="userSpaceOnUse">
<stop stop-color="#0D387C"/>
<stop offset="1" stop-color="#C9D2E5"/>
</linearGradient>
<linearGradient id="paint3_linear_6_2" x1="371.481" y1="395.332" x2="371.481" y2="530.647" gradientUnits="userSpaceOnUse">
<stop stop-color="#0D387C"/>
<stop offset="1" stop-color="#C9D2E5"/>
</linearGradient>
<linearGradient id="paint4_linear_6_2" x1="1651.35" y1="501.761" x2="1651.35" y2="637.077" gradientUnits="userSpaceOnUse">
<stop stop-color="#0D387C"/>
<stop offset="1" stop-color="#C9D2E5"/>
</linearGradient>
<linearGradient id="paint5_linear_6_2" x1="1258.62" y1="433.227" x2="1258.62" y2="619.628" gradientUnits="userSpaceOnUse">
<stop stop-color="#0D387C"/>
<stop offset="1" stop-color="#C9D2E5"/>
</linearGradient>
<linearGradient id="paint6_linear_6_2" x1="641.551" y1="563.419" x2="641.551" y2="704.368" gradientUnits="userSpaceOnUse">
<stop stop-color="#0D387C"/>
<stop offset="1" stop-color="#C9D2E5"/>
</linearGradient>
<linearGradient id="paint7_linear_6_2" x1="897.917" y1="1036.1" x2="897.917" y2="838.957" gradientUnits="userSpaceOnUse">
<stop stop-color="#0D387C"/>
<stop offset="1" stop-color="#10689A"/>
</linearGradient>
<radialGradient id="paint8_radial_6_2" cx="0" cy="0" r="1" gradientUnits="userSpaceOnUse" gradientTransform="translate(417.029 589.364) scale(12.6535 11.3128)">
<stop stop-color="white"/>
<stop offset="1" stop-color="white" stop-opacity="0"/>
</radialGradient>
<radialGradient id="paint9_radial_6_2" cx="0" cy="0" r="1" gradientUnits="userSpaceOnUse" gradientTransform="translate(497.019 591.816) scale(12.6535 11.3128)">
<stop stop-color="white"/>
<stop offset="1" stop-color="white" stop-opacity="0"/>
</radialGradient>
<radialGradient id="paint10_radial_6_2" cx="0" cy="0" r="1" gradientUnits="userSpaceOnUse" gradientTransform="translate(579.456 608.25) scale(12.6535 11.3128)">
<stop stop-color="white"/>
<stop offset="1" stop-color="white" stop-opacity="0"/>
</radialGradient>
<radialGradient id="paint11_radial_6_2" cx="0" cy="0" r="1" gradientUnits="userSpaceOnUse" gradientTransform="translate(660.965 628.975) scale(12.6535 11.3128)">
<stop stop-color="white"/>
<stop offset="1" stop-color="white" stop-opacity="0"/>
</radialGradient>
<radialGradient id="paint12_radial_6_2" cx="0" cy="0" r="1" gradientUnits="userSpaceOnUse" gradientTransform="translate(736.493 651.882) scale(12.6535 11.3128)">
<stop stop-color="white"/>
<stop offset="1" stop-color="white" stop-opacity="0"/>
</radialGradient>
<radialGradient id="paint13_radial_6_2" cx="0" cy="0" r="1" gradientUnits="userSpaceOnUse" gradientTransform="translate(992.927 760.193) scale(12.6535 11.3128)">
<stop stop-color="white"/>
<stop offset="1" stop-color="white" stop-opacity="0"/>
</radialGradient>
<radialGradient id="paint14_radial_6_2" cx="0" cy="0" r="1" gradientUnits="userSpaceOnUse" gradientTransform="translate(1068.22 791.871) scale(12.6535 11.3128)">
<stop stop-color="white"/>
<stop offset="1" stop-color="white" stop-opacity="0"/>
</radialGradient>
<radialGradient id="paint15_radial_6_2" cx="0" cy="0" r="1" gradientUnits="userSpaceOnUse" gradientTransform="translate(1150.19 827.223) scale(12.6535 11.3128)">
<stop stop-color="white"/>
<stop offset="1" stop-color="white" stop-opacity="0"/>
</radialGradient>
<radialGradient id="paint16_radial_6_2" cx="0" cy="0" r="1" gradientUnits="userSpaceOnUse" gradientTransform="translate(1223.56 854.827) scale(12.6535 11.3128)">
<stop stop-color="white"/>
<stop offset="1" stop-color="white" stop-opacity="0"/>
</radialGradient>
<radialGradient id="paint17_radial_6_2" cx="0" cy="0" r="1" gradientUnits="userSpaceOnUse" gradientTransform="translate(335.056 598.807) scale(12.6535 11.3128)">
<stop stop-color="white"/>
<stop offset="1" stop-color="white" stop-opacity="0"/>
</radialGradient>
<radialGradient id="paint18_radial_6_2" cx="0" cy="0" r="1" gradientUnits="userSpaceOnUse" gradientTransform="translate(253.083 619.531) scale(12.6535 11.3128)">
<stop stop-color="white"/>
<stop offset="1" stop-color="white" stop-opacity="0"/>
</radialGradient>
<radialGradient id="paint19_radial_6_2" cx="0" cy="0" r="1" gradientUnits="userSpaceOnUse" gradientTransform="translate(171.109 656.36) scale(12.6535 11.3128)">
<stop stop-color="white"/>
<stop offset="1" stop-color="white" stop-opacity="0"/>
</radialGradient>
<linearGradient id="paint20_linear_6_2" x1="1138.96" y1="749.006" x2="1411.21" y2="781.881" gradientUnits="userSpaceOnUse">
<stop stop-color="#FEA3AA"/>
<stop offset="1" stop-color="#0D387C"/>
</linearGradient>
<radialGradient id="paint21_radial_6_2" cx="0" cy="0" r="1" gradientUnits="userSpaceOnUse" gradientTransform="translate(1363.82 522.593) scale(31.6875 28.3301)">
<stop stop-color="#FE7098"/>
<stop offset="1" stop-color="#FF7099" stop-opacity="0.1098"/>
</radialGradient>
<radialGradient id="paint22_radial_6_2" cx="0" cy="0" r="1" gradientUnits="userSpaceOnUse" gradientTransform="translate(1363.3 608.655) scale(13.7312 12.2764)">
<stop stop-color="#FEA3AA"/>
<stop offset="1" stop-color="#FFA3AB" stop-opacity="0.0784314"/>
</radialGradient>
<radialGradient id="paint23_radial_6_2" cx="0" cy="0" r="1" gradientUnits="userSpaceOnUse" gradientTransform="translate(1363.3 642.651) scale(13.7312 12.2764)">
<stop stop-color="#FEA3AA"/>
<stop offset="1" stop-color="#FFA3AB" stop-opacity="0.0784314"/>
</radialGradient>
<radialGradient id="paint24_radial_6_2" cx="0" cy="0" r="1" gradientUnits="userSpaceOnUse" gradientTransform="translate(1363.3 676.647) scale(13.7312 12.2764)">
<stop stop-color="#FEA3AA"/>
<stop offset="1" stop-color="#FFA3AB" stop-opacity="0.0784314"/>
</radialGradient>
<radialGradient id="paint25_radial_6_2" cx="0" cy="0" r="1" gradientUnits="userSpaceOnUse" gradientTransform="translate(1363.3 710.643) scale(13.7312 12.2764)">
<stop stop-color="#FEA3AA"/>
<stop offset="1" stop-color="#FFA3AB" stop-opacity="0.0784314"/>
</radialGradient>
<radialGradient id="paint26_radial_6_2" cx="0" cy="0" r="1" gradientUnits="userSpaceOnUse" gradientTransform="translate(1363.3 744.64) scale(13.7312 12.2764)">
<stop stop-color="#FEA3AA"/>
<stop offset="1" stop-color="#FFA3AB" stop-opacity="0.0784314"/>
</radialGradient>
<radialGradient id="paint27_radial_6_2" cx="0" cy="0" r="1" gradientUnits="userSpaceOnUse" gradientTransform="translate(1363.3 778.636) scale(13.7312 12.2764)">
<stop stop-color="#FEA3AA"/>
<stop offset="1" stop-color="#FFA3AB" stop-opacity="0.0784314"/>
</radialGradient>
<radialGradient id="paint28_radial_6_2" cx="0" cy="0" r="1" gradientUnits="userSpaceOnUse" gradientTransform="translate(1363.3 812.632) scale(13.7312 12.2764)">
<stop stop-color="#FEA3AA"/>
<stop offset="1" stop-color="#FFA3AB" stop-opacity="0.0784314"/>
</radialGradient>
<radialGradient id="paint29_radial_6_2" cx="0" cy="0" r="1" gradientUnits="userSpaceOnUse" gradientTransform="translate(1363.3 846.628) scale(13.7312 12.2764)">
<stop stop-color="#FEA3AA"/>
<stop offset="1" stop-color="#FFA3AB" stop-opacity="0.0784314"/>
</radialGradient>
<linearGradient id="paint30_linear_6_2" x1="171.398" y1="905.889" x2="595.85" y2="905.889" gradientUnits="userSpaceOnUse">
<stop stop-color="#FCDC8F"/>
<stop offset="0.00118029" stop-color="#FBDB8F"/>
<stop offset="0.0818022" stop-color="#BDB18A"/>
<stop offset="0.1616" stop-color="#878C86"/>
<stop offset="0.2388" stop-color="#5B6E82"/>
<stop offset="0.3127" stop-color="#395680"/>
<stop offset="0.3826" stop-color="#21467E"/>
<stop offset="0.4468" stop-color="#123B7C"/>
<stop offset="0.5" stop-color="#0D387C"/>
<stop offset="0.5451" stop-color="#153D7D"/>
<stop offset="0.614" stop-color="#2A4C7E"/>
<stop offset="0.6981" stop-color="#4D6481"/>
<stop offset="0.7943" stop-color="#7D8585"/>
<stop offset="0.8991" stop-color="#BAAF8A"/>
<stop offset="1" stop-color="#FCDC8F"/>
</linearGradient>
<linearGradient id="paint31_linear_6_2" x1="7.11687" y1="918.443" x2="255.604" y2="901.327" gradientUnits="userSpaceOnUse">
<stop stop-color="#FCDC8F"/>
<stop offset="0.5813" stop-color="#6F7B84"/>
<stop offset="1" stop-color="#0D387C"/>
</linearGradient>
<linearGradient id="paint32_linear_6_2" x1="502.067" y1="904.491" x2="657.965" y2="918.798" gradientUnits="userSpaceOnUse">
<stop stop-color="#0D387C"/>
<stop offset="1" stop-color="#FCDC8F"/>
</linearGradient>
<linearGradient id="paint33_linear_6_2" x1="-5.39545" y1="556.059" x2="396.199" y2="868.32" gradientUnits="userSpaceOnUse">
<stop stop-color="#FCDC8F"/>
<stop offset="0.1525" stop-color="#C2B48A"/>
<stop offset="0.3153" stop-color="#8C8F86"/>
<stop offset="0.4744" stop-color="#5E7082"/>
<stop offset="0.6259" stop-color="#3B5780"/>
<stop offset="0.7678" stop-color="#22467E"/>
<stop offset="0.8964" stop-color="#123C7C"/>
<stop offset="1" stop-color="#0D387C"/>
</linearGradient>
<radialGradient id="paint34_radial_6_2" cx="0" cy="0" r="1" gradientUnits="userSpaceOnUse" gradientTransform="translate(378.133 696.109) scale(38.6468 34.552)">
<stop stop-color="#FE7098"/>
<stop offset="1" stop-color="#FF7099" stop-opacity="0.1098"/>
</radialGradient>
<radialGradient id="paint35_radial_6_2" cx="0" cy="0" r="1" gradientUnits="userSpaceOnUse" gradientTransform="translate(226.614 829.377) rotate(-4.38407) scale(14.8716 13.3154)">
<stop stop-color="#FCDC8F"/>
<stop offset="1" stop-color="#FCDC90" stop-opacity="0.2"/>
</radialGradient>
<radialGradient id="paint36_radial_6_2" cx="0" cy="0" r="1" gradientUnits="userSpaceOnUse" gradientTransform="translate(275.522 825.627) rotate(-4.38407) scale(14.8716 13.3154)">
<stop stop-color="#FCDC8F"/>
<stop offset="1" stop-color="#FCDC90" stop-opacity="0.2"/>
</radialGradient>
<radialGradient id="paint37_radial_6_2" cx="0" cy="0" r="1" gradientUnits="userSpaceOnUse" gradientTransform="translate(230.808 873.103) rotate(-4.38406) scale(14.8716 13.3154)">
<stop stop-color="#FCDC8F"/>
<stop offset="1" stop-color="#FCDC90" stop-opacity="0.2"/>
</radialGradient>
<radialGradient id="paint38_radial_6_2" cx="0" cy="0" r="1" gradientUnits="userSpaceOnUse" gradientTransform="translate(235.002 916.829) rotate(-4.38407) scale(14.8716 13.3154)">
<stop stop-color="#FCDC8F"/>
<stop offset="1" stop-color="#FCDC90" stop-opacity="0.2"/>
</radialGradient>
<radialGradient id="paint39_radial_6_2" cx="0" cy="0" r="1" gradientUnits="userSpaceOnUse" gradientTransform="translate(239.195 960.556) rotate(-4.38407) scale(14.8716 13.3154)">
<stop stop-color="#FCDC8F"/>
<stop offset="1" stop-color="#FCDC90" stop-opacity="0.2"/>
</radialGradient>
<radialGradient id="paint40_radial_6_2" cx="0" cy="0" r="1" gradientUnits="userSpaceOnUse" gradientTransform="translate(243.389 1004.28) rotate(-4.38407) scale(14.8716 13.3154)">
<stop stop-color="#FCDC8F"/>
<stop offset="1" stop-color="#FCDC90" stop-opacity="0.2"/>
</radialGradient>
<radialGradient id="paint41_radial_6_2" cx="0" cy="0" r="1" gradientUnits="userSpaceOnUse" gradientTransform="translate(512.876 1004.28) rotate(-175.616) scale(14.8716 13.3154)">
<stop stop-color="#FCDC8F"/>
<stop offset="1" stop-color="#FCDC90" stop-opacity="0.2"/>
</radialGradient>
<radialGradient id="paint42_radial_6_2" cx="0" cy="0" r="1" gradientUnits="userSpaceOnUse" gradientTransform="translate(517.07 960.555) rotate(-175.616) scale(14.8716 13.3154)">
<stop stop-color="#FCDC8F"/>
<stop offset="1" stop-color="#FCDC90" stop-opacity="0.2"/>
</radialGradient>
<radialGradient id="paint43_radial_6_2" cx="0" cy="0" r="1" gradientUnits="userSpaceOnUse" gradientTransform="translate(521.264 916.829) rotate(-175.616) scale(14.8716 13.3154)">
<stop stop-color="#FCDC8F"/>
<stop offset="1" stop-color="#FCDC90" stop-opacity="0.2"/>
</radialGradient>
<radialGradient id="paint44_radial_6_2" cx="0" cy="0" r="1" gradientUnits="userSpaceOnUse" gradientTransform="translate(525.458 873.102) rotate(-175.616) scale(14.8716 13.3154)">
<stop stop-color="#FCDC8F"/>
<stop offset="1" stop-color="#FCDC90" stop-opacity="0.2"/>
</radialGradient>
<radialGradient id="paint45_radial_6_2" cx="0" cy="0" r="1" gradientUnits="userSpaceOnUse" gradientTransform="translate(529.652 829.376) rotate(-175.616) scale(14.8716 13.3154)">
<stop stop-color="#FCDC8F"/>
<stop offset="1" stop-color="#FCDC90" stop-opacity="0.2"/>
</radialGradient>
<radialGradient id="paint46_radial_6_2" cx="0" cy="0" r="1" gradientUnits="userSpaceOnUse" gradientTransform="translate(480.744 825.626) rotate(-175.616) scale(14.8716 13.3154)">
<stop stop-color="#FCDC8F"/>
<stop offset="1" stop-color="#FCDC90" stop-opacity="0.2"/>
</radialGradient>
<linearGradient id="paint47_linear_6_2" x1="1618.08" y1="961.391" x2="1464.57" y2="508.581" gradientUnits="userSpaceOnUse">
<stop stop-color="#0D387C"/>
<stop offset="0.4672" stop-color="#846D93"/>
<stop offset="0.8345" stop-color="#DC94A3"/>
<stop offset="1" stop-color="#FEA3AA"/>
</linearGradient>
<linearGradient id="paint48_linear_6_2" x1="172.745" y1="955.747" x2="64.7975" y2="677.448" gradientUnits="userSpaceOnUse">
<stop stop-color="#0D387C"/>
<stop offset="1" stop-color="#FE7098"/>
</linearGradient>
<linearGradient id="paint49_linear_6_2" x1="1203.82" y1="913.746" x2="1255.29" y2="548.992" gradientUnits="userSpaceOnUse">
<stop stop-color="#0D387C"/>
<stop offset="1" stop-color="#10689A"/>
</linearGradient>
<linearGradient id="paint50_linear_6_2" x1="1293.78" y1="745.68" x2="1300.69" y2="637.726" gradientUnits="userSpaceOnUse">
<stop stop-color="#0D387C"/>
<stop offset="1" stop-color="#10689A"/>
</linearGradient>
<linearGradient id="paint51_linear_6_2" x1="1242.24" y1="698.573" x2="1243.91" y2="672.441" gradientUnits="userSpaceOnUse">
<stop stop-color="#0D387C"/>
<stop offset="1" stop-color="#10689A"/>
</linearGradient>
<linearGradient id="paint52_linear_6_2" x1="214.624" y1="639.892" x2="214.624" y2="1060.61" gradientUnits="userSpaceOnUse">
<stop stop-color="#37DECD" stop-opacity="0"/>
<stop offset="0.5" stop-color="#37DECD" stop-opacity="0.7412"/>
<stop offset="1" stop-color="#37DECD" stop-opacity="0"/>
</linearGradient>
<linearGradient id="paint53_linear_6_2" x1="61.6238" y1="639.892" x2="61.6238" y2="1060.61" gradientUnits="userSpaceOnUse">
<stop stop-color="#37DECD" stop-opacity="0"/>
<stop offset="0.5" stop-color="#37DECD" stop-opacity="0.7412"/>
<stop offset="1" stop-color="#37DECD" stop-opacity="0"/>
</linearGradient>
<linearGradient id="paint54_linear_6_2" x1="1362.77" y1="639.892" x2="1362.77" y2="1060.61" gradientUnits="userSpaceOnUse">
<stop stop-color="#37DECD" stop-opacity="0"/>
<stop offset="0.5" stop-color="#37DECD" stop-opacity="0.7412"/>
<stop offset="1" stop-color="#37DECD" stop-opacity="0"/>
</linearGradient>
<linearGradient id="paint55_linear_6_2" x1="572.07" y1="639.892" x2="572.07" y2="1060.61" gradientUnits="userSpaceOnUse">
<stop stop-color="#37DECD" stop-opacity="0"/>
<stop offset="0.5" stop-color="#37DECD" stop-opacity="0.7412"/>
<stop offset="1" stop-color="#37DECD" stop-opacity="0"/>
</linearGradient>
<linearGradient id="paint56_linear_6_2" x1="1189.34" y1="639.892" x2="1189.34" y2="1060.61" gradientUnits="userSpaceOnUse">
<stop stop-color="#37DECD" stop-opacity="0"/>
<stop offset="0.5" stop-color="#37DECD" stop-opacity="0.7412"/>
<stop offset="1" stop-color="#37DECD" stop-opacity="0"/>
</linearGradient>
<linearGradient id="paint57_linear_6_2" x1="1616.06" y1="639.892" x2="1616.06" y2="1060.61" gradientUnits="userSpaceOnUse">
<stop stop-color="#37DECD" stop-opacity="0"/>
<stop offset="0.5" stop-color="#37DECD" stop-opacity="0.7412"/>
<stop offset="1" stop-color="#37DECD" stop-opacity="0"/>
</linearGradient>
<linearGradient id="paint58_linear_6_2" x1="319.098" y1="639.892" x2="319.098" y2="1060.61" gradientUnits="userSpaceOnUse">
<stop stop-color="#CAD3E6" stop-opacity="0"/>
<stop offset="0.5" stop-color="#CAD3E6" stop-opacity="0.6706"/>
<stop offset="1" stop-color="#CAD3E6" stop-opacity="0"/>
</linearGradient>
<linearGradient id="paint59_linear_6_2" x1="812.856" y1="639.892" x2="812.856" y2="1060.61" gradientUnits="userSpaceOnUse">
<stop stop-color="#CAD3E6" stop-opacity="0"/>
<stop offset="0.5" stop-color="#CAD3E6" stop-opacity="0.6706"/>
<stop offset="1" stop-color="#CAD3E6" stop-opacity="0"/>
</linearGradient>
<linearGradient id="paint60_linear_6_2" x1="447.132" y1="639.892" x2="447.132" y2="1060.61" gradientUnits="userSpaceOnUse">
<stop stop-color="white" stop-opacity="0"/>
<stop offset="0.5" stop-color="white" stop-opacity="0.6118"/>
<stop offset="1" stop-color="white" stop-opacity="0"/>
</linearGradient>
<linearGradient id="paint61_linear_6_2" x1="924.442" y1="639.892" x2="924.442" y2="1060.61" gradientUnits="userSpaceOnUse">
<stop stop-color="white" stop-opacity="0"/>
<stop offset="0.5" stop-color="white" stop-opacity="0.6118"/>
<stop offset="1" stop-color="white" stop-opacity="0"/>
</linearGradient>
<linearGradient id="paint62_linear_6_2" x1="1244.37" y1="639.892" x2="1244.37" y2="1060.61" gradientUnits="userSpaceOnUse">
<stop stop-color="#CAD3E6" stop-opacity="0"/>
<stop offset="0.5" stop-color="#CAD3E6" stop-opacity="0.6706"/>
<stop offset="1" stop-color="#CAD3E6" stop-opacity="0"/>
</linearGradient>
<linearGradient id="paint63_linear_6_2" x1="1530.62" y1="639.892" x2="1530.62" y2="1060.61" gradientUnits="userSpaceOnUse">
<stop stop-color="#CAD3E6" stop-opacity="0"/>
<stop offset="0.5" stop-color="#CAD3E6" stop-opacity="0.6706"/>
<stop offset="1" stop-color="#CAD3E6" stop-opacity="0"/>
</linearGradient>
<linearGradient id="paint64_linear_6_2" x1="1725.62" y1="639.892" x2="1725.62" y2="1060.61" gradientUnits="userSpaceOnUse">
<stop stop-color="#CAD3E6" stop-opacity="0"/>
<stop offset="0.5" stop-color="#CAD3E6" stop-opacity="0.6706"/>
<stop offset="1" stop-color="#CAD3E6" stop-opacity="0"/>
</linearGradient>
<clipPath id="clip0_6_2">
<rect width="1800" height="1012.5" fill="white"/>
</clipPath>
</defs>
</svg>
