<svg width="200" height="35" viewBox="0 0 200 35" fill="none" xmlns="http://www.w3.org/2000/svg">
<g clip-path="url(#clip0)">
<path d="M199.336 33.7076C199.336 31.5877 198.114 30.8509 196.076 30.8509H180.76C173.573 30.8509 171.038 26.4006 170.711 23.3333H191.968C198.17 23.3333 200 18.8684 200 15.9912C200 12.924 198.012 8.65205 191.968 8.65205H180.488C170.029 8.65205 166.594 15.769 166.594 21.5439C166.594 27.886 170.509 34.4357 180.459 34.4357H199.336V33.7076ZM180.789 12.2339H191.447C195.12 12.2339 196.006 14.5234 196.006 15.9942C196.006 17.3099 195.202 19.7515 191.447 19.7515H170.711C170.962 17.193 173.099 12.2339 180.789 12.2339ZM137.427 32.807C136.333 34.3012 135.579 34.8275 134.617 34.8275C133.287 34.8275 132.775 34.1053 131.822 32.807C129.512 29.6608 114.137 8.65205 114.137 8.65205H116.515C119.082 8.65205 119.819 9.55848 120.901 11.0468C121.365 11.6988 134.734 30.5439 134.734 30.5439C134.734 30.5439 148.091 11.7222 148.637 10.9532C149.62 9.55848 150.392 8.65789 152.959 8.65789H155.047C155.047 8.65789 139.316 30.2427 137.427 32.807ZM36.6023 34.4357C34.9912 34.4357 33.9708 33.6404 33.6784 31.9181L33.1491 29.1199C32.2719 30.731 29.0556 34.4357 22.0585 34.4357H14.0351C3.09941 34.4357 0 27.0234 0 21.5439C0 15.3713 3.7076 8.65205 14.0351 8.65205H22.0585C29.883 8.65205 34.2368 13.2105 35.2836 18.7632C36.1608 23.4006 38.2076 34.4357 38.2076 34.4357H36.6023ZM21.1725 12.2339H14.307C6.59064 12.2339 3.96199 17.1433 3.96199 21.5439C3.96199 25.9912 6.59357 30.8509 14.307 30.8509H21.1725C29.2398 30.8509 31.5789 25.731 31.5789 21.5439C31.5789 17.8041 29.4854 12.2339 21.1725 12.2339ZM160.199 5.69883C161.345 5.69883 162.246 4.9883 162.246 3.65205V2.79532C162.246 1.4386 161.348 0.748538 160.199 0.748538C159.05 0.748538 158.17 1.42982 158.17 2.79532V3.6462C158.17 4.99708 159.064 5.69883 160.199 5.69883ZM158.219 8.64912H159.161C161 8.64912 162.178 9.47661 162.178 11.9795V34.4357H161.193C159.181 34.4357 158.219 33.345 158.219 31.1784V8.64912ZM44.2573 11.9883C45.9649 10.3743 48.9854 8.64035 53.7807 8.64035H61.8158C72.7515 8.64035 75.8509 16.0526 75.8509 21.5322C75.8509 27.7018 72.1433 34.424 61.8158 34.424H53.7807C45.9561 34.424 40.2953 29.3655 40.2953 21.5322V0H41.5205C43.2749 0 44.2544 0.897661 44.2544 2.54678L44.2573 11.9883ZM54.6784 30.8509H61.5439C69.2602 30.8509 71.8889 25.9415 71.8889 21.5439C71.8889 17.0965 69.2573 12.2339 61.5439 12.2339H54.6784C46.617 12.2339 44.269 17.348 44.269 21.5439C44.2573 25.2807 46.3538 30.8509 54.6784 30.8509ZM83.8129 11.9883C85.5205 10.3743 88.5409 8.64035 93.3363 8.64035H101.371C112.307 8.64035 115.406 16.0526 115.406 21.5322C115.406 27.7018 111.699 34.424 101.371 34.424H93.3363C85.5117 34.424 79.8509 29.3655 79.8509 21.5322V0H81.0789C82.8333 0 83.8129 0.897661 83.8129 2.54678V11.9883ZM94.2222 30.8392H101.088C108.804 30.8392 111.433 25.9298 111.433 21.5322C111.433 17.0848 108.801 12.2222 101.088 12.2222H94.2222C86.1608 12.2222 83.8129 17.3363 83.8129 21.5322C83.8129 25.2807 85.9093 30.8509 94.2222 30.8509V30.8392Z" fill="#00013A"/>
</g>
<defs>
<clipPath id="clip0">
<rect width="200" height="34.8275" fill="white"/>
</clipPath>
</defs>
</svg>
