<svg width="500" height="174" viewBox="0 0 500 174" fill="none" xmlns="http://www.w3.org/2000/svg">
<g clip-path="url(#clip0)">
<path d="M464.283 16.1633C431.755 -19.7089 222.494 12.5592 133.483 31.9981L131.414 32.4535C131.313 32.4715 131.215 32.5093 131.128 32.5648C131.041 32.6202 130.966 32.6923 130.907 32.7769C130.848 32.8615 130.806 32.9569 130.783 33.0577C130.761 33.1585 130.759 33.2627 130.777 33.3643C130.795 33.466 130.832 33.5631 130.888 33.6502C130.943 33.7373 131.015 33.8125 131.1 33.8717C131.185 33.9309 131.28 33.9729 131.381 33.9952C131.482 34.0176 131.586 34.0198 131.687 34.0019L133.743 33.5985C207.478 20.4701 360.804 2.26722 393.801 34.9907C403.872 44.9705 401.465 57.8257 389.793 72.9969C396.257 77.2464 400.837 83.8204 402.584 91.3559C448.123 61.0395 478.765 32.1543 464.283 16.1633ZM328.848 125.797C308.212 140.409 283.764 155.723 257.481 171.857L256.44 172.456C256.271 172.576 256.156 172.758 256.12 172.962C256.083 173.167 256.128 173.377 256.245 173.549C256.304 173.634 256.378 173.706 256.465 173.762C256.552 173.818 256.649 173.856 256.751 173.874C256.852 173.892 256.957 173.89 257.057 173.868C257.158 173.845 257.254 173.803 257.338 173.744L258.21 173.288C280.511 161.578 306.131 147.825 331.893 133.656L332.309 133.422C330.844 131.026 329.698 128.45 328.9 125.758L328.848 125.797Z" fill="#D03128"/>
<path d="M331.347 115.699C330.605 94.1649 347.481 72.1367 371.994 72.1367C388.388 72.1367 399.123 83.0532 399.721 99.7858C400.502 122.504 384.732 143.361 359.074 143.361C342.68 143.361 331.945 132.457 331.347 115.699ZM342.016 116.375C342.432 128.996 350.421 139.34 360.83 139.34C381.024 139.34 389.612 114.619 389.013 97.9903C388.584 85.3302 380.399 75.0252 369.99 75.0252C352.633 75.0252 341.365 99.7468 342.016 116.375Z" fill="#084A77"/>
<path d="M120.446 96.7572C120.27 99.0215 119.953 101.273 119.496 103.497L115.879 123.73C115.7 124.553 115.804 125.412 116.172 126.169C116.54 126.926 117.151 127.538 117.908 127.906L117.791 128.7H97.1552L96.9731 123.496C93.8649 125.34 90.5268 126.766 87.0454 127.737C83.8205 128.593 80.4929 129 77.1568 128.947C70.495 128.947 66.6697 128.258 64.0414 125.942C61.4131 123.626 60.0599 122.038 60.138 118.694C60.3568 116.491 61.2264 114.403 62.6361 112.696C64.156 111.022 66.0324 109.71 68.1269 108.858C70.7597 107.677 73.5527 106.892 76.4151 106.529C80.0583 105.943 85.1458 105.345 91.9507 104.772C94.2819 104.625 96.5748 104.107 98.7426 103.237C100.161 102.69 100.72 102.079 100.929 100.921C101.306 98.8391 100.642 97.655 97.8839 97.1085C90.4414 95.6513 76.5062 98.0454 69.324 99.8539L73.2274 89.3148C82.393 87.8814 91.6518 87.1247 100.929 87.0508C115.787 87.0508 120.55 91.2925 120.446 96.7312V96.7572ZM99.146 110.016C98.0289 110.412 96.8855 110.729 95.724 110.966C94.3318 111.278 91.8206 111.733 88.0603 112.267C86.1795 112.435 84.3563 113.003 82.7126 113.932C82.2677 114.227 81.8881 114.61 81.5971 115.058C81.3062 115.506 81.1102 116.008 81.0212 116.534C80.9145 117.046 80.9643 117.577 81.1638 118.06C81.3634 118.543 81.7036 118.954 82.1401 119.241C83.6569 120.047 85.3721 120.403 87.0845 120.269C88.8117 120.263 90.5277 119.991 92.1719 119.462C93.691 119.004 95.1055 118.252 96.3355 117.25C97.1342 116.542 97.7464 115.648 98.1181 114.648C98.5718 113.113 98.9153 111.548 99.146 109.964V110.016Z" fill="#084A77"/>
<path d="M188.547 78.9032C189.133 75.5723 194.389 72.8789 200.258 72.8789C206.126 72.8789 210.406 75.5723 209.847 78.9032C209.287 82.2341 203.992 84.9144 198.137 84.9144C192.282 84.9144 187.988 82.2211 188.586 78.9032H188.547ZM180.285 128.698L187.454 88.2583H207.219L200.049 128.698H180.285Z" fill="#084A77"/>
<path d="M298.715 96.838C298.543 99.1042 298.217 101.356 297.739 103.578L294.161 123.837C293.983 124.656 294.083 125.512 294.446 126.269C294.809 127.025 295.414 127.639 296.164 128.013L296.047 128.716H275.411L275.255 123.511C272.148 125.356 268.81 126.778 265.327 127.74C262.093 128.619 258.75 129.031 255.4 128.963C248.738 128.963 244.991 128.286 242.297 125.97C239.604 123.654 238.316 122.067 238.459 118.736C238.647 116.524 239.515 114.424 240.944 112.725C242.459 111.023 244.341 109.688 246.448 108.821C249.077 107.663 251.853 106.87 254.697 106.466C258.379 105.907 263.48 105.282 270.311 104.71C272.625 104.562 274.903 104.058 277.064 103.214C278.508 102.667 279.067 102.043 279.289 100.872C279.653 98.8418 279.002 97.6187 276.257 97.0722C268.775 95.5889 254.879 98.009 247.697 99.8046L251.6 89.2654C260.754 87.8968 269.995 87.201 279.25 87.1836C294.095 87.1836 298.767 91.4513 298.767 96.877L298.715 96.838ZM277.415 110.11C276.287 110.486 275.141 110.803 273.98 111.059C272.601 111.398 270.077 111.801 266.303 112.361C264.43 112.525 262.614 113.093 260.982 114.026C260.088 114.632 259.47 115.568 259.264 116.628C259.162 117.139 259.215 117.669 259.416 118.149C259.618 118.629 259.96 119.038 260.396 119.322C261.925 120.12 263.647 120.471 265.366 120.337C267.088 120.336 268.799 120.073 270.441 119.556C271.96 119.089 273.378 118.339 274.618 117.344C275.393 116.621 275.994 115.731 276.374 114.742C276.822 113.213 277.17 111.657 277.415 110.084V110.11Z" fill="#084A77"/>
<path d="M57.4837 114.167C52.1002 115.382 46.5952 115.976 41.0764 115.937C31.6302 115.937 24.1617 111.24 24.539 102.652C24.8253 96.9271 31.6042 84.8526 48.8312 84.8526C54.2516 84.7413 59.5883 86.2009 64.1976 89.0552L66.6958 75.016C60.4953 72.5527 53.8445 71.4265 47.1788 71.7111C24.5911 71.9583 2.94019 82.2243 0.207804 103.094C-2.53759 124.316 23.42 129.651 34.883 129.599C41.5188 129.599 48.4148 129.312 54.8685 128.636L57.4707 114.167H57.4837Z" fill="#084A77"/>
<path d="M218.109 88.0259L219.527 79.8027L240.202 75.3008L238.003 88.0259H248.126L246.201 96.171H236.377L230.418 128.699C230.418 128.699 210.511 128.556 210.445 128.699L216.379 96.2881H208.871L210.393 88.0909L218.109 88.0259Z" fill="#084A77"/>
<path d="M318.778 128.672L298.649 128.698L308.772 72.2812L328.38 72.8407L318.778 128.672Z" fill="#084A77"/>
<path d="M118.155 142.661L127.771 88.4813H145.128L143.827 95.3903C145.715 93.0242 148.217 91.2235 151.061 90.1858C154.604 88.67 158.41 87.8612 162.264 87.8047C166.805 87.8047 169.589 88.0389 172.985 89.7954C176.205 91.4232 178.691 94.2068 179.946 97.5892C181.257 101.105 181.559 104.918 180.818 108.597C180.327 111.752 179.209 114.778 177.531 117.495C175.853 120.212 173.648 122.566 171.046 124.419C165.751 128.322 160.976 129.298 154.132 129.324C152.078 129.35 150.029 129.127 148.029 128.66C146.655 128.34 145.338 127.809 144.126 127.086C142.925 126.242 141.833 125.255 140.873 124.145L137.633 142.726L118.155 142.661ZM154.145 97.7454C151.608 97.7281 149.137 98.5517 147.119 100.087C144.975 101.806 143.576 104.286 143.215 107.009C142.591 110.549 142.955 113.073 144.36 114.647C145.149 115.453 146.103 116.078 147.156 116.48C148.209 116.883 149.337 117.052 150.462 116.976C152.192 117.01 153.909 116.673 155.498 115.987C157.067 115.237 158.413 114.088 159.401 112.656C160.507 111.058 161.248 109.237 161.574 107.322C162.147 104.121 161.665 101.74 160.182 100.152C159.421 99.335 158.488 98.6954 157.451 98.2794C156.415 97.8633 155.299 97.681 154.184 97.7454H154.145Z" fill="#084A77"/>
<path d="M478.713 127.592L480.288 128.646C476.384 136.7 468.265 143.18 458.819 143.18C451.077 143.18 444.741 137.975 444.402 128.36C443.778 111.042 460.016 94.9336 473.313 94.9336C479.012 94.9336 484.295 97.4318 484.542 103.573C485.024 117.352 465.676 121.568 452.925 121.854C452.476 123.51 452.309 125.23 452.43 126.942C452.638 132.653 456.099 137.468 463.243 137.468C469.423 137.468 475.603 132.484 478.713 127.592ZM476.983 102.701C476.879 99.4485 475.239 97.2496 471.869 97.2496C463.763 97.2496 455.137 113.123 453.653 119.538C466.951 119.538 477.308 111.614 476.983 102.701Z" fill="#084A77"/>
<path d="M399.448 102.248C400.827 102.066 403.039 101.832 403.989 101.832C405.446 101.832 406.813 102.105 406.878 103.537C406.878 104.395 405.368 110.537 405.043 111.955L401.959 125.552C400.658 131.108 399.357 136.937 398.16 141.543H406.084L410.534 120.009C424.092 105.853 429.374 101.247 432.523 101.247C432.859 101.215 433.197 101.257 433.514 101.371C433.831 101.484 434.12 101.665 434.359 101.902C434.599 102.139 434.783 102.426 434.9 102.742C435.017 103.058 435.062 103.396 435.034 103.732C435.112 106.217 433.577 111.877 433.031 113.49L428.49 129.195C427.504 132.098 426.926 135.124 426.772 138.186C426.915 141.634 428.997 143.169 432.094 143.169C437.884 143.169 442.086 137.132 445.756 131.212L444.689 129.26C443.192 131.654 439.77 136.846 437.051 136.846C436.205 136.846 435.399 136.273 435.36 134.842C435.495 132.658 435.933 130.504 436.661 128.44L441.709 110.042C442.732 106.768 443.391 103.39 443.674 99.9714C443.723 99.2828 443.621 98.5917 443.375 97.9468C443.128 97.3019 442.743 96.7189 442.247 96.2388C441.751 95.7588 441.155 95.3933 440.503 95.1682C439.85 94.9431 439.156 94.8639 438.469 94.936C433.265 94.936 426.33 98.7353 411.692 115.598H411.484L413.318 107.375C414.32 102.873 415.296 98.1758 416.246 94.936C410.751 96.8788 405.136 98.4608 399.435 99.6721L399.5 102.274L399.448 102.248Z" fill="#084A77"/>
<path d="M492.857 87.1787C493.923 87.1787 494.834 87.1787 494.834 85.8775C494.834 84.8756 493.936 84.6805 493.065 84.6805H491.412V87.1787H492.857ZM491.412 91.7456H490.111V83.5745H493.208C495.133 83.5745 496.083 84.2771 496.083 85.8775C496.099 86.1646 496.057 86.452 495.958 86.7221C495.859 86.9922 495.707 87.2394 495.51 87.4488C495.312 87.6581 495.075 87.8251 494.811 87.9397C494.547 88.0544 494.263 88.1141 493.975 88.1155L496.279 91.6936H494.951L492.817 88.1675H491.412V91.6936V91.7456ZM492.909 93.5542C494.073 93.58 495.219 93.2586 496.201 92.6309C497.182 92.0031 497.954 91.0975 498.419 90.0293C498.884 88.9611 499.021 87.7787 498.811 86.6327C498.602 85.4867 498.056 84.429 497.243 83.5942C496.431 82.7595 495.388 82.1855 494.248 81.9454C493.108 81.7053 491.922 81.8099 490.842 82.246C489.762 82.6821 488.836 83.4298 488.182 84.394C487.528 85.3581 487.176 86.4951 487.171 87.6601C487.142 88.4285 487.27 89.1947 487.547 89.9122C487.823 90.6298 488.242 91.2838 488.778 91.8348C489.315 92.3858 489.957 92.8222 490.667 93.1178C491.377 93.4133 492.14 93.5618 492.909 93.5542ZM485.752 87.6601C485.739 86.2483 486.146 84.8644 486.92 83.6839C487.695 82.5034 488.802 81.5794 490.103 81.029C491.403 80.4786 492.837 80.3265 494.224 80.5922C495.61 80.8578 496.887 81.5291 497.892 82.5211C498.896 83.513 499.584 84.7809 499.867 86.164C500.151 87.5472 500.017 88.9833 499.483 90.2904C498.95 91.5975 498.04 92.7167 496.869 93.5063C495.699 94.2958 494.32 94.72 492.909 94.7252C491.971 94.7444 491.04 94.5754 490.169 94.2283C489.298 93.8812 488.505 93.363 487.838 92.7043C487.171 92.0456 486.643 91.2598 486.284 90.3934C485.926 89.527 485.745 88.5976 485.752 87.6601Z" fill="#084A77"/>
</g>
<defs>
<clipPath id="clip0">
<rect width="500" height="173.923" fill="white"/>
</clipPath>
</defs>
</svg>
