<svg width="500" height="78" viewBox="0 0 500 78" fill="none" xmlns="http://www.w3.org/2000/svg">
<g clip-path="url(#clip0)">
<path d="M219.714 70.9196V52.4572C219.714 43.7319 216.616 38.6316 209.935 37.4303C217.691 35.3227 219.798 28.8735 219.798 20.5697C219.798 8.83053 215.583 1.60156 201.905 1.60156H177.373V77.5373H193.707V44.4695H197.732C201.673 44.4695 203.528 47.1883 203.528 50.7923V71.0249C203.404 73.2542 203.793 75.4823 204.666 77.5373H221.168C220.091 75.5048 219.588 73.2167 219.714 70.9196ZM198.112 31.6134L193.896 31.7187V14.5631H198.849C202.58 14.5631 203.802 17.303 203.802 23.2885C203.802 29.274 202.327 31.6134 198.112 31.6134Z" fill="black"/>
<path d="M36.6086 64.597C37.7848 63.6055 38.7093 62.3495 39.3065 60.9317C39.9036 59.514 40.1563 57.975 40.0439 56.4407V45.0809H24.1528V60.5083C24.1528 61.0314 24.0498 61.5494 23.8496 62.0327C23.6494 62.516 23.356 62.9551 22.9862 63.325C22.6163 63.6949 22.1772 63.9883 21.6939 64.1884C21.2106 64.3886 20.6926 64.4917 20.1695 64.4917C19.654 64.4891 19.1442 64.3832 18.6703 64.1803C18.1964 63.9774 17.768 63.6815 17.4104 63.3101C17.0528 62.9388 16.7732 62.4995 16.5883 62.0183C16.4034 61.537 16.3168 61.0236 16.3338 60.5083V16.8606C16.314 16.3436 16.3984 15.8279 16.582 15.3442C16.7656 14.8605 17.0447 14.4187 17.4026 14.045C17.7605 13.6714 18.1899 13.3736 18.6652 13.1694C19.1406 12.9651 19.6522 12.8586 20.1695 12.8562C20.6944 12.8562 21.2141 12.9599 21.6988 13.1614C22.1834 13.3629 22.6235 13.6582 22.9936 14.0303C23.3638 14.4024 23.6568 14.844 23.8557 15.3297C24.0546 15.8155 24.1556 16.3357 24.1528 16.8606V32.3723H40.0439V16.2283C40.0439 7.33434 34.2059 0 20.0431 0C5.50084 0 8.2343e-05 7.35542 8.2343e-05 16.2494V61.8572C-0.00669404 63.9327 0.40484 65.9884 1.21011 67.9013C2.01539 69.8143 3.19788 71.5454 4.687 72.9912C6.17612 74.4371 7.94132 75.568 9.8772 76.3165C11.8131 77.0651 13.8799 77.4158 15.9544 77.3478H20.865L36.6086 64.597Z" fill="black"/>
<path d="M472.665 70.8805V52.4182C472.665 43.6928 469.567 38.5925 462.886 37.3912C470.642 35.2836 472.75 28.8345 472.75 20.5306C472.75 8.79147 468.534 1.5625 454.856 1.5625H430.324V77.4983H446.805V44.4305H450.789C454.73 44.4305 456.585 47.1493 456.585 50.7532V70.9648C456.46 73.1941 456.85 75.4221 457.723 77.4772H474.204C473.126 75.4446 472.623 73.1566 472.75 70.8594L472.665 70.8805ZM451.021 31.6165H446.679V14.5241H451.632C455.383 14.5241 456.606 17.2639 456.606 23.2494C456.606 29.2349 455.236 31.6165 451.021 31.6165Z" fill="black"/>
<path d="M411.524 1.32812H389.563L376.518 77.4957H393.062L394.664 64.0494H406.466L408.089 77.4957H424.633L411.524 1.32812ZM396.329 50.1395L400.544 14.669L404.759 50.1395H396.329Z" fill="black"/>
<path d="M302.057 77.4951V1.49609H318.791V63.0582H336.241V77.4951H302.057Z" fill="black"/>
<path d="M276.45 77.4951H293.205V1.49609H276.45V77.4951Z" fill="black"/>
<path d="M302.057 77.4951V1.49609H318.791V63.0582H336.241V77.4951H302.057Z" fill="black"/>
<path d="M340.268 77.4951V1.49609H357.023V63.0582H374.473V77.4951H340.268Z" fill="black"/>
<path d="M253.267 1.49609H227.744V77.5162H244.099V47.3357H253.246C268.273 47.3357 270.823 37.7674 270.823 24.4265C270.823 11.0855 268.294 1.49609 253.267 1.49609ZM249.052 33.8894H244.057V14.542H249.031C253.246 14.542 253.983 17.4504 253.983 24.4265C253.983 31.4025 253.267 33.8894 249.052 33.8894Z" fill="black"/>
<path d="M149.11 15.9766V31.0247H166.456V45.9252H149.11V62.8069H169.701V77.4545L132.355 77.4756V1.47656H132.334H169.006V15.9766H149.11Z" fill="black"/>
<path d="M99.182 66.3882V16.2702H88.2227V1.49609H127.866V16.2702H116.865V77.2633H112.165L99.182 66.3882Z" fill="black"/>
<path d="M106.263 77.3692L67.6736 45.0391L27.6719 77.3692H106.263Z" fill="black"/>
<path d="M78.6962 1.58203H56.5878L43.6895 59.3716L67.6736 40.0452L92.7326 60.9734L78.6962 1.58203ZM63.4163 36.3148L67.6315 14.4593L71.8466 36.3148H63.4163Z" fill="black"/>
<path d="M500 11.7418C500.004 13.9522 499.351 16.1139 498.124 17.9524C496.897 19.7908 495.151 21.223 493.108 22.0669C491.065 22.9108 488.817 23.1283 486.65 22.6919C484.483 22.2555 482.495 21.1848 480.938 19.6159C479.381 18.0469 478.325 16.0505 477.905 13.8804C477.485 11.7102 477.72 9.46414 478.579 7.42761C479.439 5.39109 480.884 3.65599 482.732 2.44275C484.58 1.22951 486.746 0.59289 488.957 0.613779C490.418 0.608186 491.867 0.892356 493.218 1.44987C494.57 2.00738 495.797 2.82718 496.83 3.86191C497.863 4.89663 498.68 6.12575 499.235 7.47826C499.79 8.83077 500.072 10.2798 500.063 11.7418H500ZM497.893 11.7418C497.884 9.94582 497.342 8.19292 496.336 6.70555C495.329 5.21818 493.903 4.06342 492.239 3.38785C490.575 2.71227 488.748 2.54636 486.989 2.91115C485.231 3.27595 483.62 4.15502 482.362 5.43676C481.104 6.7185 480.256 8.34512 479.924 10.1101C479.592 11.8752 479.792 13.699 480.498 15.3501C481.205 17.0013 482.386 18.4052 483.892 19.3838C485.398 20.3624 487.161 20.8715 488.957 20.8465C490.147 20.8409 491.324 20.601 492.421 20.1405C493.519 19.68 494.515 19.0078 495.352 18.1623C496.19 17.3169 496.853 16.3147 497.303 15.2131C497.754 14.1114 497.982 12.9319 497.977 11.7418H497.893ZM487.481 18.1909H484.552V5.20828H489.968C490.413 5.18726 490.857 5.26293 491.269 5.43008C491.682 5.59723 492.053 5.85188 492.358 6.17646C492.662 6.50104 492.893 6.88782 493.033 7.31012C493.174 7.73243 493.221 8.1802 493.172 8.62255C493.221 9.00354 493.193 9.39069 493.088 9.7603C492.983 10.1299 492.804 10.4742 492.561 10.7721C492.318 11.07 492.017 11.3153 491.677 11.4929C491.336 11.6705 490.963 11.7767 490.579 11.805C490.928 11.7651 491.28 11.804 491.612 11.9188C491.943 12.0337 492.244 12.2214 492.493 12.4683C492.742 12.7151 492.932 13.0147 493.049 13.345C493.167 13.6752 493.209 14.0276 493.172 14.3762C493.128 15.6558 493.234 16.936 493.488 18.1909H490.621C490.286 17.3925 490.149 16.5248 490.221 15.6618C490.221 14.1444 490.474 12.8166 488.114 12.8166H487.355V18.1909H487.481ZM487.481 11.0041H488.809C489.968 11.0041 490.326 9.92924 490.326 9.08621C490.326 7.84275 489.736 7.37908 488.809 7.37908H487.481V11.0041Z" fill="black"/>
</g>
<defs>
<clipPath id="clip0">
<rect width="500" height="77.5375" fill="white"/>
</clipPath>
</defs>
</svg>
