<svg width="200" height="37" viewBox="0 0 200 37" fill="none" xmlns="http://www.w3.org/2000/svg">
<g clip-path="url(#clip0)">
<path d="M73.1229 11.9361L70.7112 14.3479C69.1069 12.5404 67.2192 11.6367 65.1604 11.6367C64.3427 11.6222 63.5311 11.7799 62.7784 12.0996C62.0257 12.4193 61.3487 12.8938 60.7914 13.4923C60.206 14.0984 59.7468 14.8146 59.4402 15.5994C59.1336 16.3842 58.9858 17.2221 59.0053 18.0645C58.9785 19.2335 59.247 20.3904 59.786 21.4281C60.3035 22.3934 61.0817 23.1939 62.032 23.7383C63.0079 24.2972 64.1161 24.5835 65.2406 24.5672C66.1844 24.5767 67.1189 24.3795 67.9786 23.9896C69.005 23.4357 69.9307 22.7125 70.7165 21.8506L73.0534 24.3853C71.9728 25.5545 70.6879 26.5168 69.262 27.2249C67.976 27.7703 66.5889 28.0364 65.1925 28.0057C63.9108 28.0504 62.634 27.8255 61.4448 27.3456C60.2555 26.8656 59.1803 26.1413 58.2887 25.2196C57.3923 24.2628 56.6945 23.1378 56.2355 21.9097C55.7766 20.6816 55.5656 19.3746 55.6149 18.0645C55.5769 16.3117 56.0011 14.5799 56.8449 13.0431C57.6717 11.5637 58.8864 10.3379 60.3582 9.49764C61.8352 8.62013 63.5226 8.15993 65.2406 8.16609C66.7395 8.16021 68.2191 8.50447 69.5614 9.17144C70.947 9.79433 72.1615 10.7428 73.1015 11.9361" fill="white"/>
<path d="M75.7861 8.11719H79.1444V14.9247C79.7308 14.3783 80.4005 13.9288 81.1284 13.5931C81.757 13.2955 82.4436 13.1403 83.1391 13.1386C83.7718 13.1254 84.3999 13.2491 84.9804 13.501C85.5609 13.753 86.0802 14.1273 86.5027 14.5985C87.2835 15.4273 87.6845 16.6573 87.6845 18.2616V27.5076H84.369V21.3899C84.4116 20.287 84.3363 19.1827 84.1444 18.0958C84.0416 17.598 83.7764 17.1485 83.3904 16.8177C83.0084 16.5273 82.5385 16.3763 82.0589 16.3899C81.7283 16.3812 81.3996 16.4407 81.0931 16.565C80.7867 16.6892 80.5092 16.8754 80.2781 17.1118C79.7592 17.6416 79.4093 18.3135 79.2728 19.0423C79.1483 19.9977 79.1054 20.962 79.1444 21.9247V27.529H75.8075V8.11719" fill="white"/>
<path d="M104.337 21.556H93.54C93.6501 22.4714 94.0983 23.3125 94.7967 23.9143C95.5227 24.5142 96.4438 24.8263 97.3849 24.7913C97.9861 24.796 98.5817 24.6758 99.134 24.4383C99.6864 24.2008 100.183 23.8512 100.593 23.4117L103.433 24.7913C102.805 25.771 101.931 26.5693 100.898 27.1068C99.8008 27.6303 98.5951 27.8869 97.3796 27.8555C96.4271 27.8908 95.478 27.7237 94.5949 27.3651C93.7118 27.0065 92.9148 26.4646 92.2566 25.7753C91.5969 25.0832 91.0817 24.2667 90.7411 23.3733C90.4004 22.48 90.2412 21.5277 90.2726 20.5721C90.2037 18.6058 90.9171 16.6924 92.2566 15.2512C92.8831 14.5672 93.6486 14.0249 94.5016 13.6606C95.3547 13.2964 96.2757 13.1185 97.2031 13.1389C98.1623 13.1052 99.1176 13.2762 100.005 13.6404C100.893 14.0046 101.694 14.5537 102.353 15.2512C103.684 16.6576 104.337 18.5133 104.337 20.8502V21.556ZM100.973 18.7646C100.759 18.0024 100.301 17.3316 99.6684 16.8555C99.0075 16.3694 98.2052 16.1139 97.3849 16.1282C96.4927 16.115 95.6227 16.4075 94.9197 16.9571C94.3737 17.4548 93.9523 18.074 93.6897 18.7646H100.973Z" fill="white"/>
<path d="M120.16 16.352L117.374 17.9563C116.942 17.4545 116.413 17.0452 115.818 16.7531C115.246 16.5164 114.63 16.4052 114.011 16.4269C113.452 16.3986 112.894 16.4876 112.373 16.6882C111.851 16.8888 111.377 17.1965 110.981 17.5915C110.586 17.9866 110.277 18.4601 110.076 18.9816C109.875 19.5032 109.785 20.0611 109.813 20.6194C109.788 21.1613 109.877 21.7023 110.075 22.2075C110.272 22.7128 110.573 23.171 110.959 23.5525C111.344 23.934 111.806 24.2304 112.313 24.4225C112.82 24.6146 113.362 24.698 113.904 24.6675C114.576 24.7005 115.246 24.572 115.858 24.2929C116.47 24.0138 117.007 23.5922 117.422 23.0633L120.059 24.951C119.363 25.8987 118.444 26.6601 117.383 27.1676C116.323 27.6751 115.153 27.9129 113.979 27.8601C111.62 27.8601 109.786 27.1328 108.455 25.6782C107.366 24.4999 106.68 23.0065 106.494 21.4132C106.309 19.8199 106.634 18.2088 107.422 16.8119C108.073 15.6942 109.011 14.771 110.139 14.1381C111.286 13.5212 112.563 13.1859 113.864 13.1598C115.166 13.1338 116.455 13.4178 117.626 13.9884C118.655 14.5712 119.533 15.3883 120.187 16.3734" fill="white"/>
<path d="M123.225 8.11719H126.588V19.2937L131.551 13.5183H135.77L130.005 20.2241L136.46 27.5076H132.289L126.615 21.053V27.5076H123.251V8.11719" fill="white"/>
<path d="M141.176 8.11719V15.0691C141.736 14.4735 142.401 13.9875 143.139 13.6359C143.847 13.3128 144.618 13.1503 145.396 13.16C146.249 13.1548 147.092 13.3392 147.866 13.6999C148.639 14.0605 149.322 14.5885 149.866 15.2455C151.133 16.7316 151.788 18.6427 151.701 20.5931C151.761 22.5108 151.088 24.3794 149.818 25.8177C149.27 26.4783 148.582 27.01 147.805 27.375C147.028 27.7401 146.18 27.9296 145.321 27.93C144.587 27.929 143.86 27.7837 143.182 27.5022C142.433 27.1509 141.754 26.6672 141.176 26.0744V27.5557H137.84V8.11719H141.176ZM144.722 16.406C144.226 16.3939 143.734 16.4883 143.278 16.683C142.823 16.8777 142.414 17.168 142.08 17.5343C141.35 18.3438 140.966 19.4074 141.011 20.4969C140.964 21.6027 141.347 22.6838 142.08 23.5129C142.409 23.8875 142.816 24.1851 143.272 24.3847C143.729 24.5844 144.224 24.6811 144.722 24.668C145.213 24.6732 145.699 24.5699 146.145 24.3656C146.592 24.1613 146.988 23.861 147.305 23.4862C148.032 22.6638 148.414 21.5936 148.374 20.4969C148.418 19.4233 148.051 18.3735 147.348 17.561C147.023 17.1901 146.621 16.8946 146.17 16.695C145.72 16.4955 145.231 16.3969 144.738 16.406H144.722Z" fill="white"/>
<path d="M160.77 13.1645C162.03 13.1588 163.266 13.5071 164.337 14.1698C165.432 14.8095 166.334 15.7334 166.947 16.8436C167.568 17.9656 167.889 19.2294 167.877 20.5121C167.877 21.8085 167.557 23.085 166.947 24.2287C166.352 25.3344 165.468 26.2584 164.39 26.9025C163.306 27.5546 162.062 27.8933 160.797 27.8811C159.872 27.8867 158.957 27.6993 158.109 27.331C157.261 26.9627 156.499 26.4215 155.872 25.742C154.532 24.3453 153.801 22.474 153.84 20.5388C153.822 19.521 154.019 18.5109 154.417 17.574C154.815 16.6371 155.405 15.7943 156.15 15.1003C156.747 14.4791 157.465 13.9868 158.259 13.6538C159.054 13.3209 159.909 13.1543 160.77 13.1645ZM160.824 16.48C160.332 16.4682 159.844 16.563 159.392 16.7578C158.941 16.9525 158.537 17.2427 158.209 17.6083C157.5 18.4091 157.132 19.4547 157.182 20.5228C157.134 21.6051 157.501 22.665 158.209 23.4854C158.537 23.8501 158.941 24.1386 159.393 24.3307C159.845 24.5228 160.333 24.6139 160.824 24.5977C161.317 24.6116 161.808 24.5151 162.259 24.3153C162.71 24.1154 163.112 23.8173 163.433 23.4426C164.161 22.6402 164.545 21.5841 164.503 20.5014C164.551 19.4336 164.183 18.3886 163.476 17.587C163.143 17.2213 162.735 16.9314 162.28 16.7368C161.825 16.5421 161.334 16.4473 160.84 16.4586L160.824 16.48Z" fill="white"/>
<path d="M176.893 13.165C178.153 13.1587 179.389 13.5071 180.46 14.1703C181.555 14.8111 182.459 15.7346 183.075 16.8441C183.692 17.9675 184.011 19.2307 184 20.5126C183.999 21.8083 183.681 23.0841 183.075 24.2291C182.476 25.3338 181.591 26.2573 180.513 26.9029C179.429 27.555 178.185 27.8938 176.92 27.8815C175.996 27.8877 175.081 27.7006 174.234 27.3322C173.386 26.9638 172.626 26.4223 172 25.7425C171.335 25.0519 170.812 24.2368 170.463 23.3439C170.113 22.451 169.943 21.498 169.963 20.5393C169.94 19.5161 170.135 18.4998 170.533 17.5571C170.931 16.6143 171.524 15.7663 172.273 15.0687C172.874 14.4527 173.592 13.9639 174.386 13.6313C175.18 13.2987 176.032 13.1292 176.893 13.1329V13.165ZM176.946 16.4805C176.455 16.4712 175.968 16.567 175.517 16.7617C175.066 16.9563 174.662 17.2451 174.332 17.6088C173.623 18.4096 173.255 19.4551 173.305 20.5232C173.257 21.6056 173.624 22.6655 174.332 23.4858C174.66 23.8499 175.065 24.1381 175.516 24.3302C175.968 24.5222 176.456 24.6137 176.946 24.5981C177.44 24.612 177.93 24.5156 178.382 24.3157C178.833 24.1159 179.235 23.8177 179.556 23.443C180.284 22.6407 180.668 21.5845 180.626 20.5019C180.674 19.434 180.306 18.3891 179.599 17.5874C179.269 17.2176 178.862 16.9248 178.406 16.7298C177.951 16.5348 177.458 16.4424 176.963 16.4591L176.946 16.4805Z" fill="white"/>
<path d="M186.765 8.11719H190.128V19.2937L195.075 13.5183H199.294L193.545 20.2241L200 27.5076H195.829L190.155 21.053V27.5076H186.791V8.11719" fill="white"/>
<path d="M5.41176 0.0117188V36.1187L0 30.7069V5.41814H0.00534759L5.41176 0.0117188Z" fill="white"/>
<path d="M26.3636 12.2247V14.0536C26.3665 14.5255 26.1825 14.9793 25.8518 15.3159C25.5212 15.6526 25.0707 15.8447 24.5989 15.8504H10.1604V10.4707H24.5989C24.8987 10.4703 25.1936 10.5477 25.4545 10.6953C25.7283 10.8464 25.9569 11.0678 26.1166 11.3366C26.2764 11.6054 26.3617 11.912 26.3636 12.2247Z" fill="white"/>
<path d="M26.3636 21.6416V23.4704C26.3643 23.7024 26.3192 23.9322 26.2307 24.1466C26.1423 24.361 26.0123 24.5558 25.8483 24.7199C25.6843 24.8839 25.4895 25.0138 25.2751 25.1023C25.0606 25.1907 24.8308 25.2359 24.5989 25.2351H10.1604V19.8555H24.5989C24.8321 19.8569 25.0626 19.9042 25.2775 19.9947C25.4924 20.0852 25.6873 20.2172 25.8512 20.383C26.015 20.5489 26.1446 20.7454 26.2326 20.9613C26.3205 21.1773 26.365 21.4084 26.3636 21.6416Z" fill="white"/>
<path d="M36.1069 5.38554H0L5.41176 0.00585938H30.7005L33.4118 2.70105L36.1069 5.38554Z" fill="white"/>
<path d="M36.1069 30.7109V30.7163L30.7059 36.112V36.1013L30.7005 36.0906H5.41176V36.1067L0 30.7109H36.1069Z" fill="white"/>
<path d="M36.1444 23.7695V30.7054L36.123 30.7107H36.1123L30.6952 36.1118H30.6685V36.1171V23.7695H36.1444Z" fill="white"/>
<path d="M36.1444 5.41177V12.3262H30.6685V0L33.4118 2.71123L36.1444 5.41177Z" fill="white"/>
<path style="mix-blend-mode:multiply" opacity="0.3" d="M30.706 30.7012H22.583V36.1022H30.706V30.7012Z" fill="url(#paint0_linear)"/>
<path style="mix-blend-mode:multiply" opacity="0.3" d="M30.706 0H22.583V5.40107H30.706V0Z" fill="url(#paint1_linear)"/>
<path style="mix-blend-mode:multiply" opacity="0.3" d="M5.40107 5.40039H0V12.3095H5.40107V5.40039Z" fill="url(#paint2_linear)"/>
<path style="mix-blend-mode:multiply" opacity="0.3" d="M5.40107 23.7852H0V30.6942H5.40107V23.7852Z" fill="url(#paint3_linear)"/>
</g>
<defs>
<linearGradient id="paint0_linear" x1="22.583" y1="33.4017" x2="30.706" y2="33.4017" gradientUnits="userSpaceOnUse">
<stop stop-color="white"/>
<stop offset="1"/>
</linearGradient>
<linearGradient id="paint1_linear" x1="-181.304" y1="-1342.81" x2="-57.9159" y2="-1342.81" gradientUnits="userSpaceOnUse">
<stop stop-color="white"/>
<stop offset="1"/>
</linearGradient>
<linearGradient id="paint2_linear" x1="27.2754" y1="164.517" x2="27.2754" y2="75.1822" gradientUnits="userSpaceOnUse">
<stop stop-color="white"/>
<stop offset="1"/>
</linearGradient>
<linearGradient id="paint3_linear" x1="27.2754" y1="331.102" x2="27.2754" y2="420.367" gradientUnits="userSpaceOnUse">
<stop stop-color="white"/>
<stop offset="1"/>
</linearGradient>
<clipPath id="clip0">
<rect width="200" height="36.1176" fill="white"/>
</clipPath>
</defs>
</svg>
