<svg width="350" height="116" viewBox="0 0 350 116" fill="none" xmlns="http://www.w3.org/2000/svg">
<g clip-path="url(#clip0)">
<path d="M45.1297 89.3346C33.2544 89.3204 21.8621 84.6321 13.4166 76.2837C4.97114 67.9353 0.151462 56.5979 0 44.7236C0.121368 32.8293 4.92779 21.4624 13.3765 13.0893C21.8252 4.7161 33.2347 0.0119431 45.1297 -0.00260989C50.7786 -0.0912968 56.3878 0.954682 61.6251 3.07336C66.8624 5.19204 71.6212 8.34032 75.6196 12.3317L66.9741 20.9772C64.0703 18.1679 60.6415 15.9584 56.8834 14.4749C53.1253 12.9915 49.1117 12.2632 45.072 12.3317C40.8468 12.3466 36.6664 13.1984 32.7722 14.8379C28.878 16.4775 25.3472 18.8723 22.3837 21.884C19.4202 24.8957 17.0827 28.4647 15.5062 32.3849C13.9297 36.305 13.1455 40.4987 13.1988 44.7236C13.1339 48.9606 13.9115 53.1683 15.4864 57.1022C17.0613 61.0362 19.4021 64.618 22.3728 67.6397C25.3436 70.6615 28.8851 73.0628 32.7918 74.7043C36.6984 76.3459 40.8922 77.1949 45.1297 77.202C49.2893 77.3739 53.4385 76.6671 57.3066 75.1278C61.1748 73.5885 64.6751 71.2512 67.5793 68.2683C71.4645 64.0352 73.801 58.6106 74.2075 52.8792H45.1297V40.689H86.0519C86.5056 43.199 86.7179 45.7467 86.6859 48.2971C86.6859 57.4614 84.2075 68.8158 76.1671 76.885C72.1754 81.0464 67.3425 84.3092 61.9906 86.4559C56.6387 88.6026 50.8907 89.584 45.1297 89.3346Z" fill="#547DBF"/>
<path d="M148.473 60.5177C148.473 68.1608 145.437 75.4909 140.032 80.8954C134.628 86.2999 127.297 89.3361 119.654 89.3361C112.011 89.3361 104.681 86.2999 99.2767 80.8954C93.8722 75.4909 90.8359 68.1608 90.8359 60.5177C90.8359 52.8745 93.8722 45.5445 99.2767 40.1399C104.681 34.7354 112.011 31.6992 119.654 31.6992C127.297 31.6992 134.628 34.7354 140.032 40.1399C145.437 45.5445 148.473 52.8745 148.473 60.5177ZM135.879 60.5177C136.042 58.2932 135.744 56.0591 135.005 53.9549C134.265 51.8506 133.1 49.9215 131.581 48.2878C130.063 46.6542 128.224 45.3512 126.179 44.4602C124.134 43.5692 121.928 43.1093 119.698 43.1093C117.467 43.1093 115.261 43.5692 113.216 44.4602C111.171 45.3512 109.332 46.6542 107.814 48.2878C106.295 49.9215 105.13 51.8506 104.39 53.9549C103.651 56.0591 103.353 58.2932 103.516 60.5177C103.353 62.7421 103.651 64.9762 104.39 67.0805C105.13 69.1847 106.295 71.1139 107.814 72.7475C109.332 74.3811 111.171 75.6842 113.216 76.5752C115.261 77.4662 117.467 77.926 119.698 77.926C121.928 77.926 124.134 77.4662 126.179 76.5752C128.224 75.6842 130.063 74.3811 131.581 72.7475C133.1 71.1139 134.265 69.1847 135.005 67.0805C135.744 64.9762 136.042 62.7421 135.879 60.5177Z" fill="#EA4435"/>
<path d="M210.864 60.5177C210.864 68.1608 207.828 75.4909 202.424 80.8954C197.019 86.2999 189.689 89.3361 182.046 89.3361C174.403 89.3361 167.073 86.2999 161.668 80.8954C156.264 75.4909 153.228 68.1608 153.228 60.5177C153.228 52.8745 156.264 45.5445 161.668 40.1399C167.073 34.7354 174.403 31.6992 182.046 31.6992C189.689 31.6992 197.019 34.7354 202.424 40.1399C207.828 45.5445 210.864 52.8745 210.864 60.5177ZM198.271 60.5177C198.46 58.2798 198.182 56.0271 197.456 53.902C196.729 51.777 195.569 49.8259 194.05 48.1723C192.53 46.5188 190.683 45.1987 188.627 44.2957C186.571 43.3928 184.349 42.9265 182.104 42.9265C179.858 42.9265 177.636 43.3928 175.58 44.2957C173.524 45.1987 171.677 46.5188 170.158 48.1723C168.638 49.8259 167.478 51.777 166.751 53.902C166.025 56.0271 165.747 58.2798 165.936 60.5177C165.747 62.7555 166.025 65.0083 166.751 67.1333C167.478 69.2584 168.638 71.2094 170.158 72.863C171.677 74.5165 173.524 75.8366 175.58 76.7396C177.636 77.6426 179.858 78.1088 182.104 78.1088C184.349 78.1088 186.571 77.6426 188.627 76.7396C190.683 75.8366 192.53 74.5165 194.05 72.863C195.569 71.2094 196.729 69.2584 197.456 67.1333C198.182 65.0083 198.46 62.7555 198.271 60.5177Z" fill="#F9BC15"/>
<path d="M270.634 33.4834V85.3566C270.634 106.625 258.156 115.27 243.401 115.27C237.95 115.298 232.617 113.694 228.086 110.663C223.556 107.633 220.037 103.315 217.983 98.2673L228.963 93.6851C230.074 96.6304 232.039 99.1772 234.606 101C237.173 102.822 240.225 103.837 243.372 103.916C252.795 103.916 258.674 98.152 258.674 87.0281V82.8782H258.242C256.347 84.9819 254.018 86.6487 251.416 87.7634C248.814 88.878 246 89.4137 243.17 89.3336C235.527 89.3336 228.197 86.2973 222.792 80.8928C217.388 75.4883 214.352 68.1582 214.352 60.5151C214.352 52.872 217.388 45.5419 222.792 40.1374C228.197 34.7329 235.527 31.6967 243.17 31.6967C245.999 31.6315 248.81 32.1711 251.414 33.2794C254.019 34.3876 256.356 36.039 258.271 38.1232H258.703V33.4834H270.634ZM259.568 60.7457C259.568 50.6016 252.824 43.1952 244.265 43.1952C235.706 43.1952 228.3 50.6016 228.3 60.7457C228.191 62.9343 228.521 65.1226 229.268 67.1825C230.015 69.2424 231.166 71.1327 232.653 72.7427C234.139 74.3527 235.932 75.6501 237.926 76.5591C239.92 77.4681 242.075 77.9704 244.265 78.0367C252.911 78.0367 259.568 70.7168 259.568 60.7457Z" fill="#547DBF"/>
<path d="M291.354 3.05469H278.761V87.6945H291.354V3.05469Z" fill="#33A851"/>
<path d="M339.683 70.1142L349.453 76.656C346.842 80.5724 343.302 83.7805 339.148 85.9933C334.993 88.2062 330.356 89.3547 325.649 89.3361C321.871 89.38 318.123 88.6615 314.629 87.2236C311.135 85.7858 307.967 83.6581 305.315 80.9677C302.662 78.2774 300.579 75.0798 299.191 71.566C297.802 68.0522 297.137 64.2946 297.234 60.5177C297.234 43.3995 309.482 31.6992 324.266 31.6992C339.049 31.6992 346.398 43.5724 348.79 50.0278L350.087 53.2842L311.758 69.2208C312.947 71.8834 314.905 74.1295 317.38 75.6702C319.855 77.2109 322.735 77.9758 325.649 77.8664C328.494 77.8803 331.293 77.1511 333.77 75.751C336.247 74.3509 338.315 72.3284 339.77 69.8837L339.683 70.1142ZM309.712 59.5378L335.245 48.9903C334.27 47.0394 332.741 45.4193 330.849 44.3327C328.958 43.2461 326.788 42.7411 324.611 42.8808C322.517 42.9796 320.464 43.4951 318.571 44.3971C316.679 45.2991 314.986 46.5696 313.59 48.1341C312.195 49.6986 311.125 51.5258 310.445 53.5086C309.764 55.4915 309.486 57.5902 309.626 59.6819" fill="#EA4435"/>
</g>
<defs>
<clipPath id="clip0">
<rect width="350" height="115.274" fill="white"/>
</clipPath>
</defs>
</svg>
