<svg width="350" height="80" viewBox="0 0 350 80" fill="none" xmlns="http://www.w3.org/2000/svg">
<g clip-path="url(#clip0)">
<path d="M300.171 1.53125L297.8 16.1954H286.185L286.944 11.4314H278.226L277.131 18.3039H287.345L285.521 29.5756H275.322L273.943 37.9291H283.201L284.12 32.0196H296.063L293.4 48.3764H256.295L257.995 37.9291H261.519L265.852 11.4314H262.387L263.999 1.53125H300.171Z" fill="#231F20"/>
<path d="M196.31 24.8043L198.492 11.4314H195.026L196.617 1.53125H216.118L214.52 11.4314H211.033L205.021 48.3764H194.537L181.252 22.1414L178.721 37.9291H182.201L180.523 48.3764H160.883L162.561 37.9291H166.026L170.353 11.4314H166.873L168.456 1.53125H184.156L196.31 24.8043Z" fill="#231F20"/>
<path d="M114.119 24.1987L118.919 13.1751L119.897 24.1987H114.119ZM136.523 48.3764L138.223 37.9364H134.729L128.535 1.53125H106.123L104.532 11.4314H108.019L94.4568 37.9364H91.0133L89.2988 48.3764H108.917L110.646 37.9364H107.129L108.866 34.0697H121.02L121.509 37.9364H118.036L116.351 48.3837L136.523 48.3764Z" fill="#231F20"/>
<path d="M76.5018 20.8725C74.2401 22.9517 70.7236 22.1419 67.6522 22.2805L69.3083 12.0156C72.7956 12.1031 77.5815 11.0453 78.8728 15.0141C79.0397 16.1117 78.906 17.234 78.486 18.2618C78.0659 19.2895 77.3751 20.1841 76.4872 20.8506L76.5018 20.8725ZM79.617 29.5469C81.9443 28.9998 83.9506 27.5917 85.8475 25.9429C90.1227 22.0325 92.5084 16.3565 90.7866 10.4908C89.1451 4.99719 83.3451 1.91114 77.9682 1.53906H54.6733L53.0974 11.4392H56.5555L52.2511 37.9369H48.7492L47.0566 48.3842H66.0617L67.7762 37.9369H65.1279L66.1347 31.6846L75.4658 48.3842H87.1388L88.8751 37.9369H84.4978L79.6097 29.5469H79.617Z" fill="#231F20"/>
<path d="M158.804 48.354L160.489 37.9213H157.009L161.343 11.4163H164.808L166.384 1.52344H146.234L144.621 11.4163H148.087L143.804 37.9213H140.302L138.617 48.3832L158.804 48.354Z" fill="#231F20"/>
<path d="M324.94 20.8646C322.678 22.9366 319.162 22.1341 316.09 22.2727L317.761 12.0078C321.248 12.0953 326.034 11.0301 327.325 14.999C327.488 16.0964 327.353 17.2174 326.933 18.2444C326.513 19.2713 325.825 20.1664 324.94 20.8355V20.8646ZM328.048 29.5391C330.386 28.8605 332.524 27.6236 334.278 25.9351C338.561 22.0246 340.939 16.3487 339.224 10.483C337.576 4.98208 331.776 1.89603 326.399 1.53125H303.111L301.528 11.4241H304.993L300.689 37.9364H297.18L295.473 48.3764H314.441L316.214 37.9364H313.566L314.565 31.684L323.926 48.3764H335.599L337.306 37.9364H332.928L328.04 29.5464L328.048 29.5391Z" fill="#231F20"/>
<path d="M69.7538 58.8242L66.376 79.7043H330.492L333.892 58.8242H69.7538Z" fill="#CC2030"/>
<path d="M21.3682 58.8242H16.6772L13.292 79.7043H17.9831L21.3682 58.8242Z" fill="#CC2030"/>
<path d="M36.5727 58.8242H29.9628L26.585 79.7043H33.1875L36.5727 58.8242Z" fill="#CC2030"/>
<path d="M6.1648 58.8242H3.38517L0 79.7043H2.77963L6.1648 58.8242Z" fill="#CC2030"/>
<path d="M66.9888 58.8242H56.5561L53.1709 79.7043H63.6109L66.9888 58.8242Z" fill="#CC2030"/>
<path d="M51.7844 58.8242H43.2631L39.8779 79.7043H48.3992L51.7844 58.8242Z" fill="#CC2030"/>
<path d="M349.533 43.2851C349.532 44.2222 349.252 45.1377 348.73 45.9159C348.208 46.694 347.467 47.2998 346.6 47.6564C345.734 48.013 344.781 48.1044 343.862 47.9191C342.943 47.7338 342.101 47.2801 341.44 46.6154C340.779 45.9508 340.331 45.1051 340.151 44.1853C339.972 43.2656 340.069 42.3133 340.431 41.4489C340.793 40.5846 341.403 39.847 342.184 39.3297C342.966 38.8124 343.883 38.5386 344.82 38.5429C345.442 38.54 346.059 38.6609 346.634 38.8985C347.209 39.1361 347.731 39.4858 348.17 39.9271C348.608 40.3684 348.955 40.8926 349.189 41.4691C349.423 42.0456 349.54 42.6629 349.533 43.2851ZM350 43.2851C350.007 42.2557 349.709 41.2473 349.143 40.3876C348.576 39.5278 347.768 38.8554 346.819 38.4555C345.871 38.0556 344.825 37.9461 343.814 38.1409C342.803 38.3357 341.873 38.826 341.141 39.5498C340.409 40.2737 339.908 41.1984 339.702 42.207C339.496 43.2155 339.594 44.2626 339.983 45.2156C340.372 46.1686 341.035 46.9847 341.889 47.5605C342.742 48.1363 343.747 48.446 344.776 48.4504C345.46 48.4601 346.139 48.3335 346.773 48.0781C347.408 47.8227 347.985 47.4435 348.471 46.9627C348.957 46.4819 349.343 45.9091 349.605 45.2777C349.868 44.6463 350.002 43.9689 350 43.2851ZM342.704 39.9875V46.4806H343.624V43.4748H344.091C345.024 43.4748 345.55 43.6061 345.739 44.5691C345.739 44.7296 345.871 45.4592 345.9 45.6051C345.945 45.9127 346.033 46.2124 346.163 46.4952H347.272C346.998 45.9021 346.835 45.2643 346.79 44.6129C346.796 44.2889 346.696 43.9718 346.507 43.7089C346.318 43.446 346.048 43.2512 345.739 43.1538C346.134 43.1244 346.504 42.9475 346.774 42.6582C347.044 42.3689 347.196 41.9885 347.199 41.5925C347.2 41.2776 347.105 40.9697 346.928 40.7093C346.751 40.4489 346.5 40.2482 346.206 40.1334C345.714 39.9928 345.199 39.9433 344.689 39.9875H342.704ZM343.668 40.717H344.558C345.345 40.717 345.666 40.717 345.944 40.9651C346.045 41.0568 346.125 41.1697 346.178 41.2958C346.231 41.4219 346.256 41.558 346.25 41.6946C346.25 42.7306 345.17 42.716 344.791 42.716H343.697V40.7316L343.668 40.717Z" fill="#231F20"/>
<path d="M40.6878 1.4593H50.3399L47.7718 17.3637H36.7919C36.379 16.0167 35.6244 14.7994 34.6017 13.8304C33.5789 12.8613 32.3228 12.1734 30.9554 11.8337C28.6662 11.3006 26.2725 11.4291 24.0535 12.2041C21.8344 12.9791 19.8812 14.3687 18.4216 16.211C15.1458 20.8365 13.6721 28.5479 16.78 33.56C18.925 36.9233 23.047 38.1709 26.9064 37.5653C29.9049 37.0108 32.9252 34.3552 34.202 31.5464H21.938L23.4701 22.0621H49.3331L45.0433 48.392H35.0848L35.6976 45.4081C34.523 46.9694 31.3713 49.6104 23.5869 49.6104C13.7597 49.6104 3.02051 41.3153 3.02051 26.6511C3.02051 14.5914 12.1546 -0.0581911 28.3582 0.000173841C32.4875 0.000173841 37.1129 1.05804 40.1041 3.91063L40.6878 1.4593Z" fill="#231F20"/>
<path d="M249.89 1.4593H259.571L257.003 17.3637H245.994C245.581 16.0167 244.827 14.7994 243.804 13.8304C242.781 12.8613 241.525 12.1734 240.158 11.8337C237.868 11.3006 235.475 11.4291 233.256 12.2041C231.037 12.9791 229.083 14.3687 227.624 16.211C224.326 20.8073 222.852 28.5187 225.968 33.5308C228.113 36.8941 232.235 38.1417 236.094 37.5361C239.092 36.9817 242.113 34.3261 243.39 31.5172H231.126L232.658 22.0329H258.506L254.216 48.4066H244.287L244.9 45.4227C243.725 46.984 240.566 49.6396 232.789 49.6396C222.962 49.6396 212.223 41.3299 212.223 26.6657C212.223 14.5914 221.357 -0.0581911 237.56 0.00017384C241.69 0.00017384 246.315 1.05804 249.306 3.91063L249.89 1.47389V1.4593Z" fill="#231F20"/>
</g>
<defs>
<clipPath id="clip0">
<rect width="350" height="79.7046" fill="white"/>
</clipPath>
</defs>
</svg>
