<svg width="200" height="153" viewBox="0 0 200 153" fill="none" xmlns="http://www.w3.org/2000/svg">
<g clip-path="url(#clip0)">
<path d="M194.284 136.98C194.675 136.959 195.065 137.02 195.43 137.158C195.795 137.297 196.127 137.511 196.405 137.786C197.076 138.43 197.479 139.369 197.479 140.631C197.507 141.611 197.151 142.563 196.486 143.284C196.206 143.585 195.864 143.822 195.485 143.98C195.105 144.137 194.695 144.211 194.284 144.196C193.546 144.196 192.832 143.929 192.273 143.446C191.578 142.828 191.146 141.728 191.146 140.601C191.134 140.069 191.23 139.54 191.429 139.047C191.628 138.553 191.925 138.105 192.303 137.73C192.567 137.478 192.878 137.282 193.22 137.152C193.561 137.023 193.925 136.964 194.289 136.978L194.284 136.98ZM197.317 136.149C196.909 135.659 196.395 135.266 195.815 135.001C195.234 134.736 194.601 134.606 193.963 134.619C193.25 134.599 192.541 134.726 191.88 134.994C191.22 135.262 190.622 135.664 190.125 136.175C189.241 137.062 188.463 138.49 188.463 140.55C188.423 142.206 189.029 143.813 190.153 145.031C191.224 146.159 192.433 146.561 193.882 146.561C194.543 146.589 195.2 146.456 195.799 146.174C196.397 145.892 196.918 145.469 197.317 144.941V146.418C197.317 147.249 197.317 148.43 196.458 149.263C196.136 149.585 195.493 150.013 194.393 150.013C193.294 150.013 192.673 149.585 192.352 149.235C191.922 148.729 191.635 148.118 191.521 147.464H188.974C189.147 148.781 189.729 150.009 190.636 150.978C191.71 152.052 193.025 152.367 194.34 152.367C196.192 152.367 197.372 151.751 198.097 151.161C199.655 149.844 199.949 147.939 199.949 145.284V134.913H197.317V136.149Z" fill="#191919"/>
<path d="M176.777 146.22H179.398V140.798C179.398 137.15 180.606 136.988 181.787 136.988C182.78 136.988 183.854 137.069 183.854 139.939V146.22H186.483V139.296C186.483 137.551 186.215 136.773 185.789 136.157C185.442 135.673 184.555 134.627 182.463 134.627C181.884 134.609 181.309 134.72 180.779 134.952C180.249 135.183 179.777 135.53 179.398 135.967V134.921H176.777V146.22Z" fill="#191919"/>
<path d="M171.094 131.763C171.094 132.098 171.194 132.425 171.38 132.703C171.566 132.982 171.83 133.198 172.139 133.326C172.449 133.454 172.789 133.488 173.117 133.422C173.446 133.357 173.747 133.196 173.984 132.959C174.22 132.722 174.381 132.42 174.446 132.092C174.511 131.763 174.477 131.423 174.349 131.114C174.221 130.805 174.003 130.541 173.725 130.355C173.446 130.169 173.119 130.07 172.784 130.071C172.56 130.065 172.338 130.105 172.131 130.189C171.923 130.272 171.734 130.396 171.576 130.555C171.418 130.713 171.294 130.901 171.211 131.109C171.128 131.317 171.089 131.539 171.094 131.763ZM171.469 134.916V146.214H174.099V134.916H171.469Z" fill="#191919"/>
<path d="M163.143 136.98C164.808 136.98 166.338 138.161 166.338 140.63C166.338 142.992 164.808 144.198 163.143 144.198C161.238 144.198 160.005 142.561 160.005 140.603C160.005 138.591 161.238 136.98 163.143 136.98ZM166.176 136.228C165.782 135.715 165.273 135.302 164.691 135.023C164.108 134.744 163.468 134.605 162.822 134.619C159.842 134.619 157.319 136.874 157.319 140.549C157.319 143.663 159.305 146.568 162.794 146.568C163.436 146.579 164.072 146.447 164.657 146.183C165.241 145.918 165.76 145.527 166.176 145.038V146.218H168.805V130.32H166.176V136.221V136.228Z" fill="#191919"/>
<path d="M149.632 136.987C151.296 136.987 152.826 138.168 152.826 140.638C152.826 142.999 151.296 144.205 149.632 144.205C147.727 144.205 146.493 142.568 146.493 140.61C146.493 138.598 147.727 136.987 149.632 136.987ZM152.664 136.235C152.271 135.721 151.761 135.308 151.178 135.029C150.594 134.749 149.953 134.611 149.306 134.626C146.326 134.626 143.806 136.881 143.806 140.557C143.806 143.67 145.792 146.575 149.28 146.575C149.922 146.586 150.557 146.454 151.142 146.189C151.726 145.925 152.244 145.534 152.66 145.045V146.226H155.289V134.92H152.664V136.235Z" fill="#191919"/>
<path d="M136.41 146.213H139.04V140.364C139.04 139.612 139.04 138.538 139.764 137.76C140.274 137.223 140.836 137.144 141.401 137.144C141.878 137.14 142.345 137.28 142.741 137.545L143.815 135.158C143.19 134.79 142.474 134.604 141.748 134.621C141.184 134.593 140.623 134.723 140.128 134.996C139.713 135.248 139.342 135.566 139.028 135.936V134.915H136.41V146.213Z" fill="#191919"/>
<path d="M134.181 137.332V134.915H132.167V130.297H129.538V134.915H127.572V137.332H129.538V146.214H132.167V137.332H134.181Z" fill="#191919"/>
<path d="M115.426 146.213H118.055V140.364C118.055 139.612 118.055 138.538 118.78 137.76C119.292 137.223 119.854 137.144 120.419 137.144C120.896 137.14 121.363 137.28 121.759 137.545L122.833 135.158C122.208 134.79 121.492 134.604 120.766 134.621C120.202 134.593 119.64 134.723 119.146 134.996C118.731 135.248 118.359 135.566 118.044 135.936V134.915H115.426V146.213Z" fill="#191919"/>
<path d="M105.487 139.047C105.61 138.497 105.888 137.994 106.29 137.598C106.781 137.147 107.419 136.889 108.086 136.874C108.753 136.859 109.402 137.088 109.913 137.517C110.34 137.926 110.623 138.463 110.718 139.047H105.487ZM111.112 142.401C110.848 142.878 110.492 143.297 110.065 143.635C109.55 144.027 108.913 144.226 108.267 144.198C107.623 144.198 106.878 144.091 106.255 143.473C105.682 142.846 105.34 142.041 105.288 141.193H113.389V140.871C113.389 139.691 113.255 137.598 111.806 136.094C111.337 135.61 110.773 135.23 110.15 134.976C109.526 134.722 108.856 134.601 108.183 134.619C107.482 134.602 106.784 134.73 106.134 134.993C105.483 135.256 104.894 135.649 104.401 136.149C103.221 137.403 102.575 139.068 102.602 140.79C102.602 142.482 103.193 144.031 104.267 145.112C105.341 146.193 106.582 146.561 108.077 146.561C109.285 146.561 110.491 146.293 111.406 145.702C112.197 145.176 112.85 144.467 113.311 143.635L111.112 142.401Z" fill="#191919"/>
<path d="M90.9219 134.914L96.7714 147.018L102.621 134.914H99.6695L96.7714 141.356L93.8733 134.914H90.9219Z" fill="#191919"/>
<path d="M86.5923 131.763C86.5923 132.098 86.6916 132.425 86.8777 132.703C87.0637 132.982 87.3281 133.198 87.6375 133.326C87.9468 133.454 88.2871 133.488 88.6154 133.422C88.9437 133.357 89.2453 133.196 89.4818 132.959C89.7184 132.722 89.8793 132.42 89.9444 132.092C90.0094 131.763 89.9756 131.423 89.8471 131.114C89.7187 130.805 89.5015 130.541 89.2229 130.355C88.9443 130.169 88.6169 130.07 88.2822 130.071C88.0586 130.065 87.8362 130.105 87.6286 130.189C87.421 130.272 87.2324 130.396 87.0744 130.555C86.9164 130.713 86.7922 130.901 86.7093 131.109C86.6264 131.317 86.5866 131.539 86.5923 131.763ZM86.9673 134.916V146.214H89.597V134.916H86.9673Z" fill="#191919"/>
<path d="M78.2061 146.213H80.8357V140.364C80.8357 139.612 80.8357 138.538 81.5602 137.76C82.0695 137.223 82.632 137.144 83.1968 137.144C83.6736 137.14 84.1406 137.279 84.5371 137.544L85.6111 135.158C84.9864 134.79 84.2712 134.604 83.5463 134.621C82.9819 134.593 82.4208 134.723 81.926 134.996C81.5116 135.248 81.1403 135.566 80.8264 135.936V134.915H78.2061V146.213Z" fill="#191919"/>
<path d="M60.417 146.212H63.0466V140.79C63.0466 137.142 64.255 136.98 65.4355 136.98C66.4286 136.98 67.5003 137.061 67.5003 139.931V146.212H70.1392V139.288C70.1392 137.543 69.8707 136.765 69.4448 136.149C69.0952 135.665 68.211 134.619 66.1161 134.619C65.5389 134.602 64.9651 134.713 64.4362 134.945C63.9073 135.177 63.4366 135.523 63.0582 135.959V134.913H60.417V146.212Z" fill="#191919"/>
<path d="M52.4124 144.212C50.3453 144.212 49.0559 142.79 49.0559 140.617C49.0559 138.04 50.7481 136.994 52.4124 136.994C54.0768 136.994 55.7666 138.04 55.7666 140.617C55.7666 142.79 54.4772 144.212 52.4124 144.212ZM52.4124 134.633C49.0027 134.633 46.373 137.1 46.373 140.589C46.373 144.077 49.0027 146.575 52.4124 146.575C55.8221 146.575 58.4495 144.052 58.4495 140.589C58.4495 137.126 55.8198 134.633 52.4124 134.633Z" fill="#191919"/>
<path d="M44.6065 136.607C44.2987 136.044 43.8556 135.566 43.3172 135.218C42.7019 134.807 41.973 134.601 41.2338 134.627C39.8449 134.627 38.9792 135.164 38.4699 135.699C37.8618 136.357 37.526 137.22 37.5301 138.116C37.5182 138.473 37.5841 138.828 37.7232 139.157C37.8623 139.486 38.0713 139.781 38.3357 140.021C38.7966 140.42 39.3197 140.74 39.8843 140.97L40.8496 141.433C41.2659 141.591 41.6485 141.827 41.9769 142.127C42.201 142.357 42.3258 142.665 42.3241 142.986C42.3144 143.317 42.1806 143.633 41.9491 143.87C41.6513 144.125 41.2691 144.26 40.8773 144.248C40.4498 144.263 40.0338 144.108 39.7199 143.817C39.4415 143.507 39.231 143.142 39.1019 142.745L36.9561 143.764C37.2274 144.579 37.7311 145.298 38.4051 145.831C39.1151 146.339 39.9751 146.594 40.8473 146.556C42.0278 146.556 43.1273 146.259 44.0139 145.294C44.6604 144.593 45.0154 143.671 45.007 142.718C45.0206 142.332 44.9535 141.947 44.81 141.588C44.6665 141.229 44.4498 140.904 44.1736 140.634C43.7132 140.192 43.1779 139.836 42.5926 139.581L41.2523 138.91C40.6875 138.613 40.5278 138.56 40.3658 138.447C40.2507 138.383 40.155 138.289 40.089 138.176C40.0229 138.062 39.989 137.932 39.9908 137.801C39.9891 137.582 40.072 137.37 40.2223 137.211C40.4414 137.01 40.731 136.904 41.0278 136.917C41.3586 136.922 41.6821 137.015 41.9664 137.184C42.2506 137.353 42.4856 137.594 42.6482 137.882L44.6065 136.595V136.607Z" fill="#191919"/>
<path d="M29.8608 136.98C31.5252 136.98 33.0553 138.161 33.0553 140.63C33.0553 142.992 31.5252 144.198 29.8608 144.198C27.9557 144.198 26.7219 142.561 26.7219 140.603C26.7219 138.591 27.9557 136.98 29.8608 136.98ZM32.8932 136.228C32.5 135.715 31.9913 135.302 31.4085 135.022C30.8257 134.743 30.1852 134.605 29.5391 134.619C26.5599 134.619 24.0391 136.874 24.0391 140.549C24.0391 143.663 26.0252 146.568 29.5136 146.568C30.155 146.578 30.7907 146.446 31.375 146.182C31.9594 145.917 32.4779 145.527 32.8932 145.038V146.218H35.5228V130.32H32.8863V136.221L32.8932 136.228Z" fill="#191919"/>
<path d="M12.3936 134.914V141.463C12.3936 142.912 12.5556 144.12 13.6019 145.166C14.6482 146.213 16.0162 146.555 17.169 146.555C18.4306 146.555 19.8264 146.178 20.8473 145.166C21.8681 144.155 22.0533 142.912 22.0533 141.463V134.914H19.4236V141.382C19.4236 142.053 19.3982 142.831 18.9422 143.421C18.7277 143.665 18.4636 143.861 18.1674 143.996C17.8712 144.13 17.5498 144.199 17.2246 144.199C16.8994 144.199 16.578 144.13 16.2818 143.996C15.9856 143.861 15.7214 143.665 15.507 143.421C15.044 142.831 15.0232 142.053 15.0232 141.382V134.914H12.3936Z" fill="#191919"/>
<path d="M0 146.212H2.62963V140.765C2.62963 139.316 2.79167 138.45 3.16667 137.92C3.38911 137.621 3.68011 137.379 4.01523 137.216C4.35035 137.052 4.71981 136.971 5.09259 136.98C5.3658 136.971 5.63783 137.019 5.89159 137.121C6.14535 137.223 6.37535 137.376 6.56713 137.57C7.0787 138.133 7.0787 138.857 7.0787 139.529V146.212H9.72222V139.288C9.72222 138.482 9.69444 137.168 8.99768 136.149C8.67593 135.686 7.73611 134.619 5.66898 134.619C5.1027 134.605 4.53971 134.709 4.01625 134.926C3.49279 135.142 3.02045 135.466 2.62963 135.876V130.32H0V146.205V146.212Z" fill="#191919"/>
<path d="M168.209 114.458H1.27348C0.937236 114.459 0.614449 114.326 0.37582 114.089C0.137191 113.852 0.00217133 113.531 0.000334479 113.194V31.8194C-0.00341681 31.665 0.0244197 31.5114 0.0821368 31.3681C0.139854 31.2248 0.226235 31.0948 0.335983 30.9861L30.9864 0.333335C31.0926 0.227421 31.2186 0.143466 31.3572 0.0862709C31.4958 0.0290755 31.6444 -0.000239588 31.7943 1.47471e-06H198.73C198.897 1.19753e-06 199.062 0.0329488 199.216 0.0969589C199.371 0.160969 199.511 0.254785 199.629 0.373038C199.747 0.491291 199.841 0.63166 199.904 0.786112C199.968 0.940564 200.001 1.10607 200 1.27315V82.6643C199.999 82.9668 199.879 83.2568 199.667 83.4722L169.014 114.12C168.909 114.226 168.783 114.31 168.645 114.367C168.506 114.425 168.358 114.454 168.209 114.454V114.458Z" fill="#F99C3A"/>
<path d="M63.0702 31.7962C62.8871 31.7934 62.7052 31.8274 62.5354 31.8962C62.3657 31.965 62.2114 32.0672 62.0819 32.1967C61.9524 32.3262 61.8501 32.4805 61.7813 32.6502C61.7125 32.82 61.6785 33.0019 61.6814 33.1851V49.4628C61.6928 49.8248 61.5624 50.177 61.3179 50.4443C61.1988 50.5752 61.0526 50.6786 60.8895 50.7474C60.7265 50.8161 60.5504 50.8486 60.3735 50.8424H45.9753C45.0494 50.8424 44.5864 50.3795 44.5864 49.4536V33.1781C44.5864 32.2522 44.1235 31.7892 43.1976 31.7892H33.1721C32.2462 31.7892 31.7832 32.2522 31.7832 33.1781V81.2868C31.7832 82.2128 32.2462 82.6757 33.1721 82.6757H43.2091C44.1351 82.6757 44.598 82.2128 44.598 81.2868V64.4998C44.592 64.3224 44.6247 64.1458 44.6939 63.9823C44.763 63.8188 44.867 63.6723 44.9985 63.5531C45.2681 63.3112 45.6202 63.1819 45.9823 63.192H60.3851C60.5593 63.1826 60.7335 63.21 60.8964 63.2725C61.0593 63.3349 61.2073 63.4309 61.3306 63.5543C61.454 63.6776 61.55 63.8256 61.6124 63.9885C61.6748 64.1514 61.7023 64.3256 61.6929 64.4998V81.2868C61.6895 81.4702 61.723 81.6523 61.7916 81.8224C61.8602 81.9925 61.9624 82.147 62.092 82.2766C62.2217 82.4063 62.3762 82.5085 62.5462 82.5771C62.7163 82.6456 62.8985 82.6792 63.0818 82.6757H73.1929C73.3763 82.6792 73.5584 82.6456 73.7285 82.5771C73.8986 82.5085 74.0531 82.4063 74.1827 82.2766C74.3124 82.147 74.4146 81.9925 74.4831 81.8224C74.5517 81.6523 74.5853 81.4702 74.5818 81.2868V33.1781C74.5846 32.9949 74.5506 32.8131 74.4818 32.6433C74.413 32.4735 74.3108 32.3193 74.1813 32.1898C74.0517 32.0602 73.8975 31.958 73.7277 31.8892C73.558 31.8204 73.3761 31.7864 73.1929 31.7892L63.0702 31.7962Z" fill="white"/>
<path d="M114.079 55.9928H96.5742V43.6386H114.079V55.9928ZM120.759 68.0553L120.688 67.9095C120.493 67.7173 120.565 67.5715 120.905 67.4743L121.123 67.4002C122.811 66.8515 124.282 65.7828 125.326 64.347C126.369 62.9113 126.932 61.1821 126.933 59.4071V40.296C126.937 39.1576 126.7 38.0311 126.239 36.9905C125.376 34.9631 123.763 33.348 121.736 32.4835C120.695 32.0229 119.569 31.7863 118.431 31.7891H85.6067C84.6807 31.7891 84.2178 32.252 84.2178 33.178V81.2845C84.2178 82.2104 84.6807 82.6733 85.6067 82.6733H95.6298C96.5557 82.6733 97.0187 82.2104 97.0187 81.2845V67.7659C97.0117 67.7166 97.0163 67.6663 97.0322 67.619C97.048 67.5718 97.0745 67.5289 97.1098 67.4936C97.145 67.4584 97.188 67.4318 97.2352 67.416C97.2825 67.4002 97.3327 67.3956 97.3821 67.4025H106.019C106.123 67.3951 106.226 67.4189 106.317 67.4709C106.407 67.5228 106.48 67.6006 106.526 67.6942L114.225 81.502C114.433 81.8559 114.735 82.1452 115.097 82.3377C115.448 82.5452 115.847 82.6576 116.255 82.6641H127.803C128.189 82.6641 128.455 82.5553 128.602 82.3377C128.748 82.1201 128.722 81.8423 128.528 81.502L120.759 68.0553Z" fill="white"/>
<path d="M171.894 33.1781C171.897 32.9949 171.863 32.8131 171.794 32.6433C171.725 32.4735 171.623 32.3193 171.493 32.1898C171.364 32.0602 171.209 31.958 171.04 31.8892C170.87 31.8204 170.688 31.7864 170.505 31.7892H134.32C133.394 31.7892 132.931 32.2522 132.931 33.1781V42.7707C132.928 42.9539 132.962 43.1357 133.031 43.3055C133.1 43.4753 133.202 43.6295 133.331 43.7591C133.461 43.8886 133.615 43.9908 133.785 44.0596C133.955 44.1284 134.137 44.1624 134.32 44.1596H144.66C144.834 44.1503 145.009 44.1777 145.172 44.2401C145.335 44.3025 145.483 44.3985 145.606 44.5218C145.73 44.6451 145.826 44.793 145.889 44.9559C145.951 45.1189 145.979 45.2931 145.97 45.4675V81.2869C145.967 81.4702 146 81.6524 146.069 81.8225C146.137 81.9925 146.24 82.147 146.369 82.2767C146.499 82.4064 146.653 82.5085 146.823 82.5771C146.994 82.6457 147.176 82.6792 147.359 82.6758H157.477C157.654 82.6818 157.831 82.6493 157.994 82.5806C158.158 82.5118 158.304 82.4085 158.424 82.2776C158.666 82.009 158.796 81.6578 158.787 81.2962V45.4582C158.781 45.2811 158.814 45.1047 158.883 44.9416C158.952 44.7784 159.056 44.6324 159.188 44.5138C159.457 44.2712 159.809 44.1412 160.172 44.1503H170.509C170.693 44.1531 170.875 44.1191 171.044 44.0503C171.214 43.9815 171.368 43.8793 171.498 43.7498C171.627 43.6203 171.73 43.466 171.798 43.2963C171.867 43.1265 171.901 42.9446 171.898 42.7614V33.1781H171.894Z" fill="white"/>
</g>
<defs>
<clipPath id="clip0">
<rect width="200" height="152.387" fill="white"/>
</clipPath>
</defs>
</svg>
