<svg width="500" height="91" viewBox="0 0 500 91" fill="none" xmlns="http://www.w3.org/2000/svg">
<g clip-path="url(#clip0)">
<path d="M495.581 63.3833C490.657 71.0853 482.071 75.6307 472.98 75.3782C462.627 74.9994 453.409 66.5398 449.369 52.2721C444.318 34.7216 448.611 22.7267 459.975 17.4237C468.687 13.3833 478.914 17.6762 481.818 21.8428C477.778 23.7368 477.147 28.7873 478.031 31.8176C478.914 34.5954 481.061 36.7418 483.839 37.4994C486.616 38.3833 489.647 37.7519 491.919 35.9843C494.95 33.7115 495.707 29.9237 494.95 26.1358C494.066 22.0954 490.657 18.9388 486.869 16.4136C481.313 12.8782 474.874 11.1105 468.308 11.2368C450 11.1105 432.955 26.5146 432.955 47.7267C432.955 69.5701 451.768 82.8277 468.056 82.8277C480.808 83.0802 492.551 76.3883 498.864 65.4035C498.611 65.4035 495.834 63.6358 495.581 63.3833ZM419.697 73.358V37.2469C419.697 29.6711 418.813 24.3681 415.278 19.6964C410.859 13.8883 405.43 11.7418 398.359 11.7418C388.384 11.7418 380.303 17.8024 375 24.8732C374.369 23.1055 373.485 21.3378 372.222 19.8226C367.803 14.0146 362.374 11.8681 355.303 11.8681C346.339 11.7418 338.889 16.6661 333.586 22.7267V13.1307H311.869V15.2772H313.258C316.162 15.2772 318.056 17.0449 318.056 20.5802V73.358C318.056 76.8933 316.162 78.661 313.258 78.661H311.869V80.8075H339.773V78.661H338.384C335.48 78.661 333.586 76.8933 333.586 73.358V30.8075C337.121 26.1358 342.93 20.959 349.243 20.959C352.904 20.7065 356.566 22.3479 358.712 25.3782C360.354 27.9035 361.238 31.06 360.985 34.0903V73.358C360.985 76.8933 359.091 78.661 356.187 78.661H354.798V80.8075H382.702V78.661H381.313C378.409 78.661 376.515 76.8933 376.515 73.358V37.2469C376.515 35.2267 376.389 33.2065 376.263 31.1863C379.672 26.3883 385.733 20.959 392.172 20.959C395.834 20.7065 399.495 22.3479 401.642 25.3782C403.283 27.9035 404.167 31.06 403.914 34.0903V73.358C403.914 76.8933 402.02 78.661 399.116 78.661H397.728V80.8075H425.632V78.661H424.243C421.591 78.661 419.697 76.8933 419.697 73.358ZM272.728 15.2772H274.116C277.02 15.2772 278.914 17.0449 278.914 20.5802V72.853C278.914 76.3883 277.02 78.7873 274.116 78.7873H272.728V80.9338H300.632V78.7873H299.243C296.339 78.7873 294.445 77.0196 294.445 73.4843V20.5802C294.445 17.0449 296.339 15.2772 299.243 15.2772H300.632V13.1307H272.728V15.2772Z" fill="#1180C4"/>
<path fill-rule="evenodd" clip-rule="evenodd" d="M15.1515 30.303C22.7273 30.303 26.5152 23.9899 30.303 23.9899C34.0909 23.9899 37.2475 30.303 45.4545 30.303C53.6616 30.303 60.6061 23.9899 60.6061 15.1515C60.6061 6.31313 53.6616 0 45.4545 0C37.2475 0 34.0909 6.31313 30.303 6.31313C26.5152 6.31313 23.3586 0 15.1515 0C6.94444 0 0 6.31313 0 15.1515C0 23.9899 7.57576 30.303 15.1515 30.303Z" fill="#D9E2F0"/>
<path fill-rule="evenodd" clip-rule="evenodd" d="M15.1515 60.6077C22.7273 60.6077 26.5152 54.2946 30.303 54.2946C34.0909 54.2946 37.2475 60.6077 45.4545 60.6077C53.6616 60.6077 60.6061 54.2946 60.6061 45.4562C60.6061 36.6178 53.6616 30.3047 45.4545 30.3047C37.2475 30.3047 34.0909 36.6178 30.303 36.6178C26.5152 36.6178 23.3586 30.3047 15.1515 30.3047C6.94444 30.3047 0 36.6178 0 45.4562C0 54.2946 7.57576 60.6077 15.1515 60.6077Z" fill="#C8E4E2"/>
<path fill-rule="evenodd" clip-rule="evenodd" d="M15.1515 90.9085C22.7273 90.9085 26.5152 84.5954 30.303 84.5954C34.0909 84.5954 37.2475 90.9085 45.4545 90.9085C53.6616 90.9085 60.6061 84.5954 60.6061 75.757C60.6061 66.9186 53.6616 60.6055 45.4545 60.6055C37.2475 60.6055 34.0909 66.9186 30.303 66.9186C26.5152 66.9186 23.3586 60.6055 15.1515 60.6055C6.94444 60.6055 0 66.9186 0 75.757C0 84.5954 7.57576 90.9085 15.1515 90.9085Z" fill="#9BD3D0"/>
<path fill-rule="evenodd" clip-rule="evenodd" d="M45.4543 30.303C53.03 30.303 56.8179 23.9899 60.6058 23.9899C64.3937 23.9899 67.5502 30.303 75.7573 30.303C83.9644 30.303 90.9088 23.9899 90.9088 15.1515C90.9088 6.31313 83.9644 0 75.7573 0C67.5502 0 64.3937 6.31313 60.6058 6.31313C56.8179 6.31313 53.6613 0 45.4543 0C37.2472 0 30.3027 6.31313 30.3027 15.1515C30.3027 23.9899 37.8785 30.303 45.4543 30.303Z" fill="#CDDBEE"/>
<path fill-rule="evenodd" clip-rule="evenodd" d="M45.4543 60.6077C53.03 60.6077 56.8179 54.2946 60.6058 54.2946C64.3937 54.2946 67.5502 60.6077 75.7573 60.6077C83.9644 60.6077 90.9088 54.2946 90.9088 45.4562C90.9088 36.6178 83.9644 30.3047 75.7573 30.3047C67.5502 30.3047 64.3937 36.6178 60.6058 36.6178C56.8179 36.6178 53.6613 30.3047 45.4543 30.3047C37.2472 30.3047 30.3027 36.6178 30.3027 45.4562C30.3027 54.2946 37.8785 60.6077 45.4543 60.6077Z" fill="#91CFCE"/>
<path fill-rule="evenodd" clip-rule="evenodd" d="M45.4543 90.9085C53.03 90.9085 56.8179 84.5954 60.6058 84.5954C64.3937 84.5954 67.5502 90.9085 75.7573 90.9085C83.9644 90.9085 90.9088 84.5954 90.9088 75.757C90.9088 66.9186 83.9644 60.6055 75.7573 60.6055C67.5502 60.6055 64.3937 66.9186 60.6058 66.9186C56.8179 66.9186 53.6613 60.6055 45.4543 60.6055C37.2472 60.6055 30.3027 66.9186 30.3027 75.757C30.3027 84.5954 37.8785 90.9085 45.4543 90.9085Z" fill="#D0E1F0"/>
<path fill-rule="evenodd" clip-rule="evenodd" d="M75.758 30.303C83.3337 30.303 87.1216 23.9899 90.9095 23.9899C94.6974 23.9899 97.8539 30.303 106.061 30.303C114.268 30.303 121.213 23.9899 121.213 15.1515C121.213 6.31313 114.268 0 106.061 0C97.8539 0 94.6974 6.31313 90.9095 6.31313C87.1216 6.31313 83.965 0 75.758 0C67.5509 0 60.6064 6.31313 60.6064 15.1515C60.6064 23.9899 68.1822 30.303 75.758 30.303Z" fill="#CDDBEE"/>
<path fill-rule="evenodd" clip-rule="evenodd" d="M75.758 60.6077C83.3337 60.6077 87.1216 54.2946 90.9095 54.2946C94.6974 54.2946 97.8539 60.6077 106.061 60.6077C114.268 60.6077 121.213 54.2946 121.213 45.4562C121.213 36.6178 114.268 30.3047 106.061 30.3047C97.8539 30.3047 94.6974 36.6178 90.9095 36.6178C87.1216 36.6178 83.965 30.3047 75.758 30.3047C67.5509 30.3047 60.6064 36.6178 60.6064 45.4562C60.6064 54.2946 68.1822 60.6077 75.758 60.6077Z" fill="#90C6CA"/>
<path fill-rule="evenodd" clip-rule="evenodd" d="M75.758 90.9085C83.3337 90.9085 87.1216 84.5954 90.9095 84.5954C94.6974 84.5954 97.8539 90.9085 106.061 90.9085C114.268 90.9085 121.213 84.5954 121.213 75.757C121.213 66.9186 114.268 60.6055 106.061 60.6055C97.8539 60.6055 94.6974 66.9186 90.9095 66.9186C87.1216 66.9186 83.965 60.6055 75.758 60.6055C67.5509 60.6055 60.6064 66.9186 60.6064 75.757C60.6064 84.5954 68.1822 90.9085 75.758 90.9085Z" fill="#D0E1F0"/>
<path fill-rule="evenodd" clip-rule="evenodd" d="M106.061 30.303C113.636 30.303 117.424 23.9899 121.212 23.9899C125 23.9899 128.157 30.303 136.364 30.303C144.571 30.303 151.515 23.9899 151.515 15.1515C151.515 6.31313 144.571 0 136.364 0C128.157 0 125 6.31313 121.212 6.31313C117.424 6.31313 114.268 0 106.061 0C97.8536 0 90.9092 6.31313 90.9092 15.1515C90.9092 23.9899 98.4849 30.303 106.061 30.303Z" fill="#BFD3EA"/>
<path fill-rule="evenodd" clip-rule="evenodd" d="M106.061 60.6077C113.636 60.6077 117.424 54.2946 121.212 54.2946C125 54.2946 128.157 60.6077 136.364 60.6077C144.571 60.6077 151.515 54.2946 151.515 45.4562C151.515 36.6178 144.571 30.3047 136.364 30.3047C128.157 30.3047 125 36.6178 121.212 36.6178C117.424 36.6178 114.268 30.3047 106.061 30.3047C97.8536 30.3047 90.9092 36.6178 90.9092 45.4562C90.9092 54.2946 98.4849 60.6077 106.061 60.6077Z" fill="#9CBFE2"/>
<path fill-rule="evenodd" clip-rule="evenodd" d="M106.061 90.9085C113.636 90.9085 117.424 84.5954 121.212 84.5954C125 84.5954 128.157 90.9085 136.364 90.9085C144.571 90.9085 151.515 84.5954 151.515 75.757C151.515 66.9186 144.571 60.6055 136.364 60.6055C128.157 60.6055 125 66.9186 121.212 66.9186C117.424 66.9186 114.268 60.6055 106.061 60.6055C97.8536 60.6055 90.9092 66.9186 90.9092 75.757C90.9092 84.5954 98.4849 90.9085 106.061 90.9085Z" fill="#CDDBEE"/>
<path fill-rule="evenodd" clip-rule="evenodd" d="M136.363 30.303C143.939 30.303 147.727 23.9899 151.515 23.9899C155.303 23.9899 158.459 30.303 166.666 30.303C174.874 30.303 181.818 23.9899 181.818 15.1515C181.818 6.31313 174.874 0 166.666 0C158.459 0 155.303 6.31313 151.515 6.31313C147.727 6.31313 144.571 0 136.363 0C128.156 0 121.212 6.31313 121.212 15.1515C121.212 23.9899 128.788 30.303 136.363 30.303Z" fill="#B6CEE7"/>
<path fill-rule="evenodd" clip-rule="evenodd" d="M136.363 60.6077C143.939 60.6077 147.727 54.2946 151.515 54.2946C155.303 54.2946 158.459 60.6077 166.666 60.6077C174.874 60.6077 181.818 54.2946 181.818 45.4562C181.818 36.6178 174.874 30.3047 166.666 30.3047C158.459 30.3047 155.303 36.6178 151.515 36.6178C147.727 36.6178 144.571 30.3047 136.363 30.3047C128.156 30.3047 121.212 36.6178 121.212 45.4562C121.212 54.2946 128.788 60.6077 136.363 60.6077Z" fill="#8FBAE0"/>
<path fill-rule="evenodd" clip-rule="evenodd" d="M136.363 90.9085C143.939 90.9085 147.727 84.5954 151.515 84.5954C155.303 84.5954 158.459 90.9085 166.666 90.9085C174.874 90.9085 181.818 84.5954 181.818 75.757C181.818 66.9186 174.874 60.6055 166.666 60.6055C158.459 60.6055 155.303 66.9186 151.515 66.9186C147.727 66.9186 144.571 60.6055 136.363 60.6055C128.156 60.6055 121.212 66.9186 121.212 75.757C121.212 84.5954 128.788 90.9085 136.363 90.9085Z" fill="#B9D0E9"/>
<path fill-rule="evenodd" clip-rule="evenodd" d="M166.666 30.303C174.242 30.303 178.03 23.9899 181.818 23.9899C185.606 23.9899 188.762 30.303 196.969 30.303C205.176 30.303 212.121 23.9899 212.121 15.1515C212.121 6.31313 205.176 0 196.969 0C188.762 0 185.606 6.31313 181.818 6.31313C178.03 6.31313 174.873 0 166.666 0C158.459 0 151.515 6.31313 151.515 15.1515C151.515 23.9899 159.09 30.303 166.666 30.303ZM166.666 60.6061C174.242 60.6061 178.03 54.2929 181.818 54.2929C185.606 54.2929 188.762 60.6061 196.969 60.6061C205.176 60.6061 212.121 54.2929 212.121 45.4545C212.121 36.6162 205.176 30.303 196.969 30.303C188.762 30.303 185.606 36.6162 181.818 36.6162C178.03 36.6162 174.873 30.303 166.666 30.303C158.459 30.303 151.515 36.6162 151.515 45.4545C151.515 54.2929 159.09 60.6061 166.666 60.6061Z" fill="#8BB7DF"/>
<path fill-rule="evenodd" clip-rule="evenodd" d="M166.666 90.9085C174.242 90.9085 178.03 84.5954 181.818 84.5954C185.606 84.5954 188.762 90.9085 196.969 90.9085C205.176 90.9085 212.121 84.5954 212.121 75.757C212.121 66.9186 205.176 60.6055 196.969 60.6055C188.762 60.6055 185.606 66.9186 181.818 66.9186C178.03 66.9186 174.873 60.6055 166.666 60.6055C158.459 60.6055 151.515 66.9186 151.515 75.757C151.515 84.5954 159.09 90.9085 166.666 90.9085Z" fill="#98BDE0"/>
<path fill-rule="evenodd" clip-rule="evenodd" d="M196.97 30.303C204.546 30.303 208.334 23.9899 212.121 23.9899C215.909 23.9899 219.066 30.303 227.273 30.303C235.48 30.303 242.424 23.9899 242.424 15.1515C242.424 6.31313 235.48 0 227.273 0C219.066 0 215.909 6.31313 212.121 6.31313C208.334 6.31313 205.177 0 196.97 0C188.763 0 181.818 6.31313 181.818 15.1515C181.818 23.9899 189.394 30.303 196.97 30.303ZM196.97 60.6061C204.546 60.6061 208.334 54.2929 212.121 54.2929C215.909 54.2929 219.066 60.6061 227.273 60.6061C235.48 60.6061 242.424 54.2929 242.424 45.4545C242.424 36.6162 235.48 30.303 227.273 30.303C219.066 30.303 215.909 36.6162 212.121 36.6162C208.334 36.6162 205.177 30.303 196.97 30.303C188.763 30.303 181.818 36.6162 181.818 45.4545C181.818 54.2929 189.394 60.6061 196.97 60.6061Z" fill="#8BB7DF"/>
<path fill-rule="evenodd" clip-rule="evenodd" d="M196.97 90.9085C204.546 90.9085 208.334 84.5954 212.121 84.5954C215.909 84.5954 219.066 90.9085 227.273 90.9085C235.48 90.9085 242.424 84.5954 242.424 75.757C242.424 66.9186 235.48 60.6055 227.273 60.6055C219.066 60.6055 215.909 66.9186 212.121 66.9186C208.334 66.9186 205.177 60.6055 196.97 60.6055C188.763 60.6055 181.818 66.9186 181.818 75.757C181.818 84.5954 189.394 90.9085 196.97 90.9085Z" fill="#98BBE0"/>
<path fill-rule="evenodd" clip-rule="evenodd" d="M0 15.1515C0 22.7273 6.31313 26.5152 6.31313 30.303C6.31313 34.0909 0 37.2475 0 45.4545C0 53.6616 6.31313 60.6061 15.1515 60.6061C23.9899 60.6061 30.303 53.6616 30.303 45.4545C30.303 37.2475 23.9899 34.0909 23.9899 30.303C23.9899 26.5152 30.303 23.3586 30.303 15.1515C30.303 6.94444 23.9899 0 15.1515 0C6.31313 0 0 7.57576 0 15.1515Z" fill="#D9E2F0"/>
<path fill-rule="evenodd" clip-rule="evenodd" d="M0 45.4562C0 53.032 6.31313 56.8198 6.31313 60.6077C6.31313 64.3956 0 67.5522 0 75.7592C0 83.9663 6.31313 90.9107 15.1515 90.9107C23.9899 90.9107 30.303 83.9663 30.303 75.7592C30.303 67.5522 23.9899 64.3956 23.9899 60.6077C23.9899 56.8198 30.303 53.6633 30.303 45.4562C30.303 37.2491 23.9899 30.3047 15.1515 30.3047C6.31313 30.3047 0 37.8804 0 45.4562Z" fill="#A6D7D5"/>
<path fill-rule="evenodd" clip-rule="evenodd" d="M30.3027 15.1515C30.3027 22.7273 36.6159 26.5152 36.6159 30.303C36.6159 34.0909 30.3027 37.2475 30.3027 45.4545C30.3027 53.6616 36.6159 60.6061 45.4543 60.6061C54.2926 60.6061 60.6058 53.6616 60.6058 45.4545C60.6058 37.2475 54.2926 34.0909 54.2926 30.303C54.2926 26.5152 60.6058 23.3586 60.6058 15.1515C60.6058 6.94444 54.2926 0 45.4543 0C36.6159 0 30.3027 7.57576 30.3027 15.1515Z" fill="#D9E2F0"/>
<path fill-rule="evenodd" clip-rule="evenodd" d="M30.3027 45.4562C30.3027 53.032 36.6159 56.8198 36.6159 60.6077C36.6159 64.3956 30.3027 67.5522 30.3027 75.7592C30.3027 83.9663 36.6159 90.9107 45.4543 90.9107C54.2926 90.9107 60.6058 83.9663 60.6058 75.7592C60.6058 67.5522 54.2926 64.3956 54.2926 60.6077C54.2926 56.8198 60.6058 53.6633 60.6058 45.4562C60.6058 37.2491 54.2926 30.3047 45.4543 30.3047C36.6159 30.3047 30.3027 37.8804 30.3027 45.4562Z" fill="#CDE7E3"/>
<path fill-rule="evenodd" clip-rule="evenodd" d="M60.6064 15.1515C60.6064 22.7273 66.9196 26.5152 66.9196 30.303C66.9196 34.0909 60.6064 37.2475 60.6064 45.4545C60.6064 53.6616 66.9196 60.6061 75.758 60.6061C84.5964 60.6061 90.9095 53.6616 90.9095 45.4545C90.9095 37.2475 84.5964 34.0909 84.5964 30.303C84.5964 26.5152 90.9095 23.3586 90.9095 15.1515C90.9095 6.94444 84.5964 0 75.758 0C66.9196 0 60.6064 7.57576 60.6064 15.1515Z" fill="#CDDBEE"/>
<path fill-rule="evenodd" clip-rule="evenodd" d="M60.6064 45.4562C60.6064 53.032 66.9196 56.8198 66.9196 60.6077C66.9196 64.3956 60.6064 67.5522 60.6064 75.7592C60.6064 83.9663 66.9196 90.9107 75.758 90.9107C84.5964 90.9107 90.9095 83.9663 90.9095 75.7592C90.9095 67.5522 84.5964 64.3956 84.5964 60.6077C84.5964 56.8198 90.9095 53.6633 90.9095 45.4562C90.9095 37.2491 84.5964 30.3047 75.758 30.3047C66.9196 30.3047 60.6064 37.8804 60.6064 45.4562Z" fill="#CDDBEE"/>
<path fill-rule="evenodd" clip-rule="evenodd" d="M90.9092 15.1515C90.9092 22.7273 97.2223 26.5152 97.2223 30.303C97.2223 34.0909 90.9092 37.2475 90.9092 45.4545C90.9092 53.6616 97.2223 60.6061 106.061 60.6061C114.899 60.6061 121.212 53.6616 121.212 45.4545C121.212 37.2475 114.899 34.0909 114.899 30.303C114.899 26.5152 121.212 23.3586 121.212 15.1515C121.212 6.94444 114.899 0 106.061 0C97.2223 0 90.9092 7.57576 90.9092 15.1515Z" fill="#BFD3EA"/>
<path fill-rule="evenodd" clip-rule="evenodd" d="M90.9092 45.4562C90.9092 53.032 97.2223 56.8198 97.2223 60.6077C97.2223 64.3956 90.9092 67.5522 90.9092 75.7592C90.9092 83.9663 97.2223 90.9107 106.061 90.9107C114.899 90.9107 121.212 83.9663 121.212 75.7592C121.212 67.5522 114.899 64.3956 114.899 60.6077C114.899 56.8198 121.212 53.6633 121.212 45.4562C121.212 37.2491 114.899 30.3047 106.061 30.3047C97.2223 30.3047 90.9092 37.8804 90.9092 45.4562Z" fill="#BFD3EA"/>
<path fill-rule="evenodd" clip-rule="evenodd" d="M121.212 15.1515C121.212 22.7273 127.525 26.5152 127.525 30.303C127.525 34.0909 121.212 37.2475 121.212 45.4545C121.212 53.6616 127.525 60.6061 136.363 60.6061C145.202 60.6061 151.515 53.6616 151.515 45.4545C151.515 37.2475 145.202 34.0909 145.202 30.303C145.202 26.5152 151.515 23.3586 151.515 15.1515C151.515 6.94444 145.202 0 136.363 0C127.525 0 121.212 7.57576 121.212 15.1515Z" fill="#A4C2E3"/>
<path fill-rule="evenodd" clip-rule="evenodd" d="M121.212 45.4562C121.212 53.032 127.525 56.8198 127.525 60.6077C127.525 64.3956 121.212 67.5522 121.212 75.7592C121.212 83.9663 127.525 90.9107 136.363 90.9107C145.202 90.9107 151.515 83.9663 151.515 75.7592C151.515 67.5522 145.202 64.3956 145.202 60.6077C145.202 56.8198 151.515 53.6633 151.515 45.4562C151.515 37.2491 145.202 30.3047 136.363 30.3047C127.525 30.3047 121.212 37.8804 121.212 45.4562Z" fill="#BFD3EA"/>
<path fill-rule="evenodd" clip-rule="evenodd" d="M151.515 15.1515C151.515 22.7273 157.828 26.5152 157.828 30.303C157.828 34.0909 151.515 37.2475 151.515 45.4545C151.515 53.6616 157.828 60.6061 166.666 60.6061C175.505 60.6061 181.818 53.6616 181.818 45.4545C181.818 37.2475 175.505 34.0909 175.505 30.303C175.505 26.5152 181.818 23.3586 181.818 15.1515C181.818 6.94444 175.505 0 166.666 0C157.828 0 151.515 7.57576 151.515 15.1515Z" fill="#80AFDC"/>
<path fill-rule="evenodd" clip-rule="evenodd" d="M151.515 45.4562C151.515 53.032 157.828 56.8198 157.828 60.6077C157.828 64.3956 151.515 67.5522 151.515 75.7592C151.515 83.9663 157.828 90.9107 166.666 90.9107C175.505 90.9107 181.818 83.9663 181.818 75.7592C181.818 67.5522 175.505 64.3956 175.505 60.6077C175.505 56.8198 181.818 53.6633 181.818 45.4562C181.818 37.2491 175.505 30.3047 166.666 30.3047C157.828 30.3047 151.515 37.8804 151.515 45.4562Z" fill="#A4C2E3"/>
<path fill-rule="evenodd" clip-rule="evenodd" d="M181.818 15.1515C181.818 22.7273 188.131 26.5152 188.131 30.303C188.131 34.0909 181.818 37.2475 181.818 45.4545C181.818 53.6616 188.131 60.6061 196.97 60.6061C205.808 60.6061 212.121 53.6616 212.121 45.4545C212.121 37.2475 205.808 34.0909 205.808 30.303C205.808 26.5152 212.121 23.3586 212.121 15.1515C212.121 6.94444 205.808 0 196.97 0C188.131 0 181.818 7.57576 181.818 15.1515Z" fill="#80AFDC"/>
<path fill-rule="evenodd" clip-rule="evenodd" d="M181.818 45.4562C181.818 53.032 188.131 56.8198 188.131 60.6077C188.131 64.3956 181.818 67.5522 181.818 75.7592C181.818 83.9663 188.131 90.9107 196.97 90.9107C205.808 90.9107 212.121 83.9663 212.121 75.7592C212.121 67.5522 205.808 64.3956 205.808 60.6077C205.808 56.8198 212.121 53.6633 212.121 45.4562C212.121 37.2491 205.808 30.3047 196.97 30.3047C188.131 30.3047 181.818 37.8804 181.818 45.4562Z" fill="#8BB7DF"/>
<path fill-rule="evenodd" clip-rule="evenodd" d="M212.121 15.1515C212.121 22.7273 218.434 26.5152 218.434 30.303C218.434 34.0909 212.121 37.2475 212.121 45.4545C212.121 53.6616 218.434 60.6061 227.273 60.6061C236.111 60.6061 242.424 53.6616 242.424 45.4545C242.424 37.2475 236.111 34.0909 236.111 30.303C236.111 26.5152 242.424 23.3586 242.424 15.1515C242.424 6.94444 236.111 0 227.273 0C218.434 0 212.121 7.57576 212.121 15.1515Z" fill="#6BA3D6"/>
<path fill-rule="evenodd" clip-rule="evenodd" d="M212.121 45.4562C212.121 53.032 218.434 56.8198 218.434 60.6077C218.434 64.3956 212.121 67.5522 212.121 75.7592C212.121 83.9663 218.434 90.9107 227.273 90.9107C236.111 90.9107 242.424 83.9663 242.424 75.7592C242.424 67.5522 236.111 64.3956 236.111 60.6077C236.111 56.8198 242.424 53.6633 242.424 45.4562C242.424 37.2491 236.111 30.3047 227.273 30.3047C218.434 30.3047 212.121 37.8804 212.121 45.4562Z" fill="#79A8D8"/>
<path d="M15.1515 30.303C23.5195 30.303 30.303 23.5195 30.303 15.1515C30.303 6.78356 23.5195 0 15.1515 0C6.78356 0 0 6.78356 0 15.1515C0 23.5195 6.78356 30.303 15.1515 30.303Z" fill="#BFD3E7"/>
<path d="M45.4543 30.303C53.8222 30.303 60.6058 23.5195 60.6058 15.1515C60.6058 6.78356 53.8222 0 45.4543 0C37.0863 0 30.3027 6.78356 30.3027 15.1515C30.3027 23.5195 37.0863 30.303 45.4543 30.303Z" fill="#A5C3E1"/>
<path d="M75.758 30.303C84.1259 30.303 90.9095 23.5195 90.9095 15.1515C90.9095 6.78356 84.1259 0 75.758 0C67.39 0 60.6064 6.78356 60.6064 15.1515C60.6064 23.5195 67.39 30.303 75.758 30.303Z" fill="#8CB7DD"/>
<path d="M106.061 30.303C114.429 30.303 121.212 23.5195 121.212 15.1515C121.212 6.78356 114.429 0 106.061 0C97.6927 0 90.9092 6.78356 90.9092 15.1515C90.9092 23.5195 97.6927 30.303 106.061 30.303Z" fill="#82B0DA"/>
<path d="M136.363 30.303C144.731 30.303 151.515 23.5195 151.515 15.1515C151.515 6.78356 144.731 0 136.363 0C127.995 0 121.212 6.78356 121.212 15.1515C121.212 23.5195 127.995 30.303 136.363 30.303Z" fill="#519AD0"/>
<path d="M166.666 30.303C175.034 30.303 181.818 23.5195 181.818 15.1515C181.818 6.78356 175.034 0 166.666 0C158.298 0 151.515 6.78356 151.515 15.1515C151.515 23.5195 158.298 30.303 166.666 30.303Z" fill="#1386C6"/>
<path d="M196.97 30.303C205.338 30.303 212.121 23.5195 212.121 15.1515C212.121 6.78356 205.338 0 196.97 0C188.602 0 181.818 6.78356 181.818 15.1515C181.818 23.5195 188.602 30.303 196.97 30.303Z" fill="#1181C0"/>
<path d="M227.273 30.303C235.641 30.303 242.424 23.5195 242.424 15.1515C242.424 6.78356 235.641 0 227.273 0C218.905 0 212.121 6.78356 212.121 15.1515C212.121 23.5195 218.905 30.303 227.273 30.303Z" fill="#1386C6"/>
<path d="M15.1515 60.6077C23.5195 60.6077 30.303 53.8242 30.303 45.4562C30.303 37.0883 23.5195 30.3047 15.1515 30.3047C6.78356 30.3047 0 37.0883 0 45.4562C0 53.8242 6.78356 60.6077 15.1515 60.6077Z" fill="#81BFC5"/>
<path d="M45.4543 60.6077C53.8222 60.6077 60.6058 53.8242 60.6058 45.4562C60.6058 37.0883 53.8222 30.3047 45.4543 30.3047C37.0863 30.3047 30.3027 37.0883 30.3027 45.4562C30.3027 53.8242 37.0863 60.6077 45.4543 60.6077Z" fill="#64B7BC"/>
<path d="M75.758 60.6077C84.1259 60.6077 90.9095 53.8242 90.9095 45.4562C90.9095 37.0883 84.1259 30.3047 75.758 30.3047C67.39 30.3047 60.6064 37.0883 60.6064 45.4562C60.6064 53.8242 67.39 60.6077 75.758 60.6077Z" fill="#42A5B2"/>
<path d="M106.061 60.6077C114.429 60.6077 121.212 53.8242 121.212 45.4562C121.212 37.0883 114.429 30.3047 106.061 30.3047C97.6927 30.3047 90.9092 37.0883 90.9092 45.4562C90.9092 53.8242 97.6927 60.6077 106.061 60.6077Z" fill="#2E9AB3"/>
<path d="M136.363 60.6077C144.731 60.6077 151.515 53.8242 151.515 45.4562C151.515 37.0883 144.731 30.3047 136.363 30.3047C127.995 30.3047 121.212 37.0883 121.212 45.4562C121.212 53.8242 127.995 60.6077 136.363 60.6077Z" fill="#0888B6"/>
<path d="M166.666 60.6077C175.034 60.6077 181.818 53.8242 181.818 45.4562C181.818 37.0883 175.034 30.3047 166.666 30.3047C158.298 30.3047 151.515 37.0883 151.515 45.4562C151.515 53.8242 158.298 60.6077 166.666 60.6077Z" fill="#1881C1"/>
<path d="M196.97 60.6077C205.338 60.6077 212.121 53.8242 212.121 45.4562C212.121 37.0883 205.338 30.3047 196.97 30.3047C188.602 30.3047 181.818 37.0883 181.818 45.4562C181.818 53.8242 188.602 60.6077 196.97 60.6077Z" fill="#1881C1"/>
<path d="M227.273 60.6077C235.641 60.6077 242.424 53.8242 242.424 45.4562C242.424 37.0883 235.641 30.3047 227.273 30.3047C218.905 30.3047 212.121 37.0883 212.121 45.4562C212.121 53.8242 218.905 60.6077 227.273 60.6077Z" fill="#1881C1"/>
<path d="M15.1515 90.9085C23.5195 90.9085 30.303 84.1249 30.303 75.757C30.303 67.389 23.5195 60.6055 15.1515 60.6055C6.78356 60.6055 0 67.389 0 75.757C0 84.1249 6.78356 90.9085 15.1515 90.9085Z" fill="#6CC0BD"/>
<path d="M45.4543 90.9085C53.8222 90.9085 60.6058 84.1249 60.6058 75.757C60.6058 67.389 53.8222 60.6055 45.4543 60.6055C37.0863 60.6055 30.3027 67.389 30.3027 75.757C30.3027 84.1249 37.0863 90.9085 45.4543 90.9085Z" fill="#81C4C5"/>
<path d="M75.758 90.9085C84.1259 90.9085 90.9095 84.1249 90.9095 75.757C90.9095 67.389 84.1259 60.6055 75.758 60.6055C67.39 60.6055 60.6064 67.389 60.6064 75.757C60.6064 84.1249 67.39 90.9085 75.758 90.9085Z" fill="#B2CBE4"/>
<path d="M106.061 90.9085C114.429 90.9085 121.212 84.1249 121.212 75.757C121.212 67.389 114.429 60.6055 106.061 60.6055C97.6927 60.6055 90.9092 67.389 90.9092 75.757C90.9092 84.1249 97.6927 90.9085 106.061 90.9085Z" fill="#9CC0E1"/>
<path d="M136.363 90.9085C144.731 90.9085 151.515 84.1249 151.515 75.757C151.515 67.389 144.731 60.6055 136.363 60.6055C127.995 60.6055 121.212 67.389 121.212 75.757C121.212 84.1249 127.995 90.9085 136.363 90.9085Z" fill="#7AA9D6"/>
<path d="M166.666 90.9085C175.034 90.9085 181.818 84.1249 181.818 75.757C181.818 67.389 175.034 60.6055 166.666 60.6055C158.298 60.6055 151.515 67.389 151.515 75.757C151.515 84.1249 158.298 90.9085 166.666 90.9085Z" fill="#619ED1"/>
<path d="M196.97 90.9085C205.338 90.9085 212.121 84.1249 212.121 75.757C212.121 67.389 205.338 60.6055 196.97 60.6055C188.602 60.6055 181.818 67.389 181.818 75.757C181.818 84.1249 188.602 90.9085 196.97 90.9085Z" fill="#1386C6"/>
<path d="M227.273 90.9085C235.641 90.9085 242.424 84.1249 242.424 75.757C242.424 67.389 235.641 60.6055 227.273 60.6055C218.905 60.6055 212.121 67.389 212.121 75.757C212.121 84.1249 218.905 90.9085 227.273 90.9085Z" fill="#1386C6"/>
<path fill-rule="evenodd" clip-rule="evenodd" d="M15.1514 51.5155C18.6868 51.5155 21.0858 48.6114 21.212 45.5811C21.212 42.4246 16.5403 33.5862 16.5403 29.7983C16.5403 26.0104 21.212 18.5609 21.212 15.2781C21.212 11.9953 18.6868 9.34375 15.1514 9.34375C11.6161 9.34375 9.09082 11.869 9.09082 15.1518C9.09082 18.4347 13.7625 25.8842 13.7625 29.672C13.7625 33.4599 9.09082 42.2983 9.09082 45.4549C9.09082 48.6114 11.6161 51.5155 15.1514 51.5155Z" fill="#0D4F90" fill-opacity="0.2"/>
<path fill-rule="evenodd" clip-rule="evenodd" d="M15.1514 81.8185C18.6868 81.8185 21.0858 78.9145 21.212 75.8842C21.212 72.7276 16.5403 63.8892 16.5403 60.1013C16.5403 56.3134 21.212 48.864 21.212 45.5811C21.212 42.2983 18.6868 39.5205 15.1514 39.5205C11.6161 39.5205 9.09082 42.172 9.09082 45.4549C9.09082 48.7377 13.7625 56.1872 13.7625 59.9751C13.7625 63.7629 9.09082 72.6013 9.09082 75.7579C9.09082 78.9145 11.6161 81.8185 15.1514 81.8185ZM45.4545 51.5155C48.9898 51.5155 51.3888 48.6114 51.5151 45.5811C51.6413 42.5508 46.8433 33.5862 46.8433 29.7983C46.8433 26.0104 51.5151 18.5609 51.5151 15.2781C51.5151 11.9953 48.9898 9.34375 45.4545 9.34375C41.9191 9.34375 39.3939 12.1215 39.3939 15.2781C39.3939 18.4347 44.0656 26.0104 44.0656 29.7983C44.0656 33.5862 39.3939 42.4246 39.3939 45.5811C39.3939 48.7377 41.9191 51.5155 45.4545 51.5155Z" fill="#0D4F90" fill-opacity="0.2"/>
<path fill-rule="evenodd" clip-rule="evenodd" d="M45.4542 81.8185C48.9895 81.8185 51.3885 78.9145 51.5148 75.8842C51.641 72.8538 46.843 63.8892 46.843 60.1013C46.843 56.3134 51.5148 48.864 51.5148 45.5811C51.5148 42.2983 48.9895 39.5205 45.4542 39.5205C41.9188 39.5205 39.3936 42.2983 39.3936 45.5811C39.3936 48.864 44.0653 56.3134 44.0653 60.1013C44.0653 63.8892 39.3936 72.7276 39.3936 75.8842C39.3936 79.0407 41.9188 81.8185 45.4542 81.8185ZM75.7572 51.5155C79.2925 51.5155 81.6915 48.6114 81.8178 45.5811C81.9441 42.5508 77.1461 33.5862 77.1461 29.7983C77.1461 26.0104 81.8178 18.5609 81.8178 15.2781C81.8178 11.9953 79.2925 9.34375 75.7572 9.34375C72.2218 9.34375 69.6966 12.1215 69.6966 15.2781C69.6966 18.4347 74.3683 26.0104 74.3683 29.7983C74.3683 33.5862 69.6966 42.4246 69.6966 45.5811C69.6966 48.7377 72.2218 51.5155 75.7572 51.5155Z" fill="#0D4F90" fill-opacity="0.2"/>
<path fill-rule="evenodd" clip-rule="evenodd" d="M75.7579 81.8185C79.2932 81.8185 81.6922 78.9145 81.8185 75.8842C81.9447 72.8538 77.1468 63.8892 77.1468 60.1013C77.1468 56.3134 81.8185 48.864 81.8185 45.5811C81.8185 42.2983 79.2932 39.5205 75.7579 39.5205C72.2225 39.5205 69.6973 42.2983 69.6973 45.5811C69.6973 48.864 74.369 56.3134 74.369 60.1013C74.369 63.8892 69.6973 72.7276 69.6973 75.8842C69.6973 79.0407 72.2225 81.8185 75.7579 81.8185ZM106.061 51.5155C109.596 51.5155 111.995 48.6114 112.122 45.5811C112.248 42.5508 107.45 33.5862 107.45 29.7983C107.45 26.0104 112.122 18.5609 112.122 15.2781C112.122 11.9953 109.596 9.34375 106.061 9.34375C102.526 9.34375 100 12.1215 100 15.2781C100 18.4347 104.672 26.0104 104.672 29.7983C104.672 33.5862 100 42.4246 100 45.5811C100 48.7377 102.526 51.5155 106.061 51.5155Z" fill="#0D4F90" fill-opacity="0.2"/>
<path fill-rule="evenodd" clip-rule="evenodd" d="M106.061 81.8185C109.596 81.8185 111.995 78.9145 112.121 75.8842C112.247 72.8538 107.449 63.8892 107.449 60.1013C107.449 56.3134 112.121 48.864 112.121 45.5811C112.121 42.2983 109.596 39.5205 106.061 39.5205C102.525 39.5205 100 42.2983 100 45.5811C100 48.864 104.672 56.3134 104.672 60.1013C104.672 63.8892 100 72.7276 100 75.8842C100 79.0407 102.525 81.8185 106.061 81.8185ZM136.364 51.5155C139.899 51.5155 142.298 48.6114 142.424 45.5811C142.551 42.5508 137.753 33.5862 137.753 29.7983C137.753 26.0104 142.424 18.5609 142.424 15.2781C142.424 11.9953 139.899 9.34375 136.364 9.34375C132.828 9.34375 130.303 12.1215 130.303 15.2781C130.303 18.4347 134.975 26.0104 134.975 29.7983C134.975 33.5862 130.303 42.4246 130.303 45.5811C130.303 48.7377 132.828 51.5155 136.364 51.5155Z" fill="#0D4F90" fill-opacity="0.2"/>
<path fill-rule="evenodd" clip-rule="evenodd" d="M136.363 81.8185C139.899 81.8185 142.298 78.9145 142.424 75.8842C142.55 72.8538 137.752 63.8892 137.752 60.1013C137.752 56.3134 142.424 48.864 142.424 45.5811C142.424 42.2983 139.899 39.5205 136.363 39.5205C132.828 39.5205 130.303 42.2983 130.303 45.5811C130.303 48.864 134.974 56.3134 134.974 60.1013C134.974 63.8892 130.303 72.7276 130.303 75.8842C130.303 79.0407 132.828 81.8185 136.363 81.8185ZM166.666 51.5155C170.202 51.5155 172.601 48.6114 172.727 45.5811C172.853 42.5508 168.055 33.5862 168.055 29.7983C168.055 26.0104 172.727 18.5609 172.727 15.2781C172.727 11.9953 170.202 9.34375 166.666 9.34375C163.131 9.34375 160.606 12.1215 160.606 15.2781C160.606 18.4347 165.277 26.0104 165.277 29.7983C165.277 33.5862 160.606 42.4246 160.606 45.5811C160.606 48.7377 163.131 51.5155 166.666 51.5155Z" fill="#0D4F90" fill-opacity="0.2"/>
<path fill-rule="evenodd" clip-rule="evenodd" d="M166.666 81.8185C170.201 81.8185 172.6 78.9145 172.727 75.8842C172.853 72.8538 168.055 63.8892 168.055 60.1013C168.055 56.3134 172.727 48.864 172.727 45.5811C172.727 42.2983 170.201 39.5205 166.666 39.5205C163.131 39.5205 160.605 42.2983 160.605 45.5811C160.605 48.864 165.277 56.3134 165.277 60.1013C165.277 63.8892 160.605 72.7276 160.605 75.8842C160.605 79.0407 163.131 81.8185 166.666 81.8185ZM196.969 51.5155C200.504 51.5155 202.903 48.6114 203.03 45.5811C203.156 42.5508 198.358 33.5862 198.358 29.7983C198.358 26.0104 203.03 18.5609 203.03 15.2781C203.03 11.9953 200.504 9.34375 196.969 9.34375C193.434 9.34375 190.908 12.1215 190.908 15.2781C190.908 18.4347 195.58 26.0104 195.58 29.7983C195.58 33.5862 190.908 42.4246 190.908 45.5811C190.908 48.6114 193.434 51.5155 196.969 51.5155Z" fill="#0D4F90" fill-opacity="0.2"/>
<path fill-rule="evenodd" clip-rule="evenodd" d="M196.97 81.8185C200.505 81.8185 202.904 78.9145 203.03 75.8842C203.157 72.8538 198.359 63.8892 198.359 60.1013C198.359 56.3134 203.03 48.864 203.03 45.5811C203.03 42.2983 200.505 39.5205 196.97 39.5205C193.434 39.5205 190.909 42.2983 190.909 45.5811C190.909 48.864 195.581 56.3134 195.581 60.1013C195.581 63.8892 190.909 72.7276 190.909 75.8842C190.909 78.9145 193.434 81.8185 196.97 81.8185ZM227.273 51.5155C230.808 51.5155 233.207 48.6114 233.333 45.5811C233.46 42.5508 228.662 33.5862 228.662 29.7983C228.662 26.0104 233.333 18.5609 233.333 15.2781C233.333 11.9953 230.808 9.34375 227.273 9.34375C223.737 9.34375 221.212 12.1215 221.212 15.2781C221.212 18.4347 225.884 26.0104 225.884 29.7983C225.884 33.5862 221.212 42.4246 221.212 45.5811C221.212 48.6114 223.737 51.5155 227.273 51.5155Z" fill="#0D4F90" fill-opacity="0.2"/>
<path fill-rule="evenodd" clip-rule="evenodd" d="M227.273 81.8175C230.808 81.8175 233.207 78.9135 233.333 75.8832C233.459 72.8529 228.661 63.8882 228.661 60.1003C228.661 56.3125 233.333 48.863 233.333 45.5801C233.333 42.2973 230.808 39.5195 227.273 39.5195C223.737 39.5195 221.212 42.2973 221.212 45.5801C221.212 48.863 225.884 56.3125 225.884 60.1003C225.884 63.8882 221.212 72.7266 221.212 75.8832C221.212 78.9135 223.737 81.8175 227.273 81.8175Z" fill="#0D4F90" fill-opacity="0.2"/>
<path fill-rule="evenodd" clip-rule="evenodd" d="M9.09082 15.1498C9.09082 18.6852 11.9949 21.0842 15.0252 21.2104C18.1817 21.2104 27.0201 16.5387 30.808 16.5387C34.5959 16.5387 42.0454 21.2104 45.3282 21.2104C48.611 21.2104 51.3888 18.6852 51.3888 15.1498C51.3888 11.6145 48.611 9.21547 45.3282 9.21547C42.0454 9.21547 34.5959 13.8872 30.808 13.8872C27.0201 13.8872 18.1817 9.21547 15.0252 9.21547C11.9949 9.08921 9.09082 11.6145 9.09082 15.1498Z" fill="#114D8F" fill-opacity="0.2"/>
<path fill-rule="evenodd" clip-rule="evenodd" d="M39.3936 15.1498C39.3936 18.6852 42.2976 21.0842 45.3279 21.2104C48.4845 21.2104 57.3229 16.5387 61.1107 16.5387C64.8986 16.5387 72.3481 21.2104 75.6309 21.2104C78.9138 21.2104 81.6915 18.6852 81.6915 15.1498C81.6915 11.6145 78.9138 9.21547 75.6309 9.21547C72.3481 9.21547 64.8986 13.8872 61.1107 13.8872C57.3229 13.8872 48.4845 9.21547 45.3279 9.21547C42.2976 9.08921 39.3936 11.6145 39.3936 15.1498Z" fill="#114D8F" fill-opacity="0.2"/>
<path fill-rule="evenodd" clip-rule="evenodd" d="M69.6973 15.1498C69.6973 18.6852 72.6013 21.0842 75.6316 21.2104C78.7882 21.2104 87.6266 16.5387 91.4144 16.5387C95.2023 16.5387 102.652 21.2104 105.935 21.2104C109.217 21.2104 111.995 18.6852 111.995 15.1498C111.995 11.6145 109.217 9.21547 105.935 9.21547C102.652 9.21547 95.2023 13.8872 91.4144 13.8872C87.6266 13.8872 78.7882 9.21547 75.6316 9.21547C72.6013 9.08921 69.6973 11.6145 69.6973 15.1498Z" fill="#114D8F" fill-opacity="0.2"/>
<path fill-rule="evenodd" clip-rule="evenodd" d="M100 15.1498C100 18.6852 102.904 21.0842 105.934 21.2104C109.091 21.2104 117.929 16.5387 121.717 16.5387C125.505 16.5387 132.955 21.2104 136.237 21.2104C139.52 21.2104 142.298 18.6852 142.298 15.1498C142.298 11.6145 139.52 9.21547 136.237 9.21547C132.955 9.21547 125.505 13.8872 121.717 13.8872C117.929 13.8872 109.091 9.21547 105.934 9.21547C102.904 9.08921 100 11.6145 100 15.1498Z" fill="#114D8F" fill-opacity="0.2"/>
<path fill-rule="evenodd" clip-rule="evenodd" d="M130.303 15.1498C130.303 18.6852 133.207 21.0842 136.237 21.2104C139.394 21.2104 148.232 16.5387 152.02 16.5387C155.808 16.5387 163.257 21.2104 166.54 21.2104C169.823 21.2104 172.601 18.6852 172.601 15.1498C172.601 11.6145 169.823 9.21547 166.54 9.21547C163.257 9.21547 155.808 13.8872 152.02 13.8872C148.232 13.8872 139.394 9.21547 136.237 9.21547C133.207 9.08921 130.303 11.6145 130.303 15.1498Z" fill="#114D8F" fill-opacity="0.2"/>
<path fill-rule="evenodd" clip-rule="evenodd" d="M160.605 15.1498C160.605 18.6852 163.51 21.0842 166.54 21.2104C169.696 21.2104 178.535 16.5387 182.323 16.5387C186.111 16.5387 193.56 21.2104 196.843 21.2104C200.126 21.2104 202.903 18.6852 202.903 15.1498C202.903 11.6145 200.126 9.21547 196.843 9.21547C193.56 9.21547 186.111 13.8872 182.323 13.8872C178.535 13.8872 169.696 9.21547 166.54 9.21547C163.51 9.08921 160.605 11.6145 160.605 15.1498Z" fill="#114D8F" fill-opacity="0.2"/>
<path fill-rule="evenodd" clip-rule="evenodd" d="M190.909 15.1498C190.909 18.6852 193.813 21.0842 196.843 21.2104C200 21.2104 208.838 16.5387 212.626 16.5387C216.414 16.5387 223.864 21.2104 227.146 21.2104C230.429 21.2104 233.207 18.6852 233.207 15.1498C233.207 11.6145 230.429 9.21547 227.146 9.21547C223.864 9.21547 216.414 13.8872 212.626 13.8872C208.838 13.8872 200 9.21547 196.843 9.21547C193.813 9.08921 190.909 11.6145 190.909 15.1498ZM9.09082 45.4528C9.09082 48.9882 11.9949 51.3872 15.0252 51.5135C18.0555 51.6397 27.0201 46.8417 30.808 46.8417C34.5959 46.8417 42.0454 51.5135 45.3282 51.5135C48.611 51.5135 51.3888 48.9882 51.3888 45.4528C51.3888 41.9175 48.611 39.3922 45.3282 39.3922C42.0454 39.3922 34.5959 44.064 30.808 44.064C27.0201 44.064 18.1817 39.3922 15.0252 39.3922C11.9949 39.3922 9.09082 41.9175 9.09082 45.4528Z" fill="#114D8F" fill-opacity="0.2"/>
<path fill-rule="evenodd" clip-rule="evenodd" d="M39.3936 45.4551C39.3936 48.9905 42.2976 51.3895 45.3279 51.5157C48.3582 51.642 57.3229 46.844 61.1107 46.844C64.8986 46.844 72.3481 51.5157 75.6309 51.5157C78.9138 51.5157 81.6915 48.9905 81.6915 45.4551C81.6915 41.9198 78.9138 39.3945 75.6309 39.3945C72.3481 39.3945 64.8986 44.0662 61.1107 44.0662C57.3229 44.0662 48.4845 39.3945 45.3279 39.3945C42.2976 39.3945 39.3936 41.9198 39.3936 45.4551Z" fill="#114D8F" fill-opacity="0.2"/>
<path fill-rule="evenodd" clip-rule="evenodd" d="M69.6973 45.4551C69.6973 48.9905 72.6013 51.3895 75.6316 51.5157C78.6619 51.642 87.6266 46.844 91.4144 46.844C95.2023 46.844 102.652 51.5157 105.935 51.5157C109.217 51.5157 111.995 48.9905 111.995 45.4551C111.995 41.9198 109.217 39.3945 105.935 39.3945C102.652 39.3945 95.2023 44.0662 91.4144 44.0662C87.6266 44.0662 78.7882 39.3945 75.6316 39.3945C72.6013 39.3945 69.6973 41.9198 69.6973 45.4551Z" fill="#114D8F" fill-opacity="0.2"/>
<path fill-rule="evenodd" clip-rule="evenodd" d="M100 45.4551C100 48.9905 102.904 51.3895 105.934 51.5157C108.965 51.642 117.929 46.844 121.717 46.844C125.505 46.844 132.955 51.5157 136.237 51.5157C139.52 51.5157 142.298 48.9905 142.298 45.4551C142.298 41.9198 139.52 39.3945 136.237 39.3945C132.955 39.3945 125.505 44.0662 121.717 44.0662C117.929 44.0662 109.091 39.3945 105.934 39.3945C102.904 39.3945 100 41.9198 100 45.4551Z" fill="#114D8F" fill-opacity="0.2"/>
<path fill-rule="evenodd" clip-rule="evenodd" d="M130.303 45.4551C130.303 48.9905 133.207 51.3895 136.237 51.5157C139.267 51.642 148.232 46.844 152.02 46.844C155.808 46.844 163.257 51.5157 166.54 51.5157C169.823 51.5157 172.601 48.9905 172.601 45.4551C172.601 41.9198 169.823 39.3945 166.54 39.3945C163.257 39.3945 155.808 44.0662 152.02 44.0662C148.232 44.0662 139.394 39.3945 136.237 39.3945C133.207 39.3945 130.303 41.9198 130.303 45.4551Z" fill="#114D8F" fill-opacity="0.2"/>
<path fill-rule="evenodd" clip-rule="evenodd" d="M160.605 45.4551C160.605 48.9905 163.51 51.3895 166.54 51.5157C169.696 51.5157 178.535 46.844 182.323 46.844C186.111 46.844 193.56 51.5157 196.843 51.5157C200.126 51.5157 202.903 48.9905 202.903 45.4551C202.903 41.9198 200.126 39.3945 196.843 39.3945C193.56 39.3945 186.111 44.0662 182.323 44.0662C178.535 44.0662 169.696 39.3945 166.54 39.3945C163.51 39.3945 160.605 41.9198 160.605 45.4551Z" fill="#114D8F" fill-opacity="0.2"/>
<path fill-rule="evenodd" clip-rule="evenodd" d="M190.909 45.4551C190.909 48.9905 193.813 51.3895 196.843 51.5157C200 51.5157 208.838 46.844 212.626 46.844C216.414 46.844 223.864 51.5157 227.146 51.5157C230.429 51.5157 233.207 48.9905 233.207 45.4551C233.207 41.9198 230.429 39.3945 227.146 39.3945C223.864 39.3945 216.414 44.0662 212.626 44.0662C208.838 44.0662 200 39.3945 196.843 39.3945C193.813 39.3945 190.909 41.9198 190.909 45.4551ZM9.09082 75.7582C9.09082 79.2935 11.9949 81.6925 15.0252 81.6925C18.0555 81.6925 27.0201 77.0208 30.808 77.0208C34.5959 77.0208 42.0454 81.6925 45.3282 81.6925C48.611 81.6925 51.3888 79.1673 51.3888 75.7582C51.3888 72.2228 48.611 69.6976 45.3282 69.6976C42.0454 69.6976 34.5959 74.3693 30.808 74.3693C27.0201 74.3693 18.1817 69.6976 15.0252 69.6976C11.9949 69.6976 9.09082 72.2228 9.09082 75.7582Z" fill="#114D8F" fill-opacity="0.2"/>
<path fill-rule="evenodd" clip-rule="evenodd" d="M39.3936 75.7559C39.3936 79.2913 42.2976 81.6903 45.3279 81.6903C48.3582 81.6903 57.3229 77.0185 61.1107 77.0185C64.8986 77.0185 72.3481 81.6903 75.6309 81.6903C78.9138 81.6903 81.6915 79.165 81.6915 75.7559C81.6915 72.2206 78.9138 69.6953 75.6309 69.6953C72.3481 69.6953 64.8986 74.367 61.1107 74.367C57.3229 74.367 48.4845 69.6953 45.3279 69.6953C42.2976 69.6953 39.3936 72.2206 39.3936 75.7559Z" fill="#114D8F" fill-opacity="0.2"/>
<path fill-rule="evenodd" clip-rule="evenodd" d="M69.6973 75.7559C69.6973 79.2913 72.6013 81.6903 75.6316 81.6903C78.6619 81.6903 87.6266 77.0185 91.4144 77.0185C95.2023 77.0185 102.652 81.6903 105.935 81.6903C109.217 81.6903 111.995 79.165 111.995 75.7559C111.995 72.2206 109.217 69.6953 105.935 69.6953C102.652 69.6953 95.2023 74.367 91.4144 74.367C87.6266 74.367 78.7882 69.6953 75.6316 69.6953C72.6013 69.6953 69.6973 72.2206 69.6973 75.7559Z" fill="#114D8F" fill-opacity="0.2"/>
<path fill-rule="evenodd" clip-rule="evenodd" d="M100 75.7559C100 79.2913 102.904 81.6903 105.934 81.6903C108.965 81.6903 117.929 77.0185 121.717 77.0185C125.505 77.0185 132.955 81.6903 136.237 81.6903C139.52 81.6903 142.298 79.165 142.298 75.7559C142.298 72.2206 139.52 69.6953 136.237 69.6953C132.955 69.6953 125.505 74.367 121.717 74.367C117.929 74.367 109.091 69.6953 105.934 69.6953C102.904 69.6953 100 72.2206 100 75.7559Z" fill="#114D8F" fill-opacity="0.2"/>
<path fill-rule="evenodd" clip-rule="evenodd" d="M130.303 75.7559C130.303 79.2913 133.207 81.6903 136.237 81.6903C139.267 81.6903 148.232 77.0185 152.02 77.0185C155.808 77.0185 163.257 81.6903 166.54 81.6903C169.823 81.6903 172.601 79.165 172.601 75.7559C172.601 72.2206 169.823 69.6953 166.54 69.6953C163.257 69.6953 155.808 74.367 152.02 74.367C148.232 74.367 139.394 69.6953 136.237 69.6953C133.207 69.6953 130.303 72.2206 130.303 75.7559Z" fill="#114D8F" fill-opacity="0.2"/>
<path fill-rule="evenodd" clip-rule="evenodd" d="M160.605 75.7559C160.605 79.2913 163.51 81.6903 166.54 81.6903C169.696 81.6903 178.535 77.0185 182.323 77.0185C186.111 77.0185 193.56 81.6903 196.843 81.6903C200.126 81.6903 202.903 79.165 202.903 75.7559C202.903 72.2206 200.126 69.6953 196.843 69.6953C193.56 69.6953 186.111 74.367 182.323 74.367C178.535 74.367 169.696 69.6953 166.54 69.6953C163.51 69.6953 160.605 72.2206 160.605 75.7559Z" fill="#114D8F" fill-opacity="0.2"/>
<path fill-rule="evenodd" clip-rule="evenodd" d="M190.909 75.7559C190.909 79.2913 193.813 81.6903 196.844 81.6903C200 81.6903 208.838 77.0185 212.626 77.0185C216.414 77.0185 223.864 81.6903 227.147 81.6903C230.429 81.6903 233.207 79.165 233.207 75.7559C233.207 72.2206 230.429 69.6953 227.147 69.6953C223.864 69.6953 216.414 74.367 212.626 74.367C208.838 74.367 200 69.6953 196.844 69.6953C193.813 69.6953 190.909 72.2206 190.909 75.7559Z" fill="#114D8F" fill-opacity="0.2"/>
<path d="M15.2149 21.2736C18.5621 21.2736 21.2755 18.5601 21.2755 15.2129C21.2755 11.8658 18.5621 9.15234 15.2149 9.15234C11.8677 9.15234 9.1543 11.8658 9.1543 15.2129C9.1543 18.5601 11.8677 21.2736 15.2149 21.2736Z" fill="#76A1CC"/>
<path d="M45.5176 21.2736C48.8648 21.2736 51.5782 18.5601 51.5782 15.2129C51.5782 11.8658 48.8648 9.15234 45.5176 9.15234C42.1705 9.15234 39.457 11.8658 39.457 15.2129C39.457 18.5601 42.1705 21.2736 45.5176 21.2736Z" fill="#6A91C2"/>
<path d="M75.8214 21.2736C79.1685 21.2736 81.882 18.5601 81.882 15.2129C81.882 11.8658 79.1685 9.15234 75.8214 9.15234C72.4742 9.15234 69.7607 11.8658 69.7607 15.2129C69.7607 18.5601 72.4742 21.2736 75.8214 21.2736Z" fill="#4981B3"/>
<path d="M106.124 21.2736C109.471 21.2736 112.185 18.5601 112.185 15.2129C112.185 11.8658 109.471 9.15234 106.124 9.15234C102.777 9.15234 100.063 11.8658 100.063 15.2129C100.063 18.5601 102.777 21.2736 106.124 21.2736Z" fill="#406EA7"/>
<path d="M136.427 21.2736C139.774 21.2736 142.487 18.5601 142.487 15.2129C142.487 11.8658 139.774 9.15234 136.427 9.15234C133.08 9.15234 130.366 11.8658 130.366 15.2129C130.366 18.5601 133.08 21.2736 136.427 21.2736Z" fill="#055293"/>
<path d="M166.73 21.2736C170.077 21.2736 172.79 18.5601 172.79 15.2129C172.79 11.8658 170.077 9.15234 166.73 9.15234C163.382 9.15234 160.669 11.8658 160.669 15.2129C160.669 18.5601 163.382 21.2736 166.73 21.2736Z" fill="#1C4787"/>
<path d="M197.033 21.2736C200.38 21.2736 203.094 18.5601 203.094 15.2129C203.094 11.8658 200.38 9.15234 197.033 9.15234C193.686 9.15234 190.973 11.8658 190.973 15.2129C190.973 18.5601 193.686 21.2736 197.033 21.2736Z" fill="#1F4686"/>
<path d="M227.336 21.2736C230.683 21.2736 233.397 18.5601 233.397 15.2129C233.397 11.8658 230.683 9.15234 227.336 9.15234C223.989 9.15234 221.275 11.8658 221.275 15.2129C221.275 18.5601 223.989 21.2736 227.336 21.2736Z" fill="#114D8F"/>
<path d="M15.2149 51.5782C18.5621 51.5782 21.2755 48.8648 21.2755 45.5176C21.2755 42.1705 18.5621 39.457 15.2149 39.457C11.8677 39.457 9.1543 42.1705 9.1543 45.5176C9.1543 48.8648 11.8677 51.5782 15.2149 51.5782Z" fill="#0492A0"/>
<path d="M45.5176 51.5782C48.8648 51.5782 51.5782 48.8648 51.5782 45.5176C51.5782 42.1705 48.8648 39.457 45.5176 39.457C42.1705 39.457 39.457 42.1705 39.457 45.5176C39.457 48.8648 42.1705 51.5782 45.5176 51.5782Z" fill="#018188"/>
<path d="M75.8214 51.5782C79.1685 51.5782 81.882 48.8648 81.882 45.5176C81.882 42.1705 79.1685 39.457 75.8214 39.457C72.4742 39.457 69.7607 42.1705 69.7607 45.5176C69.7607 48.8648 72.4742 51.5782 75.8214 51.5782Z" fill="#067581"/>
<path d="M106.124 51.5782C109.471 51.5782 112.185 48.8648 112.185 45.5176C112.185 42.1705 109.471 39.457 106.124 39.457C102.777 39.457 100.063 42.1705 100.063 45.5176C100.063 48.8648 102.777 51.5782 106.124 51.5782Z" fill="#056B80"/>
<path d="M136.427 51.5782C139.774 51.5782 142.487 48.8648 142.487 45.5176C142.487 42.1705 139.774 39.457 136.427 39.457C133.08 39.457 130.366 42.1705 130.366 45.5176C130.366 48.8648 133.08 51.5782 136.427 51.5782Z" fill="#005782"/>
<path d="M166.73 51.5782C170.077 51.5782 172.79 48.8648 172.79 45.5176C172.79 42.1705 170.077 39.457 166.73 39.457C163.382 39.457 160.669 42.1705 160.669 45.5176C160.669 48.8648 163.382 51.5782 166.73 51.5782Z" fill="#204580"/>
<path d="M197.033 51.5782C200.38 51.5782 203.094 48.8648 203.094 45.5176C203.094 42.1705 200.38 39.457 197.033 39.457C193.686 39.457 190.973 42.1705 190.973 45.5176C190.973 48.8648 193.686 51.5782 197.033 51.5782Z" fill="#1F4686"/>
<path d="M227.336 51.5782C230.683 51.5782 233.397 48.8648 233.397 45.5176C233.397 42.1705 230.683 39.457 227.336 39.457C223.989 39.457 221.275 42.1705 221.275 45.5176C221.275 48.8648 223.989 51.5782 227.336 51.5782Z" fill="#1A4888"/>
<path d="M15.2149 81.879C18.5621 81.879 21.2755 79.1656 21.2755 75.8184C21.2755 72.4712 18.5621 69.7578 15.2149 69.7578C11.8677 69.7578 9.1543 72.4712 9.1543 75.8184C9.1543 79.1656 11.8677 81.879 15.2149 81.879Z" fill="#029DA2"/>
<path d="M45.5176 81.879C48.8648 81.879 51.5782 79.1656 51.5782 75.8184C51.5782 72.4712 48.8648 69.7578 45.5176 69.7578C42.1705 69.7578 39.457 72.4712 39.457 75.8184C39.457 79.1656 42.1705 81.879 45.5176 81.879Z" fill="#0598A6"/>
<path d="M75.8214 81.879C79.1685 81.879 81.882 79.1656 81.882 75.8184C81.882 72.4712 79.1685 69.7578 75.8214 69.7578C72.4742 69.7578 69.7607 72.4712 69.7607 75.8184C69.7607 79.1656 72.4742 81.879 75.8214 81.879Z" fill="#3A98BF"/>
<path d="M106.124 81.879C109.471 81.879 112.185 79.1656 112.185 75.8184C112.185 72.4712 109.471 69.7578 106.124 69.7578C102.777 69.7578 100.063 72.4712 100.063 75.8184C100.063 79.1656 102.777 81.879 106.124 81.879Z" fill="#467EB3"/>
<path d="M136.427 81.879C139.774 81.879 142.487 79.1656 142.487 75.8184C142.487 72.4712 139.774 69.7578 136.427 69.7578C133.08 69.7578 130.366 72.4712 130.366 75.8184C130.366 79.1656 133.08 81.879 136.427 81.879Z" fill="#2A5F9D"/>
<path d="M166.73 81.879C170.077 81.879 172.79 79.1656 172.79 75.8184C172.79 72.4712 170.077 69.7578 166.73 69.7578C163.382 69.7578 160.669 72.4712 160.669 75.8184C160.669 79.1656 163.382 81.879 166.73 81.879Z" fill="#1C4787"/>
<path d="M197.033 81.879C200.38 81.879 203.094 79.1656 203.094 75.8184C203.094 72.4712 200.38 69.7578 197.033 69.7578C193.686 69.7578 190.973 72.4712 190.973 75.8184C190.973 79.1656 193.686 81.879 197.033 81.879Z" fill="#1F4686"/>
<path d="M227.336 81.879C230.683 81.879 233.397 79.1656 233.397 75.8184C233.397 72.4712 230.683 69.7578 227.336 69.7578C223.989 69.7578 221.275 72.4712 221.275 75.8184C221.275 79.1656 223.989 81.879 227.336 81.879Z" fill="#19498A"/>
</g>
<defs>
<clipPath id="clip0">
<rect width="500" height="90.9091" fill="white"/>
</clipPath>
</defs>
</svg>
