<svg width="500" height="152" viewBox="0 0 500 152" fill="none" xmlns="http://www.w3.org/2000/svg">
<g clip-path="url(#clip0)">
<path d="M96.1628 97.0391C93.8174 106.098 91.5141 115.466 89.2529 125.002C99.365 131.532 109.28 137.965 119.154 143.484C111.598 129.159 104.014 113.373 96.1628 97.0391Z" fill="#F57F29"/>
<path d="M96.1631 97.0391C105.208 103.486 114.028 110.016 122.735 116.069C121.556 124.903 120.348 134.06 119.154 143.484C111.598 129.159 104.014 113.373 96.1631 97.0391Z" fill="#E0601F"/>
<path d="M96.1626 97.0391C93.8172 106.098 91.5139 115.466 89.2527 125.002C79.1546 118.471 68.8459 111.856 58.4951 105.957C70.779 101.935 83.3791 98.9515 96.1626 97.0391Z" fill="#E0601F"/>
<path d="M96.1626 97.0349C87.0758 90.5884 77.8906 84.2684 68.551 78.4961C65.1101 87.5267 61.7535 96.754 58.4951 105.953C70.779 101.931 83.3791 98.9474 96.1626 97.0349Z" fill="#FDB515"/>
<path d="M106.458 59.8906C104.913 65.0731 103.368 70.4521 101.823 75.9857C109.927 82.4883 117.806 89.1735 125.488 95.648C119.238 84.4124 112.947 72.3762 106.458 59.9468V59.8906Z" fill="#F57F29"/>
<path d="M106.458 59.8906C113.761 66.4635 120.783 73.247 127.623 79.9322C126.93 84.9882 126.219 90.2081 125.488 95.5919C119.239 84.3562 112.947 72.32 106.458 59.8906Z" fill="#E0601F"/>
<path d="M96.1632 97.0356C98.0312 89.8167 99.9272 82.7804 101.781 75.9688C109.885 82.4714 117.764 89.1566 125.446 95.6311C115.649 95.1227 105.825 95.5931 96.1211 97.0356H96.1632Z" fill="#FDB515"/>
<path d="M96.1631 97.0354C105.208 103.482 114.028 110.013 122.735 116.066C123.672 109.015 124.608 102.19 125.544 95.5888C115.747 95.0804 105.923 95.5508 96.2193 96.9933L96.1631 97.0354Z" fill="#F57F29"/>
<path d="M106.458 59.8903C107.736 55.5786 109.014 51.4635 110.264 47.3906C116.851 54.0197 123.185 60.8594 129.28 67.685C122.013 64.1815 114.35 61.5645 106.458 59.8903Z" fill="#B3B2B1"/>
<path d="M106.458 59.8906C113.761 66.4635 120.783 73.247 127.623 79.9322C128.199 75.7188 128.761 71.6459 129.28 67.6854C122.013 64.1819 114.35 61.5648 106.458 59.8906Z" fill="#8B8B8E"/>
<path d="M106.457 59.8895C107.735 55.5778 109.013 51.4627 110.263 47.3898C103.691 40.7327 96.907 34.3705 89.8848 28.4297C95.5026 38.9912 101.12 49.5667 106.485 59.8895H106.457Z" fill="#8B8B8E"/>
<path d="M106.458 59.8911C99.1685 53.3182 91.6406 46.942 83.9863 41.0854C85.9526 36.7316 87.9328 32.4901 89.8991 28.4453C95.5169 39.0068 101.135 49.5824 106.5 59.9051L106.458 59.8911Z" fill="#D2D0CE"/>
<path d="M40.5745 63.793C36.1785 72.95 31.9511 82.1773 27.7939 91.1939C38.4052 95.2871 48.6718 100.223 58.4953 105.955C52.5826 91.5029 46.5715 77.346 40.5745 63.8211V63.793Z" fill="#E0601F"/>
<path d="M40.5742 63.793C50.2508 67.9955 59.6021 72.9106 68.551 78.4976C65.11 87.5283 61.7534 96.7555 58.4951 105.955C52.5823 91.5029 46.5712 77.346 40.5742 63.8211V63.793Z" fill="#F57F29"/>
<path d="M40.5747 63.793C36.1788 72.95 31.9514 82.1773 27.7942 91.1939C17.8366 87.5002 8.30033 85.2952 0 85.3233C12.1203 75.7651 25.8652 68.4716 40.5747 63.793Z" fill="#E09E14"/>
<path d="M40.5747 63.7918C32.1466 60.0637 23.2493 57.5027 14.1288 56.1797C9.21323 66.0109 4.55043 75.8421 0 85.3221C12.1203 75.764 25.8652 68.4705 40.5747 63.7918Z" fill="#FFD600"/>
<path d="M60.518 25.2812C57.3861 30.7305 54.3244 36.3905 51.3189 42.1347C43.3709 38.0793 34.9954 34.9232 26.3477 32.7249C37.1959 28.2039 48.7723 25.6821 60.518 25.2812Z" fill="#FFD600"/>
<path d="M60.518 25.2845C53.0721 20.9157 45.2339 17.2528 37.1058 14.3438C33.398 20.2986 29.8167 26.4642 26.3477 32.7421C37.195 28.2163 48.7714 25.6897 60.518 25.2845Z" fill="#F2B411"/>
<path d="M40.5748 63.7916C44.0578 56.5025 47.5971 49.2555 51.3189 42.1911C43.3709 38.1357 34.9954 34.9796 26.3477 32.7812C31.0245 42.6124 35.7856 53.0054 40.5748 63.7916Z" fill="#F2B411"/>
<path d="M40.5748 63.7932C32.1467 60.065 23.2493 57.504 14.1289 56.181C18.0333 48.3442 22.1062 40.4792 26.3477 32.7969C31.0245 42.6281 35.7856 53.021 40.5748 63.8072V63.7932Z" fill="#E09E14"/>
<path d="M60.5176 25.2824C63.1018 20.7601 65.7422 16.3641 68.3966 12.1367C75.8735 17.1399 83.0487 22.5799 89.8847 28.4284C80.2946 25.9914 70.4063 24.9321 60.5176 25.2824Z" fill="#8B8B8E"/>
<path d="M60.5176 25.2854C68.6507 30.0545 76.475 35.3317 83.9439 41.0856C85.9101 36.7318 87.8904 32.4903 89.8566 28.4455C80.2763 26.0064 70.3976 24.9424 60.5176 25.2854Z" fill="#B3B2B1"/>
<path d="M60.5179 25.2802C63.1021 20.7578 65.7425 16.3619 68.3969 12.1345C61.4606 7.5002 54.1565 3.44181 46.5576 0C51.2345 8.14584 55.8972 16.6287 60.5179 25.2802Z" fill="#F2B411"/>
<path d="M60.5177 25.2833C53.0718 20.9145 45.2336 17.2516 37.1055 14.3426C40.1672 9.38015 43.3178 4.58628 46.5575 -0.0390625C51.2343 8.10678 55.8971 16.5897 60.5177 25.2411V25.2833Z" fill="#E09E14"/>
<path d="M181.709 96.4608C169.139 96.4608 160.375 106.503 160.375 118.932C160.375 131.362 169.321 141.53 181.877 141.53C194.433 141.53 203.211 131.502 203.211 119.059C203.211 106.615 194.265 96.4608 181.709 96.4608ZM181.709 151.684C162.271 151.684 148.718 136.951 148.718 119.059C148.666 114.706 149.491 110.387 151.143 106.36C152.796 102.333 155.242 98.6802 158.336 95.6187C161.431 92.5571 165.11 90.1499 169.154 88.5404C173.198 86.9309 177.526 86.1521 181.877 86.2505C201.315 86.2505 214.868 100.983 214.868 118.876C214.92 123.229 214.095 127.547 212.443 131.574C210.79 135.601 208.344 139.254 205.25 142.316C202.155 145.377 198.476 147.785 194.432 149.394C190.388 151.004 186.061 151.782 181.709 151.684Z" fill="#55565A"/>
<path d="M249.22 97.4582H236.285V120.224H249.22C257.647 120.224 262.871 115.618 262.871 108.848C262.871 101.349 257.534 97.4582 249.22 97.4582ZM248.855 130.266H236.285V150.603H225.176V87.4023H250.119C264.852 87.4023 274.163 95.7167 274.163 108.652C274.163 122.921 262.773 130.337 248.883 130.337L248.855 130.266Z" fill="#55565A"/>
<path d="M310.497 150.603H299.289V97.6407H279.22V87.332H330.567V97.6407H310.497V150.603Z" fill="#55565A"/>
<path d="M394.554 123.216C394.554 142.106 383.88 151.6 367.35 151.6C350.819 151.6 340.412 142.106 340.412 123.764V87.332H351.535V123.3C351.535 135.055 357.589 141.375 367.532 141.375C377.476 141.375 383.417 135.421 383.417 123.764V87.332H394.54V123.216H394.554Z" fill="#55565A"/>
<path d="M437.755 135.055H437.39L417.601 105.407V150.603H406.66V87.332H418.5L437.755 117.247L456.996 87.332H468.835V150.603H457.726V105.225L437.755 135.055Z" fill="#55565A"/>
<path d="M491.053 94.6228C492.458 94.6228 493.188 93.9205 493.188 92.8812C493.188 91.8419 492.374 91.1959 491.053 91.1959H488.497V94.6228H491.053ZM486.966 89.8898H491.18C493.146 89.8898 494.733 90.915 494.733 92.8251C494.737 93.5062 494.503 94.1673 494.073 94.6951C493.642 95.2229 493.041 95.5846 492.374 95.7183L495.056 99.426H493.146L490.744 95.943H488.455V99.426H486.924V89.8898H486.966ZM498.918 94.8475C498.918 92.6126 498.031 90.4692 496.45 88.8889C494.87 87.3086 492.727 86.4208 490.492 86.4208C488.257 86.4208 486.113 87.3086 484.533 88.8889C482.953 90.4692 482.065 92.6126 482.065 94.8475C482.054 95.9572 482.264 97.0581 482.683 98.0855C483.103 99.113 483.723 100.046 484.508 100.831C485.293 101.616 486.226 102.236 487.254 102.656C488.281 103.075 489.382 103.285 490.492 103.274C491.605 103.274 492.708 103.054 493.736 102.625C494.764 102.196 495.697 101.568 496.48 100.776C497.264 99.9849 497.883 99.046 498.301 98.0139C498.72 96.9817 498.93 95.8769 498.918 94.7632V94.8475ZM481.026 94.8475C480.976 93.5709 481.185 92.2976 481.64 91.1037C482.095 89.9098 482.786 88.8199 483.671 87.8994C484.557 86.9788 485.62 86.2465 486.795 85.7463C487.971 85.2461 489.235 84.9883 490.513 84.9883C491.79 84.9883 493.055 85.2461 494.23 85.7463C495.406 86.2465 496.468 86.9788 497.354 87.8994C498.24 88.8199 498.931 89.9098 499.385 91.1037C499.84 92.2976 500.049 93.5709 500 94.8475C500.049 96.1241 499.84 97.3974 499.385 98.5913C498.931 99.7852 498.24 100.875 497.354 101.796C496.468 102.716 495.406 103.448 494.23 103.949C493.055 104.449 491.79 104.707 490.513 104.707C489.235 104.707 487.971 104.449 486.795 103.949C485.62 103.448 484.557 102.716 483.671 101.796C482.786 100.875 482.095 99.7852 481.64 98.5913C481.185 97.3974 480.976 96.1241 481.026 94.8475Z" fill="#55565A"/>
</g>
<defs>
<clipPath id="clip0">
<rect width="500" height="151.681" fill="white"/>
</clipPath>
</defs>
</svg>
