<svg width="300" height="92" viewBox="0 0 300 92" fill="none" xmlns="http://www.w3.org/2000/svg">
<g clip-path="url(#clip0)">
<path d="M57.6977 58.2207C56.2904 63.6559 54.9085 69.2766 53.5518 74.9983C59.619 78.9167 65.5683 82.7762 71.4923 86.0879C66.9587 77.5263 62.4083 68.021 57.6977 58.2207Z" fill="#F57F29"/>
<path d="M57.6978 58.2207C63.1246 62.0886 68.4166 66.007 73.6411 69.6389C72.9333 74.9393 72.217 80.4336 71.4923 86.0879C66.9587 77.5263 62.4083 68.021 57.6978 58.2207Z" fill="#E0601F"/>
<path d="M57.6979 58.2207C56.2906 63.6559 54.9086 69.2766 53.5519 74.9983C47.4931 71.0799 41.2911 67.1109 35.0974 63.5717C42.4677 61.1581 50.0278 59.3682 57.6979 58.2207Z" fill="#E0601F"/>
<path d="M57.6979 58.2209C52.2458 54.3531 46.7347 50.561 41.1309 47.0977C39.0664 52.516 37.0524 58.0524 35.0974 63.5719C42.4677 61.1584 50.0278 59.3684 57.6979 58.2209Z" fill="#FDB515"/>
<path d="M63.8746 35.9316C62.9476 39.0411 62.0207 42.2685 61.0938 45.5887C65.956 49.4903 70.6834 53.5014 75.2928 57.3861C71.5429 50.6279 67.7677 43.3893 63.8746 35.9316Z" fill="#F57F29"/>
<path d="M63.8745 35.9316C68.2564 39.8754 72.4698 43.9455 76.5736 47.9566C76.1579 50.9902 75.7309 54.1221 75.2927 57.3524C71.5428 50.6279 67.7677 43.3893 63.8745 35.9316Z" fill="#E0601F"/>
<path d="M57.6978 58.2202C58.8185 53.8888 59.9561 49.667 61.0684 45.5801C65.9307 49.4817 70.6581 53.4928 75.2675 57.3775C69.3975 57.0741 63.5118 57.3564 57.6978 58.2202Z" fill="#FDB515"/>
<path d="M57.6978 58.22C63.1246 62.0878 68.4166 66.0063 73.6411 69.6382C74.2057 65.4248 74.7619 61.3126 75.3265 57.352C69.436 57.0531 63.5304 57.3438 57.6978 58.22Z" fill="#F57F29"/>
<path d="M63.8745 35.9314C64.6413 33.3444 65.4082 30.8754 66.1582 28.4316C70.1103 32.4091 73.9108 36.5129 77.568 40.6083C73.2074 38.5062 68.6099 36.936 63.8745 35.9314Z" fill="#B3B2B1"/>
<path d="M63.8745 35.9316C68.2564 39.8754 72.4698 43.9455 76.5736 47.9566C76.9191 45.4286 77.2562 42.9848 77.568 40.6085C73.2074 38.5064 68.6099 36.9362 63.8745 35.9316Z" fill="#8B8B8E"/>
<path d="M63.8747 35.9306C64.6415 33.3436 65.4084 30.8745 66.1583 28.4308C62.2146 24.4365 58.1445 20.6192 53.9312 17.0547C57.3018 23.3916 60.6725 29.7369 63.8747 35.9306Z" fill="#8B8B8E"/>
<path d="M63.8746 35.9319C59.5011 31.9882 54.9844 28.1625 50.3918 24.6485C51.5716 22.0362 52.7598 19.4914 53.9395 17.0645C57.3018 23.3929 60.6725 29.7383 63.8746 35.9319Z" fill="#D2D0CE"/>
<path d="M24.3448 38.2734C21.7073 43.7677 19.1708 49.304 16.6765 54.714C23.0433 57.17 29.2032 60.1316 35.0973 63.5705C31.5497 54.9078 27.943 46.4052 24.3448 38.2734Z" fill="#E0601F"/>
<path d="M24.3447 38.2734C30.1507 40.795 35.7614 43.744 41.1308 47.0962C39.0662 52.5146 37.0522 58.051 35.0972 63.5705C31.5496 54.9078 27.9429 46.4052 24.3447 38.2734Z" fill="#F57F29"/>
<path d="M24.3448 38.2734C21.7073 43.7677 19.1708 49.304 16.6765 54.714C10.7019 52.4978 4.9802 51.1832 0 51.1916C7.27216 45.4567 15.5191 41.0806 24.3448 38.2734Z" fill="#E09E14"/>
<path d="M24.3448 38.2743C19.2879 36.0374 13.9496 34.5008 8.47729 33.707C5.52794 39.6057 2.73026 45.5045 0 51.1925C7.27216 45.4576 15.5191 41.0815 24.3448 38.2743Z" fill="#FFD600"/>
<path d="M36.3108 15.168C34.4317 18.4375 32.5946 21.8335 30.7997 25.28C26.0275 22.848 20.9995 20.9544 15.8086 19.6341C22.3175 16.9215 29.2634 15.4085 36.3108 15.168Z" fill="#FFD600"/>
<path d="M36.3108 15.1679C31.8433 12.5467 27.1403 10.349 22.2635 8.60352C20.0388 12.1764 17.89 15.8758 15.8086 19.6425C22.317 16.927 29.2629 15.4111 36.3108 15.1679Z" fill="#F2B411"/>
<path d="M24.3449 38.2742C26.4347 33.9007 28.5582 29.5525 30.7997 25.3139C26.0275 22.8819 20.9995 20.9882 15.8086 19.668C18.6147 25.5667 21.4714 31.8025 24.3449 38.2742Z" fill="#F2B411"/>
<path d="M24.3448 38.2736C19.2879 36.0367 13.9496 34.5001 8.47729 33.7063C10.8199 29.0042 13.2637 24.2852 15.8085 19.6758C18.6146 25.5661 21.4713 31.8018 24.3448 38.2736Z" fill="#E09E14"/>
<path d="M36.3108 15.1687C37.8613 12.4553 39.4455 9.8177 41.0382 7.28125C45.5243 10.2832 49.8295 13.5472 53.9311 17.0563C48.177 15.594 42.244 14.9585 36.3108 15.1687Z" fill="#8B8B8E"/>
<path d="M36.3108 15.1685C41.1907 18.03 45.8852 21.1963 50.3666 24.6486C51.5463 22.0363 52.7345 19.4914 53.9142 17.0645C48.166 15.6011 42.2388 14.9627 36.3108 15.1685Z" fill="#B3B2B1"/>
<path d="M36.3107 15.1681C37.8613 12.4547 39.4455 9.81714 41.0381 7.28069C36.8764 4.50012 32.4939 2.06509 27.9346 0C30.7407 4.8875 33.5383 9.97725 36.3107 15.1681Z" fill="#F2B411"/>
<path d="M36.3108 15.1681C31.8432 12.5468 27.1403 10.3491 22.2634 8.60369C24.1005 5.64872 25.9909 2.78082 27.9346 0C30.7407 4.8875 33.5384 9.97725 36.3108 15.1681Z" fill="#E09E14"/>
<path d="M109.025 91.0092C97.3624 91.0092 89.2306 82.1696 89.2306 71.4339C89.1994 68.8224 89.6943 66.2313 90.6858 63.8151C91.6772 61.3988 93.145 59.2069 95.0016 57.37C96.8582 55.5331 99.0656 54.0888 101.492 53.1231C103.919 52.1574 106.515 51.6901 109.126 51.7491C120.789 51.7491 128.929 60.5887 128.929 71.3244C128.96 73.9367 128.465 76.5285 127.473 78.9453C126.481 81.3621 125.013 83.5544 123.155 85.3914C121.298 87.2285 119.089 88.6726 116.662 89.6378C114.234 90.603 111.637 91.0694 109.025 91.0092ZM109.025 57.8753C101.483 57.8753 96.2248 63.9005 96.2248 71.3581C96.2248 78.8158 101.593 84.9167 109.126 84.9167C116.66 84.9167 121.926 78.9 121.926 71.4339C121.926 63.9679 116.559 57.8753 109.025 57.8753Z" fill="white"/>
<path d="M149.313 78.157H141.78V90.3589H135.106V52.3965H150.072C158.911 52.3965 164.498 57.3851 164.498 65.1461C164.498 73.7077 157.664 78.157 149.313 78.157ZM149.532 58.4722H141.78V72.1403H149.532C154.588 72.1403 157.723 69.3679 157.723 65.3062C157.723 60.8064 154.521 58.4722 149.532 58.4722Z" fill="white"/>
<path d="M186.298 90.3589H179.557V58.5817H167.532V52.3965H198.34V58.5817H186.298V90.3589Z" fill="white"/>
<path d="M236.732 73.9268C236.732 85.2607 230.328 90.9572 220.41 90.9572C210.491 90.9572 204.247 85.2607 204.247 74.2554V52.3965H210.921V73.9773C210.921 81.0305 214.553 84.8225 220.519 84.8225C226.485 84.8225 230.05 81.2496 230.05 74.2554V52.3965H236.724L236.732 73.9268Z" fill="white"/>
<path d="M262.653 81.0305H262.434L250.56 63.2417V90.3589H243.996V52.3965H251.116L262.669 70.3454L274.223 52.3965H281.318V90.3589H274.652V63.1321L262.653 81.0305Z" fill="white"/>
<path d="M288.616 56.9058C288.586 56.1398 288.711 55.3758 288.984 54.6595C289.257 53.9431 289.672 53.2892 290.203 52.7369C290.735 52.1846 291.372 51.7452 292.077 51.4451C292.783 51.1449 293.541 50.9902 294.308 50.9902C295.074 50.9902 295.833 51.1449 296.538 51.4451C297.244 51.7452 297.881 52.1846 298.413 52.7369C298.944 53.2892 299.359 53.9431 299.631 54.6595C299.904 55.3758 300.03 56.1398 300 56.9058C300.03 57.6717 299.904 58.4357 299.631 59.152C299.359 59.8684 298.944 60.5223 298.413 61.0746C297.881 61.6269 297.244 62.0663 296.538 62.3665C295.833 62.6666 295.074 62.8213 294.308 62.8213C293.541 62.8213 292.783 62.6666 292.077 62.3665C291.372 62.0663 290.735 61.6269 290.203 61.0746C289.672 60.5223 289.257 59.8684 288.984 59.152C288.711 58.4357 288.586 57.6717 288.616 56.9058ZM299.351 56.9058C299.351 55.5648 298.819 54.2788 297.87 53.3306C296.922 52.3824 295.636 51.8497 294.295 51.8497C292.954 51.8497 291.668 52.3824 290.72 53.3306C289.772 54.2788 289.239 55.5648 289.239 56.9058C289.239 58.2467 289.772 59.5327 290.72 60.4809C291.668 61.4291 292.954 61.9618 294.295 61.9618C294.962 61.9618 295.622 61.8299 296.238 61.5737C296.853 61.3175 297.412 60.9421 297.882 60.469C298.352 59.9959 298.724 59.4346 298.976 58.8173C299.228 58.1999 299.356 57.5388 299.351 56.8721V56.9058ZM292.18 53.9311H294.708C295.888 53.9311 296.84 54.5463 296.84 55.6923C296.842 56.101 296.702 56.4976 296.444 56.8143C296.185 57.131 295.825 57.3481 295.424 57.4282L297.034 59.6529H295.888L294.447 57.563H293.073V59.6529H292.155L292.18 53.9311ZM294.632 56.8046C295.475 56.8046 295.913 56.3833 295.913 55.7597C295.913 55.1361 295.416 54.7485 294.632 54.7485H293.099V56.8046H294.632Z" fill="white"/>
</g>
<defs>
<clipPath id="clip0">
<rect width="300" height="91.0087" fill="white"/>
</clipPath>
</defs>
</svg>
