<svg width="200" height="51" viewBox="0 0 200 51" fill="none" xmlns="http://www.w3.org/2000/svg">
<g clip-path="url(#clip0)">
<path d="M93.6744 23.8805C92.5529 23.8748 91.4387 24.0621 90.3808 24.4344C89.3749 24.7863 88.4525 25.3418 87.671 26.0663C86.8815 26.8222 86.2563 27.7328 85.8345 28.7411C85.3458 29.9289 85.108 31.2049 85.1359 32.4889C85.1359 35.3601 85.9576 37.5126 87.6011 38.9465C89.2603 40.3834 91.3954 41.1502 93.5896 41.0974C94.8122 41.1144 96.0304 40.9462 97.2027 40.5983C98.1258 40.3093 99.0293 39.9609 99.9074 39.5553C100.742 40.1082 101.453 40.8288 101.993 41.6713C102.478 42.5033 102.724 43.4532 102.702 44.416C102.702 46.319 101.799 47.7895 99.9923 48.8275C98.1858 49.8655 95.6906 50.3862 92.5067 50.3895C89.8139 50.4254 87.1355 49.9914 84.5919 49.1069C82.3471 48.319 80.2823 47.0906 78.5186 45.4939C76.82 43.9441 75.4783 42.0439 74.5862 39.9246C73.6375 37.6387 73.1654 35.1832 73.1988 32.7085C73.1405 29.9608 73.6502 27.2306 74.696 24.689C75.6036 22.5191 76.9926 20.5839 78.7581 19.0298C80.4948 17.5365 82.512 16.4048 84.6917 15.7012C86.9928 14.9454 89.401 14.5662 91.823 14.5784C95.1499 14.5784 97.7183 15.1806 99.5282 16.3849C101.338 17.5893 102.24 19.1396 102.233 21.036C102.239 21.8975 102.024 22.7463 101.609 23.5012C101.223 24.2339 100.732 24.9063 100.152 25.4974C99.2283 25.0765 98.2781 24.7164 97.3075 24.4195C96.1307 24.0569 94.9058 23.8751 93.6744 23.8805Z" fill="#5F45BA"/>
<path d="M61.1671 49.2846C60.4491 49.4746 59.7187 49.6147 58.9813 49.7038C57.9575 49.842 56.9253 49.9087 55.8923 49.9034C54.9731 49.9115 54.0549 49.8414 53.1476 49.6938C52.409 49.5825 51.7076 49.2968 51.1015 48.8604C50.5271 48.4193 50.0823 47.8314 49.814 47.1587C49.4841 46.26 49.3315 45.3058 49.3648 44.3491V23.5342C49.338 22.5853 49.54 21.6438 49.9537 20.7894C50.3724 19.9964 50.952 19.2995 51.6554 18.7434C52.4942 18.0805 53.4171 17.5317 54.4001 17.1115C55.535 16.606 56.7019 16.1759 57.8934 15.824C59.1722 15.4533 60.4742 15.1683 61.7909 14.9706C63.1232 14.7618 64.4696 14.6567 65.8182 14.6562C68.0405 14.6562 69.7988 15.0838 71.093 15.9388C72.3872 16.7938 73.0343 18.1944 73.0343 20.1407C73.0351 20.7877 72.9427 21.4314 72.7598 22.052C72.5878 22.64 72.3554 23.2087 72.0661 23.7487C71.093 23.7487 70.0949 23.7986 69.0719 23.8885C68.0489 23.9783 67.0757 24.123 66.0777 24.3077C65.0796 24.4923 64.1913 24.6869 63.3379 24.8965C62.5875 25.0681 61.8554 25.3121 61.1521 25.6251L61.1671 49.2846Z" fill="#5F45BA"/>
<path d="M140.869 49.2848C140.151 49.4749 139.421 49.6149 138.683 49.704C137.66 49.8456 136.627 49.9156 135.594 49.9136C134.677 49.9216 133.76 49.8514 132.854 49.704C132.114 49.5937 131.411 49.3079 130.803 48.8706C130.229 48.4301 129.786 47.8419 129.521 47.1689C129.189 46.2706 129.035 45.3164 129.067 44.3593V28.944C129.067 27.0477 128.593 25.7169 127.644 24.9517C126.65 24.173 125.414 23.7669 124.151 23.8039C123.259 23.8008 122.371 23.9183 121.511 24.1532C120.809 24.3323 120.136 24.6131 119.515 24.9866V49.2848C118.797 49.4749 118.067 49.6149 117.329 49.704C116.306 49.8456 115.273 49.9156 114.24 49.9136C113.321 49.9215 112.403 49.8514 111.495 49.704C110.757 49.5927 110.056 49.307 109.449 48.8706C108.876 48.4301 108.432 47.8419 108.167 47.1689C107.833 46.2712 107.678 45.3166 107.713 44.3593V4.09684C108.212 4.00202 108.975 3.87726 109.968 3.71258C110.959 3.56054 111.96 3.48712 112.963 3.493C113.882 3.48381 114.8 3.55226 115.707 3.69761C116.449 3.79391 117.158 4.06594 117.773 4.49108C118.347 4.93165 118.79 5.51984 119.056 6.19281C119.391 7.09211 119.545 8.04848 119.51 9.00739V15.8243C120.408 15.5077 121.322 15.2411 122.25 15.0258C123.581 14.7145 124.945 14.5638 126.312 14.5767C130.893 14.5767 134.468 15.7228 137.036 18.015C139.605 20.3073 140.889 23.7207 140.889 28.2553L140.869 49.2848Z" fill="#5F45BA"/>
<path d="M147.88 6.24597C147.86 5.42441 148.007 4.60735 148.311 3.84404C148.616 3.08072 149.072 2.38695 149.651 1.80452C150.936 0.643076 152.606 0 154.337 0C156.069 0 157.739 0.643076 159.023 1.80452C159.601 2.38788 160.056 3.08193 160.359 3.8451C160.663 4.60828 160.809 5.42487 160.79 6.24597C160.809 7.06706 160.663 7.88365 160.359 8.64683C160.056 9.41 159.601 10.1041 159.023 10.6874C157.739 11.8489 156.069 12.4919 154.337 12.4919C152.606 12.4919 150.936 11.8489 149.651 10.6874C149.072 10.105 148.616 9.41121 148.311 8.6479C148.007 7.88458 147.86 7.06753 147.88 6.24597ZM160.236 49.2831C159.737 49.3779 158.973 49.5027 157.98 49.6674C156.982 49.8289 155.972 49.9107 154.961 49.9119C154.042 49.9196 153.124 49.8495 152.216 49.7023C151.478 49.591 150.776 49.3053 150.17 48.8689C149.596 48.4284 149.153 47.8402 148.888 47.1672C148.554 46.2695 148.399 45.3149 148.434 44.3576V16.102C148.933 16.0122 149.696 15.8824 150.689 15.7227C151.685 15.5556 152.693 15.4705 153.703 15.4682C154.623 15.4603 155.541 15.5304 156.448 15.6778C157.188 15.7847 157.89 16.0708 158.494 16.5112C159.069 16.9498 159.514 17.5362 159.782 18.2079C160.112 19.1083 160.265 20.0641 160.231 21.0225L160.236 49.2831Z" fill="#5F45BA"/>
<path d="M165.222 32.4872C165.161 29.7717 165.634 27.0706 166.614 24.5375C167.459 22.4114 168.777 20.5053 170.467 18.9633C172.132 17.4691 174.095 16.3449 176.226 15.6646C178.526 14.9306 180.928 14.5667 183.342 14.5867C184.251 14.587 185.158 14.6689 186.052 14.8312C186.787 14.9524 187.508 15.1498 188.203 15.4201V4.16674C188.933 3.97114 189.675 3.8195 190.424 3.71262C191.458 3.5583 192.502 3.48488 193.547 3.49304C194.465 3.48363 195.381 3.55208 196.287 3.69765C197.024 3.79808 197.726 4.06985 198.338 4.49112C198.907 4.92912 199.339 5.51914 199.586 6.19284C199.893 7.09827 200.033 8.0519 200 9.00743V41.9191C200 44.0949 198.982 45.8299 196.946 47.1241C195.324 48.1315 193.573 48.9138 191.741 49.4496C186.671 50.8773 181.294 50.7923 176.271 49.205C174.021 48.4526 171.961 47.2217 170.232 45.597C168.58 44.0113 167.3 42.0784 166.485 39.9379C165.603 37.5548 165.175 35.0278 165.222 32.4872ZM184.939 23.8089C182.441 23.8089 180.519 24.5259 179.175 25.9598C177.831 27.3937 177.159 29.5695 177.159 32.4872C177.159 35.3584 177.785 37.5209 179.035 38.9747C180.286 40.4286 182.091 41.1572 184.45 41.1605C185.219 41.1701 185.983 41.0399 186.706 40.7763C187.274 40.5861 187.805 40.2972 188.273 39.9229V24.6423C187.259 24.065 186.106 23.7768 184.939 23.8089Z" fill="#5F45BA"/>
<path d="M9.56703 16.9427C10.9341 16.9427 12.0423 15.8345 12.0423 14.4674C12.0423 13.1004 10.9341 11.9922 9.56703 11.9922C8.2 11.9922 7.0918 13.1004 7.0918 14.4674C7.0918 15.8345 8.2 16.9427 9.56703 16.9427Z" fill="#5F45BA"/>
<path d="M1.74664 15.4855C2.71128 15.4855 3.49328 14.7035 3.49328 13.7388C3.49328 12.7742 2.71128 11.9922 1.74664 11.9922C0.781996 11.9922 0 12.7742 0 13.7388C0 14.7035 0.781996 15.4855 1.74664 15.4855Z" fill="#5F45BA"/>
<path d="M39.2245 18.3195C37.522 16.3782 35.4515 14.7937 33.1327 13.6579C30.8139 12.522 28.2929 11.8573 25.7155 11.7022C24.445 11.6233 23.1699 11.6668 21.9078 11.832C21.4736 11.8669 21.0494 11.9268 20.6452 11.9967L20.2759 12.0466H20.3109C19.2065 12.2678 18.1279 12.6023 17.0921 13.0447C15.0959 14.0427 13.993 15.6347 13.993 17.5909C13.9943 18.8893 14.5104 20.1343 15.4281 21.0529C16.3457 21.9715 17.5902 22.4888 18.8886 22.4915C19.6807 22.3646 20.4593 22.1641 21.2141 21.8926C23.4306 21.1277 25.8456 21.1676 28.0356 22.0053C30.2256 22.843 32.0508 24.425 33.1911 26.4738C34.312 28.7101 34.5524 31.2857 33.8646 33.6908C33.1768 36.0958 31.6109 38.1549 29.4771 39.4604C27.3432 40.7658 24.797 41.2223 22.3425 40.7396C19.888 40.2569 17.7043 38.8701 16.2237 36.8538L16.1688 36.779L15.7696 36.1801C14.4122 33.8546 14.5869 30.6508 14.6418 29.987V29.9022C14.6175 28.7159 14.1637 27.5787 13.3645 26.7016C12.5653 25.8246 11.4751 25.2673 10.2961 25.1332C9.11717 24.999 7.9296 25.2972 6.95384 25.9724C5.97809 26.6475 5.28043 27.6538 4.99036 28.8043C4.8845 29.3687 4.8327 29.9418 4.83566 30.516C4.65402 35.64 6.47144 40.6339 9.90391 44.4426C13.3364 48.2512 18.115 50.5764 23.2302 50.9267C23.6295 50.9267 24.0337 50.9667 24.4379 50.9667C25.1833 50.9654 25.9281 50.9221 26.6686 50.8369H26.7734L28.3304 50.6523L28.2206 50.6073C31.6164 49.9456 34.7773 48.3988 37.3835 46.1235C39.9898 43.8483 41.949 40.9251 43.0631 37.6497C44.1772 34.3743 44.4066 30.8628 43.7282 27.4703C43.0497 24.0778 41.4875 20.9245 39.1995 18.3295L39.2245 18.3195Z" fill="#5F45BA"/>
<path d="M6.35726 24.1676C8.12944 24.1676 9.56608 22.731 9.56608 20.9588C9.56608 19.1866 8.12944 17.75 6.35726 17.75C4.58508 17.75 3.14844 19.1866 3.14844 20.9588C3.14844 22.731 4.58508 24.1676 6.35726 24.1676Z" fill="#5F45BA"/>
</g>
<defs>
<clipPath id="clip0">
<rect width="200" height="50.9669" fill="white"/>
</clipPath>
</defs>
</svg>
