<svg width="350" height="79" viewBox="0 0 350 79" fill="none" xmlns="http://www.w3.org/2000/svg">
<g clip-path="url(#clip0)">
<path d="M90.5889 64.3603V0.0390625H101.454V64.3603H90.5889Z" fill="#004483"/>
<path d="M57.6449 32.4287V24.051C57.6449 16.4725 51.9287 12.5156 44.8657 12.5156C37.996 12.5156 32.1768 16.3822 32.1768 24.051V53.4374C32.1768 61.1706 37.9767 64.9728 44.8657 64.9728C52.0512 64.9728 57.6449 61.0224 57.6449 53.4374V44.0801H46.7861V54.5458C46.8077 54.8051 46.7752 55.0661 46.6907 55.3122C46.6062 55.5584 46.4716 55.7843 46.2954 55.9758C46.1191 56.1673 45.9051 56.3201 45.6668 56.4246C45.4285 56.5292 45.1711 56.5831 44.9108 56.5831C44.6506 56.5831 44.3932 56.5292 44.1549 56.4246C43.9166 56.3201 43.7025 56.1673 43.5263 55.9758C43.3501 55.7843 43.2155 55.5584 43.131 55.3122C43.0465 55.0661 43.014 54.8051 43.0355 54.5458V22.7557C43.0389 22.2657 43.236 21.797 43.5837 21.4517C43.9313 21.1064 44.4015 20.9126 44.8915 20.9126C45.3857 20.9108 45.8609 21.1028 46.2151 21.4474C46.5693 21.792 46.7743 22.2617 46.7861 22.7557V32.4223L57.6449 32.4287Z" fill="#004483"/>
<path d="M222.33 32.8218H218.567V22.8975C218.567 22.3984 218.765 21.9198 219.118 21.5669C219.471 21.214 219.949 21.0157 220.448 21.0157C220.947 21.0157 221.426 21.214 221.779 21.5669C222.132 21.9198 222.33 22.3984 222.33 22.8975V32.8218ZM233.195 24.0639C233.195 16.4531 227.466 12.5156 220.41 12.5156C213.534 12.5156 207.721 16.3822 207.721 24.0639V53.4309C207.721 61.1642 213.521 64.9728 220.416 64.9728C227.312 64.9728 233.195 61.1513 233.195 53.4309V44.0801H222.33V54.5329C222.357 54.7944 222.329 55.0586 222.247 55.3085C222.166 55.5584 222.033 55.7883 221.856 55.9834C221.68 56.1784 221.465 56.3343 221.224 56.4408C220.984 56.5473 220.724 56.602 220.461 56.6015C220.199 56.5961 219.941 56.5375 219.703 56.4292C219.464 56.321 219.25 56.1655 219.074 55.972C218.897 55.7786 218.762 55.5512 218.676 55.3039C218.59 55.0565 218.555 54.7942 218.573 54.5329V40.6002H233.195V24.0639Z" fill="#004483"/>
<path d="M309.974 32.8154H306.211V22.8975C306.211 22.6504 306.259 22.4057 306.354 22.1774C306.448 21.9491 306.587 21.7416 306.762 21.5669C306.936 21.3922 307.144 21.2535 307.372 21.159C307.6 21.0644 307.845 21.0157 308.092 21.0157C308.339 21.0157 308.584 21.0644 308.812 21.159C309.041 21.2535 309.248 21.3922 309.423 21.5669C309.598 21.7416 309.736 21.9491 309.831 22.1774C309.925 22.4057 309.974 22.6504 309.974 22.8975V32.8154ZM320.839 24.0639C320.839 16.4531 315.11 12.5156 308.054 12.5156C301.177 12.5156 295.371 16.3822 295.371 24.0639V53.4245C295.371 61.1577 301.171 65.0243 308.06 65.0243C314.949 65.0243 320.839 61.1577 320.839 53.4245V44.0801H309.974V54.5264C310.001 54.7879 309.973 55.0522 309.891 55.302C309.81 55.5519 309.676 55.7819 309.5 55.9769C309.324 56.172 309.109 56.3278 308.868 56.4343C308.628 56.5408 308.368 56.5956 308.105 56.5951C307.843 56.5896 307.585 56.531 307.347 56.4228C307.108 56.3146 306.894 56.159 306.718 55.9656C306.541 55.7721 306.406 55.5448 306.32 55.2974C306.233 55.05 306.199 54.7877 306.217 54.5264V40.6002H320.839V24.0639Z" fill="#004483"/>
<path d="M119.801 13.1133V53.6355C119.816 53.8914 119.778 54.1477 119.691 54.3887C119.603 54.6296 119.467 54.8501 119.291 55.0366C119.115 55.2232 118.903 55.3718 118.668 55.4733C118.432 55.5749 118.179 55.6273 117.922 55.6273C117.666 55.6273 117.412 55.5749 117.177 55.4733C116.941 55.3718 116.729 55.2232 116.553 55.0366C116.377 54.8501 116.241 54.6296 116.154 54.3887C116.066 54.1477 116.029 53.8914 116.044 53.6355V13.1133H105.191V55.7814C105.191 61.4525 108.704 64.9711 112.925 64.9711C114.336 64.9604 115.717 64.5639 116.919 63.8244C118.121 63.0849 119.097 62.0306 119.743 60.7758H119.981L120.187 64.3524H130.692V13.1133H119.801Z" fill="#004483"/>
<path d="M254.914 12.5156C251.286 12.5156 249.056 15.2609 248.031 16.6916H247.793L247.58 13.1214H236.928V64.3606H247.799V23.8448C247.799 22.5882 248.521 21.8213 249.655 21.8213C249.915 21.8174 250.173 21.8684 250.412 21.9708C250.651 22.0732 250.865 22.2248 251.042 22.4158C251.218 22.6067 251.352 22.8326 251.435 23.0789C251.518 23.3251 251.549 23.5861 251.524 23.8448V40.6002H262.396V21.3444C262.396 15.9311 259.129 12.5156 254.914 12.5156Z" fill="#004483"/>
<path d="M342.518 12.5156C338.89 12.5156 336.66 15.2609 335.635 16.6916H335.397L335.184 13.1214H324.538V64.367H335.403V23.8448C335.372 23.5862 335.398 23.324 335.478 23.0762C335.558 22.8284 335.691 22.6009 335.867 22.4092C336.044 22.2176 336.259 22.0664 336.5 21.966C336.74 21.8656 336.999 21.8185 337.259 21.8277C337.519 21.8229 337.776 21.873 338.015 21.9747C338.254 22.0764 338.469 22.2274 338.645 22.4179C338.822 22.6083 338.956 22.8339 339.039 23.0798C339.122 23.3257 339.153 23.5864 339.128 23.8448V40.6002H350V21.3509C350 15.9311 346.733 12.5156 342.518 12.5156Z" fill="#004483"/>
<path d="M280.743 50.3634C280.743 51.7232 279.924 52.4771 278.874 52.4771C277.823 52.4771 277.005 51.7232 277.005 50.3634V23.7997C276.988 23.5474 277.023 23.2943 277.11 23.0567C277.197 22.8191 277.332 22.6022 277.507 22.4201C277.683 22.2379 277.894 22.0946 278.129 21.9992C278.363 21.9039 278.615 21.8586 278.867 21.8664C279.12 21.8598 279.372 21.9057 279.606 22.0012C279.841 22.0968 280.053 22.24 280.229 22.4217C280.405 22.6034 280.542 22.8197 280.63 23.0568C280.719 23.294 280.757 23.547 280.743 23.7997V50.3634ZM280.897 13.115L280.743 16.7109H280.472C279.836 15.4597 278.868 14.407 277.675 13.6673C276.482 12.9276 275.109 12.5293 273.705 12.5156C269.781 12.5156 266.14 15.5316 266.14 21.0866V51.6909C266.14 57.5489 269.523 60.9708 273.763 60.9708C275.104 60.9808 276.425 60.6392 277.593 59.98C278.761 59.3208 279.736 58.367 280.42 57.2138H280.736V68.5107C280.756 68.7652 280.721 69.0209 280.634 69.2608C280.547 69.5008 280.41 69.7195 280.232 69.9023C280.054 70.0852 279.839 70.2281 279.601 70.3215C279.364 70.4149 279.109 70.4567 278.854 70.444C278.603 70.4469 278.353 70.3984 278.121 70.3014C277.888 70.2045 277.678 70.0611 277.503 69.8801C277.328 69.6991 277.192 69.4843 277.103 69.2488C277.014 69.0134 276.974 68.7622 276.986 68.5107V63.9546H266.153V66.7772C266.153 74.7875 271.308 78.3771 278.861 78.3771C286.414 78.3771 291.621 74.8069 291.621 66.7772V13.115H280.897Z" fill="#004483"/>
<path d="M79.3046 12.5154C77.8906 12.5407 76.5086 12.9406 75.2996 13.6742C74.0905 14.4078 73.0976 15.4489 72.422 16.6913H72.2416V0.0390625H61.3828V64.3603H72.2287V24.2699C72.2137 24.0139 72.2511 23.7576 72.3388 23.5167C72.4264 23.2757 72.5623 23.0552 72.7383 22.8687C72.9142 22.6822 73.1263 22.5336 73.3617 22.432C73.5971 22.3305 73.8508 22.2781 74.1072 22.2781C74.3636 22.2781 74.6173 22.3305 74.8527 22.432C75.0881 22.5336 75.3003 22.6822 75.4762 22.8687C75.6521 23.0552 75.788 23.2757 75.8757 23.5167C75.9633 23.7576 76.0007 24.0139 75.9858 24.2699V64.3603H86.8445V21.8275C86.8445 14.8933 82.7266 12.5154 79.3046 12.5154Z" fill="#004483"/>
<path d="M159.343 17.4779C158.854 16.0353 157.927 14.7816 156.691 13.8919C155.454 13.0022 153.971 12.5211 152.448 12.5157C151.015 12.5084 149.607 12.8938 148.378 13.63C147.149 14.3662 146.145 15.4251 145.475 16.6917H145.256L145.153 13.1215H134.391V64.3607H145.269V23.8449C145.254 23.582 145.293 23.3187 145.383 23.0714C145.474 22.824 145.614 22.5978 145.795 22.4065C145.976 22.2152 146.194 22.0629 146.436 21.959C146.678 21.855 146.939 21.8016 147.202 21.8021C147.465 21.8016 147.726 21.855 147.968 21.959C148.21 22.0629 148.428 22.2152 148.609 22.4065C148.79 22.5978 148.93 22.824 149.021 23.0714C149.111 23.3187 149.15 23.582 149.135 23.8449V64.3607H160.013V23.89C160.013 23.3773 160.217 22.8855 160.58 22.523C160.942 22.1604 161.434 21.9567 161.947 21.9567C162.459 21.9567 162.951 22.1604 163.314 22.523C163.676 22.8855 163.88 23.3773 163.88 23.89V64.3607H174.752V22.3047C174.752 15.3384 171.078 12.5157 166.922 12.5157C162.765 12.5157 160.303 15.609 159.491 17.4779H159.343Z" fill="#004483"/>
<path d="M193.118 53.6627C193.148 53.9221 193.122 54.1851 193.04 54.4333C192.959 54.6816 192.825 54.9094 192.648 55.101C192.47 55.2926 192.253 55.4435 192.012 55.5434C191.77 55.6433 191.51 55.6898 191.249 55.6797C190.989 55.6844 190.732 55.6343 190.492 55.5327C190.253 55.4311 190.038 55.2802 189.861 55.0899C189.684 54.8995 189.55 54.6741 189.466 54.4282C189.382 54.1823 189.35 53.9214 189.374 53.6627V23.9348C189.346 23.6716 189.374 23.4056 189.455 23.1538C189.537 22.902 189.67 22.6702 189.847 22.4733C190.024 22.2764 190.24 22.1189 190.481 22.011C190.723 21.9031 190.985 21.8471 191.249 21.8468C192.28 21.8468 193.118 22.4912 193.118 23.9348V53.6627ZM196.121 12.5154C192.499 12.5154 190.321 15.5829 189.612 16.7106H189.38V0.0390625H178.509V64.3603H189.252L189.374 60.7837H189.606C190.136 62.0479 191.034 63.1234 192.183 63.8704C193.332 64.6175 194.68 65.0015 196.05 64.9725C200.639 64.9725 203.99 61.0157 203.99 55.016V21.8275C203.99 16.0662 200.478 12.5154 196.128 12.5154H196.121Z" fill="#004483"/>
<path d="M23.1611 31.8996C20.8411 29.6248 17.8187 26.6926 16.4782 25.4101C13.1594 22.2395 12.2443 20.4866 12.2443 16.4782V11.4259C12.2272 11.1676 12.2655 10.9086 12.3566 10.6663C12.4477 10.424 12.5896 10.2039 12.7726 10.0209C12.9557 9.83782 13.1757 9.69599 13.418 9.60487C13.6603 9.51376 13.9193 9.47546 14.1776 9.49255C14.4344 9.48161 14.6907 9.52413 14.9302 9.61741C15.1697 9.7107 15.3872 9.85272 15.569 10.0345C15.7508 10.2162 15.8928 10.4338 15.9861 10.6733C16.0793 10.9128 16.1219 11.1691 16.1109 11.4259V21.4791H28.2006V11.5547C28.2006 3.22218 21.5435 0 14.1776 0C6.8117 0 0.0451106 3.15774 0.0515549 11.5999V19.3331C0.0515549 25.5712 2.6293 28.9159 5.20705 31.3067L11.8061 37.5449C15.402 40.9282 16.1174 42.7004 16.1174 47.5336V53.4882C16.1174 55.2218 15.3118 55.9307 14.1841 55.9307C13.0563 55.9307 12.2443 55.1831 12.2443 53.4882V41.4051H0V53.7267C0 62.2461 6.66992 65.391 14.1776 65.391C21.5693 65.391 28.4583 62.2461 28.4583 53.3014V44.6981C28.4583 39.6522 27.337 35.9725 23.1739 31.8996H23.1611Z" fill="#004483"/>
</g>
<defs>
<clipPath id="clip0">
<rect width="350" height="78.3571" fill="white"/>
</clipPath>
</defs>
</svg>
