<svg width="103" height="117" viewBox="0 0 103 117" fill="none" xmlns="http://www.w3.org/2000/svg">
<rect x="43.7625" y="14.5873" width="14.5875" height="14.5875" rx="7.29373" fill="#D6525D"/>
<rect x="43.7625" y="29.175" width="14.5875" height="14.5875" rx="7.29373" fill="#D6525D"/>
<rect x="43.7625" y="43.7623" width="14.5875" height="14.5875" rx="7.29373" fill="#D6525D"/>
<rect x="58.3497" y="87.5245" width="14.5875" height="14.5875" rx="7.29373" fill="#D6525D"/>
<rect x="58.3497" y="14.5873" width="14.5875" height="14.5875" rx="7.29373" fill="#D6525D"/>
<rect x="58.3497" y="43.7623" width="14.5875" height="14.5875" rx="7.29373" fill="#D6525D"/>
<rect x="14.5875" y="72.9369" width="14.5875" height="14.5875" rx="7.29373" fill="#D6525D"/>
<rect x="72.9373" y="58.3496" width="14.5875" height="14.5875" rx="7.29373" fill="#D6525D"/>
<rect x="87.5248" y="72.9369" width="14.5875" height="14.5875" rx="7.29373" fill="#D6525D"/>
<rect x="14.5875" y="43.7623" width="14.5875" height="14.5875" rx="7.29373" fill="#D6525D"/>
<rect x="29.1749" y="29.175" width="14.5875" height="14.5875" rx="7.29373" fill="#D6525D"/>
<rect x="29.1749" y="58.3496" width="14.5875" height="14.5875" rx="7.29373" fill="#D6525D"/>
<rect x="43.7625" y="87.5244" width="14.5875" height="14.5875" rx="7.29373" fill="#D6525D"/>
<rect x="14.5875" y="58.3496" width="14.5875" height="14.5875" rx="7.29373" fill="#D6525D"/>
<rect x="43.7625" width="14.5875" height="14.5875" rx="7.29373" fill="#D6525D"/>
<rect x="43.7625" y="58.3496" width="14.5875" height="14.5875" rx="7.29373" fill="#D6525D"/>
<rect x="43.7625" y="72.9369" width="14.5875" height="14.5875" rx="7.29373" fill="#D6525D"/>
<rect x="58.3497" y="72.9369" width="14.5875" height="14.5875" rx="7.29373" fill="#D6525D"/>
<rect x="72.9373" y="43.7623" width="14.5875" height="14.5875" rx="7.29373" fill="#D6525D"/>
<rect x="58.3497" y="29.175" width="14.5875" height="14.5875" rx="7.29373" fill="#D6525D"/>
<rect x="58.3497" y="58.3496" width="14.5875" height="14.5875" rx="7.29373" fill="#D6525D"/>
<rect x="29.1749" y="87.5245" width="14.5875" height="14.5875" rx="7.29373" fill="#D6525D"/>
<rect x="72.9373" y="72.9369" width="14.5875" height="14.5875" rx="7.29373" fill="#D6525D"/>
<rect x="29.1749" y="14.5873" width="14.5875" height="14.5875" rx="7.29373" fill="#D6525D"/>
<rect x="29.1749" y="43.7623" width="14.5875" height="14.5875" rx="7.29373" fill="#D6525D"/>
<rect x="29.1749" y="72.9369" width="14.5875" height="14.5875" rx="7.29373" fill="#D6525D"/>
<rect x="43.7625" y="102" width="14.5875" height="14.5875" rx="7.29373" fill="#D6525D"/>
<rect y="72.9369" width="14.5875" height="14.5875" rx="7.29373" fill="#D6525D"/>
</svg>
