<svg width="3000" height="2000" viewBox="0 0 3000 2000" fill="none" xmlns="http://www.w3.org/2000/svg">
<rect width="3000" height="2000" fill="url(#paint0_linear_1794_3423)"/>
<circle opacity="0.25" cx="2344.5" cy="483.5" r="9.5" fill="#D9D9D9"/>
<circle cx="2534.5" cy="387.5" r="9.5" fill="#D9D9D9"/>
<circle cx="2881.5" cy="322.5" r="9.5" fill="#D9D9D9"/>
<circle opacity="0.75" cx="2942.5" cy="291.5" r="9.5" fill="#D9D9D9"/>
<circle opacity="0.5" cx="2952.5" cy="57.5" r="9.5" fill="#D9D9D9"/>
<circle cx="2570.5" cy="66.5" r="9.5" fill="#D9D9D9"/>
<circle opacity="0.25" cx="2502.5" cy="149.5" r="9.5" fill="#D9D9D9"/>
<circle cx="2247.5" cy="144.5" r="9.5" fill="#D9D9D9"/>
<circle opacity="0.25" cx="2064.5" cy="300.5" r="9.5" fill="#D9D9D9"/>
<circle opacity="0.5" cx="1867.5" cy="192.5" r="9.5" fill="#D9D9D9"/>
<circle opacity="0.5" cx="1274.5" cy="131.5" r="5.5" fill="#D9D9D9"/>
<circle opacity="0.5" cx="1823.5" cy="322.5" r="9.5" fill="#D9D9D9"/>
<circle opacity="0.5" cx="1160.5" cy="262.5" r="9.5" fill="#D9D9D9"/>
<circle cx="754.5" cy="202.5" r="9.5" fill="#D9D9D9"/>
<circle cx="478.5" cy="333.5" r="9.5" fill="#D9D9D9"/>
<circle opacity="0.25" cx="129.5" cy="162.5" r="9.5" fill="#D9D9D9"/>
<circle opacity="0.75" cx="495.5" cy="364.5" r="7.5" fill="#D9D9D9"/>
<circle opacity="0.5" cx="451.5" cy="374.5" r="7.5" fill="#D9D9D9"/>
<circle opacity="0.35" cx="466.5" cy="493.5" r="8.5" fill="#D9D9D9"/>
<circle opacity="0.35" cx="643.5" cy="548.5" r="8.5" fill="#D9D9D9"/>
<circle opacity="0.5" cx="512.5" cy="648.5" r="8.5" fill="#D9D9D9"/>
<circle opacity="0.5" cx="159.5" cy="656.5" r="8.5" fill="#D9D9D9"/>
<circle cx="185.5" cy="1017.5" r="8.5" fill="#D9D9D9"/>
<circle cx="478.5" cy="925.5" r="8.5" fill="#D9D9D9"/>
<circle opacity="0.5" cx="308.5" cy="679.5" r="12.5" fill="#D9D9D9"/>
<circle opacity="0.5" cx="66.5" cy="1354.5" r="12.5" fill="#D9D9D9"/>
<circle opacity="0.5" cx="418" cy="406" r="5" fill="#D9D9D9"/>
<circle opacity="0.25" cx="2804.5" cy="125.5" r="9.5" fill="#D9D9D9"/>
<circle cx="2682.5" cy="775.5" r="9.5" fill="#D9D9D9"/>
<circle cx="2839.5" cy="794.5" r="9.5" fill="#D9D9D9"/>
<defs>
<linearGradient id="paint0_linear_1794_3423" x1="1234.5" y1="720.5" x2="1414.5" y2="1806" gradientUnits="userSpaceOnUse">
<stop stop-color="#050025"/>
<stop offset="0.552885" stop-color="#3F0560"/>
<stop offset="0.870192" stop-color="#46034D"/>
</linearGradient>
</defs>
</svg>
