<svg width="3000" height="2000" viewBox="0 0 3000 2000" fill="none" xmlns="http://www.w3.org/2000/svg">
<rect width="3000" height="2000" fill="url(#paint0_linear_1794_3599)"/>
<circle opacity="0.25" cx="2344.5" cy="483.5" r="9.5" fill="#D9D9D9"/>
<circle cx="2534.5" cy="387.5" r="9.5" fill="#D9D9D9"/>
<circle cx="2881.5" cy="322.5" r="9.5" fill="#D9D9D9"/>
<circle opacity="0.75" cx="2942.5" cy="291.5" r="9.5" fill="#D9D9D9"/>
<circle opacity="0.5" cx="2952.5" cy="57.5" r="9.5" fill="#D9D9D9"/>
<circle cx="2570.5" cy="66.5" r="9.5" fill="#D9D9D9"/>
<circle opacity="0.25" cx="2502.5" cy="149.5" r="9.5" fill="#D9D9D9"/>
<circle cx="2247.5" cy="144.5" r="9.5" fill="#D9D9D9"/>
<circle opacity="0.25" cx="2064.5" cy="300.5" r="9.5" fill="#D9D9D9"/>
<circle opacity="0.5" cx="1867.5" cy="192.5" r="9.5" fill="#D9D9D9"/>
<circle opacity="0.5" cx="1274.5" cy="131.5" r="5.5" fill="#D9D9D9"/>
<circle opacity="0.5" cx="1823.5" cy="322.5" r="9.5" fill="#D9D9D9"/>
<circle opacity="0.5" cx="1160.5" cy="262.5" r="9.5" fill="#D9D9D9"/>
<circle cx="754.5" cy="202.5" r="9.5" fill="#D9D9D9"/>
<circle cx="478.5" cy="333.5" r="9.5" fill="#D9D9D9"/>
<circle opacity="0.25" cx="129.5" cy="162.5" r="9.5" fill="#D9D9D9"/>
<circle opacity="0.75" cx="495.5" cy="364.5" r="7.5" fill="#D9D9D9"/>
<circle opacity="0.5" cx="451.5" cy="374.5" r="7.5" fill="#D9D9D9"/>
<circle opacity="0.35" cx="466.5" cy="493.5" r="8.5" fill="#D9D9D9"/>
<circle opacity="0.35" cx="643.5" cy="548.5" r="8.5" fill="#D9D9D9"/>
<circle opacity="0.5" cx="512.5" cy="648.5" r="8.5" fill="#D9D9D9"/>
<circle opacity="0.5" cx="159.5" cy="656.5" r="8.5" fill="#D9D9D9"/>
<circle cx="185.5" cy="1017.5" r="8.5" fill="#D9D9D9"/>
<circle cx="478.5" cy="925.5" r="8.5" fill="#D9D9D9"/>
<circle opacity="0.5" cx="308.5" cy="679.5" r="12.5" fill="#D9D9D9"/>
<circle opacity="0.5" cx="66.5" cy="1354.5" r="12.5" fill="#D9D9D9"/>
<circle opacity="0.5" cx="418" cy="406" r="5" fill="#D9D9D9"/>
<circle opacity="0.25" cx="2804.5" cy="125.5" r="9.5" fill="#D9D9D9"/>
<circle cx="2682.5" cy="775.5" r="9.5" fill="#D9D9D9"/>
<circle cx="2839.5" cy="794.5" r="9.5" fill="#D9D9D9"/>
<g filter="url(#filter0_f_1794_3599)">
<g filter="url(#filter1_f_1794_3599)">
<circle cx="2858" cy="1314" r="9" fill="#8E7752"/>
</g>
<g filter="url(#filter2_f_1794_3599)">
<circle cx="2882" cy="1329" r="9" fill="#8E7752"/>
</g>
<g filter="url(#filter3_f_1794_3599)">
<circle cx="2871" cy="1353" r="9" fill="#8E7752"/>
</g>
<g filter="url(#filter4_f_1794_3599)">
<circle cx="2846" cy="1338" r="9" fill="#8E7752"/>
</g>
<g filter="url(#filter5_f_1794_3599)">
<circle cx="2837" cy="1439" r="9" fill="#8E7752"/>
</g>
<circle cx="1277.5" cy="1014.5" r="6.5" fill="#8E7752"/>
<circle cx="1292.5" cy="976.5" r="8.5" fill="#8E7752"/>
<circle cx="1336.5" cy="952.5" r="8.5" fill="#8E7752"/>
<circle cx="1363.5" cy="978.5" r="11.5" fill="#BB9D5A"/>
<circle cx="1242.5" cy="1033.5" r="9.5" fill="#8E7752"/>
<circle cx="1322.5" cy="1000.5" r="13.5" fill="#BB9D5A"/>
</g>
<defs>
<filter id="filter0_f_1794_3599" x="1223" y="934" width="1678" height="524" filterUnits="userSpaceOnUse" color-interpolation-filters="sRGB">
<feFlood flood-opacity="0" result="BackgroundImageFix"/>
<feBlend mode="normal" in="SourceGraphic" in2="BackgroundImageFix" result="shape"/>
<feGaussianBlur stdDeviation="5" result="effect1_foregroundBlur_1794_3599"/>
</filter>
<filter id="filter1_f_1794_3599" x="2839" y="1295" width="38" height="38" filterUnits="userSpaceOnUse" color-interpolation-filters="sRGB">
<feFlood flood-opacity="0" result="BackgroundImageFix"/>
<feBlend mode="normal" in="SourceGraphic" in2="BackgroundImageFix" result="shape"/>
<feGaussianBlur stdDeviation="5" result="effect1_foregroundBlur_1794_3599"/>
</filter>
<filter id="filter2_f_1794_3599" x="2863" y="1310" width="38" height="38" filterUnits="userSpaceOnUse" color-interpolation-filters="sRGB">
<feFlood flood-opacity="0" result="BackgroundImageFix"/>
<feBlend mode="normal" in="SourceGraphic" in2="BackgroundImageFix" result="shape"/>
<feGaussianBlur stdDeviation="5" result="effect1_foregroundBlur_1794_3599"/>
</filter>
<filter id="filter3_f_1794_3599" x="2852" y="1334" width="38" height="38" filterUnits="userSpaceOnUse" color-interpolation-filters="sRGB">
<feFlood flood-opacity="0" result="BackgroundImageFix"/>
<feBlend mode="normal" in="SourceGraphic" in2="BackgroundImageFix" result="shape"/>
<feGaussianBlur stdDeviation="5" result="effect1_foregroundBlur_1794_3599"/>
</filter>
<filter id="filter4_f_1794_3599" x="2827" y="1319" width="38" height="38" filterUnits="userSpaceOnUse" color-interpolation-filters="sRGB">
<feFlood flood-opacity="0" result="BackgroundImageFix"/>
<feBlend mode="normal" in="SourceGraphic" in2="BackgroundImageFix" result="shape"/>
<feGaussianBlur stdDeviation="5" result="effect1_foregroundBlur_1794_3599"/>
</filter>
<filter id="filter5_f_1794_3599" x="2818" y="1420" width="38" height="38" filterUnits="userSpaceOnUse" color-interpolation-filters="sRGB">
<feFlood flood-opacity="0" result="BackgroundImageFix"/>
<feBlend mode="normal" in="SourceGraphic" in2="BackgroundImageFix" result="shape"/>
<feGaussianBlur stdDeviation="5" result="effect1_foregroundBlur_1794_3599"/>
</filter>
<linearGradient id="paint0_linear_1794_3599" x1="1185" y1="265" x2="1569.5" y2="1648.5" gradientUnits="userSpaceOnUse">
<stop offset="0.230769" stop-color="#000A1A"/>
<stop offset="1" stop-color="#107026"/>
</linearGradient>
</defs>
</svg>
