<svg width="22" height="22" viewBox="0 0 22 22" fill="none" xmlns="http://www.w3.org/2000/svg">
    <path d="M17.8474 21.1495H3.27964C2.1064 21.1495 1.15536 20.3847 1.15536 19.4412V7.73363C1.15536 6.79017 2.1064 6.02539 3.27964 6.02539H17.8385C19.0117 6.02539 19.9627 6.79017 19.9627 7.73363V19.4412C19.9716 20.3847 19.0206 21.1495 17.8474 21.1495Z" fill="#0D3F41"/>
    <path d="M15.0119 3.3808H6.11487C5.85711 3.3808 5.65268 3.25216 5.65268 3.10206V0.293091H15.4741V3.10206C15.4741 3.2593 15.2697 3.3808 15.0119 3.3808Z" fill="#633A14"/>
    <path d="M15.4741 0.321637C15.4741 0.14295 13.2788 0 10.559 0C7.8481 0 5.64383 0.14295 5.64383 0.321637C5.64383 0.500324 7.83921 0.643274 10.559 0.643274C11.2167 0.643274 11.8389 0.636123 12.4166 0.621828L12.9321 1.49384L13.4743 0.578954C14.692 0.514626 15.4741 0.421702 15.4741 0.321637Z" fill="#FFB23E"/>
    <path opacity="0.2" d="M18.754 4.98901H13.67V3.75964H7.47495V4.98901H2.39092C1.07547 4.98901 0 5.8467 0 6.91168V20.0774C0 21.1352 1.06658 22 2.39092 22H18.7629C20.0784 22 21.1538 21.1423 21.1538 20.0774V6.91168C21.1361 5.8467 20.0695 4.98901 18.754 4.98901Z" fill="#0D3F41"/>
    <path opacity="0.66" d="M15.3321 3.79544H5.79508C5.49288 3.79544 5.2529 3.60245 5.2529 3.35944V2.26587C5.2529 2.02285 5.49288 1.82988 5.79508 1.82988H15.3321C15.6343 1.82988 15.8743 2.02285 15.8743 2.26587V3.35944C15.8743 3.60245 15.6343 3.79544 15.3321 3.79544Z" fill="#0D3F41"/>
    </svg>
    