<svg width="116" height="42" viewBox="0 0 116 42" fill="none" xmlns="http://www.w3.org/2000/svg">
<g clip-path="url(#clip0_2_2)">
<path d="M78.6164 30.2453C78.61 30.2518 78.6034 30.2518 78.6034 30.2583C73.688 33.7368 67.8688 37.3908 61.6075 41.2269L61.3604 41.37C61.2759 41.4285 61.2564 41.5455 61.315 41.63C61.3735 41.7146 61.4905 41.7341 61.575 41.6756L61.7831 41.565C67.0951 38.7952 73.1938 35.5053 79.3316 32.1308C79.3642 32.1113 79.3966 32.0918 79.4291 32.0788C79.091 31.5197 78.8115 30.9085 78.6164 30.2453ZM110.866 4.14026C103.122 -4.40321 53.2851 3.28204 32.0956 7.91135L31.6014 8.01537C31.4973 8.03487 31.4324 8.13242 31.4518 8.22998C31.4714 8.334 31.5689 8.39902 31.6664 8.37946L32.1541 8.28196C49.7091 5.15454 86.2236 0.824308 94.0779 8.61357C96.4771 10.9932 95.9049 14.0491 93.1221 17.6642C94.6175 18.6265 95.6839 20.1414 96.165 22.0334C107.023 14.8294 114.312 7.94389 110.866 4.14026Z" fill="#D03027"/>
<path d="M81.7503 28.0021C81.8478 31.006 83.7529 33.4702 86.2301 33.4702C91.035 33.4702 93.0831 27.5666 92.94 23.6264C92.836 20.616 90.8854 18.1584 88.4082 18.1584C84.2796 18.1518 81.6073 24.0295 81.7503 28.0021ZM79.2146 27.8396C79.0391 22.7097 83.0572 17.4626 88.8959 17.4626C92.797 17.4626 95.3522 20.0633 95.4953 24.049C95.6839 29.4586 91.9257 34.426 85.8205 34.426C81.9063 34.426 79.3511 31.8317 79.2146 27.8396ZM23.9181 26.4872C23.7101 26.5652 23.4435 26.6433 23.1054 26.7147C22.7738 26.7928 22.1626 26.8968 21.2784 27.0398C20.6672 27.1373 20.2445 27.2609 20.004 27.4365C19.7764 27.6055 19.6399 27.8071 19.6009 28.0607C19.5554 28.3272 19.6399 28.5353 19.8674 28.7044C20.1015 28.8669 20.4916 28.9514 21.0443 28.9514C21.4604 28.9514 21.8636 28.8864 22.2537 28.7564C22.6502 28.6263 22.9884 28.4508 23.2419 28.2297C23.4305 28.0672 23.567 27.8591 23.671 27.6055C23.7361 27.4365 23.8205 27.0659 23.9181 26.4872ZM28.9896 23.3338C28.9701 23.8019 28.8856 24.2181 28.762 24.9397L27.9038 29.7577C27.8322 30.1868 27.9883 30.5184 28.3849 30.7524L28.3589 30.941L23.4435 30.9345L23.3979 29.7121C22.6828 30.1412 21.818 30.5054 21.0378 30.7199C20.2576 30.9215 19.6269 31.006 18.6841 31.006C17.0977 31.006 16.1874 30.8435 15.5567 30.2908C14.9195 29.7252 14.6075 29.348 14.64 28.5678C14.6659 28.1192 14.9 27.5405 15.2316 27.1374C15.5697 26.7278 16.0379 26.4613 16.5385 26.2207C17.0456 25.9801 17.6439 25.8045 18.5086 25.668C19.3798 25.5249 20.5892 25.3884 22.2081 25.2519C23.0599 25.1803 23.5801 24.9853 23.8206 24.8878C24.1587 24.7577 24.2953 24.6082 24.3407 24.3351C24.4318 23.8409 24.2757 23.5549 23.6125 23.4248C21.8441 23.0737 18.5216 23.6524 16.8116 24.075L17.7414 21.5653C19.9975 21.2337 22.1106 21.0256 24.3407 21.0256C27.8973 21.0256 29.0286 22.0334 28.9896 23.3338ZM43.2417 30.9345L44.9452 21.3052H49.6526L47.949 30.9345H43.2417ZM45.2053 19.0751C45.3483 18.2818 46.5967 17.6447 47.988 17.6447C49.3859 17.6447 50.4068 18.2883 50.2702 19.0751C50.1207 19.8683 48.8788 20.512 47.4744 20.512C46.083 20.512 45.0687 19.8683 45.2053 19.0751ZM66.3669 26.5067C66.1523 26.5783 65.8793 26.6563 65.5477 26.7343C65.2161 26.8123 64.6049 26.9098 63.7207 27.0529C63.1159 27.1504 62.6868 27.274 62.4528 27.4495C62.2252 27.612 62.0952 27.8201 62.0432 28.0672C61.9911 28.3337 62.0887 28.5483 62.3097 28.7108C62.5503 28.8734 62.9404 28.9514 63.4931 28.9514C63.9027 28.9514 64.3058 28.8929 64.7024 28.7694C65.1056 28.6328 65.4371 28.4638 65.6972 28.2427C65.8793 28.0801 66.0158 27.8656 66.1133 27.6186C66.1783 27.456 66.2629 27.0854 66.3669 26.5067ZM71.4383 23.3468C71.4188 23.8214 71.3343 24.2376 71.2043 24.9528L70.3526 29.7771C70.281 30.1998 70.4371 30.5379 70.8337 30.7719L70.8077 30.941L65.8922 30.9475L65.8532 29.7187C65.138 30.1542 64.2668 30.5184 63.4931 30.7264C62.7128 30.9345 62.0822 31.019 61.1264 31.019C59.5399 31.019 58.6362 30.863 58.0055 30.3038C57.3618 29.7316 57.0562 29.361 57.0888 28.5808C57.1083 28.1257 57.3423 27.547 57.6804 27.1504C58.0185 26.7343 58.4866 26.4742 58.9938 26.2337C59.5009 25.9931 60.0991 25.8175 60.9573 25.6744C61.8286 25.538 63.0445 25.3949 64.6634 25.2584C65.5086 25.1868 66.0288 24.9983 66.2694 24.9007C66.614 24.7707 66.744 24.6212 66.796 24.3416C66.8806 23.8539 66.731 23.5679 66.0743 23.4313C64.2928 23.0802 60.9834 23.6589 59.2734 24.0815L60.1966 21.5718C62.4593 21.2402 64.5659 21.0322 66.796 21.0322C70.3395 21.0386 71.4709 22.053 71.4383 23.3468ZM14.0028 27.4755C12.4683 27.7811 11.6101 27.8981 10.0952 27.8981C7.84553 27.8981 6.05749 26.7798 6.15504 24.7317C6.22658 23.3663 7.83901 20.4925 11.9417 20.4925C13.2356 20.4925 14.2433 20.72 15.6023 21.4938L16.2004 18.1518C14.3539 17.4561 13.1315 17.3521 11.5451 17.3651C6.1615 17.4236 0.999007 19.8683 0.355339 24.8422C-0.294848 29.8942 5.87541 31.162 8.61277 31.1491C10.1927 31.1425 11.8376 31.0775 13.3721 30.9215L14.0028 27.4755ZM52.2468 21.2532L52.5849 19.2896L57.5068 18.2169L56.9801 21.2467H59.3923L58.9372 23.1842L56.5965 23.1778L55.1726 30.9215C55.1726 30.9215 50.4328 30.889 50.4132 30.9215L51.8307 23.1973H50.0491L50.4132 21.2467H52.2468V21.2532ZM71.4275 30.9342L73.8397 17.5014L78.5081 17.6314L76.2194 30.9277L71.4275 30.9342ZM37.0129 23.5614C36.3952 23.5614 35.8361 23.7499 35.3419 24.1205C34.8478 24.4977 34.5357 25.0438 34.4122 25.7655C34.2626 26.6043 34.3536 27.2089 34.6852 27.5796C35.0233 27.9501 35.5044 28.1387 36.1417 28.1387C36.5708 28.1387 37.0129 28.0606 37.338 27.8981C37.7411 27.6835 38.0207 27.4625 38.2612 27.1049C38.5213 26.7343 38.6904 26.3182 38.7814 25.837C38.918 25.0763 38.8009 24.5107 38.4498 24.1336C38.1052 23.7564 37.6306 23.5614 37.0129 23.5614ZM28.4434 34.2569L30.7386 21.3572H34.8738L34.5552 23.0022C34.9128 22.508 35.4849 22.1049 36.2782 21.7798C37.0779 21.4547 37.9752 21.2141 38.9505 21.2141C40.0298 21.2141 40.693 21.2727 41.4992 21.6888C42.2989 22.1114 42.8646 22.7226 43.1636 23.5158C43.4757 24.296 43.5408 25.1803 43.3717 26.136C43.0921 27.729 42.3184 28.9774 41.0441 29.9006C39.7827 30.8239 38.6448 31.0645 37.0259 31.0709C36.4538 31.0709 35.9726 31.0124 35.576 30.9149C35.1859 30.8109 34.8738 30.6874 34.6397 30.5378C34.4122 30.3883 34.1716 30.1737 33.866 29.8356L33.0987 34.2569H28.4434ZM113.889 24.7447C113.863 23.971 113.473 23.4443 112.673 23.4443C110.742 23.4443 108.688 27.2284 108.336 28.7499C111.503 28.7563 113.967 26.8709 113.889 24.7447ZM114.305 30.6744L114.676 30.928C113.733 32.8461 111.815 34.387 109.565 34.387C107.725 34.387 106.21 33.1581 106.132 30.8564C105.983 26.7278 109.851 22.8982 113.018 22.8982C114.377 22.8982 115.638 23.4898 115.69 24.9528C115.807 28.2362 111.197 29.2375 108.161 29.309C108.063 29.6536 108.024 29.9982 108.044 30.5184C108.096 31.8772 108.915 33.0216 110.619 33.0216C112.088 33.0216 113.558 31.8382 114.305 30.6744Z" fill="#004977"/>
<path d="M95.4238 24.6407C95.7489 24.5952 96.2755 24.5367 96.5031 24.5367C96.8477 24.5367 97.1727 24.6017 97.1922 24.9463C97.1988 25.1478 96.8347 26.6107 96.7567 26.9489L96.0219 30.1867C95.7228 31.5131 95.4043 32.898 95.1182 33.9968H97.0037L98.0635 28.8668C101.295 25.4989 102.543 24.4 103.304 24.4C103.649 24.4 103.883 24.5821 103.902 24.9917C103.922 25.5834 103.551 26.9293 103.428 27.3194L102.348 31.058C102.101 31.8967 101.919 32.6574 101.939 33.1971C101.971 34.0163 102.465 34.3804 103.207 34.3804C104.585 34.3804 105.586 32.9435 106.457 31.5326L106.204 31.0709C105.853 31.6366 105.033 32.8785 104.39 32.8785C104.188 32.8785 103.993 32.7419 103.987 32.4039C103.967 31.9682 104.149 31.3115 104.279 30.8759L105.482 26.4936C105.807 25.2843 105.957 24.5106 105.95 24.0944C105.918 23.2752 105.443 22.8916 104.708 22.8916C103.467 22.8916 101.822 23.8019 98.3301 27.8136H98.2781L98.7202 25.8565C98.9608 24.7837 99.1948 23.6653 99.4159 22.8916C98.2065 23.3272 96.4771 23.8149 95.4107 24.023L95.4238 24.6407Z" fill="#004977"/>
</g>
<defs>
<clipPath id="clip0_2_2">
<rect width="116" height="42" fill="white"/>
</clipPath>
</defs>
</svg>

