<svg width="49" height="43" viewBox="0 0 49 43" fill="none" xmlns="http://www.w3.org/2000/svg">
<path fill-rule="evenodd" clip-rule="evenodd" d="M30.7102 3.80731L47.4337 32.9676C47.9853 33.9297 48.2759 35.0196 48.2759 36.1287C48.2759 39.6377 45.4315 42.4828 41.9228 42.4828H6.35332C2.84446 42.4828 0 39.6377 0 36.1287C0 35.0196 0.290357 33.9297 0.842151 32.9676L17.5657 3.80731C18.9163 1.45239 21.4234 0 24.1379 0C26.8525 0 29.3596 1.45239 30.7102 3.80731ZM27.21 11.7369C27.21 10.0401 25.8346 8.66454 24.1379 8.66454C22.4413 8.66454 21.0658 10.0401 21.0658 11.7369V23.2434C21.0658 24.9402 22.4413 26.3157 24.1379 26.3157C25.8346 26.3157 27.21 24.9402 27.21 23.2434V11.7369ZM27.21 31.9525C27.21 30.2557 25.8346 28.8801 24.1379 28.8801C22.4413 28.8801 21.0658 30.2557 21.0658 31.9525V32.9952C21.0658 34.6921 22.4413 36.0677 24.1379 36.0677C25.8346 36.0677 27.21 34.6921 27.21 32.9952V31.9525Z" fill="#F73F3F"/>
</svg>
