<svg width="10" height="10" viewBox="0 0 10 10" fill="#FFD670" xmlns="http://www.w3.org/2000/svg">
    <path d="M5.04485 0.809196C2.77559 0.809196 0.937988 2.62182 0.937988 4.85522C0.937988 7.08863 2.77559 8.90125 5.04485 8.90125C7.31821 8.90125 9.15993 7.08863 9.15993 4.85522C9.15993 2.62182 7.31821 0.809196 5.04485 0.809196ZM5.04896 8.09204C3.23191 8.09204 1.76018 6.64356 1.76018 4.85522C1.76018 3.06688 3.23191 1.6184 5.04896 1.6184C6.86601 1.6184 8.33773 3.06688 8.33773 4.85522C8.33773 6.64356 6.86601 8.09204 5.04896 8.09204Z" fill="white"/>
    <path d="M5.2544 2.83221H4.63776V5.25982L6.79601 6.53432L7.10434 6.03666L5.2544 4.95637V2.83221Z" fill="white"/>
    </svg>
    