<svg width="1905" height="1802" viewBox="0 0 1905 1802" fill="none" xmlns="http://www.w3.org/2000/svg">
<g clip-path="url(#clip0_2131_158)">
<path d="M940.155 91.2943C831.757 91.2943 724.42 112.641 624.274 154.115C524.127 195.589 433.132 256.379 356.483 333.014C279.834 409.648 219.033 500.627 177.551 600.755C136.069 700.882 114.718 808.199 114.718 916.576C114.718 1024.95 136.069 1132.27 177.551 1232.4C219.033 1332.53 279.834 1423.5 356.483 1500.14C433.132 1576.77 524.127 1637.56 624.274 1679.04C724.42 1720.51 831.757 1741.86 940.155 1741.86C1048.55 1741.86 1155.89 1720.51 1256.04 1679.04C1356.18 1637.56 1447.18 1576.77 1523.83 1500.14C1600.48 1423.5 1661.28 1332.53 1702.76 1232.4C1744.24 1132.27 1765.59 1024.95 1765.59 916.576C1765.59 808.199 1744.24 700.882 1702.76 600.755C1661.28 500.627 1600.48 409.648 1523.83 333.014C1447.18 256.379 1356.18 195.589 1256.04 154.115C1155.89 112.641 1048.55 91.2943 940.155 91.2943Z" fill="url(#paint0_linear_2131_158)"/>
<mask id="mask0_2131_158" style="mask-type:luminance" maskUnits="userSpaceOnUse" x="114" y="91" width="1652" height="1651">
<path d="M940.155 1741.86C1396.03 1741.86 1765.59 1372.37 1765.59 916.578C1765.59 460.788 1396.03 91.2963 940.155 91.2963C484.279 91.2963 114.719 460.788 114.719 916.578C114.719 1372.37 484.279 1741.86 940.155 1741.86Z" fill="white"/>
</mask>
<g mask="url(#mask0_2131_158)">
<g opacity="0.121" filter="url(#filter0_f_2131_158)">
<path d="M444.199 568.553C409.036 567.674 373.539 575.691 340.808 591.902C308.078 608.113 279.11 632.025 256.436 661.549C227.475 641.829 192.513 631.198 156.618 631.197C134.429 631.197 112.458 635.261 91.9589 643.156C71.4595 651.052 52.8333 662.625 37.1437 677.214C21.4542 691.804 9.0086 709.124 0.517598 728.186C-7.9734 747.249 -12.3435 767.679 -12.3433 788.312C-12.3424 814.709 -5.18946 840.68 8.45511 863.827C22.0997 886.974 41.796 906.551 65.7255 920.751L190.881 1562.06L460.267 1833.76L928.149 1916.45L1125.62 1836.8C1155.65 1854.56 1191.32 1867.58 1230.35 1875.01C1269.38 1882.45 1310.93 1884.15 1352.35 1880.01C1391.56 1876.09 1429.87 1867 1465.09 1853.28C1500.31 1839.55 1531.75 1821.45 1557.61 1800.01C1583.47 1778.57 1603.25 1754.21 1615.81 1728.33C1628.38 1702.44 1633.49 1675.53 1630.84 1649.13C1625.51 1595.82 1588.93 1547.85 1529.15 1515.76C1469.38 1483.67 1391.31 1470.09 1312.11 1478.01C1242.74 1484.95 1177.17 1507.93 1126.64 1543C1126.6 1484.76 1099.56 1428.91 1051.49 1387.74C1003.41 1346.57 938.224 1323.44 870.257 1323.44C864.57 1323.44 858.884 1323.6 853.209 1323.92C865.225 1298.49 871.435 1270.96 871.435 1243.11C871.434 1192.03 850.566 1142.93 813.171 1106C775.777 1069.07 724.735 1047.18 670.665 1044.86C661.582 1019.81 648.396 997.256 631.907 978.571C615.418 959.887 595.97 945.46 574.743 936.165C581.548 928.736 587.898 920.887 593.751 912.671C628.84 863.422 644.445 803.337 637.132 745.633C629.82 687.93 600.19 637.336 554.76 604.98C522.747 582.179 484.445 569.559 444.199 568.553Z" fill="url(#paint1_linear_2131_158)"/>
</g>
</g>
<mask id="mask1_2131_158" style="mask-type:luminance" maskUnits="userSpaceOnUse" x="114" y="91" width="1652" height="1651">
<path d="M940.155 1741.86C1396.03 1741.86 1765.59 1372.37 1765.59 916.578C1765.59 460.788 1396.03 91.2963 940.155 91.2963C484.279 91.2963 114.719 460.788 114.719 916.578C114.719 1372.37 484.279 1741.86 940.155 1741.86Z" fill="white"/>
</mask>
<g mask="url(#mask1_2131_158)">
<path d="M444.199 568.553C409.036 567.674 373.539 575.691 340.808 591.902C308.078 608.113 279.11 632.025 256.436 661.549C227.475 641.829 192.513 631.198 156.618 631.197C134.429 631.197 112.458 635.261 91.9589 643.156C71.4595 651.052 52.8333 662.625 37.1437 677.214C21.4542 691.804 9.0086 709.124 0.517598 728.186C-7.9734 747.249 -12.3435 767.679 -12.3433 788.312C-12.3424 814.709 -5.18946 840.68 8.45511 863.827C22.0997 886.974 41.796 906.551 65.7255 920.751L190.881 1562.06L460.267 1833.76L928.149 1916.45L1125.62 1836.8C1155.65 1854.56 1191.32 1867.58 1230.35 1875.01C1269.38 1882.45 1310.93 1884.15 1352.35 1880.01C1391.56 1876.09 1429.87 1867 1465.09 1853.28C1500.31 1839.55 1531.75 1821.45 1557.61 1800.01C1583.47 1778.57 1603.25 1754.21 1615.81 1728.33C1628.38 1702.44 1633.49 1675.53 1630.84 1649.13C1625.51 1595.82 1588.93 1547.85 1529.15 1515.76C1469.38 1483.67 1391.31 1470.09 1312.11 1478.01C1242.74 1484.95 1177.17 1507.93 1126.64 1543C1126.6 1484.76 1099.56 1428.91 1051.49 1387.74C1003.41 1346.57 938.224 1323.44 870.257 1323.44C864.57 1323.44 858.884 1323.6 853.209 1323.92C865.225 1298.49 871.435 1270.96 871.435 1243.11C871.434 1192.03 850.566 1142.93 813.171 1106C775.777 1069.07 724.735 1047.18 670.665 1044.86C661.582 1019.81 648.396 997.256 631.907 978.571C615.418 959.887 595.97 945.46 574.743 936.165C581.548 928.736 587.898 920.887 593.751 912.671C628.84 863.422 644.445 803.337 637.132 745.633C629.82 687.93 600.19 637.336 554.76 604.98C522.747 582.179 484.445 569.559 444.199 568.553Z" fill="url(#paint2_linear_2131_158)"/>
</g>
<g style="mix-blend-mode:screen" opacity="0.437075" filter="url(#filter1_f_2131_158)">
<path d="M109.182 694.387C109.182 694.387 298.705 485.466 411.667 402.03C473.686 356.222 541.517 315.763 614.451 290.099C678.578 267.535 747.489 253.817 815.545 255.016C866.799 255.92 918.435 267.721 965.943 286.758C1053.43 321.815 1135.89 372.848 1205.9 435.442C1305.35 524.349 1387.24 633.792 1452.62 749.517C1556.76 933.823 1677.38 1342.58 1677.38 1342.58L1790.6 1035.19C1790.6 1035.19 1809.49 827.93 1775.39 732.811C1731.08 609.247 1633.85 508.503 1540.5 415.395C1462.85 337.955 1373.44 269.476 1275.19 219.933C1165.84 164.795 1045.93 122.507 923.697 111.344C838.401 103.554 750.646 117.323 668.527 141.415C578.204 167.913 491.454 210.545 415.047 265.04C311.68 338.764 146.359 534.008 146.359 534.008L109.182 694.387Z" fill="url(#paint3_linear_2131_158)"/>
<mask id="mask2_2131_158" style="mask-type:luminance" maskUnits="userSpaceOnUse" x="109" y="109" width="1687" height="1234">
<path d="M109.182 694.387C109.182 694.387 298.705 485.466 411.667 402.03C473.686 356.222 541.517 315.763 614.451 290.099C678.578 267.535 747.489 253.817 815.545 255.016C866.799 255.92 918.435 267.721 965.943 286.758C1053.43 321.815 1135.89 372.848 1205.9 435.442C1305.35 524.349 1387.24 633.792 1452.62 749.517C1556.76 933.823 1677.38 1342.58 1677.38 1342.58L1790.6 1035.19C1790.6 1035.19 1809.49 827.93 1775.39 732.811C1731.08 609.247 1633.85 508.503 1540.5 415.395C1462.85 337.955 1373.44 269.476 1275.19 219.933C1165.84 164.795 1045.93 122.507 923.697 111.344C838.401 103.554 750.646 117.323 668.527 141.415C578.204 167.913 491.454 210.545 415.047 265.04C311.68 338.764 146.359 534.008 146.359 534.008L109.182 694.387Z" fill="white"/>
</mask>
<g mask="url(#mask2_2131_158)">
<path d="M129.417 737.194C129.417 737.194 308.7 528.273 415.56 444.837C474.228 399.029 538.393 358.57 607.387 332.906C668.048 310.342 733.236 296.623 797.615 297.823C846.1 298.726 894.946 310.527 939.887 329.565C1022.65 364.621 1100.65 415.655 1166.88 478.249C1260.96 567.155 1336.8 679.188 1400.27 792.324C1524.19 1013.21 1682.28 1494.07 1682.28 1494.07L1905.87 1160.69C1905.87 1160.69 1780.84 899.636 1705.6 775.618C1638.79 665.508 1571.71 551.309 1483.4 458.202C1409.95 380.762 1325.37 312.282 1232.42 262.74C1128.98 207.601 1015.55 165.314 899.923 154.15C819.236 146.361 735.701 160.28 658.541 184.221C571.069 211.363 490.895 258.924 416.278 310.209C313.2 381.056 137.323 557.914 137.323 557.914L129.417 737.194Z" fill="url(#paint4_linear_2131_158)"/>
</g>
<mask id="mask3_2131_158" style="mask-type:luminance" maskUnits="userSpaceOnUse" x="109" y="109" width="1687" height="1234">
<path d="M109.182 694.387C109.182 694.387 298.705 485.466 411.667 402.03C473.686 356.222 541.517 315.763 614.451 290.099C678.578 267.535 747.489 253.817 815.545 255.016C866.799 255.92 918.435 267.721 965.943 286.758C1053.43 321.815 1135.89 372.848 1205.9 435.442C1305.35 524.349 1387.24 633.792 1452.62 749.517C1556.76 933.823 1677.38 1342.58 1677.38 1342.58L1790.6 1035.19C1790.6 1035.19 1809.49 827.93 1775.39 732.811C1731.08 609.247 1633.85 508.503 1540.5 415.395C1462.85 337.955 1373.44 269.476 1275.19 219.933C1165.84 164.795 1045.93 122.507 923.697 111.344C838.401 103.554 750.646 117.323 668.527 141.415C578.204 167.913 491.454 210.545 415.047 265.04C311.68 338.764 146.359 534.008 146.359 534.008L109.182 694.387Z" fill="white"/>
</mask>
<g mask="url(#mask3_2131_158)">
<path d="M120.36 811.62C120.36 811.62 291.296 602.699 393.18 519.263C449.116 473.455 510.294 432.996 576.076 407.332C633.913 384.768 696.066 371.05 757.448 372.25C803.676 373.153 850.247 384.954 893.096 403.991C972.002 439.048 1046.37 490.082 1109.52 552.676C1199.22 641.582 1271.53 753.615 1332.05 866.75C1450.2 1087.64 1600.92 1568.5 1600.92 1568.5L1814.1 1235.12C1814.1 1235.12 1694.9 974.062 1623.16 850.044C1559.46 739.934 1495.5 625.736 1411.3 532.628C1341.27 455.189 1260.63 386.709 1172.01 337.167C1073.39 282.028 965.236 239.74 854.993 228.577C778.062 220.787 698.416 234.706 624.848 258.648C541.449 285.789 465.008 333.351 393.865 384.636C295.586 455.482 127.897 632.341 127.897 632.341L120.36 811.62Z" fill="url(#paint5_linear_2131_158)"/>
</g>
</g>
<g opacity="0.412">
<path opacity="0.15" d="M109.182 694.387C109.182 694.387 298.705 485.466 411.667 402.03C473.686 356.222 541.517 315.763 614.451 290.099C678.578 267.535 747.489 253.817 815.545 255.016C866.799 255.92 918.435 267.721 965.943 286.758C1053.43 321.815 1135.89 372.848 1205.9 435.442C1305.35 524.349 1387.24 633.792 1452.62 749.517C1556.76 933.823 1677.38 1342.58 1677.38 1342.58L1790.6 1035.19C1790.6 1035.19 1809.49 827.93 1775.39 732.811C1731.08 609.247 1633.85 508.503 1540.5 415.395C1462.85 337.955 1373.44 269.476 1275.19 219.933C1165.84 164.795 1045.93 122.507 923.697 111.344C838.401 103.554 750.646 117.323 668.527 141.415C578.204 167.913 491.454 210.545 415.047 265.04C311.68 338.764 146.359 534.008 146.359 534.008L109.182 694.387Z" fill="url(#paint6_linear_2131_158)"/>
<g opacity="0.15">
<mask id="mask4_2131_158" style="mask-type:luminance" maskUnits="userSpaceOnUse" x="109" y="109" width="1687" height="1234">
<path d="M109.182 694.387C109.182 694.387 298.705 485.466 411.667 402.03C473.686 356.222 541.517 315.763 614.451 290.099C678.578 267.535 747.489 253.817 815.545 255.016C866.799 255.92 918.435 267.721 965.943 286.758C1053.43 321.815 1135.89 372.848 1205.9 435.442C1305.35 524.349 1387.24 633.792 1452.62 749.517C1556.76 933.823 1677.38 1342.58 1677.38 1342.58L1790.6 1035.19C1790.6 1035.19 1809.49 827.93 1775.39 732.811C1731.08 609.247 1633.85 508.503 1540.5 415.395C1462.85 337.955 1373.44 269.476 1275.19 219.933C1165.84 164.795 1045.93 122.507 923.697 111.344C838.401 103.554 750.646 117.323 668.527 141.415C578.204 167.913 491.454 210.545 415.047 265.04C311.68 338.764 146.359 534.008 146.359 534.008L109.182 694.387Z" fill="white"/>
</mask>
<g mask="url(#mask4_2131_158)">
<path d="M129.417 737.194C129.417 737.194 308.7 528.273 415.56 444.837C474.228 399.029 538.393 358.57 607.387 332.906C668.048 310.342 733.236 296.623 797.615 297.823C846.1 298.726 894.946 310.527 939.887 329.565C1022.65 364.621 1100.65 415.655 1166.88 478.249C1260.96 567.155 1336.8 679.188 1400.27 792.324C1524.19 1013.21 1682.28 1494.07 1682.28 1494.07L1905.87 1160.69C1905.87 1160.69 1780.84 899.636 1705.6 775.618C1638.79 665.508 1571.71 551.309 1483.4 458.202C1409.95 380.762 1325.37 312.282 1232.42 262.74C1128.98 207.601 1015.55 165.314 899.923 154.15C819.236 146.361 735.701 160.28 658.541 184.221C571.069 211.363 490.895 258.924 416.278 310.209C313.2 381.056 137.323 557.914 137.323 557.914L129.417 737.194Z" fill="url(#paint7_linear_2131_158)"/>
</g>
</g>
<g opacity="0.15">
<mask id="mask5_2131_158" style="mask-type:luminance" maskUnits="userSpaceOnUse" x="120" y="226" width="1687" height="1234">
<path d="M120.36 811.633C120.36 811.633 309.883 602.712 422.845 519.276C484.864 473.469 552.695 433.009 625.629 407.346C689.756 384.781 758.667 371.063 826.723 372.263C877.977 373.166 929.613 384.967 977.121 404.004C1064.61 439.061 1147.07 490.095 1217.08 552.689C1316.53 641.595 1398.42 751.038 1463.8 866.763C1567.93 1051.07 1688.55 1459.83 1688.55 1459.83L1801.78 1152.44C1801.78 1152.44 1820.67 945.177 1786.57 850.057C1742.26 726.494 1645.03 625.749 1551.68 532.641C1474.03 455.202 1384.62 386.722 1286.37 337.18C1177.02 282.041 1057.11 239.753 934.875 228.59C849.579 220.8 761.824 234.57 679.705 258.661C589.382 285.159 502.632 327.791 426.225 382.286C322.858 456.011 157.537 651.255 157.537 651.255L120.36 811.633Z" fill="white"/>
</mask>
<g mask="url(#mask5_2131_158)">
<path d="M120.36 811.62C120.36 811.62 291.296 602.699 393.18 519.263C449.116 473.455 510.294 432.996 576.076 407.332C633.913 384.768 696.066 371.05 757.448 372.25C803.676 373.153 850.247 384.954 893.096 403.991C972.002 439.048 1046.37 490.082 1109.52 552.676C1199.22 641.582 1271.53 753.615 1332.05 866.75C1450.2 1087.64 1600.92 1568.5 1600.92 1568.5L1814.1 1235.12C1814.1 1235.12 1694.9 974.062 1623.16 850.044C1559.46 739.934 1495.5 625.736 1411.3 532.628C1341.27 455.189 1260.63 386.709 1172.01 337.167C1073.39 282.028 965.236 239.74 854.993 228.577C778.062 220.787 698.416 234.706 624.848 258.648C541.449 285.789 465.008 333.351 393.865 384.636C295.586 455.482 127.897 632.341 127.897 632.341L120.36 811.62Z" fill="url(#paint8_linear_2131_158)"/>
</g>
</g>
</g>
<g opacity="0.709">
<path opacity="0.72" d="M442.291 539.783C446.029 539.783 449.06 536.753 449.06 533.015C449.06 529.276 446.029 526.246 442.291 526.246C438.552 526.246 435.521 529.276 435.521 533.015C435.521 536.753 438.552 539.783 442.291 539.783Z" fill="white"/>
<path d="M688.259 1036.14C690.751 1036.14 692.772 1034.12 692.772 1031.63C692.772 1029.14 690.751 1027.11 688.259 1027.11C685.766 1027.11 683.746 1029.14 683.746 1031.63C683.746 1034.12 685.766 1036.14 688.259 1036.14Z" fill="white"/>
<path opacity="0.374" d="M950.023 657.104C953.346 657.104 956.041 654.41 956.041 651.087C956.041 647.764 953.346 645.071 950.023 645.071C946.7 645.071 944.005 647.764 944.005 651.087C944.005 654.41 946.7 657.104 950.023 657.104Z" fill="white"/>
<path d="M1384.79 263.027C1388.12 263.027 1390.81 260.333 1390.81 257.01C1390.81 253.688 1388.12 250.994 1384.79 250.994C1381.47 250.994 1378.78 253.688 1378.78 257.01C1378.78 260.333 1381.47 263.027 1384.79 263.027Z" fill="white"/>
<path opacity="0.709" d="M1584.12 1069.23C1587.03 1069.23 1589.39 1066.87 1589.39 1063.97C1589.39 1061.06 1587.03 1058.7 1584.12 1058.7C1581.22 1058.7 1578.86 1061.06 1578.86 1063.97C1578.86 1066.87 1581.22 1069.23 1584.12 1069.23Z" fill="white"/>
<path d="M336.983 365.306C342.384 365.306 346.762 360.929 346.762 355.53C346.762 350.13 342.384 345.753 336.983 345.753C331.583 345.753 327.205 350.13 327.205 355.53C327.205 360.929 331.583 365.306 336.983 365.306Z" fill="white"/>
<path opacity="0.253" d="M1244.13 1021.1C1247.87 1021.1 1250.9 1018.07 1250.9 1014.33C1250.9 1010.59 1247.87 1007.56 1244.13 1007.56C1240.39 1007.56 1237.36 1010.59 1237.36 1014.33C1237.36 1018.07 1240.39 1021.1 1244.13 1021.1Z" fill="white"/>
<path d="M1424.66 1479.85C1430.06 1479.85 1434.44 1475.48 1434.44 1470.08C1434.44 1464.68 1430.06 1460.3 1424.66 1460.3C1419.26 1460.3 1414.88 1464.68 1414.88 1470.08C1414.88 1475.48 1419.26 1479.85 1424.66 1479.85Z" fill="white"/>
<path opacity="0.484" d="M1057.59 1412.17C1063.82 1412.17 1068.87 1407.12 1068.87 1400.89C1068.87 1394.66 1063.82 1389.61 1057.59 1389.61C1051.36 1389.61 1046.3 1394.66 1046.3 1400.89C1046.3 1407.12 1051.36 1412.17 1057.59 1412.17Z" fill="white"/>
<path d="M707.816 714.26C712.801 714.26 716.842 710.219 716.842 705.235C716.842 700.251 712.801 696.211 707.816 696.211C702.831 696.211 698.79 700.251 698.79 705.235C698.79 710.219 702.831 714.26 707.816 714.26Z" fill="white"/>
<path opacity="0.205782" d="M1180.2 890.241C1188.5 890.241 1195.24 884.18 1195.24 876.704C1195.24 869.228 1188.5 863.167 1180.2 863.167C1171.89 863.167 1165.15 869.228 1165.15 876.704C1165.15 884.18 1171.89 890.241 1180.2 890.241Z" fill="#C3F6FF"/>
<path opacity="0.346" d="M825.159 854.142L819.141 851.104L813.124 854.142L816.163 848.126L813.124 842.109L819.141 845.148L825.159 842.109L822.12 848.126L825.159 854.142Z" fill="white"/>
<path d="M604.013 202.862L596.878 196.428L587.465 198.35L593.9 191.217L591.978 181.805L599.112 188.239L608.526 186.317L602.091 193.45L604.013 202.862Z" fill="white"/>
<path opacity="0.319" d="M208.358 617.997L202.355 611.191L193.314 611.98L200.121 605.979L199.331 596.939L205.334 603.746L214.375 602.956L207.568 608.957L208.358 617.997Z" fill="white"/>
<path d="M1595.41 598.443L1581.5 590.475L1566.82 596.939L1574.79 583.03L1568.33 568.361L1582.24 576.33L1596.91 569.865L1588.94 583.775L1595.41 598.443Z" fill="white"/>
<path opacity="0.809524" d="M1416.39 1194.07L1405.11 1186.49L1392.31 1191.06L1399.9 1179.79L1395.32 1167L1406.6 1174.58L1419.39 1170.01L1411.81 1181.28L1416.39 1194.07Z" fill="white"/>
<path d="M1727.79 974.471L1715.37 971.03L1705.23 978.983L1708.67 966.563L1700.72 956.422L1713.14 959.863L1723.28 951.909L1719.84 964.33L1727.79 974.471Z" fill="white"/>
<path opacity="0.722789" d="M1087.34 1079.61L1075.67 1065.71L1057.56 1066.85L1071.46 1055.18L1070.32 1037.07L1081.99 1050.97L1100.11 1049.83L1086.2 1061.5L1087.34 1079.61Z" fill="#C3F6FF"/>
</g>
<circle cx="931.644" cy="938.793" r="2.37752" fill="white"/>
<circle cx="831.739" cy="820.078" r="1.81994" fill="white"/>
<circle cx="954.769" cy="952.338" r="2.36828" fill="white"/>
<circle cx="879.711" cy="975.521" r="1.76541" fill="white"/>
<circle cx="754.306" cy="937.486" r="2.306" fill="white"/>
<circle cx="879.379" cy="739.551" r="2.30862" fill="white"/>
<circle cx="785.286" cy="806.048" r="1.90701" fill="white"/>
<circle cx="781.813" cy="748.648" r="2.20692" fill="white"/>
<circle cx="777.657" cy="962.65" r="2.01195" fill="white"/>
<circle cx="996.461" cy="891.867" r="2.02335" fill="white"/>
<circle cx="801.879" cy="725.815" r="1.81529" fill="white"/>
<circle cx="912.423" cy="1000.46" r="1.36205" fill="white"/>
<path d="M1377.86 270.333L1321.35 245.911L1268.44 277.551L1292.51 220.224L1261.33 166.543L1317.83 190.965L1370.74 159.326L1346.67 216.652L1377.86 270.333Z" fill="#B7D5FF"/>
<path d="M165.645 832.315L250.438 840.625L253.715 807.185L273.421 809.116L264.497 900.18L244.792 898.249L248.069 864.809L163.275 856.5L165.645 832.315ZM160.497 944.595C160.266 935.398 161.862 927.255 165.285 920.167C168.711 913.179 173.475 907.708 179.578 903.753C185.781 899.797 192.881 897.718 200.878 897.517C208.976 897.314 216.17 898.984 222.461 902.527C228.854 906.168 233.882 911.193 237.544 917.603C241.306 924.011 243.29 931.313 243.495 939.511C243.693 947.408 242.172 954.549 238.931 960.932C235.793 967.413 231.121 972.582 224.916 976.439C218.811 980.293 211.41 982.329 202.712 982.548C201.813 982.57 200.762 982.547 199.56 982.477C198.457 982.404 197.405 982.331 196.403 982.256L194.758 916.727L208.404 916.384L209.74 969.617L205.466 960.722C209.664 960.616 213.292 959.675 216.348 957.898C219.404 956.121 221.745 953.711 223.369 950.669C225.093 947.625 225.905 944.104 225.805 940.105C225.704 936.106 224.715 932.58 222.838 929.526C221.063 926.57 218.555 924.282 215.314 922.663C212.172 921.041 208.452 920.284 204.153 920.392L200.554 920.482C196.156 920.593 192.281 921.64 188.929 923.625C185.681 925.707 183.201 928.52 181.489 932.064C179.88 935.706 179.135 939.926 179.256 944.724C179.364 949.023 180.108 952.756 181.488 955.922C182.87 959.188 184.895 962.138 187.562 964.772L174.378 977.557C170.087 973.964 166.721 969.397 164.281 963.856C161.941 958.313 160.68 951.893 160.497 944.595ZM173.167 1057.64L188.73 1055.22L191.909 1053.21L219.775 1048.88C224.716 1048.11 228.331 1045.98 230.622 1042.49C232.929 1039.1 233.599 1034.29 232.632 1028.06C231.972 1023.81 230.628 1019.72 228.6 1015.78C226.686 1011.93 224.37 1008.75 221.652 1006.24L236.519 995.427C240.258 999.299 243.443 1004.17 246.074 1010.03C248.705 1015.9 250.512 1021.99 251.495 1028.32C253.383 1040.47 251.983 1050.35 247.295 1057.96C242.607 1065.57 234.187 1070.32 222.032 1072.21L176.528 1079.28L173.167 1057.64ZM168.205 1033.51C167.238 1027.29 167.447 1021.79 168.831 1017.02C170.315 1012.24 172.7 1008.38 175.988 1005.44C179.276 1002.5 183.192 1000.67 187.738 999.968C192.481 999.231 196.808 999.723 200.718 1001.44C204.644 1003.26 207.986 1006.54 210.745 1011.27C213.603 1015.99 215.661 1022.4 216.92 1030.5L220.212 1051.7L206.724 1053.79L203.823 1035.12C202.979 1029.68 201.506 1026.06 199.405 1024.26C197.32 1022.56 194.943 1021.92 192.275 1022.34C189.31 1022.8 187.115 1024.3 185.69 1026.85C184.378 1029.48 184.037 1032.83 184.666 1036.88C185.265 1040.73 186.692 1044.05 188.946 1046.84C191.299 1049.61 194.362 1051.41 198.134 1052.24L188.015 1057.46C182.615 1056.57 178.236 1054.12 174.878 1050.09C171.519 1046.05 169.295 1040.53 168.205 1033.51ZM296.94 1187.32C299.022 1193.38 299.632 1199.14 298.768 1204.62C298.031 1210.16 295.612 1215.12 291.512 1219.49C287.539 1223.93 281.675 1227.48 273.921 1230.15L230.236 1245.18L222.621 1223.05L262.903 1209.19C269.049 1207.08 273.148 1204.24 275.201 1200.68C277.254 1197.11 277.483 1193.02 275.888 1188.38C274.782 1185.17 273.033 1182.54 270.641 1180.51C268.344 1178.45 265.486 1177.21 262.067 1176.8C258.647 1176.39 254.668 1176.97 250.13 1178.53L211.834 1191.71L204.219 1169.58L244.501 1155.72C250.647 1153.6 254.746 1150.77 256.799 1147.2C258.884 1143.74 259.129 1139.69 257.535 1135.05C256.428 1131.84 254.68 1129.21 252.288 1127.18C249.991 1125.12 247.133 1123.88 243.713 1123.47C240.294 1123.06 236.315 1123.64 231.776 1125.2L193.481 1138.38L185.866 1116.25L262.174 1089.99L269.447 1111.12L248.597 1118.3L253.329 1112.23C259.441 1113.09 264.65 1115.47 268.957 1119.38C273.392 1123.36 276.683 1128.46 278.83 1134.7C281.239 1141.7 281.541 1148.42 279.737 1154.86C278.061 1161.35 273.875 1166.71 267.18 1170.92L266.623 1162.38C273.459 1162.89 279.586 1165.32 285.005 1169.7C290.456 1174.17 294.434 1180.04 296.94 1187.32ZM270.564 1324.12L357.829 1265.73L384.357 1305.37C390.696 1314.84 394.457 1324.42 395.639 1334.1C396.903 1343.72 395.657 1352.73 391.899 1361.14C388.142 1369.56 381.817 1376.74 372.924 1382.69C364.114 1388.58 355.064 1391.69 345.774 1392.01C336.566 1392.28 327.715 1390.02 319.219 1385.23C310.807 1380.39 303.431 1373.24 297.092 1363.76L270.564 1324.12ZM300.658 1333.22L313.005 1351.67C316.897 1357.49 321.342 1361.79 326.34 1364.59C331.475 1367.41 336.858 1368.62 342.488 1368.22C348.173 1367.9 353.758 1365.91 359.243 1362.24C364.812 1358.52 368.784 1354.11 371.16 1349.03C373.676 1343.98 374.568 1338.57 373.837 1332.8C373.244 1327.06 371.002 1321.28 367.109 1315.47L354.763 1297.02L300.658 1333.22ZM375.109 1466.3C368.884 1459.52 364.729 1452.34 362.644 1444.75C360.626 1437.23 360.614 1429.98 362.609 1422.98C364.676 1415.92 368.656 1409.69 374.546 1404.27C380.511 1398.79 387.027 1395.32 394.096 1393.85C401.306 1392.38 408.399 1392.86 415.374 1395.28C422.423 1397.63 428.721 1401.82 434.269 1407.86C439.615 1413.68 443.167 1420.06 444.926 1426.99C446.826 1433.94 446.709 1440.91 444.573 1447.89C442.511 1454.81 438.277 1461.22 431.871 1467.1C431.208 1467.71 430.401 1468.38 429.45 1469.12C428.573 1469.79 427.732 1470.43 426.928 1471.03L382.576 1422.77L392.627 1413.53L428.656 1452.74L419.585 1448.85C422.677 1446.01 424.79 1442.92 425.922 1439.57C427.055 1436.22 427.232 1432.86 426.454 1429.5C425.75 1426.08 424.044 1422.89 421.338 1419.95C418.631 1417 415.567 1415 412.144 1413.93C408.862 1412.87 405.468 1412.8 401.961 1413.71C398.529 1414.56 395.229 1416.44 392.063 1419.35L389.412 1421.78C386.172 1424.76 383.943 1428.1 382.725 1431.8C381.648 1435.5 381.631 1439.25 382.674 1443.05C383.858 1446.85 386.074 1450.52 389.322 1454.05C392.231 1457.22 395.247 1459.54 398.369 1461.01C401.559 1462.57 405.025 1463.45 408.766 1463.68L407.25 1481.99C401.654 1482.1 396.114 1480.88 390.632 1478.31C385.223 1475.68 380.048 1471.67 375.109 1466.3ZM419.849 1510.93L494.116 1428.03L511.545 1443.65L437.278 1526.55L419.849 1510.93ZM499.411 1574.94C493.905 1570.95 489.967 1566.25 487.597 1560.82C485.227 1555.4 484.658 1549.37 485.888 1542.73C487.259 1536.07 490.701 1528.93 496.217 1521.32C501.791 1513.62 507.46 1508.1 513.226 1504.74C518.991 1501.39 524.819 1499.99 530.709 1500.56C536.599 1501.12 542.419 1503.48 548.168 1507.65C554.323 1512.11 558.803 1517.51 561.608 1523.87C564.552 1530.2 565.623 1536.91 564.82 1543.98C564.097 1551.11 561.272 1558.08 556.343 1564.88C551.356 1571.77 545.586 1576.66 539.033 1579.57C532.561 1582.54 525.858 1583.61 518.923 1582.78C512.07 1582.01 505.566 1579.4 499.411 1574.94ZM444.415 1569.55L508.838 1480.63L526.936 1493.75L517.255 1507.11L502.809 1526.28L490.031 1546.47L463.364 1583.28L444.415 1569.55ZM507.397 1557.02C510.555 1559.31 513.877 1560.6 517.362 1560.9C520.929 1561.27 524.409 1560.64 527.803 1559.02C531.336 1557.38 534.452 1554.7 537.151 1550.98C539.909 1547.17 541.486 1543.37 541.884 1539.59C542.363 1535.86 541.875 1532.36 540.421 1529.08C539.047 1525.86 536.782 1523.11 533.624 1520.82C530.465 1518.53 527.103 1517.21 523.537 1516.85C519.97 1516.48 516.49 1517.11 513.096 1518.73C509.703 1520.34 506.627 1523.06 503.869 1526.86C501.17 1530.59 499.552 1534.35 499.015 1538.16C498.536 1541.89 499.024 1545.39 500.478 1548.67C501.932 1551.95 504.239 1554.73 507.397 1557.02ZM639.289 1562.63C644.962 1565.59 649.413 1569.38 652.642 1574C656.006 1578.58 657.747 1583.88 657.865 1589.92C658.029 1595.88 656.213 1602.49 652.418 1609.76L631.035 1650.71L610.293 1639.88L630.009 1602.12C633.017 1596.35 633.953 1591.43 632.817 1587.34C631.77 1583.29 628.942 1580.07 624.332 1577.66C621.052 1575.95 617.712 1575.11 614.313 1575.14C611.048 1575.13 607.921 1576.14 604.933 1578.19C602.034 1580.29 599.427 1583.55 597.113 1587.99L578.646 1623.36L557.903 1612.53L609.416 1513.86L630.159 1524.69L605.652 1571.63L604.122 1563.22C609.192 1559.77 614.792 1558.02 620.921 1557.94C627.05 1557.87 633.173 1559.43 639.289 1562.63ZM658.877 1663.33L688.556 1588.28L710.316 1596.89L680.637 1671.93L658.877 1663.33ZM703.573 1582.12C699.574 1580.54 696.779 1578.09 695.188 1574.77C693.597 1571.46 693.481 1568.08 694.842 1564.64C696.203 1561.2 698.598 1558.81 702.028 1557.48C705.459 1556.15 709.173 1556.27 713.172 1557.85C717.17 1559.43 719.984 1561.84 721.612 1565.06C723.277 1568.19 723.429 1571.48 722.068 1574.92C720.634 1578.55 718.183 1581.07 714.716 1582.5C711.379 1583.87 707.665 1583.74 703.573 1582.12ZM779.463 1616.06C785.629 1617.78 790.771 1620.56 794.891 1624.4C799.133 1628.18 801.94 1633.01 803.312 1638.89C804.711 1644.68 804.311 1651.52 802.112 1659.42L789.719 1703.93L767.177 1697.65L778.603 1656.61C780.347 1650.35 780.238 1645.34 778.275 1641.58C776.41 1637.84 772.972 1635.27 767.962 1633.88C764.398 1632.88 760.956 1632.76 757.637 1633.49C754.441 1634.16 751.595 1635.81 749.099 1638.43C746.699 1641.09 744.829 1644.82 743.487 1649.64L732.785 1688.08L710.242 1681.8L731.889 1604.06L753.42 1610.05L747.425 1631.58L745.189 1623.95C749.432 1619.53 754.543 1616.65 760.523 1615.3C766.503 1613.96 772.816 1614.21 779.463 1616.06ZM857.583 1716.12C850.935 1715.28 845.145 1713.24 840.212 1710C835.379 1706.77 831.855 1702.34 829.641 1696.72C827.44 1691 826.859 1684.02 827.898 1675.79L833.606 1630.55L856.821 1633.48L851.546 1675.3C850.707 1681.94 851.476 1687.03 853.854 1690.55C856.343 1693.99 860.167 1696.04 865.326 1696.69C868.898 1697.14 872.167 1696.8 875.132 1695.66C878.111 1694.42 880.594 1692.31 882.582 1689.34C884.582 1686.27 885.889 1682.3 886.502 1677.44L891.497 1637.85L914.713 1640.78L904.611 1720.85L882.586 1718.07L885.365 1696.04L888.576 1702.95C885.196 1708.17 880.695 1711.88 875.074 1714.1C869.564 1716.22 863.734 1716.9 857.583 1716.12ZM965.217 1723.93C958.317 1723.95 951.665 1723.17 945.26 1721.58C938.956 1719.9 933.95 1717.81 930.243 1715.33L937.996 1698.5C941.702 1700.79 946.057 1702.68 951.062 1704.17C956.166 1705.55 961.168 1706.24 966.067 1706.22C971.467 1706.21 975.266 1705.55 977.462 1704.24C979.758 1702.94 980.903 1701.13 980.897 1698.83C980.891 1696.93 979.988 1695.54 978.185 1694.64C976.482 1693.65 974.18 1692.9 971.279 1692.41C968.377 1691.92 965.176 1691.43 961.675 1690.94C958.273 1690.45 954.821 1689.81 951.319 1689.02C947.817 1688.13 944.613 1686.83 941.708 1685.14C938.804 1683.45 936.447 1681.16 934.639 1678.26C932.931 1675.37 932.07 1671.62 932.057 1667.02C932.043 1661.92 933.481 1657.42 936.37 1653.51C939.359 1649.6 943.65 1646.54 949.244 1644.32C954.837 1642.01 961.534 1640.84 969.334 1640.82C974.834 1640.8 980.436 1641.38 986.139 1642.57C991.842 1643.75 996.597 1645.49 1000.4 1647.78L992.651 1664.45C988.744 1662.16 984.79 1660.62 980.788 1659.83C976.885 1658.94 973.084 1658.5 969.384 1658.52C964.184 1658.53 960.386 1659.24 957.99 1660.65C955.594 1662.05 954.399 1663.86 954.405 1666.06C954.41 1668.06 955.265 1669.55 956.967 1670.55C958.77 1671.55 961.122 1672.34 964.024 1672.93C966.926 1673.52 970.077 1674.06 973.479 1674.55C976.98 1674.94 980.482 1675.58 983.984 1676.47C987.487 1677.36 990.64 1678.66 993.445 1680.35C996.35 1681.94 998.706 1684.18 1000.51 1687.08C1002.32 1689.87 1003.23 1693.57 1003.25 1698.17C1003.26 1703.17 1001.77 1707.62 998.782 1711.53C995.793 1715.34 991.452 1718.35 985.758 1720.57C980.164 1722.79 973.317 1723.9 965.217 1723.93Z" fill="url(#paint9_linear_2131_158)"/>
<g filter="url(#filter2_d_2131_158)">
<path d="M1016.77 641.38L1175.67 808.542L1177.76 811.883L1165.64 892.49C1165.64 892.49 1154.95 947.093 1141.41 958.062C1127.88 969.03 1107.16 963.073 1107.16 963.073L1064.55 1044.93C1064.55 1044.93 1023.46 1116.9 983.302 1106.54C964.142 1101.59 963.477 1088.66 954.779 1059.48C946.764 1032.58 945.814 994.258 942.156 965.997C935.103 911.513 941.348 847.686 955.523 793.089C969.699 738.492 1016.77 641.38 1016.77 641.38Z" fill="#457BC6"/>
<path fill-rule="evenodd" clip-rule="evenodd" d="M1168 876L1125.46 909.24C1073.27 950.021 1008.05 970.473 941.915 966.795C941.915 955.5 943.596 982 941.915 966.795C943.044 975.518 943.915 985.2 944.816 995.209C946.833 1017.63 948.997 1041.68 954.538 1060.28C955.783 1064.45 956.863 1068.29 957.856 1071.83C963.804 1092.99 966.643 1103.1 983.061 1107.34C1023.22 1117.7 1064.31 1045.73 1064.31 1045.73L1106.92 963.872C1106.92 963.872 1127.64 969.828 1141.17 958.86C1152.01 950.074 1166 901.5 1168 876Z" fill="#3A6FBA"/>
<g filter="url(#filter3_d_2131_158)">
<path d="M940.43 639.238C972.671 649.501 1005.85 666.684 1048.1 699.003C1090.34 731.322 1149.9 775.868 1192.12 835.195C1234.34 894.522 1262.7 967.155 1275.96 1018.29C1289.22 1069.43 1282.51 1128.77 1282.51 1128.77L1238.09 1122.28C1238.09 1122.28 1169.2 1116.6 1123.18 1123.71C1077.16 1130.81 1009.27 1146.7 965.78 1171.38C922.287 1196.05 874.172 1233.2 861.745 1252.71C849.317 1272.23 889.842 1293.13 907.627 1299.43C932.957 1307.51 1006.69 1305.19 1006.69 1305.19C1006.69 1305.19 1035.01 1337.16 1062.29 1344.92C1089.56 1352.67 1163.88 1338.14 1163.88 1338.14C1163.88 1338.14 1146.26 1382.25 1146.8 1404.75C1147.33 1427.26 1166.3 1468.12 1166.3 1468.12C1166.3 1468.12 1156.65 1541.91 1170.63 1581.93C1179.25 1606.63 1195.99 1642.4 1214.07 1667.37C1225.29 1682.86 1231.02 1695.19 1253.83 1695.11C1270.57 1695.05 1274 1688.6 1287.53 1676.05C1322.49 1643.61 1359.82 1584.91 1382.5 1530.16C1412.86 1456.85 1416.98 1353.94 1415.93 1301.11C1414.87 1248.27 1393.81 1195.66 1395.67 1194.73C1462.49 1117.73 1494.68 1023.29 1512.32 923.85C1521.49 866.729 1523.19 812.875 1520.26 785.322C1508.66 676.373 1494.42 638.911 1464.92 575.105C1435.42 511.298 1397.57 446.509 1349.46 395.033C1301.35 343.557 1240.22 300.763 1181.69 270.687C1123.16 240.612 1067.03 222.027 1004.66 213.674C942.286 205.321 869.308 202.289 818.403 212.524C767.498 222.758 685.374 267.433 685.374 267.433C685.374 267.433 617.369 255.89 588.408 256.386C559.447 256.883 527.858 253.909 513.041 267.603C492.248 293.682 495.621 309.883 513.328 323.399C522.789 330.621 542.633 343.883 564.577 358.91C605.782 387.129 653.995 420.035 653.995 420.035C653.995 420.035 572.116 418.621 546.985 421.761C521.854 424.901 511.527 426.19 503.26 431.912C494.993 437.633 479.342 463.197 487.511 474.178C495.679 485.158 501.646 487.069 520.016 495.461C538.387 503.852 622.673 528.187 668.378 544.857C714.083 561.527 732.856 574.097 786.319 595.476C839.783 616.856 908.188 628.974 940.43 639.238Z" fill="#5790DE"/>
</g>
<path d="M1166 1468C1326.4 1519.6 1384 1310.17 1393.5 1197C1484.5 1419 1344.5 1655 1250.5 1697C1165.3 1651.4 1149.5 1527 1166 1468Z" fill="url(#paint10_linear_2131_158)"/>
<path d="M1189.7 529.484C1189.7 529.484 1262.79 609.013 1302.77 659.945C1342.75 710.877 1417.23 829.512 1417.23 829.512C1417.23 829.512 1431.6 846.896 1443.06 850.877C1454.53 854.858 1482.35 849.991 1482.35 849.991C1482.35 849.991 1521.87 882.067 1544.38 894.289C1566.88 906.512 1596.34 916.858 1616.45 922.641C1636.56 928.423 1652.09 934.823 1658.21 928.528C1664.32 922.234 1657.43 908.165 1654.85 901.968C1641.54 870.808 1615.08 809.939 1569.78 751.943C1524.48 693.947 1479.17 628.891 1373.2 570.546C1307.06 534.128 1231.03 524.89 1189.7 529.484Z" fill="#457BC6"/>
<path d="M661.95 419.821C688.263 419.051 774.597 414.231 815.962 408.572C857.328 402.912 905.014 379.258 905.014 379.258C905.014 379.258 871.224 382.777 812.498 371.193C753.773 359.608 604.624 301.001 555.194 292.651C535.307 289.292 530.073 288.896 526.535 288.977C520.812 289.108 520.46 289.535 517.885 290.475C508.746 293.811 507.413 309.452 512.173 315.53C516.933 321.608 532.552 331.513 557.203 348.904C581.854 366.296 658.429 419.77 658.429 419.77C658.429 419.77 635.637 420.591 661.95 419.821Z" fill="#321C7F"/>
<path d="M661.069 419.786C678.166 419.288 734.123 417.667 761 414C812 411.5 841.5 403.5 841.5 403.5C841.5 403.5 797.045 395.784 758.888 388.277C720.731 380.771 623.821 342.797 591.704 337.386C578.782 335.21 575.382 334.954 573.083 335.006C569.364 335.091 569.135 335.367 567.462 335.976C561.524 338.138 560.658 348.273 563.751 352.211C566.843 356.149 576.992 362.567 593.009 373.836C609.026 385.105 658.781 419.754 658.781 419.754C658.781 419.754 643.972 420.285 661.069 419.786Z" fill="#261660"/>
<path d="M946.209 368.92C946.298 368.847 946.378 368.755 946.489 368.7C946.589 368.65 946.313 368.831 946.239 368.905C946.23 368.918 946.282 368.898 946.308 368.889C946.505 368.783 946.693 368.667 946.887 368.559C947.353 368.302 948.067 367.925 948.513 367.688C951.251 366.18 953.838 364.514 956.581 363.012C959.014 361.663 961.549 360.437 964.082 359.208C966.04 358.256 968.029 357.349 970.043 356.473C970.323 356.351 970.604 356.229 970.885 356.107C972.027 355.611 971.201 355.965 972.022 355.627C972.301 355.513 972.567 355.375 972.862 355.287C972.905 355.274 972.784 355.322 972.744 355.339C970.505 356.13 968.515 356.016 966.146 355.644C965.761 355.583 965.403 355.445 965.031 355.346C963.952 354.941 964.231 355.081 963.172 354.528C963.055 354.467 962.95 354.391 962.833 354.33C962.807 354.316 962.744 354.284 962.755 354.305C962.807 354.393 962.893 354.468 962.966 354.547C963.162 354.759 963.363 354.968 963.561 355.178C965.603 357.433 967.649 359.684 969.652 361.961C971.802 364.374 973.884 366.824 975.784 369.363C976.919 370.944 978.094 372.507 979.317 374.047C979.996 374.958 980.863 375.758 981.776 376.525C993.631 385.977 1010.66 372.819 998.807 363.368C999.179 363.691 999.482 364.011 999.797 364.368C999.866 364.454 999.654 364.192 999.582 364.104C998.464 362.706 997.413 361.277 996.374 359.841C994.174 356.92 991.803 354.082 989.319 351.305C987.161 348.852 984.957 346.424 982.75 343.998C980.421 341.544 978.264 339.487 974.615 338.164C974.018 337.988 973.444 337.753 972.823 337.635C971.743 337.429 970.641 337.288 969.536 337.197C968.977 337.151 968.411 337.176 967.853 337.223C966.197 337.364 964.642 337.651 963.123 338.172C961.529 338.743 959.985 339.391 958.461 340.069C956.116 341.09 953.801 342.147 951.52 343.254C948.592 344.674 945.668 346.1 942.855 347.66C940.224 349.115 937.69 350.669 935.099 352.167C933.089 353.239 931.038 354.299 929.318 355.658C917.369 365.036 934.26 378.298 946.209 368.92Z" fill="#321C7F"/>
<path d="M521.785 443.145C536.681 436.974 771.282 439.025 834.22 430.129C897.157 421.233 897.453 419.794 905.848 419.182C1110.15 455.065 1253 620.53 1334.55 797.774C1371.2 882.306 1368.65 975.511 1356.98 1032.51C1332.05 1154.28 1261.5 1188.5 1261.5 1188.5C1280.75 1146.97 1284.47 1165.58 1280.51 1064.83C1275.37 1008.8 1259.17 963.156 1235.6 913.34C1212.55 864.632 1165.7 799.925 1141.27 774.859C1117.17 750.147 1070.68 714.127 1028.62 683.468C982.539 649.883 941.65 641.784 891 630C866.785 624.367 839.964 618.665 814.5 610.5C736.191 585.389 729.844 573.137 680 553.5C630.156 533.863 511 504.5 504.698 483.309C495.516 466.953 507.753 449.315 522.648 443.145H521.785Z" fill="#80B5FF"/>
<path fill-rule="evenodd" clip-rule="evenodd" d="M504.698 483.309C500.286 475.451 500.819 467.296 504.216 460.26C504.503 460.884 504.821 461.506 505.169 462.127C509.533 476.799 567.995 495.389 620.096 511.955C643.245 519.316 665.138 526.277 680.471 532.318C699.564 539.84 712.275 546.278 725.092 552.771C745.736 563.228 766.658 573.826 814.971 589.318C836.354 596.175 858.694 601.294 879.644 606.094C883.643 607.011 887.59 607.915 891.471 608.818C894.285 609.473 897.069 610.116 899.826 610.753C946.681 621.58 985.57 630.567 1029.09 662.286C1071.16 692.945 1117.64 728.965 1141.74 753.677C1166.18 778.743 1213.02 843.45 1236.07 892.158C1259.64 941.974 1277.84 987.615 1282.98 1043.64C1284.62 1061.5 1282.62 1097.58 1282 1111C1282 1103.13 1280.87 1073.9 1280.51 1064.83C1275.37 1008.8 1259.17 963.156 1235.6 913.34C1212.55 864.632 1165.7 799.925 1141.27 774.859C1117.17 750.147 1070.68 714.127 1028.62 683.468C985.099 651.749 946.21 642.762 899.355 631.935L899.303 631.923C896.564 631.29 893.797 630.651 891 630C887.119 629.097 883.171 628.193 879.173 627.276C858.223 622.476 835.883 617.357 814.5 610.5C766.187 595.008 745.265 584.41 724.621 573.953C711.803 567.46 699.092 561.022 680 553.5C664.666 547.459 642.774 540.498 619.625 533.137C567.524 516.571 509.061 497.981 504.698 483.309Z" fill="#7CA2FF"/>
<path d="M1259 1191.5C1482.5 908.5 1092.5 460.5 799 434L903.5 419C1237.5 419 1544 1006 1259 1191.5Z" fill="#6AA3F2"/>
<path d="M1417.23 829.512C1417.23 829.512 1388.38 783.565 1356.96 736.583L1358 735.5L1398.64 754.528C1459.27 782.91 1526.77 793.266 1593.12 784.361C1624.46 831.534 1644.01 876.598 1654.85 901.968C1655.08 902.515 1655.34 903.123 1655.62 903.782C1658.54 910.588 1663.78 922.789 1658.21 928.528C1653.13 933.755 1641.56 930.231 1626.27 925.574C1623.15 924.622 1619.86 923.622 1616.45 922.641C1596.34 916.858 1566.88 906.512 1544.38 894.289C1521.87 882.067 1482.35 849.991 1482.35 849.991C1482.35 849.991 1454.53 854.858 1443.06 850.877C1431.6 846.896 1417.23 829.512 1417.23 829.512Z" fill="#3A6FBA"/>
</g>
<path d="M360.82 661.282L290.925 589.476L191.638 603.096L263.457 533.213L249.835 433.945L319.731 505.751L419.017 492.132L347.198 562.014L360.82 661.282Z" fill="#A8E3FF"/>
<path d="M360.5 660L293 548.5L192 603L290.5 589.5L360.5 660Z" fill="#63C2EB"/>
<path opacity="0.9" d="M940.155 31.1528C705.282 31.1529 480.029 124.438 313.948 290.487C147.868 456.537 54.5653 681.748 54.5652 916.576C54.5653 1151.41 147.868 1376.62 313.949 1542.67C480.029 1708.71 705.282 1802 940.155 1802C1175.03 1802 1400.28 1708.71 1566.36 1542.67C1732.44 1376.62 1825.74 1151.41 1825.74 916.576C1825.74 681.748 1732.44 456.537 1566.36 290.487C1400.28 124.438 1175.03 31.1529 940.155 31.1528ZM940.155 91.2943C1048.55 91.2943 1155.89 112.641 1256.04 154.115C1356.18 195.589 1447.18 256.379 1523.83 333.014C1600.48 409.648 1661.28 500.627 1702.76 600.755C1744.24 700.883 1765.59 808.199 1765.59 916.576C1765.59 1024.95 1744.24 1132.27 1702.76 1232.4C1661.28 1332.53 1600.48 1423.5 1523.83 1500.14C1447.18 1576.77 1356.18 1637.56 1256.04 1679.04C1155.89 1720.51 1048.55 1741.86 940.155 1741.86C831.757 1741.86 724.42 1720.51 624.274 1679.04C524.127 1637.56 433.132 1576.77 356.483 1500.14C279.834 1423.5 219.033 1332.53 177.551 1232.4C136.069 1132.27 114.718 1024.95 114.718 916.576C114.718 808.199 136.068 700.882 177.551 600.755C219.033 500.627 279.834 409.648 356.483 333.014C433.132 256.379 524.127 195.589 624.274 154.115C724.42 112.641 831.757 91.2943 940.155 91.2943Z" fill="#6CA6F5"/>
<circle cx="1534.65" cy="1337.31" r="2.37752" transform="rotate(27.608 1534.65 1337.31)" fill="white"/>
<circle cx="1501.14" cy="1185.82" r="1.81994" transform="rotate(27.608 1501.14 1185.82)" fill="white"/>
<circle cx="1548.87" cy="1360.03" r="2.36828" transform="rotate(27.608 1548.87 1360.03)" fill="white"/>
<circle cx="1471.61" cy="1345.79" r="1.76541" transform="rotate(27.608 1471.61 1345.79)" fill="white"/>
<circle cx="1378.11" cy="1253.97" r="2.306" transform="rotate(27.608 1378.11 1253.97)" fill="white"/>
<circle cx="1580.67" cy="1136.54" r="2.30862" transform="rotate(27.608 1580.67 1136.54)" fill="white"/>
<circle cx="1466.48" cy="1151.86" r="1.90701" transform="rotate(27.608 1466.48 1151.86)" fill="white"/>
<circle cx="1490" cy="1099.38" r="2.20692" transform="rotate(27.608 1490 1099.38)" fill="white"/>
<circle cx="1387.14" cy="1287.09" r="2.01195" transform="rotate(27.608 1387.14 1287.09)" fill="white"/>
<circle cx="1613.84" cy="1325.77" r="2.02335" transform="rotate(27.608 1613.84 1325.77)" fill="white"/>
<circle cx="1518.36" cy="1088.45" r="1.81529" transform="rotate(27.608 1518.36 1088.45)" fill="white"/>
<circle cx="1489.04" cy="1383.05" r="1.36205" transform="rotate(27.608 1489.04 1383.05)" fill="white"/>
<circle cx="1210.22" cy="960.593" r="1.83501" transform="rotate(-47.787 1210.22 960.593)" fill="white"/>
<circle cx="1229.96" cy="954.398" r="1.82788" transform="rotate(-47.787 1229.96 954.398)" fill="white"/>
<circle cx="1204.29" cy="1009.33" r="1.36257" transform="rotate(-47.787 1204.29 1009.33)" fill="white"/>
<circle cx="1117.51" cy="1061.29" r="1.77981" transform="rotate(-47.787 1117.51 1061.29)" fill="white"/>
<circle cx="1144.01" cy="1060.99" r="1.55286" transform="rotate(-47.787 1144.01 1060.99)" fill="white"/>
<circle cx="1217.01" cy="899.206" r="1.56165" transform="rotate(-47.787 1217.01 899.206)" fill="white"/>
<circle cx="1235.51" cy="1003.56" r="1.05125" transform="rotate(-47.787 1235.51 1003.56)" fill="white"/>
<path fill-rule="evenodd" clip-rule="evenodd" d="M1630.65 1368.77L1526.97 1277.99L1543.1 1085.89L1416.07 1230.91L1223.93 1214.78L1368.99 1341.79L1352.85 1533.89L1479.88 1388.86L1609.35 1399.73C1616.68 1389.57 1623.79 1379.25 1630.65 1368.77Z" fill="#B7F1FF"/>
<path d="M1471 1327L1351.5 1535L1481 1388.5L1606.11 1404.18C1610.11 1398.72 1614.04 1393.21 1617.91 1387.66L1471 1327Z" fill="#63B9EB"/>
<path d="M1470.5 1328.5L1543.5 1085.5L1527.5 1278.5L1470.5 1328.5Z" fill="#63B9EB"/>
<path d="M1470.5 1326.5L1415.5 1231L1543 1086L1470.5 1326.5Z" fill="#D9F9FC"/>
<path d="M1369.5 1341.5L1471 1327L1351.5 1534.5L1369.5 1341.5Z" fill="#D9F9FC"/>
<path d="M1470.5 1326.5L1224 1214L1368.5 1342L1470.5 1326.5Z" fill="#48BDDA"/>
<path d="M861 1257C929.017 1205.31 1042.3 1198.87 1135.38 1208.28C1204.57 1215.27 1299 1200.54 1299 1131C1053.4 1095 897 1205 861 1257Z" fill="#6AA3F2"/>
<path d="M914 1205C1032 1143.95 1245 1172 1297 1130.5C1290.07 1127.35 1285 1121.14 1283.31 1113.72L1282 1108C1280.65 1118.83 1270.4 1126.22 1259.61 1124.61C1091.13 1099.48 953.939 1168.91 914 1205Z" fill="#80B5FF"/>
</g>
<defs>
<filter id="filter0_f_2131_158" x="-33.8703" y="546.961" width="1686.92" height="1391.02" filterUnits="userSpaceOnUse" color-interpolation-filters="sRGB">
<feFlood flood-opacity="0" result="BackgroundImageFix"/>
<feBlend mode="normal" in="SourceGraphic" in2="BackgroundImageFix" result="shape"/>
<feGaussianBlur stdDeviation="10.7635" result="effect1_foregroundBlur_2131_158"/>
</filter>
<filter id="filter1_f_2131_158" x="69.6453" y="69.6249" width="1765.71" height="1312.5" filterUnits="userSpaceOnUse" color-interpolation-filters="sRGB">
<feFlood flood-opacity="0" result="BackgroundImageFix"/>
<feBlend mode="normal" in="SourceGraphic" in2="BackgroundImageFix" result="shape"/>
<feGaussianBlur stdDeviation="19.7682" result="effect1_foregroundBlur_2131_158"/>
</filter>
<filter id="filter2_d_2131_158" x="385.218" y="131.041" width="1375.45" height="1690.96" filterUnits="userSpaceOnUse" color-interpolation-filters="sRGB">
<feFlood flood-opacity="0" result="BackgroundImageFix"/>
<feColorMatrix in="SourceAlpha" type="matrix" values="0 0 0 0 0 0 0 0 0 0 0 0 0 0 0 0 0 0 127 0" result="hardAlpha"/>
<feOffset dy="25"/>
<feGaussianBlur stdDeviation="50"/>
<feComposite in2="hardAlpha" operator="out"/>
<feColorMatrix type="matrix" values="0 0 0 0 0.123351 0 0 0 0 0.0991492 0 0 0 0 0.389573 0 0 0 0.4 0"/>
<feBlend mode="normal" in2="BackgroundImageFix" result="effect1_dropShadow_2131_158"/>
<feBlend mode="normal" in="SourceGraphic" in2="effect1_dropShadow_2131_158" result="shape"/>
</filter>
<filter id="filter3_d_2131_158" x="455.218" y="160.041" width="1106.35" height="1559.07" filterUnits="userSpaceOnUse" color-interpolation-filters="sRGB">
<feFlood flood-opacity="0" result="BackgroundImageFix"/>
<feColorMatrix in="SourceAlpha" type="matrix" values="0 0 0 0 0 0 0 0 0 0 0 0 0 0 0 0 0 0 127 0" result="hardAlpha"/>
<feOffset dx="5" dy="-11"/>
<feGaussianBlur stdDeviation="17.5"/>
<feComposite in2="hardAlpha" operator="out"/>
<feColorMatrix type="matrix" values="0 0 0 0 0 0 0 0 0 0 0 0 0 0 0 0 0 0 0.12 0"/>
<feBlend mode="normal" in2="BackgroundImageFix" result="effect1_dropShadow_2131_158"/>
<feBlend mode="normal" in="SourceGraphic" in2="effect1_dropShadow_2131_158" result="shape"/>
</filter>
<linearGradient id="paint0_linear_2131_158" x1="574.219" y1="694.127" x2="574.219" y2="1960.1" gradientUnits="userSpaceOnUse">
<stop stop-color="#0D2F57"/>
<stop offset="1" stop-color="#030A21"/>
</linearGradient>
<linearGradient id="paint1_linear_2131_158" x1="605.151" y1="1173.22" x2="232.515" y2="1594.44" gradientUnits="userSpaceOnUse">
<stop stop-color="white"/>
<stop offset="1" stop-color="white" stop-opacity="0"/>
</linearGradient>
<linearGradient id="paint2_linear_2131_158" x1="810" y1="1060.5" x2="283.929" y2="1546.1" gradientUnits="userSpaceOnUse">
<stop offset="0.148711" stop-color="#1C406B"/>
<stop offset="0.519487" stop-color="#20416C" stop-opacity="0.25"/>
</linearGradient>
<linearGradient id="paint3_linear_2131_158" x1="968.208" y1="725.873" x2="109.182" y2="725.873" gradientUnits="userSpaceOnUse">
<stop stop-color="#FF46E0"/>
<stop offset="1" stop-color="#FF22DE" stop-opacity="0"/>
</linearGradient>
<linearGradient id="paint4_linear_2131_158" x1="984.069" y1="744.425" x2="129.331" y2="759.321" gradientUnits="userSpaceOnUse">
<stop stop-color="#FFEC68"/>
<stop offset="1" stop-color="#FFEC68" stop-opacity="0"/>
</linearGradient>
<linearGradient id="paint5_linear_2131_158" x1="826.183" y1="765.352" x2="119.84" y2="765.352" gradientUnits="userSpaceOnUse">
<stop stop-color="#2ED2F2"/>
<stop offset="1" stop-color="#7ED2F2" stop-opacity="0"/>
</linearGradient>
<linearGradient id="paint6_linear_2131_158" x1="968.208" y1="725.873" x2="109.182" y2="725.873" gradientUnits="userSpaceOnUse">
<stop stop-color="#FF46E0"/>
<stop offset="1" stop-color="#FF22DE" stop-opacity="0"/>
</linearGradient>
<linearGradient id="paint7_linear_2131_158" x1="984.069" y1="744.425" x2="129.331" y2="759.321" gradientUnits="userSpaceOnUse">
<stop stop-color="#FFEC68"/>
<stop offset="1" stop-color="#FFEC68" stop-opacity="0"/>
</linearGradient>
<linearGradient id="paint8_linear_2131_158" x1="826.183" y1="765.352" x2="119.84" y2="765.352" gradientUnits="userSpaceOnUse">
<stop stop-color="#2ED2F2"/>
<stop offset="1" stop-color="#7ED2F2" stop-opacity="0"/>
</linearGradient>
<linearGradient id="paint9_linear_2131_158" x1="382.5" y1="1030.5" x2="1098" y2="1704" gradientUnits="userSpaceOnUse">
<stop stop-color="#91BFFF"/>
<stop offset="0.632694" stop-color="#6498E0"/>
</linearGradient>
<linearGradient id="paint10_linear_2131_158" x1="1270.5" y1="1456" x2="1291.6" y2="1622.5" gradientUnits="userSpaceOnUse">
<stop stop-color="#5790DE"/>
<stop offset="1" stop-color="#386DB8"/>
</linearGradient>
<clipPath id="clip0_2131_158">
<rect width="1905" height="1802" fill="white"/>
</clipPath>
</defs>
</svg>
