<svg width="116" height="38" viewBox="0 0 116 38" fill="none" xmlns="http://www.w3.org/2000/svg">
    <path d="M34.5264 0.763041H37.9627V6.10836H43.2535V0.708496H46.6898V13.8536H43.2535V8.78102H37.9627V13.8536H34.5264V0.763041Z" fill="#3A464F"/>
    <path d="M58.9622 13.9079L58.0349 11.5625H52.3623L51.4351 13.9079H47.8897L53.5623 0.762817H57.1077L62.6166 13.9079H58.9622ZM53.3987 8.99897H57.0531L55.2532 4.30818L53.3987 8.99897Z" fill="#3A464F"/>
    <path d="M71.4527 3.92714C70.8527 3.59988 70.3073 3.43624 69.7073 3.43624C69.0528 3.43624 68.4528 3.59988 67.9073 3.92714C67.3619 4.25441 66.9255 4.69076 66.5983 5.29074C66.271 5.89073 66.1074 6.54526 66.1074 7.25433C66.1074 7.9634 66.271 8.61793 66.5983 9.21792C66.9255 9.8179 67.3619 10.2543 67.9073 10.5815C68.4528 10.9088 69.0528 11.0724 69.7073 11.0724C70.2527 11.0724 70.7982 10.9633 71.3981 10.6361C71.9981 10.3633 72.489 9.98153 72.9799 9.49064L74.9981 11.6724C74.289 12.436 73.4163 13.036 72.4345 13.4724C71.4527 13.9087 70.4709 14.1269 69.4891 14.1269C68.18 14.1269 67.0346 13.7996 65.9437 13.1996C64.9074 12.5996 64.0892 11.7815 63.4893 10.7452C62.8893 9.70881 62.562 8.56339 62.562 7.25433C62.562 5.99982 62.8893 4.79985 63.4893 3.81805C64.0892 2.78172 64.962 1.96356 65.9983 1.41812C67.0892 0.818132 68.2891 0.54541 69.5982 0.54541C70.58 0.54541 71.5618 0.763588 72.489 1.1454C73.4708 1.58175 74.2344 2.12719 74.889 2.83626L72.8708 5.2362C72.5436 4.69076 71.9981 4.25441 71.4527 3.92714Z" fill="#3A464F"/>
    <path d="M89.0704 13.9079H84.9796L81.5434 8.78079L79.907 10.6353V13.9079H76.4708V0.762817H79.907V6.48994L84.8706 0.762817H88.8523L83.9978 6.16268L89.0704 13.9079Z" fill="#3A464F"/>
    <path d="M34.4718 23.944H37.9081V37.0891H34.4718V23.944Z" fill="#3A464F"/>
    <path d="M40.4717 23.944H43.908V34.1983H49.4714V37.1436H40.4717V23.944Z" fill="#3A464F"/>
    <path d="M52.0896 23.944H55.5258V34.1983H61.0893V37.1436H52.0896V23.944Z" fill="#3A464F"/>
    <path d="M63.053 23.944H66.4892V37.0891H63.053V23.944Z" fill="#3A464F"/>
    <path d="M78.3798 23.944H81.5433V37.0891H78.5434L72.5981 29.2347V37.0891H69.38V23.944H72.3799L78.3798 31.8529V23.944Z" fill="#3A464F"/>
    <path d="M94.4158 24.653C95.5067 25.253 96.3249 26.0712 96.9794 27.053C97.5794 28.0893 97.9066 29.2347 97.9066 30.4892C97.9066 31.7983 97.5794 32.9437 96.9794 33.9801C96.3794 35.0164 95.5067 35.8346 94.4158 36.4346C93.3249 37.0345 92.125 37.3618 90.7614 37.3618C89.3978 37.3618 88.1978 37.0891 87.1069 36.4891C86.016 35.8891 85.1979 35.0709 84.5433 34.0346C83.9434 32.9983 83.6161 31.7983 83.6161 30.5438C83.6161 29.2893 83.9434 28.0893 84.5433 27.1075C85.1433 26.0712 86.016 25.253 87.1069 24.7076C88.1978 24.1621 89.3978 23.8349 90.7614 23.8349C92.125 23.7258 93.3249 24.053 94.4158 24.653ZM89.0159 27.1621C88.4705 27.4893 88.0342 27.9802 87.7069 28.5802C87.3796 29.1802 87.216 29.8347 87.216 30.5438C87.216 31.2529 87.3796 31.9074 87.7069 32.5074C88.0342 33.1074 88.4705 33.5437 89.0159 33.9255C89.5614 34.2528 90.1614 34.471 90.8159 34.471C91.4704 34.471 92.0704 34.3073 92.6159 33.9255C93.1613 33.5983 93.5976 33.1074 93.9249 32.5074C94.2522 31.9074 94.4158 31.2529 94.4158 30.5438C94.4158 29.8347 94.2522 29.1802 93.9249 28.5802C93.5976 27.9802 93.1613 27.5439 92.6159 27.1621C92.0704 26.8348 91.4704 26.6712 90.8159 26.6712C90.1614 26.6712 89.5614 26.8348 89.0159 27.1621Z" fill="#3A464F"/>
    <path d="M99.4338 23.944H102.87V37.0891H99.4338V23.944Z" fill="#3A464F"/>
    <path d="M112.088 26.8902C111.27 26.6175 110.615 26.5084 110.07 26.5084C109.634 26.5084 109.306 26.563 109.088 26.7266C108.87 26.8902 108.706 27.1084 108.706 27.4357C108.706 27.7084 108.815 27.9811 109.034 28.1448C109.252 28.3629 109.525 28.472 109.797 28.6357C110.125 28.7447 110.561 28.9084 111.161 29.072C112.088 29.3447 112.852 29.6174 113.397 29.8356C113.997 30.1083 114.488 30.4901 114.924 31.0356C115.361 31.581 115.579 32.2901 115.579 33.1628C115.579 34.0355 115.361 34.7991 114.87 35.3991C114.434 35.9991 113.779 36.49 112.961 36.8173C112.143 37.1445 111.27 37.3082 110.288 37.3082C109.197 37.3082 108.106 37.09 107.016 36.7627C105.925 36.3809 104.997 35.8355 104.234 35.1809L105.543 32.5083C106.197 33.1083 107.016 33.5992 107.888 33.981C108.815 34.3628 109.579 34.5264 110.288 34.5264C110.779 34.5264 111.215 34.4173 111.488 34.2537C111.761 34.0901 111.924 33.8173 111.924 33.4355C111.924 33.1083 111.815 32.8901 111.597 32.6719C111.379 32.4537 111.106 32.2901 110.779 32.181C110.452 32.0719 109.961 31.9083 109.361 31.7447C108.434 31.4719 107.725 31.2538 107.125 30.981C106.525 30.7083 106.034 30.3265 105.597 29.8356C105.161 29.2902 104.943 28.6356 104.943 27.7629C104.943 26.9448 105.161 26.2357 105.597 25.6357C106.034 25.0357 106.634 24.5448 107.452 24.2176C108.27 23.8903 109.143 23.7267 110.234 23.7267C111.161 23.7267 112.143 23.8358 113.07 24.1085C113.997 24.3812 114.815 24.763 115.524 25.1994L114.215 27.9266C113.615 27.4902 112.852 27.163 112.088 26.8902Z" fill="#3A464F"/>
    <path d="M24.9812 0V8.18161H17.8905V14.9451H7.19982V8.23616H0L4.74533 0.0545453H24.9812V0Z" fill="#3A464F"/>
    <path d="M24.9812 28.9627L20.3995 37.1443H0V28.9627H7.19982V22.1447H17.945V28.9081H24.9812V28.9627Z" fill="#3A464F"/>
    </svg>
    