<svg width="11" height="12" viewBox="0 0 11 12" fill="none" xmlns="http://www.w3.org/2000/svg">
    <path d="M5.50008 3.76807C5.80398 3.76807 6.09542 3.88688 6.31031 4.09837C6.52519 4.30986 6.64591 4.59671 6.64591 4.8958C6.64591 5.0439 6.61628 5.19054 6.55869 5.32736C6.50111 5.46419 6.41671 5.58851 6.31031 5.69323C6.20391 5.79795 6.07759 5.88102 5.93857 5.93769C5.79955 5.99436 5.65055 6.02353 5.50008 6.02353C5.19619 6.02353 4.90474 5.90472 4.68985 5.69323C4.47497 5.48174 4.35425 5.19489 4.35425 4.8958C4.35425 4.59671 4.47497 4.30986 4.68985 4.09837C4.90474 3.88688 5.19619 3.76807 5.50008 3.76807ZM5.50008 1.73815C6.35098 1.73815 7.16704 2.07083 7.76872 2.66301C8.37039 3.25518 8.70841 4.05834 8.70841 4.8958C8.70841 7.26404 5.50008 10.76 5.50008 10.76C5.50008 10.76 2.29175 7.26404 2.29175 4.8958C2.29175 4.05834 2.62977 3.25518 3.23145 2.66301C3.83313 2.07083 4.64918 1.73815 5.50008 1.73815ZM5.50008 2.64034C4.89229 2.64034 4.3094 2.87797 3.87963 3.30095C3.44986 3.72393 3.20841 4.29761 3.20841 4.8958C3.20841 5.34689 3.20841 6.24908 5.50008 9.27591C7.79175 6.24908 7.79175 5.34689 7.79175 4.8958C7.79175 4.29761 7.5503 3.72393 7.12053 3.30095C6.69076 2.87797 6.10787 2.64034 5.50008 2.64034Z" fill="#072C2E"/>
    </svg>
    