<svg width="103" height="117" viewBox="0 0 103 117" fill="none" xmlns="http://www.w3.org/2000/svg">
<rect x="43.7625" width="14.5875" height="14.5875" rx="7.29373" fill="#DDFF00"/>
<rect x="43.7625" y="14.5874" width="14.5875" height="14.5875" rx="7.29373" fill="#DDFF00"/>
<rect x="43.7625" y="29.1748" width="14.5875" height="14.5875" rx="7.29373" fill="#DDFF00"/>
<rect x="43.7625" y="43.7622" width="14.5875" height="14.5875" rx="7.29373" fill="#DDFF00"/>
<rect x="43.7625" y="58.3496" width="14.5875" height="14.5875" rx="7.29373" fill="#DDFF00"/>
<rect x="43.7625" y="72.937" width="14.5875" height="14.5875" rx="7.29373" fill="#DDFF00"/>
<rect x="58.3499" y="87.5244" width="14.5875" height="14.5875" rx="7.29373" fill="#DDFF00"/>
<rect x="58.3499" y="72.937" width="14.5875" height="14.5875" rx="7.29373" fill="#DDFF00"/>
<rect x="58.3499" y="14.5874" width="14.5875" height="14.5875" rx="7.29373" fill="#DDFF00"/>
<rect x="72.9373" y="43.7622" width="14.5875" height="14.5875" rx="7.29373" fill="#DDFF00"/>
<rect x="58.3499" y="29.1748" width="14.5875" height="14.5875" rx="7.29373" fill="#DDFF00"/>
<rect x="58.3499" y="43.7622" width="14.5875" height="14.5875" rx="7.29373" fill="#DDFF00"/>
<rect x="58.3499" y="58.3496" width="14.5875" height="14.5875" rx="7.29373" fill="#DDFF00"/>
<rect x="14.5874" y="72.937" width="14.5875" height="14.5875" rx="7.29373" fill="#DDFF00"/>
<rect x="29.175" y="87.5244" width="14.5875" height="14.5875" rx="7.29373" fill="#DDFF00"/>
<rect x="72.9373" y="72.937" width="14.5875" height="14.5875" rx="7.29373" fill="#DDFF00"/>
<rect x="72.9373" y="58.3496" width="14.5875" height="14.5875" rx="7.29373" fill="#DDFF00"/>
<rect x="87.5247" y="72.937" width="14.5875" height="14.5875" rx="7.29373" fill="#DDFF00"/>
<rect x="29.175" y="14.5874" width="14.5875" height="14.5875" rx="7.29373" fill="#DDFF00"/>
<rect x="14.5874" y="43.7622" width="14.5875" height="14.5875" rx="7.29373" fill="#DDFF00"/>
<rect x="29.175" y="29.1748" width="14.5875" height="14.5875" rx="7.29373" fill="#DDFF00"/>
<rect x="29.175" y="43.7622" width="14.5875" height="14.5875" rx="7.29373" fill="#DDFF00"/>
<rect x="29.175" y="58.3496" width="14.5875" height="14.5875" rx="7.29373" fill="#DDFF00"/>
<rect x="29.175" y="72.937" width="14.5875" height="14.5875" rx="7.29373" fill="#DDFF00"/>
<rect x="43.7625" y="87.5244" width="14.5875" height="14.5875" rx="7.29373" fill="#DDFF00"/>
<rect x="43.7625" y="102" width="14.5875" height="14.5875" rx="7.29373" fill="#DDFF00"/>
<rect x="14.5874" y="58.3496" width="14.5875" height="14.5875" rx="7.29373" fill="#DDFF00"/>
<rect y="72.937" width="14.5875" height="14.5875" rx="7.29373" fill="#DDFF00"/>
</svg>
