<svg width="28" height="29" viewBox="0 0 28 29" fill="none" xmlns="http://www.w3.org/2000/svg">
<rect x="4.05908" y="0.563965" width="19.4664" height="3.66527" fill="#FFF3DB"/>
<rect x="4.05908" y="0.563965" width="19.4664" height="0.926386" fill="#FFF9EF"/>
<rect x="4.05908" y="3.18213" width="19.4664" height="1.04722" fill="#F2DDB1"/>
<path d="M3.18628 0.623525C3.18628 0.279162 3.46544 0 3.8098 0V0C3.94755 0 4.05921 0.111665 4.05921 0.24941V4.70474C4.05921 4.84249 3.94755 4.95415 3.8098 4.95415V4.95415C3.46544 4.95415 3.18628 4.67499 3.18628 4.33063V0.623525Z" fill="#C08A5F"/>
<path d="M3.18628 0.623525C3.18628 0.279162 3.46544 0 3.8098 0V0C3.94755 0 4.05921 0.111665 4.05921 0.24941V4.70474C4.05921 4.84249 3.94755 4.95415 3.8098 4.95415V4.95415C3.46544 4.95415 3.18628 4.67499 3.18628 4.33063V0.623525Z" fill="#C08A5F"/>
<path d="M3.18628 0.623524C3.18628 0.279161 3.46544 0 3.8098 0V0C3.94755 0 4.05921 0.111665 4.05921 0.24941V3.53669C4.05921 3.67444 3.94755 3.7861 3.8098 3.7861V3.7861C3.46544 3.7861 3.18628 3.50694 3.18628 3.16258V0.623524Z" fill="#E3B383"/>
<path d="M2.5752 1.28241C2.5752 1.04136 2.77061 0.845947 3.01166 0.845947V0.845947C3.10808 0.845947 3.18625 0.924112 3.18625 1.02053V3.93385C3.18625 4.03027 3.10808 4.10844 3.01166 4.10844V4.10844C2.77061 4.10844 2.5752 3.91302 2.5752 3.67197V1.28241Z" fill="#C08A5F"/>
<path d="M2.5752 1.22006C2.5752 1.01344 2.74269 0.845947 2.94931 0.845947V0.845947C3.03196 0.845947 3.09896 0.912946 3.09896 0.995593V3.19352C3.09896 3.27616 3.03196 3.34316 2.94931 3.34316V3.34316C2.74269 3.34316 2.5752 3.17567 2.5752 2.96905V1.22006Z" fill="#E3B383"/>
<path d="M0.568503 1.7791C0.852229 2.05299 2.03069 2.16174 2.58445 2.18188V2.42354H0.28851C0.28851 2.42354 0.228779 2.48799 0.28851 2.18188C0.348242 1.87577 0.504623 1.73882 0.568503 1.7791Z" fill="#E3B383"/>
<path d="M0.568503 3.03316C0.852229 2.75927 2.03069 2.65052 2.58445 2.63038V2.38871H0.28851C0.28851 2.38871 0.228779 2.32427 0.28851 2.63038C0.348242 2.93649 0.504623 3.07344 0.568503 3.03316Z" fill="#C08A5F"/>
<ellipse cx="0.218234" cy="2.37644" rx="0.218234" ry="0.201388" fill="#E3B383"/>
<path d="M24.3984 0.623525C24.3984 0.279162 24.1193 0 23.7749 0V0C23.6372 0 23.5255 0.111665 23.5255 0.24941V4.70474C23.5255 4.84249 23.6372 4.95415 23.7749 4.95415V4.95415C24.1193 4.95415 24.3984 4.67499 24.3984 4.33063V0.623525Z" fill="#C08A5F"/>
<path d="M24.3984 0.623525C24.3984 0.279162 24.1193 0 23.7749 0V0C23.6372 0 23.5255 0.111665 23.5255 0.24941V4.70474C23.5255 4.84249 23.6372 4.95415 23.7749 4.95415V4.95415C24.1193 4.95415 24.3984 4.67499 24.3984 4.33063V0.623525Z" fill="#C08A5F"/>
<path d="M24.3984 0.623524C24.3984 0.279161 24.1193 0 23.7749 0V0C23.6372 0 23.5255 0.111665 23.5255 0.24941V3.53669C23.5255 3.67444 23.6372 3.7861 23.7749 3.7861V3.7861C24.1193 3.7861 24.3984 3.50694 24.3984 3.16258V0.623524Z" fill="#E3B383"/>
<path d="M25.0095 1.28241C25.0095 1.04136 24.8141 0.845947 24.5731 0.845947V0.845947C24.4766 0.845947 24.3985 0.924112 24.3985 1.02053V3.93385C24.3985 4.03027 24.4766 4.10844 24.5731 4.10844V4.10844C24.8141 4.10844 25.0095 3.91302 25.0095 3.67197V1.28241Z" fill="#C08A5F"/>
<path d="M25.0095 1.22006C25.0095 1.01344 24.842 0.845947 24.6354 0.845947V0.845947C24.5528 0.845947 24.4858 0.912946 24.4858 0.995593V3.19352C24.4858 3.27616 24.5528 3.34316 24.6354 3.34316V3.34316C24.842 3.34316 25.0095 3.17567 25.0095 2.96905V1.22006Z" fill="#E3B383"/>
<path d="M27.0162 1.7791C26.7325 2.05299 25.554 2.16174 25.0003 2.18188V2.42354H27.2962C27.2962 2.42354 27.3559 2.48799 27.2962 2.18188C27.2365 1.87577 27.0801 1.73882 27.0162 1.7791Z" fill="#E3B383"/>
<path d="M27.0162 3.03316C26.7325 2.75927 25.554 2.65052 25.0003 2.63038V2.38871H27.2962C27.2962 2.38871 27.3559 2.32427 27.2962 2.63038C27.2365 2.93649 27.0801 3.07344 27.0162 3.03316Z" fill="#C08A5F"/>
<ellipse cx="0.218234" cy="0.201388" rx="0.218234" ry="0.201388" transform="matrix(-1 0 0 1 27.5847 2.17505)" fill="#E3B383"/>
<path d="M4.55811 6.25656V4.01161V3.6311L23.0207 3.87843V7.20782L22.1041 7.30294L23.0207 7.41709V9.11033L21.3839 9.14838L23.0207 9.30058V10.8036L21.5585 10.9177L23.0207 11.0889V13.2388L21.7331 13.3719L23.0207 13.4671V14.7608V17.957L20.5328 18.1472L23.0207 18.2804V21.1532L21.253 21.3625L23.0207 21.5147V24.6158H4.55811V20.0688L6.47856 19.8214L4.55811 19.6883V18.8702L5.99845 18.699L4.55811 18.5468V17.0628V15.8262V15.665V15.5408V10.0806V8.72983L5.45286 8.59665L4.55811 8.52055L6.04209 8.38737L4.55811 8.29225V6.42779L5.49651 6.33266L4.55811 6.25656Z" fill="#F2DDB1"/>
<path d="M5.21289 6.25656V4.01161V3.6311L22.4097 3.87843V7.20782L21.556 7.30294L22.4097 7.41709V9.11033L20.8852 9.14838L22.4097 9.30058V10.8036L21.0478 10.9177L22.4097 11.0889V13.2388L21.2104 13.3719L22.4097 13.4671V14.7608V17.957L20.0924 18.1472L22.4097 18.2804V21.1532L20.7632 21.3625L22.4097 21.5147V24.6158H5.21289V20.0688L7.00168 19.8214L5.21289 19.6883V18.8702L6.55448 18.699L5.21289 18.5468V17.0628V15.8262V15.6551V15.5408V10.0806V8.72982L6.04631 8.59665L5.21289 8.52055L6.59514 8.38737L5.21289 8.29225V6.42779L6.08696 6.33266L5.21289 6.25656Z" fill="#FFF3DB"/>
<rect x="4.55811" y="23.9309" width="18.4626" height="0.68472" fill="#E5D0A4"/>
<rect x="4.55811" y="24.334" width="18.4626" height="0.281944" fill="#D8C59C"/>
<rect x="4.55811" y="4.23511" width="18.4626" height="1.00694" fill="#E5D0A4"/>
<rect x="4.55811" y="4.23511" width="18.4626" height="0.402777" fill="#C4AF8E"/>
<rect x="4.05908" y="24.6096" width="19.4664" height="3.66527" fill="#FFF3DB"/>
<rect x="4.05908" y="24.6096" width="19.4664" height="0.926386" fill="#FFF9EF"/>
<rect x="4.05908" y="27.2275" width="19.4664" height="1.04722" fill="#F2DDB1"/>
<path d="M3.18628 24.6694C3.18628 24.3251 3.46544 24.0459 3.8098 24.0459V24.0459C3.94755 24.0459 4.05921 24.1576 4.05921 24.2953V28.7506C4.05921 28.8884 3.94755 29.0001 3.8098 29.0001V29.0001C3.46544 29.0001 3.18628 28.7209 3.18628 28.3765V24.6694Z" fill="#C08A5F"/>
<path d="M3.18628 24.6694C3.18628 24.3251 3.46544 24.0459 3.8098 24.0459V24.0459C3.94755 24.0459 4.05921 24.1576 4.05921 24.2953V28.7506C4.05921 28.8884 3.94755 29.0001 3.8098 29.0001V29.0001C3.46544 29.0001 3.18628 28.7209 3.18628 28.3765V24.6694Z" fill="#C08A5F"/>
<path d="M3.18628 24.6694C3.18628 24.3251 3.46544 24.0459 3.8098 24.0459V24.0459C3.94755 24.0459 4.05921 24.1576 4.05921 24.2953V27.5826C4.05921 27.7203 3.94755 27.832 3.8098 27.832V27.832C3.46544 27.832 3.18628 27.5528 3.18628 27.2085V24.6694Z" fill="#E3B383"/>
<path d="M2.5752 25.3281C2.5752 25.087 2.77061 24.8916 3.01166 24.8916V24.8916C3.10808 24.8916 3.18625 24.9698 3.18625 25.0662V27.9795C3.18625 28.0759 3.10808 28.1541 3.01166 28.1541V28.1541C2.77061 28.1541 2.5752 27.9587 2.5752 27.7176V25.3281Z" fill="#C08A5F"/>
<path d="M2.5752 25.2657C2.5752 25.0591 2.74269 24.8916 2.94931 24.8916V24.8916C3.03196 24.8916 3.09896 24.9586 3.09896 25.0412V27.2392C3.09896 27.3218 3.03196 27.3888 2.94931 27.3888V27.3888C2.74269 27.3888 2.5752 27.2213 2.5752 27.0147V25.2657Z" fill="#E3B383"/>
<path d="M0.568503 25.825C0.852229 26.0989 2.03069 26.2076 2.58445 26.2278V26.4694H0.28851C0.28851 26.4694 0.228779 26.5339 0.28851 26.2278C0.348242 25.9217 0.504623 25.7847 0.568503 25.825Z" fill="#E3B383"/>
<path d="M0.568503 27.0793C0.852229 26.8054 2.03069 26.6967 2.58445 26.6765V26.4349H0.28851C0.28851 26.4349 0.228779 26.3704 0.28851 26.6765C0.348242 26.9826 0.504623 27.1196 0.568503 27.0793Z" fill="#C08A5F"/>
<ellipse cx="0.218234" cy="26.4223" rx="0.218234" ry="0.201388" fill="#E3B383"/>
<path d="M24.3984 24.6694C24.3984 24.3251 24.1193 24.0459 23.7749 24.0459V24.0459C23.6372 24.0459 23.5255 24.1576 23.5255 24.2953V28.7506C23.5255 28.8884 23.6372 29.0001 23.7749 29.0001V29.0001C24.1193 29.0001 24.3984 28.7209 24.3984 28.3765V24.6694Z" fill="#C08A5F"/>
<path d="M24.3984 24.6694C24.3984 24.3251 24.1193 24.0459 23.7749 24.0459V24.0459C23.6372 24.0459 23.5255 24.1576 23.5255 24.2953V28.7506C23.5255 28.8884 23.6372 29.0001 23.7749 29.0001V29.0001C24.1193 29.0001 24.3984 28.7209 24.3984 28.3765V24.6694Z" fill="#C08A5F"/>
<path d="M24.3984 24.6694C24.3984 24.3251 24.1193 24.0459 23.7749 24.0459V24.0459C23.6372 24.0459 23.5255 24.1576 23.5255 24.2953V27.5826C23.5255 27.7203 23.6372 27.832 23.7749 27.832V27.832C24.1193 27.832 24.3984 27.5528 24.3984 27.2085V24.6694Z" fill="#E3B383"/>
<path d="M25.0095 25.3281C25.0095 25.087 24.8141 24.8916 24.5731 24.8916V24.8916C24.4766 24.8916 24.3985 24.9698 24.3985 25.0662V27.9795C24.3985 28.0759 24.4766 28.1541 24.5731 28.1541V28.1541C24.8141 28.1541 25.0095 27.9587 25.0095 27.7176V25.3281Z" fill="#C08A5F"/>
<path d="M25.0095 25.2657C25.0095 25.0591 24.842 24.8916 24.6354 24.8916V24.8916C24.5528 24.8916 24.4858 24.9586 24.4858 25.0412V27.2392C24.4858 27.3218 24.5528 27.3888 24.6354 27.3888V27.3888C24.842 27.3888 25.0095 27.2213 25.0095 27.0147V25.2657Z" fill="#E3B383"/>
<path d="M27.0162 25.825C26.7325 26.0989 25.554 26.2076 25.0003 26.2278V26.4694H27.2962C27.2962 26.4694 27.3559 26.5339 27.2962 26.2278C27.2365 25.9217 27.0801 25.7847 27.0162 25.825Z" fill="#E3B383"/>
<path d="M27.0162 27.0793C26.7325 26.8054 25.554 26.6967 25.0003 26.6765V26.4349H27.2962C27.2962 26.4349 27.3559 26.3704 27.2962 26.6765C27.2365 26.9826 27.0801 27.1196 27.0162 27.0793Z" fill="#C08A5F"/>
<ellipse cx="0.218234" cy="0.201388" rx="0.218234" ry="0.201388" transform="matrix(-1 0 0 1 27.5847 26.2209)" fill="#E3B383"/>
</svg>
