<svg width="326" height="326" viewBox="0 0 326 326" fill="none" xmlns="http://www.w3.org/2000/svg">
<circle cx="162.689" cy="162.688" r="139.371" fill="url(#paint0_linear_1973_2616)" stroke="#FFDCA3" stroke-width="6.89148"/>
<mask id="mask0_1973_2616" style="mask-type:alpha" maskUnits="userSpaceOnUse" x="26" y="26" width="273" height="273">
<circle cx="162.689" cy="162.688" r="135.925" fill="url(#paint1_linear_1973_2616)"/>
</mask>
<g mask="url(#mask0_1973_2616)">
<g opacity="0.7">
<circle cx="278.158" cy="163.495" r="0.399256" fill="white"/>
<circle cx="150.902" cy="159.221" r="0.228318" fill="white"/>
<circle cx="202.56" cy="185.188" r="0.248082" fill="white"/>
<circle cx="142.737" cy="121.001" r="0.252786" fill="white"/>
<circle cx="185.264" cy="247.042" r="0.250254" fill="white"/>
<circle cx="282.536" cy="211.371" r="0.224258" fill="white"/>
<circle cx="148.072" cy="265.328" r="0.274504" fill="white"/>
<circle cx="250.235" cy="113.946" r="0.283179" fill="white"/>
<circle cx="139.58" cy="67.3785" r="0.397761" fill="white"/>
<circle cx="94.3864" cy="287.826" r="0.231168" fill="white"/>
<circle cx="147.671" cy="208.256" r="0.411155" fill="white"/>
<circle cx="141.743" cy="123.819" r="0.215045" fill="white"/>
<circle cx="207.508" cy="262.625" r="0.222157" fill="white"/>
<circle cx="273.274" cy="236.959" r="0.240793" fill="white"/>
<circle cx="138.134" cy="128.144" r="0.292574" fill="white"/>
<circle cx="191.91" cy="252.276" r="0.333172" fill="white"/>
<circle cx="205.425" cy="239.366" r="0.249383" fill="white"/>
<circle cx="141.047" cy="182.121" r="0.261377" fill="white"/>
<circle cx="144.249" cy="65.1437" r="0.377108" fill="white"/>
<circle cx="181.475" cy="73.6876" r="0.239818" fill="white"/>
<circle cx="132.848" cy="123.378" r="0.269746" fill="white"/>
<circle cx="219.525" cy="290.368" r="0.294632" fill="white"/>
<circle cx="270.404" cy="194.367" r="0.350052" fill="white"/>
<circle cx="155.151" cy="291.419" r="0.302354" fill="white"/>
<circle cx="117.326" cy="106.861" r="0.308987" fill="white"/>
<circle cx="204.446" cy="187.434" r="0.240239" fill="white"/>
<circle cx="86.5589" cy="212.347" r="0.371896" fill="white"/>
<circle cx="89.7248" cy="234.82" r="0.239928" fill="white"/>
<circle cx="173.585" cy="76.8486" r="0.320551" fill="white"/>
<circle cx="261.381" cy="143.56" r="0.305622" fill="white"/>
<circle cx="37.8587" cy="47.9415" r="0.416316" fill="white"/>
<circle cx="65.91" cy="191.738" r="0.303561" fill="white"/>
<circle cx="104.356" cy="115.54" r="0.334974" fill="white"/>
<circle cx="116.114" cy="171.497" r="0.278785" fill="white"/>
<circle cx="65.218" cy="159.656" r="0.308848" fill="white"/>
<circle cx="282.041" cy="165.77" r="0.397704" fill="white"/>
<circle cx="136.025" cy="295.4" r="0.344902" fill="white"/>
<circle cx="133.43" cy="75.2631" r="0.245276" fill="white"/>
<circle cx="281.726" cy="56.3841" r="0.298359" fill="white"/>
<circle cx="248.937" cy="285.768" r="0.318962" fill="white"/>
<circle cx="83.4144" cy="95.5948" r="0.343607" fill="white"/>
<circle cx="124.644" cy="256.496" r="0.333693" fill="white"/>
<circle cx="269.927" cy="117.916" r="0.213308" fill="white"/>
<circle cx="104.699" cy="39.1784" r="0.379046" fill="white"/>
<circle cx="114.158" cy="55.6295" r="0.396374" fill="white"/>
<circle cx="207.28" cy="121.828" r="0.422166" fill="white"/>
<circle cx="280.986" cy="196.606" r="0.359794" fill="white"/>
<circle cx="260.801" cy="221.286" r="0.267843" fill="white"/>
<circle cx="269.437" cy="169.663" r="0.296464" fill="white"/>
<circle cx="111.278" cy="150.655" r="0.28342" fill="white"/>
<circle cx="188.342" cy="78.3551" r="0.385162" fill="white"/>
<circle cx="110.684" cy="86.5625" r="0.409631" fill="white"/>
<circle cx="292.533" cy="136.316" r="0.29731" fill="white"/>
<circle cx="250.315" cy="91.8739" r="0.336563" fill="white"/>
<circle cx="238.907" cy="235.897" r="0.310322" fill="white"/>
<circle cx="124.705" cy="172.154" r="0.246586" fill="white"/>
<circle cx="271.454" cy="222.675" r="0.301511" fill="white"/>
<circle cx="88.4951" cy="260.228" r="0.30514" fill="white"/>
<circle cx="202.647" cy="137.641" r="0.3792" fill="white"/>
<circle cx="42.2402" cy="160.298" r="0.267076" fill="white"/>
<circle cx="141.478" cy="128.584" r="0.271969" fill="white"/>
<circle cx="134.607" cy="61.1461" r="0.245667" fill="white"/>
<circle cx="272.234" cy="202.234" r="0.301842" fill="white"/>
<circle cx="236.322" cy="187.453" r="0.275529" fill="white"/>
<circle cx="283.896" cy="136.409" r="0.367497" fill="white"/>
<circle cx="208.375" cy="195.068" r="0.412979" fill="white"/>
<circle cx="219.984" cy="216.587" r="0.217948" fill="white"/>
<circle cx="277.638" cy="52.5273" r="0.221345" fill="white"/>
<circle cx="67.3553" cy="51.3915" r="0.370974" fill="white"/>
<circle cx="187.838" cy="155.467" r="0.28757" fill="white"/>
<circle cx="217.505" cy="184.698" r="0.37424" fill="white"/>
<circle cx="116.383" cy="277.593" r="0.262856" fill="white"/>
<circle cx="85.4199" cy="123.866" r="0.252413" fill="white"/>
<circle cx="215.709" cy="237.657" r="0.266477" fill="white"/>
<circle cx="116.586" cy="259.224" r="0.359077" fill="white"/>
<circle cx="209.891" cy="76.8753" r="0.21809" fill="white"/>
<circle cx="230.569" cy="214.607" r="0.41366" fill="white"/>
<circle cx="125.745" cy="114.879" r="0.357732" fill="white"/>
<circle cx="126.312" cy="77.2732" r="0.339573" fill="white"/>
<circle cx="66.1305" cy="291.721" r="0.324827" fill="white"/>
<circle cx="118.613" cy="161.959" r="0.262962" fill="white"/>
<circle cx="147.09" cy="221.992" r="0.305809" fill="white"/>
<circle cx="79.9535" cy="92.3886" r="0.386613" fill="white"/>
<circle cx="168.643" cy="114.913" r="0.286988" fill="white"/>
<circle cx="90.5489" cy="87.367" r="0.415596" fill="white"/>
<circle cx="277.841" cy="195.486" r="0.384194" fill="white"/>
<circle cx="86.587" cy="57.8612" r="0.300899" fill="white"/>
<circle cx="140.505" cy="81.5253" r="0.339291" fill="white"/>
<circle cx="106.788" cy="257.468" r="0.311587" fill="white"/>
<circle cx="146.651" cy="139.496" r="0.329581" fill="white"/>
<circle cx="217.693" cy="173.699" r="0.377853" fill="white"/>
<circle cx="163.767" cy="87.8989" r="0.263176" fill="white"/>
<circle cx="260.195" cy="104.798" r="0.366612" fill="white"/>
<circle cx="129.503" cy="83.1178" r="0.356774" fill="white"/>
<circle cx="33.2775" cy="113.84" r="0.287745" fill="white"/>
<circle cx="206.667" cy="267.202" r="0.380441" fill="white"/>
<circle cx="285.438" cy="213.684" r="0.355054" fill="white"/>
<circle cx="225.565" cy="69.531" r="0.286589" fill="white"/>
<circle cx="200.054" cy="291.083" r="0.402891" fill="white"/>
<circle cx="117.825" cy="293.56" r="0.351727" fill="white"/>
<circle cx="152.325" cy="244.698" r="0.273122" fill="white"/>
<circle cx="209.491" cy="239.856" r="0.416841" fill="white"/>
<circle cx="245.142" cy="197.831" r="0.403692" fill="white"/>
<circle cx="38.6422" cy="116.525" r="0.361434" fill="white"/>
<circle cx="116.335" cy="75.8357" r="0.375205" fill="white"/>
<circle cx="155.637" cy="109.131" r="0.293906" fill="white"/>
<circle cx="114.873" cy="81.4345" r="0.418606" fill="white"/>
<circle cx="236.616" cy="125.093" r="0.331506" fill="white"/>
<circle cx="168.732" cy="81.8123" r="0.301032" fill="white"/>
<circle cx="128.019" cy="205.795" r="0.370652" fill="white"/>
<circle cx="112.547" cy="99.8162" r="0.391128" fill="white"/>
<circle cx="248.378" cy="163.276" r="0.387245" fill="white"/>
<circle cx="76.5142" cy="109.411" r="0.359925" fill="white"/>
<circle cx="186.192" cy="148.519" r="0.386746" fill="white"/>
<circle cx="197.463" cy="196.705" r="0.297201" fill="white"/>
<circle cx="191.202" cy="202.715" r="0.359942" fill="white"/>
<circle cx="289.063" cy="286.446" r="0.247621" fill="white"/>
<circle cx="40.3754" cy="91.2999" r="0.264539" fill="white"/>
<circle cx="121.709" cy="289.827" r="0.409365" fill="white"/>
<circle cx="104.238" cy="76.8287" r="0.251555" fill="white"/>
<circle cx="37.17" cy="285.635" r="0.386782" fill="white"/>
<circle cx="229.562" cy="286.778" r="0.382855" fill="white"/>
<circle cx="261.173" cy="199.291" r="0.300251" fill="white"/>
<circle cx="48.0359" cy="213.664" r="0.257066" fill="white"/>
<circle cx="272.612" cy="36.3163" r="0.299182" fill="white"/>
<circle cx="172.107" cy="56.1472" r="0.402349" fill="white"/>
<circle cx="126.974" cy="262.339" r="0.311044" fill="white"/>
<circle cx="169.929" cy="293.078" r="0.420699" fill="white"/>
<circle cx="213.668" cy="156.301" r="0.214909" fill="white"/>
<circle cx="212.756" cy="118.886" r="0.288107" fill="white"/>
<circle cx="117.271" cy="237.153" r="0.257162" fill="white"/>
<circle cx="293.887" cy="229.001" r="0.388872" fill="white"/>
<circle cx="136.966" cy="109.971" r="0.25425" fill="white"/>
<circle cx="269.381" cy="130.037" r="0.387685" fill="white"/>
<circle cx="60.1335" cy="265.011" r="0.270238" fill="white"/>
<circle cx="219.602" cy="39.2345" r="0.256027" fill="white"/>
<circle cx="274.724" cy="39.049" r="0.392294" fill="white"/>
<circle cx="110.255" cy="110.394" r="0.316149" fill="white"/>
<circle cx="145.023" cy="180.15" r="0.366011" fill="white"/>
<circle cx="88.9347" cy="239.644" r="0.327773" fill="white"/>
<circle cx="140.785" cy="171.185" r="0.30972" fill="white"/>
<circle cx="218.321" cy="125.215" r="0.337259" fill="white"/>
<circle cx="210.651" cy="239.2" r="0.330262" fill="white"/>
<circle cx="147.624" cy="87.7757" r="0.283741" fill="white"/>
<circle cx="54.0504" cy="201.368" r="0.416168" fill="white"/>
<circle cx="272.284" cy="233.067" r="0.217337" fill="white"/>
<circle cx="41.4341" cy="101.892" r="0.387177" fill="white"/>
<circle cx="118.917" cy="268.224" r="0.233871" fill="white"/>
<circle cx="105.167" cy="102.462" r="0.253182" fill="white"/>
<circle cx="216.301" cy="246.558" r="0.322769" fill="white"/>
<circle cx="282.062" cy="83.08" r="0.327758" fill="white"/>
<circle cx="65.8265" cy="253.001" r="0.313795" fill="white"/>
<circle cx="232.938" cy="237.031" r="0.292318" fill="white"/>
<circle cx="80.6919" cy="209.246" r="0.341279" fill="white"/>
<circle cx="66.3844" cy="264.168" r="0.353678" fill="white"/>
<circle cx="119.926" cy="114.404" r="0.236036" fill="white"/>
<circle cx="286.256" cy="50.5302" r="0.31415" fill="white"/>
<circle cx="242.683" cy="90.9968" r="0.247273" fill="white"/>
<circle cx="69.4026" cy="183.703" r="0.400139" fill="white"/>
<circle cx="137.596" cy="53.6649" r="0.303571" fill="white"/>
<circle cx="62.0263" cy="92.1008" r="0.303201" fill="white"/>
<circle cx="135.048" cy="157.793" r="0.374165" fill="white"/>
<circle cx="249.055" cy="86.1287" r="0.343047" fill="white"/>
<circle cx="142.895" cy="128.612" r="0.391039" fill="white"/>
<circle cx="61.8332" cy="130.116" r="0.276062" fill="white"/>
<circle cx="163.516" cy="223.433" r="0.4045" fill="white"/>
<circle cx="59.2053" cy="174.22" r="0.214129" fill="white"/>
<circle cx="102.695" cy="255.99" r="0.369253" fill="white"/>
<circle cx="93.7907" cy="147.187" r="0.396686" fill="white"/>
<circle cx="273.613" cy="212.296" r="0.339246" fill="white"/>
<circle cx="108.846" cy="235.844" r="0.394134" fill="white"/>
<circle cx="294.021" cy="57.753" r="0.348472" fill="white"/>
<circle cx="298.485" cy="130.746" r="0.222839" fill="white"/>
<circle cx="94.6021" cy="281.281" r="0.306169" fill="white"/>
<circle cx="280.808" cy="80.4135" r="0.237975" fill="white"/>
<circle cx="168.855" cy="183.353" r="0.401839" fill="white"/>
<circle cx="230.827" cy="179.586" r="0.225146" fill="white"/>
<circle cx="145.656" cy="79.1548" r="0.329347" fill="white"/>
<circle cx="192.7" cy="131.603" r="0.348924" fill="white"/>
<circle cx="253.58" cy="141.204" r="0.320243" fill="white"/>
<circle cx="94.6315" cy="171.337" r="0.413224" fill="white"/>
<circle cx="298.138" cy="224.739" r="0.214495" fill="white"/>
<circle cx="212.148" cy="110.846" r="0.3273" fill="white"/>
<circle cx="53.0735" cy="196.566" r="0.321588" fill="white"/>
<circle cx="263.735" cy="115.615" r="0.305628" fill="white"/>
<circle cx="174.888" cy="45.2797" r="0.312129" fill="white"/>
<circle cx="86.9286" cy="110.695" r="0.310955" fill="white"/>
<circle cx="49.6547" cy="252.638" r="0.371956" fill="white"/>
<circle cx="107.635" cy="273.755" r="0.380693" fill="white"/>
<circle cx="284.592" cy="181.251" r="0.379151" fill="white"/>
<circle cx="158.84" cy="295.585" r="0.41011" fill="white"/>
<circle cx="116" cy="270.107" r="0.421923" fill="white"/>
<circle cx="230.829" cy="106.256" r="0.217258" fill="white"/>
<circle cx="214.32" cy="296.42" r="0.309587" fill="white"/>
<circle cx="98.4941" cy="109.24" r="0.243627" fill="white"/>
<circle cx="52.4521" cy="228.284" r="0.300778" fill="white"/>
<circle cx="72.5602" cy="183.918" r="0.300879" fill="white"/>
<circle cx="233.91" cy="293.167" r="0.265161" fill="white"/>
<circle cx="148.358" cy="132.962" r="0.227956" fill="white"/>
<circle cx="210.886" cy="263.903" r="0.346203" fill="white"/>
<circle cx="294.364" cy="81.2984" r="0.255901" fill="white"/>
<circle cx="175.486" cy="75.3908" r="0.401262" fill="white"/>
<circle cx="158.125" cy="75.9034" r="0.272312" fill="white"/>
<circle cx="74.6842" cy="207.239" r="0.387781" fill="white"/>
<circle cx="256.155" cy="41.2188" r="0.213878" fill="white"/>
<circle cx="48.9408" cy="110.817" r="0.278169" fill="white"/>
<circle cx="69.5807" cy="126.608" r="0.221844" fill="white"/>
<circle cx="234.779" cy="78.2309" r="0.279985" fill="white"/>
<circle cx="125.037" cy="141.231" r="0.367276" fill="white"/>
<circle cx="136.803" cy="282.587" r="0.33183" fill="white"/>
<circle cx="30.3345" cy="157.249" r="0.301345" fill="white"/>
<circle cx="150.951" cy="139.167" r="0.27792" fill="white"/>
<circle cx="99.3381" cy="130.988" r="0.297048" fill="white"/>
<circle cx="170.673" cy="175.082" r="0.369731" fill="white"/>
<circle cx="161.388" cy="63.016" r="0.247972" fill="white"/>
<circle cx="115.83" cy="187.565" r="0.271229" fill="white"/>
<circle cx="179.179" cy="161.846" r="0.388224" fill="white"/>
<circle cx="51.1514" cy="267.367" r="0.269572" fill="white"/>
<circle cx="252.997" cy="131.564" r="0.370607" fill="white"/>
<circle cx="186.073" cy="255.001" r="0.383736" fill="white"/>
<circle cx="115.012" cy="248.97" r="0.258068" fill="white"/>
<circle cx="263.893" cy="101.524" r="0.243462" fill="white"/>
<circle cx="132.818" cy="45.0047" r="0.393153" fill="white"/>
<circle cx="116.296" cy="86.8597" r="0.257398" fill="white"/>
<circle cx="133.57" cy="208.413" r="0.282607" fill="white"/>
<circle cx="201.799" cy="119.209" r="0.392655" fill="white"/>
<circle cx="113.387" cy="159.867" r="0.346948" fill="white"/>
<circle cx="103.996" cy="138.779" r="0.327891" fill="white"/>
<circle cx="233.794" cy="104.04" r="0.233871" fill="white"/>
<circle cx="169.094" cy="97.9023" r="0.39132" fill="white"/>
<circle cx="236.663" cy="63.3696" r="0.391795" fill="white"/>
<circle cx="239.662" cy="75.2827" r="0.404539" fill="white"/>
<circle cx="50.4152" cy="269.713" r="0.302861" fill="white"/>
<circle cx="152.839" cy="234.291" r="0.392898" fill="white"/>
<circle cx="140.166" cy="107.141" r="0.335524" fill="white"/>
<circle cx="235.569" cy="234.419" r="0.279453" fill="white"/>
<circle cx="211.819" cy="155.682" r="0.348259" fill="white"/>
<circle cx="297.551" cy="72.881" r="0.355642" fill="white"/>
<circle cx="59.0888" cy="58.9477" r="0.374417" fill="white"/>
<circle cx="179.548" cy="70.4792" r="0.232083" fill="white"/>
<circle cx="208.373" cy="122.153" r="0.269883" fill="white"/>
<circle cx="203.845" cy="70.3129" r="0.333894" fill="white"/>
<circle cx="259.347" cy="159.728" r="0.243174" fill="white"/>
<circle cx="237.517" cy="267.179" r="0.38447" fill="white"/>
<circle cx="120.669" cy="97.7769" r="0.279368" fill="white"/>
<circle cx="128.252" cy="141.084" r="0.376878" fill="white"/>
<circle cx="207.996" cy="185.43" r="0.267684" fill="white"/>
<circle cx="41.967" cy="160.464" r="0.216029" fill="white"/>
<circle cx="270.478" cy="64.9777" r="0.224044" fill="white"/>
<circle cx="252.673" cy="36.6525" r="0.235981" fill="white"/>
<circle cx="208.911" cy="248.571" r="0.267461" fill="white"/>
<circle cx="176.287" cy="36.6271" r="0.411023" fill="white"/>
<circle cx="63.3516" cy="104.082" r="0.396526" fill="white"/>
<circle cx="111.532" cy="269.465" r="0.278029" fill="white"/>
<circle cx="179.169" cy="42.7657" r="0.406795" fill="white"/>
<circle cx="106.406" cy="218.987" r="0.240027" fill="white"/>
<circle cx="132.424" cy="150.855" r="0.317007" fill="white"/>
<circle cx="186.965" cy="147.82" r="0.216788" fill="white"/>
<circle cx="102.895" cy="93.4212" r="0.420031" fill="white"/>
<circle cx="210.145" cy="61.5709" r="0.235916" fill="white"/>
<circle cx="131.712" cy="56.194" r="0.309742" fill="white"/>
<circle cx="50.903" cy="219.925" r="0.385429" fill="white"/>
<circle cx="252.294" cy="120.802" r="0.219454" fill="white"/>
<circle cx="115.899" cy="191.249" r="0.388245" fill="white"/>
<circle cx="32.3977" cy="210.383" r="0.285907" fill="white"/>
<circle cx="122.165" cy="239.194" r="0.291317" fill="white"/>
<circle cx="219.734" cy="160.365" r="0.399131" fill="white"/>
<circle cx="184.666" cy="242.699" r="0.396737" fill="white"/>
<circle cx="32.2492" cy="64.5732" r="0.284825" fill="white"/>
<circle cx="175.916" cy="171.029" r="0.352146" fill="white"/>
<circle cx="202.612" cy="224.548" r="0.253443" fill="white"/>
<circle cx="79.129" cy="150.725" r="0.297428" fill="white"/>
<circle cx="124.067" cy="155.487" r="0.260766" fill="white"/>
<circle cx="215.934" cy="39.39" r="0.298933" fill="white"/>
<circle cx="262.629" cy="286.565" r="0.237594" fill="white"/>
<circle cx="46.8123" cy="180.575" r="0.383637" fill="white"/>
<circle cx="31.2457" cy="43.3378" r="0.398068" fill="white"/>
<circle cx="128.313" cy="102.326" r="0.280386" fill="white"/>
<circle cx="169.407" cy="244.69" r="0.380682" fill="white"/>
<circle cx="196.36" cy="85.5511" r="0.271297" fill="white"/>
<circle cx="162.95" cy="60.5812" r="0.360516" fill="white"/>
<circle cx="251.916" cy="276.226" r="0.244769" fill="white"/>
<circle cx="221.453" cy="285.487" r="0.27639" fill="white"/>
<circle cx="130.082" cy="52.6343" r="0.366036" fill="white"/>
<circle cx="218.672" cy="101.323" r="0.363112" fill="white"/>
<circle cx="40.2513" cy="102.239" r="0.309364" fill="white"/>
<circle cx="233.335" cy="59.2951" r="0.223094" fill="white"/>
<circle cx="140.769" cy="100.938" r="0.244346" fill="white"/>
<circle cx="34.6476" cy="185.755" r="0.376142" fill="white"/>
<circle cx="52.8493" cy="206.905" r="0.37081" fill="white"/>
<circle cx="157.193" cy="184.567" r="0.249066" fill="white"/>
<circle cx="112.676" cy="224.219" r="0.257429" fill="white"/>
<circle cx="197.275" cy="164.086" r="0.365911" fill="white"/>
<circle cx="49.7449" cy="279.059" r="0.354249" fill="white"/>
<circle cx="70.7888" cy="61.4964" r="0.252227" fill="white"/>
<circle cx="151.367" cy="247.655" r="0.275684" fill="white"/>
<circle cx="230.988" cy="71.0329" r="0.385463" fill="white"/>
<circle cx="168.097" cy="297.412" r="0.331848" fill="white"/>
<circle cx="252.299" cy="167.502" r="0.337866" fill="white"/>
<circle cx="27.8378" cy="151.55" r="0.313841" fill="white"/>
<circle cx="182.214" cy="222.705" r="0.289745" fill="white"/>
<circle cx="250.199" cy="206.447" r="0.308622" fill="white"/>
<circle cx="266.672" cy="75.4248" r="0.284182" fill="white"/>
<circle cx="148.917" cy="69.6279" r="0.317802" fill="white"/>
<circle cx="153.005" cy="217.129" r="0.287307" fill="white"/>
<circle cx="142.29" cy="164.679" r="0.2509" fill="white"/>
<circle cx="33.2935" cy="61.1644" r="0.229571" fill="white"/>
<circle cx="147.494" cy="265.112" r="0.248303" fill="white"/>
<circle cx="257.594" cy="261.055" r="0.398381" fill="white"/>
<circle cx="129.942" cy="150.271" r="0.421" fill="white"/>
<circle cx="148.381" cy="166.713" r="0.289741" fill="white"/>
<circle cx="105.089" cy="138.648" r="0.325694" fill="white"/>
<circle cx="43.7392" cy="240.24" r="0.354968" fill="white"/>
<circle cx="65.3316" cy="87.3407" r="0.256424" fill="white"/>
<circle cx="84.3058" cy="69.5702" r="0.332139" fill="white"/>
<circle cx="254.975" cy="53.6006" r="0.354032" fill="white"/>
<circle cx="157.273" cy="248.699" r="0.359738" fill="white"/>
<circle cx="107.585" cy="188.225" r="0.259818" fill="white"/>
<circle cx="138.952" cy="46.137" r="0.362315" fill="white"/>
<circle cx="163.182" cy="225.464" r="0.22151" fill="white"/>
<circle cx="93.9828" cy="107.406" r="0.238144" fill="white"/>
<circle cx="122.536" cy="197.172" r="0.341722" fill="white"/>
<circle cx="259.991" cy="240.868" r="0.350183" fill="white"/>
<circle cx="128.23" cy="79.0712" r="0.388834" fill="white"/>
<circle cx="125.263" cy="150.034" r="0.248204" fill="white"/>
<circle cx="196.995" cy="49.3381" r="0.217721" fill="white"/>
<circle cx="186.362" cy="197.635" r="0.380881" fill="white"/>
<circle cx="182.773" cy="294.473" r="0.269784" fill="white"/>
<circle cx="159.127" cy="189.836" r="0.282766" fill="white"/>
<circle cx="265.966" cy="127.768" r="0.330187" fill="white"/>
<circle cx="266.242" cy="110.814" r="0.265603" fill="white"/>
<circle cx="171.461" cy="65.2688" r="0.261477" fill="white"/>
<circle cx="192.689" cy="271.611" r="0.23943" fill="white"/>
<circle cx="232.686" cy="62.4763" r="0.264417" fill="white"/>
<circle cx="213.321" cy="223.77" r="0.230208" fill="white"/>
<circle cx="289.043" cy="155.615" r="0.33978" fill="white"/>
<circle cx="256.367" cy="127.73" r="0.30484" fill="white"/>
<circle cx="96.717" cy="258.184" r="0.36396" fill="white"/>
<circle cx="28.5057" cy="243.855" r="0.264526" fill="white"/>
<circle cx="81.9468" cy="124.923" r="0.325682" fill="white"/>
<circle cx="203.67" cy="136.707" r="0.387368" fill="white"/>
<circle cx="125.243" cy="147.561" r="0.380204" fill="white"/>
<circle cx="102.993" cy="97.7018" r="0.402214" fill="white"/>
<circle cx="132.512" cy="182.318" r="0.233053" fill="white"/>
<circle cx="289.984" cy="196.318" r="0.276896" fill="white"/>
<circle cx="231.527" cy="161.042" r="0.399214" fill="white"/>
<circle cx="238.219" cy="204.824" r="0.36833" fill="white"/>
<circle cx="298.339" cy="229.99" r="0.398026" fill="white"/>
<circle cx="61.6807" cy="131.357" r="0.263683" fill="white"/>
<circle cx="82.0928" cy="134.554" r="0.422891" fill="white"/>
<circle cx="260.463" cy="41.3348" r="0.308226" fill="white"/>
<circle cx="259.857" cy="159.471" r="0.413421" fill="white"/>
<circle cx="274.93" cy="173.851" r="0.228801" fill="white"/>
<circle cx="136.28" cy="188.986" r="0.354642" fill="white"/>
<circle cx="53.3644" cy="198.875" r="0.284345" fill="white"/>
<circle cx="293.003" cy="117.429" r="0.28254" fill="white"/>
<circle cx="144.641" cy="247.06" r="0.21668" fill="white"/>
<circle cx="73.7157" cy="176.966" r="0.262097" fill="white"/>
<circle cx="239.48" cy="258.487" r="0.237935" fill="white"/>
<circle cx="194.104" cy="46.6721" r="0.274419" fill="white"/>
<circle cx="296.258" cy="107.772" r="0.329083" fill="white"/>
<circle cx="76.9122" cy="252.479" r="0.402445" fill="white"/>
<circle cx="86.4493" cy="129.302" r="0.397999" fill="white"/>
<circle cx="133.601" cy="270.541" r="0.238413" fill="white"/>
<circle cx="114.911" cy="214.908" r="0.315846" fill="white"/>
<circle cx="146.978" cy="42.368" r="0.36358" fill="white"/>
<circle cx="154.887" cy="209.774" r="0.219332" fill="white"/>
<circle cx="244.93" cy="132.889" r="0.369398" fill="white"/>
<circle cx="35.3494" cy="121.454" r="0.333813" fill="white"/>
<circle cx="159.743" cy="227.95" r="0.419303" fill="white"/>
<circle cx="291.093" cy="97.4208" r="0.386648" fill="white"/>
<circle cx="162.84" cy="120.081" r="0.305402" fill="white"/>
<circle cx="282.832" cy="290.361" r="0.344629" fill="white"/>
<circle cx="184.077" cy="120.489" r="0.288013" fill="white"/>
<circle cx="112.742" cy="127.664" r="0.213632" fill="white"/>
<circle cx="266.195" cy="116.517" r="0.25928" fill="white"/>
<circle cx="230.518" cy="235.085" r="0.240606" fill="white"/>
<circle cx="126.159" cy="129.003" r="0.376279" fill="white"/>
<circle cx="68.6616" cy="134.16" r="0.246021" fill="white"/>
<circle cx="157.702" cy="137.734" r="0.262066" fill="white"/>
<circle cx="30.67" cy="243.565" r="0.347217" fill="white"/>
<circle cx="71.6992" cy="228.719" r="0.220639" fill="white"/>
<circle cx="146.801" cy="77.1542" r="0.311931" fill="white"/>
<path d="M76.4947 150.09C76.4947 152.634 75.7623 155.178 72.4668 155.178C75.7623 155.178 76.4947 158.085 76.4947 160.266C76.4947 158.085 77.227 155.178 80.5225 155.178C77.227 155.178 76.4947 152.634 76.4947 150.09Z" fill="white"/>
<path d="M261.353 175.53C261.353 178.073 260.62 180.617 257.325 180.617C260.62 180.617 261.353 183.525 261.353 185.705C261.353 183.525 262.085 180.617 265.38 180.617C262.085 180.617 261.353 178.073 261.353 175.53Z" fill="white"/>
<path d="M55.8706 111.701C55.8706 114.245 55.1383 116.789 51.8428 116.789C55.1383 116.789 55.8706 119.696 55.8706 121.877C55.8706 119.696 56.603 116.789 59.8985 116.789C56.603 116.789 55.8706 114.245 55.8706 111.701Z" fill="white"/>
<path d="M162.987 66.1411C162.987 67.6251 162.563 69.109 160.655 69.109C162.563 69.109 162.987 70.805 162.987 72.0769C162.987 70.805 163.411 69.109 165.319 69.109C163.411 69.109 162.987 67.6251 162.987 66.1411Z" fill="white"/>
<path d="M219.378 77.1648C219.378 78.6487 218.954 80.1327 217.046 80.1327C218.954 80.1327 219.378 81.8286 219.378 83.1006C219.378 81.8286 219.802 80.1327 221.71 80.1327C219.802 80.1327 219.378 78.6487 219.378 77.1648Z" fill="white"/>
<path d="M280.432 128.891C280.432 130.375 280.008 131.859 278.1 131.859C280.008 131.859 280.432 133.555 280.432 134.827C280.432 133.555 280.856 131.859 282.763 131.859C280.856 131.859 280.432 130.375 280.432 128.891Z" fill="white"/>
<circle cx="276.827" cy="204.785" r="0.847972" fill="#F2F2F2"/>
<circle cx="238.245" cy="222.168" r="0.847972" fill="#F2F2F2"/>
<circle cx="68.6507" cy="165.354" r="0.847972" fill="#F2F2F2"/>
<circle cx="190.335" cy="91.1563" r="0.847972" fill="#F2F2F2"/>
<circle cx="138.305" cy="203.629" r="0.847972" fill="#F2F2F2"/>
<circle cx="156.066" cy="142.606" r="0.847972" fill="#F2F2F2"/>
<circle cx="125.465" cy="85.2205" r="0.847972" fill="#F2F2F2"/>
<path d="M175.083 156.33C175.083 157.814 174.659 159.298 172.751 159.298C174.659 159.298 175.083 160.994 175.083 162.266C175.083 160.994 175.507 159.298 177.415 159.298C175.507 159.298 175.083 157.814 175.083 156.33Z" fill="white"/>
</g>
<g opacity="0.49" style="mix-blend-mode:screen">
<path d="M99.1368 99.8521C102.924 93.557 109.934 99.8521 108.403 103.047C114.205 100.942 118.234 103.328 114.688 105.677C111.143 108.026 4.71591 113.846 4.45866 103.047C4.3942 100.341 8.83669 100.416 11.066 100.792C13.4511 96.5824 17.1093 97.3466 18.6402 98.2548C21.0898 90.4376 26.1071 92.9932 28.3095 95.2482C26.7248 89.0158 28.3095 71.1954 48.0509 71.1953C67.9887 71.1953 71.9017 83.0652 69.4038 92.2416C75.4472 83.2218 83.9078 85.4454 87.7755 93.463C95.7526 91.6779 99.1368 95.3422 99.1368 99.8521Z" fill="url(#paint2_linear_1973_2616)"/>
</g>
<g opacity="0.49" style="mix-blend-mode:screen">
<path d="M305.084 249.575C309.165 244.492 316.721 249.575 315.071 252.154C321.323 250.455 325.666 252.382 321.844 254.279C318.023 256.175 203.32 260.875 203.043 252.154C202.973 249.969 207.761 250.03 210.164 250.333C212.735 246.935 216.677 247.552 218.327 248.285C220.967 241.973 226.375 244.036 228.748 245.857C227.041 240.825 228.748 226.435 250.025 226.435C271.513 226.435 275.731 236.02 273.039 243.429C279.552 236.146 288.67 237.942 292.839 244.416C301.436 242.974 305.084 245.933 305.084 249.575Z" fill="url(#paint3_linear_1973_2616)"/>
</g>
<path d="M261.47 93.9528C257.379 86.4925 246.479 91.9473 246.479 95.7577C244.775 94.9054 243.621 93.9528 240.463 96.61C239.914 97.0721 240.463 98.465 240.463 98.465C241.487 99.5111 263.924 100.494 270.344 98.465C270.344 93.0002 264.077 92.549 261.47 93.9528Z" fill="url(#paint4_linear_1973_2616)"/>
<path d="M79.7973 189.374C89.5351 190.344 93.5221 200.119 93.5221 204.279C103.739 199.888 111.497 204.279 111.497 213.985C114.02 210.01 119.867 210.672 120.414 213.985C129.849 208.346 133.637 214.948 136.118 218.665C145.284 217.202 162.014 216.967 155.606 227.736C149.199 238.505 129.475 233.224 120.414 229.238C108.355 241.902 83.8127 234.515 73.0489 229.238C63.311 236.541 43.3854 234.014 34.6398 231.838C28.8374 235.94 10.9888 232.762 7.45697 227.736C4.63147 223.715 11.8298 221.978 15.7821 221.612C18.3553 216.943 23.035 219.667 25.0533 221.612C26.8192 214.586 32.1801 216.72 34.6398 218.665C41.8044 206.925 49.1457 213.774 51.9207 218.665C52.152 216.412 53.119 210.38 55.1372 204.279C57.66 196.653 67.6249 188.16 79.7973 189.374Z" fill="url(#paint5_linear_1973_2616)"/>
</g>
<path d="M223.971 278.533L217.635 266.97L213.075 269.468L211.603 266.781L224.021 259.977L225.493 262.664L220.933 265.163L227.269 276.726L223.971 278.533ZM238.16 269.984C236.994 270.801 235.808 271.293 234.601 271.458C233.407 271.614 232.293 271.468 231.261 271.02C230.22 270.559 229.344 269.822 228.634 268.808C227.915 267.781 227.514 266.71 227.433 265.596C227.355 264.46 227.572 263.382 228.085 262.361C228.589 261.328 229.361 260.447 230.4 259.719C231.402 259.017 232.453 258.602 233.553 258.473C234.657 258.323 235.723 258.483 236.752 258.953C237.771 259.41 238.667 260.19 239.44 261.293C239.52 261.407 239.607 261.545 239.701 261.706C239.786 261.854 239.866 261.996 239.942 262.131L231.634 267.952L230.422 266.222L237.171 261.494L236.39 262.806C236.017 262.274 235.586 261.887 235.095 261.645C234.604 261.403 234.093 261.307 233.562 261.358C233.022 261.397 232.498 261.593 231.991 261.949C231.484 262.304 231.114 262.733 230.881 263.236C230.652 263.718 230.572 264.238 230.64 264.794C230.7 265.338 230.921 265.882 231.303 266.427L231.623 266.884C232.013 267.441 232.48 267.851 233.023 268.113C233.569 268.354 234.144 268.433 234.748 268.35C235.355 268.246 235.963 267.981 236.571 267.555C237.116 267.173 237.534 266.757 237.824 266.309C238.127 265.851 238.334 265.337 238.445 264.768L241.222 265.373C241.126 266.234 240.825 267.059 240.32 267.848C239.805 268.624 239.085 269.336 238.16 269.984ZM251.046 259.409L249.425 257.588L248.897 257.344L245.995 254.084C245.481 253.506 244.901 253.215 244.254 253.21C243.619 253.195 242.938 253.511 242.209 254.16C241.712 254.602 241.293 255.12 240.952 255.714C240.611 256.286 240.392 256.855 240.293 257.419L237.64 256.393C237.83 255.582 238.196 254.759 238.737 253.925C239.279 253.09 239.92 252.344 240.66 251.685C242.082 250.42 243.484 249.772 244.867 249.743C246.25 249.714 247.574 250.41 248.839 251.832L253.577 257.156L251.046 259.409ZM248.326 262.079C247.597 262.727 246.865 263.161 246.129 263.381C245.382 263.59 244.68 263.604 244.022 263.423C243.364 263.243 242.798 262.886 242.325 262.355C241.831 261.8 241.532 261.196 241.427 260.543C241.334 259.88 241.479 259.17 241.863 258.414C242.237 257.647 242.897 256.841 243.845 255.998L246.325 253.791L247.729 255.369L245.545 257.313C244.909 257.879 244.562 258.374 244.505 258.798C244.459 259.212 244.574 259.575 244.852 259.887C245.161 260.234 245.541 260.393 245.992 260.365C246.444 260.314 246.907 260.078 247.381 259.656C247.832 259.255 248.144 258.791 248.317 258.264C248.48 257.725 248.457 257.176 248.249 256.615L249.776 257.494C250.115 258.27 250.163 259.045 249.92 259.82C249.678 260.595 249.146 261.348 248.326 262.079ZM256.898 233.782C257.527 233.017 258.238 232.47 259.03 232.14C259.821 231.788 260.67 231.705 261.579 231.892C262.485 232.056 263.429 232.542 264.409 233.348L269.93 237.89L267.63 240.687L262.538 236.499C261.762 235.86 261.055 235.549 260.419 235.567C259.783 235.585 259.224 235.887 258.743 236.472C258.408 236.879 258.204 237.322 258.13 237.802C258.044 238.272 258.112 238.749 258.335 239.233C258.558 239.717 258.957 240.195 259.53 240.667L264.371 244.649L262.07 247.445L256.979 243.257C256.202 242.618 255.496 242.308 254.86 242.326C254.234 242.332 253.68 242.627 253.198 243.213C252.864 243.619 252.659 244.063 252.585 244.542C252.499 245.013 252.567 245.49 252.79 245.974C253.013 246.458 253.412 246.936 253.985 247.408L258.826 251.389L256.525 254.186L246.88 246.252L249.078 243.581L251.713 245.749L250.529 245.617C250.147 244.741 250.04 243.861 250.206 242.976C250.371 242.07 250.778 241.222 251.427 240.433C252.154 239.549 253.015 238.965 254.01 238.681C255.003 238.376 256.048 238.494 257.145 239.036L256.065 239.8C255.578 238.858 255.403 237.853 255.541 236.784C255.688 235.703 256.141 234.703 256.898 233.782ZM280.105 220.969C279.536 222.121 278.821 223.096 277.96 223.896C277.105 224.682 276.16 225.268 275.124 225.654C274.094 226.026 273.022 226.186 271.908 226.136C270.8 226.072 269.705 225.773 268.623 225.238C267.541 224.703 266.638 224.016 265.914 223.175C265.197 222.32 264.677 221.364 264.354 220.306C264.03 219.249 263.921 218.142 264.026 216.986C264.132 215.83 264.465 214.683 265.028 213.545C265.597 212.393 266.305 211.431 267.153 210.659C268.007 209.873 268.949 209.294 269.978 208.922C271.015 208.537 272.09 208.369 273.205 208.419C274.305 208.463 275.404 208.755 276.5 209.297C277.582 209.831 278.488 210.529 279.219 211.391C279.936 212.246 280.456 213.202 280.78 214.259C281.096 215.296 281.202 216.393 281.096 217.549C280.998 218.691 280.668 219.831 280.105 220.969ZM277.223 219.571C277.545 218.919 277.729 218.267 277.774 217.616C277.827 216.952 277.748 216.309 277.537 215.687C277.326 215.065 276.992 214.502 276.532 213.999C276.08 213.482 275.507 213.052 274.813 212.71C274.12 212.367 273.43 212.173 272.745 212.128C272.066 212.069 271.416 212.144 270.794 212.355C270.179 212.552 269.623 212.873 269.127 213.318C268.631 213.763 268.222 214.312 267.9 214.964C267.577 215.616 267.39 216.274 267.338 216.939C267.293 217.59 267.375 218.226 267.586 218.848C267.796 219.47 268.128 220.039 268.58 220.556C269.039 221.059 269.616 221.482 270.309 221.825C270.989 222.161 271.675 222.362 272.368 222.428C273.053 222.473 273.703 222.397 274.318 222.201C274.94 221.99 275.499 221.662 275.995 221.217C276.492 220.772 276.901 220.223 277.223 219.571ZM285.14 209.699L273.361 205.548L274.511 202.286L277.839 203.459L276.713 203.579C276.005 202.936 275.575 202.152 275.424 201.23C275.259 200.302 275.372 199.283 275.763 198.174L278.916 199.285C278.85 199.426 278.796 199.555 278.755 199.671C278.699 199.783 278.648 199.904 278.602 200.036C278.273 200.97 278.275 201.824 278.609 202.598C278.934 203.353 279.659 203.928 280.783 204.324L286.344 206.284L285.14 209.699ZM288.628 199.424L276.572 196.167L277.516 192.671L289.573 195.928L288.628 199.424ZM275.363 193.965C275.19 194.607 274.862 195.079 274.379 195.382C273.897 195.684 273.379 195.761 272.826 195.612C272.273 195.462 271.865 195.135 271.6 194.631C271.336 194.127 271.29 193.554 271.464 192.911C271.637 192.269 271.958 191.794 272.425 191.488C272.878 191.177 273.381 191.097 273.933 191.246C274.516 191.403 274.947 191.736 275.227 192.244C275.495 192.734 275.541 193.307 275.363 193.965ZM291.764 185.936C291.533 187.247 291.052 188.364 290.323 189.288C289.596 190.197 288.708 190.865 287.658 191.292C286.595 191.701 285.455 191.798 284.236 191.582C283.001 191.364 281.963 190.882 281.121 190.135C280.266 189.371 279.66 188.439 279.305 187.339C278.937 186.221 278.869 185.006 279.101 183.696C279.33 182.401 279.809 181.291 280.539 180.367C281.253 179.44 282.133 178.771 283.18 178.359C284.228 177.947 285.376 177.852 286.626 178.073C287.845 178.289 288.883 178.771 289.741 179.52C290.583 180.266 291.188 181.198 291.556 182.316C291.924 183.434 291.994 184.641 291.764 185.936ZM288.839 185.419C288.944 184.824 288.901 184.267 288.71 183.746C288.519 183.225 288.197 182.783 287.743 182.42C287.273 182.054 286.688 181.809 285.987 181.685C285.271 181.558 284.637 181.587 284.085 181.773C283.534 181.958 283.079 182.262 282.721 182.686C282.363 183.11 282.132 183.619 282.027 184.214C281.922 184.808 281.964 185.366 282.155 185.886C282.346 186.407 282.667 186.857 283.119 187.236C283.573 187.599 284.158 187.844 284.875 187.971C285.576 188.095 286.209 188.065 286.776 187.883C287.33 187.682 287.786 187.37 288.144 186.946C288.502 186.522 288.733 186.013 288.839 185.419ZM280.886 167.616C280.937 166.627 281.183 165.757 281.625 165.005C282.052 164.237 282.687 163.65 283.53 163.244C284.356 162.837 285.403 162.667 286.671 162.732L293.811 163.102L293.624 166.718L287.04 166.377C286.035 166.326 285.282 166.511 284.78 166.935C284.278 167.343 284.007 167.948 283.965 168.752C283.935 169.324 284.032 169.848 284.256 170.324C284.464 170.785 284.809 171.159 285.29 171.447C285.772 171.72 286.399 171.876 287.172 171.916L293.338 172.236L293.151 175.852L280.679 175.207L280.858 171.752L284.312 171.931L283.235 172.526C282.424 172.035 281.816 171.36 281.411 170.503C281.006 169.645 280.831 168.683 280.886 167.616Z" fill="url(#paint6_linear_1973_2616)"/>
<path d="M165.623 221.264C160.092 217.093 152.384 216.549 144.495 211.29C143.528 200.65 145.511 181.82 157.553 187.623C169.594 193.426 186.816 207.119 187.929 211.29C190.591 221.264 181.214 226.63 179.768 230.06C176.957 235.591 172.605 249.193 172.605 259.53C173.965 262.613 177.592 273.059 175.144 274.582C169.323 278.205 149.573 268.507 149.573 259.53C149.573 251.937 156.827 225.979 165.623 221.264Z" fill="#C1DBEC"/>
<path d="M148.394 207.028C154.59 211.471 167.165 218.544 170.973 220.176C160.83 227.684 154.345 240.608 150.651 251.885C152.984 241.148 158.844 224.898 165.623 221.264C161.037 217.806 154.956 216.839 148.515 213.613L148.394 207.028Z" fill="#1B47B3"/>
<path d="M161.897 189.923C162.774 190.424 163.664 190.95 164.559 191.499C163.18 193.993 160.874 197.72 158.791 199.685C155.617 202.677 157.161 210.379 166.861 219.271C173.222 225.103 138.519 256.071 164.671 273.844C157.414 271.128 149.573 265.186 149.573 259.53C149.573 251.936 156.827 225.979 165.623 221.264C161.227 217.949 155.457 216.924 149.314 214.003L144.826 205.397L161.897 189.923Z" fill="#C1DBEC"/>
<path fill-rule="evenodd" clip-rule="evenodd" d="M150.558 263.142C158.409 259.898 168.695 256.43 170.905 257.368C171.492 257.617 172.065 258.077 172.615 258.683C172.609 258.967 172.605 259.25 172.605 259.53C172.983 260.387 173.533 261.813 174.082 263.457C172.597 261.266 171.138 259.465 170.374 259.457C169.104 259.445 158.97 261.812 151.079 264.036C150.889 263.74 150.715 263.441 150.558 263.142Z" fill="#CB8A4F"/>
<path fill-rule="evenodd" clip-rule="evenodd" d="M178.367 231.874C176.1 231.602 173.843 220.723 176.381 224.983C177.585 227.004 179.504 227.826 181.031 228.207C180.456 228.884 180.006 229.498 179.769 230.06C179.499 230.591 179.215 231.196 178.922 231.866C178.734 231.891 178.548 231.895 178.367 231.874Z" fill="#CBDEEC"/>
<path d="M189.605 217.797C189.208 221.232 186.475 229.2 182.049 228.767C181.103 228.674 180.437 228.57 179.263 227.398C179.01 227.145 177.798 223.821 178.258 220.059C178.711 216.352 179.187 215.092 180.545 213.028C181.551 211.498 184.62 210.921 185.276 210.79C189.1 210.028 190.002 214.361 189.605 217.797Z" fill="#ED8537"/>
<path d="M107.475 182.093C109.797 188.622 125.671 191.161 133.318 191.614L151 149.631L124.432 134.125C117.813 147.394 105.154 175.564 107.475 182.093Z" fill="#FF9F56"/>
<path d="M113.642 179.735C115.963 186.264 131.838 188.803 139.485 189.256L157.167 147.273L130.598 131.767C123.979 145.036 111.32 173.206 113.642 179.735Z" fill="#ED8537"/>
<path d="M130.317 159.605L144.282 139.656C143.977 138.495 153.531 130.951 137.028 130.951C127.595 122.186 119.191 115.001 109.008 113.269C106.239 112.798 101.298 117.551 103.296 122.79C106.107 130.164 112.747 138.796 117.713 141.107C120.615 144.009 128.323 152.442 130.317 159.605Z" fill="#F2FBFF"/>
<path d="M192.159 156.45C182.221 139.04 178.286 133.146 168.311 136.138L161.964 148.833L186.719 171.865C192.673 173.981 202.098 173.86 192.159 156.45Z" fill="#C1DBEC"/>
<path d="M187.353 155.253L185.54 160.24L184.452 168.945C184.452 168.945 188.317 175.202 192.975 175.202C195.605 175.202 215.645 156.885 217.277 150.356C220.813 152.17 220.463 150.02 221.629 148.724C223.262 146.91 217.536 134.488 211.655 134.488C210.957 134.488 209.388 136.12 209.388 139.747C201.68 143.918 187.353 155.253 187.353 155.253Z" fill="#C1DBEC"/>
<path d="M191.072 95.8588C189.53 93.7733 183.092 95.9193 180.1 97.5817C183.107 108.618 181.838 110.639 180.1 118.464C181.701 118.706 190.34 118.505 192.885 115.717C194.789 113.632 194.529 100.536 191.072 95.8588Z" fill="#ED8537"/>
<path d="M172.573 147.908C178.648 154.889 190.58 170.249 192.25 169.817C192.763 169.683 194.291 168.38 196.337 166.492C197.607 173.78 191.186 173.452 186.719 171.865L168.662 155.064L172.573 147.908Z" fill="#1D48B3"/>
<path fill-rule="evenodd" clip-rule="evenodd" d="M219.907 146.875C219.907 145.719 220.771 146.364 221.911 147.728C221.905 148.174 221.815 148.518 221.629 148.724C220.463 150.02 220.813 152.169 217.277 150.356C215.644 156.885 195.605 175.202 192.975 175.202C188.317 175.201 184.452 168.945 184.452 168.945L185.117 163.621C188.709 167.298 191.678 170.012 192.431 169.817C194.517 169.273 213.378 149.413 215.645 149.413C217.912 149.414 219.907 150.049 219.907 146.875Z" fill="#1D48B3"/>
<path fill-rule="evenodd" clip-rule="evenodd" d="M169.726 135.765C171.948 135.264 173.865 135.267 175.638 135.805C178.766 138.518 176.019 147.811 176.019 149.087C176.021 149.814 179.702 154.979 182.82 158.245C189.389 165.127 192.585 173.761 206.486 164.257C200.646 170.062 194.368 175.201 192.975 175.201C190.554 175.201 188.348 173.511 186.787 171.888C186.764 171.88 186.742 171.872 186.719 171.864L167.757 154.223L169.726 135.765Z" fill="#C1DBEC"/>
<path d="M131.95 134.397C152.697 129.754 172.609 132.756 175.565 137.026C177.198 139.384 173.065 153.46 167.314 163.867C167.259 169.841 165.053 182.085 163.233 190.073C162.567 192.995 156.753 197.257 155.616 200.228C150.263 214.225 148.312 221.427 147.637 225.165C146.534 231.264 145.461 235.321 142.65 237.497C140.612 239.074 137.725 241.937 135.486 245.295C130.045 253.456 126.71 260.296 125.965 267.148C128.05 279.208 128.05 279.99 125.965 281.294C123.879 282.597 104.474 278.392 103.477 265.607C103.137 261.246 108.266 248.028 114.993 238.857C119.451 232.779 124.423 228.671 128.05 225.165C128.044 225.139 123.915 207.959 123.517 197.055C123.33 191.946 124.182 187.875 125.066 183.873C125.205 179.605 128.125 167.245 130.408 159.696C128.159 154.69 131.013 139.868 131.95 134.397Z" fill="#F2FBFF"/>
<path d="M157.249 136.664C158.458 141.59 160.15 151.498 157.249 159.333" stroke="#CEDFE6" stroke-width="1.63219" stroke-linecap="round" stroke-linejoin="round"/>
<path d="M121.854 118.518C126.914 121.744 131.814 126.106 137.028 130.951C141.553 130.951 144.119 131.519 145.466 132.366C153.573 131.719 160.923 132.139 166.374 133.175C159.865 136.763 150.473 138.301 140.202 135.938C130.827 133.781 124.11 127.905 121.854 118.518Z" fill="#CBDEEC"/>
<path d="M145.28 133.218C144.055 131.858 145.431 128.533 145.914 126.961C152.322 126.356 165.361 125.592 165.773 127.958C166.135 130.044 167.223 133.378 165.773 133.762C162.689 134.578 146.096 134.124 145.28 133.218Z" fill="#ED8537"/>
<path d="M126.237 95.4962C130.135 80.099 141.23 76.1845 153.44 74.1871C161.964 72.7927 174.138 75.0836 182.275 81.8946C190.412 88.7056 189.716 98.9909 189.807 114.479C189.898 129.967 166.74 132.231 146.488 129.514C126.236 126.797 121.946 112.446 126.237 95.4962Z" fill="#F2FBFF"/>
<path d="M141.017 106.105C143.629 92.54 155.951 86.791 167.949 86.791C175.566 86.791 183.437 90.1686 186.265 96.2215C189.322 102.763 188.452 111.393 188.17 116.715C187.626 126.961 165.161 129.222 155.163 127.777C143.871 126.145 137.753 123.062 141.017 106.105Z" fill="#78BFE2"/>
<path d="M132.675 118.347C133.642 118.649 135.885 119.725 137.118 121.612C138.43 123.618 141.976 128.052 154.124 130.28C151.567 130.112 149.005 129.852 146.488 129.514C136.647 128.194 130.576 124.125 127.426 118.347H132.675Z" fill="#CBDEEC"/>
<path d="M128.504 147.636C119.164 147.636 101.473 128.559 99.3061 117.803C101.577 111.415 106.133 94.1954 110.641 84.1615C110.302 80.4592 109.553 81.7661 112.001 80.5344L126.6 86.0658C128.047 87.952 126 88.8376 124.605 89.5115C122.385 102.709 121.964 107.767 119.164 120.523C119.164 120.523 134.43 147.636 128.504 147.636Z" fill="#F2FBFF"/>
<path d="M122.716 96.4296C125.164 93.864 129.683 94.7672 132.675 96.4296C129.668 107.466 131.496 112.543 134.685 119.915C133.083 120.157 128.593 122.399 125.164 120.822C119.981 118.438 118.7 100.637 122.716 96.4296Z" fill="#FF9F56"/>
<path d="M167.949 86.791C169.896 86.791 171.86 87.0125 173.752 87.4424C177.848 97.4728 180.337 117.611 168.159 127.813C163.727 128.281 159.381 128.269 156.103 127.896C163.68 121.945 171.674 107.115 162.928 87.1328C164.59 86.9027 166.272 86.791 167.949 86.791Z" fill="#A6E8F6"/>
<path d="M175.91 88.0166C177.164 88.4186 178.368 88.9165 179.494 89.5078C182.747 99.3297 184.001 116.417 175.353 126.609C174.099 126.913 172.807 127.168 171.501 127.379C178.066 120.372 183.333 105.827 175.91 88.0166Z" fill="#A6E8F6"/>
<path d="M156.704 88.7862C154.335 88.7862 152.815 80.0367 142.771 76.926C142.44 76.8235 142.41 76.3517 142.73 76.2181C154.438 71.3252 157.786 72.0572 164.14 73.7338C167.476 74.6142 180.538 89.3538 175.203 88.2422C170.85 87.3354 160.03 88.7862 156.704 88.7862Z" fill="#FF9F56"/>
<path fill-rule="evenodd" clip-rule="evenodd" d="M144.539 97.4531C143.105 107.383 138.701 123.578 161.957 128.11C159.401 128.132 157.058 127.993 155.163 127.719C143.871 126.087 137.754 123.003 141.018 106.047C141.058 105.841 141.098 105.637 141.142 105.436C141.828 103.326 142.692 101.087 143.732 98.7207C143.988 98.2851 144.258 97.8633 144.539 97.4531Z" fill="#549BD1"/>
<path d="M111.548 74.0059C112.111 71.2339 113.27 67.2958 114.721 65.6636L133.582 68.0212C135.668 64.0314 134.852 64.6662 139.839 63.306C144.826 61.9458 145.642 65.0289 144.554 65.6636C143.466 66.2984 142.015 69.7441 139.023 74.0059C136.629 77.4154 128.837 83.2852 125.24 85.794L113.18 81.5321C112.696 79.3861 110.947 76.9606 111.548 74.0059Z" fill="#ED8537"/>
<g opacity="0.82" filter="url(#filter0_f_1973_2616)">
<path d="M145.279 94.9523C143.919 65.1195 148.362 67.3864 78.1782 66.389C148 63.0339 143.557 66.389 145.279 35.468C146.458 63.85 156.705 63.578 245.387 66.389C156.705 68.7466 146.186 68.1119 145.279 94.9523Z" fill="#FFDEA9"/>
</g>
<path d="M145.279 94.9523C143.919 65.1195 148.362 67.3864 78.1782 66.389C148 63.0339 143.557 66.389 145.279 35.468C146.458 63.85 156.705 63.578 245.387 66.389C156.705 68.7466 146.186 68.1119 145.279 94.9523Z" fill="#FFDEA9"/>
<path d="M145.279 35.468C146.432 63.2273 156.26 63.5753 239.663 66.2073H145.279V35.468Z" fill="#FFEFD4"/>
<path d="M145.279 94.9526L145.165 92.2485C144.096 65.2579 145.716 67.3554 77.7246 66.3892C79.7215 66.2932 81.6581 66.2026 83.5361 66.1167H145.279V94.9526Z" fill="#F6BC7E"/>
<path d="M121.431 78.8116C121.885 73.0989 127.477 72.041 130.862 70.4692H115.991C117.877 71.1221 120.797 75.6378 121.431 78.8116Z" fill="#D76331"/>
<path d="M117.078 75.0668C113.673 74.9133 111.788 71.1364 111.366 68.545C111.366 66.6574 113.089 62.1975 116.081 62.1975C122.428 62.1976 129.586 56.8279 133.843 58.1716C138.1 59.5153 134.386 69.5429 133.843 71.1746C133.299 72.8062 128.589 73.862 125.329 72.9982C122.068 72.1343 121.335 75.2588 117.078 75.0668Z" fill="#FF9F56"/>
<g opacity="0.96" filter="url(#filter1_f_1973_2616)">
<path d="M232.65 142.566C233.341 179.355 191.162 199.322 191.162 199.322C191.162 199.322 223.704 178.238 223.013 141.449C222.322 104.66 191.162 81.9852 191.162 81.9852C191.162 81.9852 231.959 105.777 232.65 142.566Z" fill="#FFDEA9"/>
</g>
<path d="M232.65 142.566C233.341 179.355 191.162 199.322 191.162 199.322C191.162 199.322 223.704 178.238 223.013 141.449C222.322 104.66 191.162 81.9852 191.162 81.9852C191.162 81.9852 231.959 105.777 232.65 142.566Z" fill="#FFDEA9"/>
<path d="M194.229 197.079C193.561 197.671 192.928 198.22 192.34 198.726C191.591 199.117 191.171 199.317 191.162 199.321C191.178 199.311 192.347 198.551 194.229 197.079ZM205.246 95.917C215.346 107.667 227.841 125.201 228.521 140.653C229.196 155.977 218.325 171.952 207.611 183.851C215.569 173.99 223.355 159.64 223.013 141.448C222.644 121.82 213.601 106.209 205.246 95.917ZM192.636 82.9004C192.903 83.0716 193.204 83.2663 193.534 83.4844C194.529 84.4403 196.141 86.0215 198.141 88.1025C195.925 85.9246 194.051 84.3043 192.805 83.2803L192.636 82.9004Z" fill="#F6BC7E"/>
<path d="M211.202 136.301C209.678 132.601 215.222 132.341 218.184 132.674L230.153 136.301C229.277 138.628 230.153 145.187 226.436 148.089C223.75 150.185 220.723 149.782 219.181 148.815C215.917 146.766 212.725 140.001 211.202 136.301Z" fill="#ED8537"/>
<path d="M226.03 144.383C226.059 144.514 226.073 144.632 226.073 144.734L226.03 144.383C225.711 142.96 223.598 140.096 218.365 141.923L225.166 137.389L226.03 144.383Z" fill="#D76331"/>
<path d="M224.899 146.811C226.472 149.835 230.691 149.953 233.22 149.245C234.932 148.451 238.251 145.01 236.991 142.296C234.318 136.539 236.174 127.786 233.163 124.49C230.151 121.195 222.62 128.786 221.369 129.966C220.118 131.146 221.144 135.863 223.301 138.456C225.457 141.05 222.932 143.03 224.899 146.811Z" fill="#FF9F56"/>
<path d="M216.734 125.924C213.678 127.312 208.806 134.487 214.672 140.827C215.643 142.035 219.516 142.835 222.213 139.747C224.35 137.298 224.713 136.029 222.213 133.285C224.448 133.694 227.204 132.787 228.476 129.981C229.748 127.176 220.554 124.189 216.734 125.924Z" fill="#ED8537"/>
<path d="M215.593 125.561C212.537 126.949 207.665 134.125 213.531 140.464C214.502 141.672 217.316 143.552 220.811 141.409C224.306 139.265 224.045 135.284 221.071 132.922C223.307 133.331 226.063 132.424 227.335 129.618C228.606 126.813 219.413 123.826 215.593 125.561Z" fill="#FF9F56"/>
<path d="M156.161 163.686C154.8 170.214 153.622 183.544 151.808 190.979" stroke="#CEDFE6" stroke-width="1.63219" stroke-linecap="round" stroke-linejoin="round"/>
<path fill-rule="evenodd" clip-rule="evenodd" d="M103.872 267.907C111.836 265.679 121.701 263.54 123.699 264.739C124.61 265.286 125.402 266.408 126.075 267.8C126.458 270.023 126.765 271.843 126.997 273.342C125.566 270.144 123.857 266.88 122.882 266.734C121.662 266.551 112.064 267.706 104.204 268.951C104.079 268.61 103.968 268.263 103.872 267.907Z" fill="#FF9F56"/>
<path fill-rule="evenodd" clip-rule="evenodd" d="M130.902 140.546C132.995 142.656 134.555 144.545 135.214 146.004C138.569 153.44 132.493 180.914 129.592 194.969C127.271 206.212 131.103 221.174 133.31 227.25C127.287 230.249 114.522 240.231 104.961 258.337C106.919 252.499 110.618 244.822 114.993 238.857C119.451 232.78 124.423 228.671 128.05 225.165C128.044 225.14 123.915 207.959 123.517 197.055C123.33 191.946 124.181 187.875 125.065 183.873C125.205 179.605 128.125 167.245 130.408 159.695C128.771 156.05 129.839 147.2 130.902 140.546Z" fill="#2453C1"/>
<path fill-rule="evenodd" clip-rule="evenodd" d="M103.52 117.3C103.541 117.524 103.586 117.694 103.659 117.803C105.11 119.979 131.859 138.567 135.214 146.003C135.775 147.246 136.072 149.048 136.165 151.253L130.318 159.606C128.323 152.442 120.616 144.008 117.714 141.107C112.749 138.796 106.108 130.164 103.297 122.79C102.539 120.804 102.78 118.888 103.52 117.3Z" fill="#2453C1"/>
<path d="M112.989 80.9087C114.054 82.7043 114.817 84.9822 113.633 86.6099C111.456 89.6029 102.207 115.627 103.658 117.803C104.684 119.341 118.33 129.067 127.438 137.267C129.735 142.832 130.999 147.635 128.504 147.635C119.164 147.635 101.473 128.559 99.3057 117.803C101.577 111.415 106.132 94.1955 110.641 84.1616C110.302 80.4593 109.553 81.7663 112.001 80.5347L112.989 80.9087Z" fill="#2453C1"/>
<path fill-rule="evenodd" clip-rule="evenodd" d="M132.222 191.433C134.247 190.617 142.782 187.723 144.916 189.076C147.466 190.693 154.154 194.444 156.875 198.191C156.566 198.583 156.292 198.965 156.067 199.334C152.282 193.592 140.808 189.016 132.222 191.433Z" fill="#CBDEEC"/>
<path d="M140.731 166.598C139.197 166.598 138.813 166.981 139.964 168.131C143.329 171.496 148.399 173.116 151.083 173.116C153.767 173.116 159.519 168.131 162.586 164.68C162.203 165.831 159.519 170.049 157.602 172.733C159.749 172.733 166.421 163.914 166.421 159.696C161.436 163.147 141.881 166.598 140.731 166.598Z" fill="#CBDEEC"/>
<path d="M123.063 118.411C122.338 117.384 116.226 116.308 111.366 118.411C112.786 116.144 119.871 112.608 123.063 118.411Z" fill="#C1DBEC"/>
<path d="M104.72 128.869C115.963 136.631 116.653 133.242 123.789 136.301C129.186 138.614 138.206 142.829 138.388 146.275C138.569 149.721 135.577 161.419 133.944 164.411C133.276 165.637 129.699 169.653 126.843 173.421C127.889 168.745 129.233 163.583 130.408 159.696C130.388 159.651 130.368 159.606 130.349 159.559L130.317 159.605C128.946 154.68 124.873 149.154 121.519 145.239C115.756 141.847 109.239 135.336 104.72 128.869Z" fill="#C1DBEC"/>
<path d="M188.024 155.565C186.875 153.267 189.221 152.732 190.538 152.812C188.718 153.961 190.498 159.715 191.615 162.389C190.897 161.072 189.173 157.864 188.024 155.565Z" fill="#C1DBEC"/>
<path d="M124.101 188.675C125.636 204.18 134.67 222.823 134.67 226.888C134.67 231.35 136.302 238.222 140.383 238.404C138.146 238.767 132.947 235.974 131.496 231.694C130.235 227.974 115.14 245.72 104.84 258.704C106.764 252.823 110.526 244.947 114.993 238.857C119.451 232.78 124.423 228.671 128.05 225.165C128.03 225.083 123.914 207.942 123.517 197.055C123.403 193.952 123.673 191.23 124.101 188.675Z" fill="#C1DBEC"/>
<path d="M143.375 219.452C140.11 219.815 139.566 220.994 138.478 222.263C135.961 225.2 134.942 232.6 135.939 234.232C136.937 235.865 138.75 239.764 143.375 238.313C146.083 237.463 150.655 225.346 149.813 222.988C148.971 220.631 145.746 219.189 143.375 219.452Z" fill="#FF9F56"/>
<path d="M210.567 142.014C212.59 144.498 216.192 148.76 218.311 150.815C218.009 150.705 217.666 150.556 217.277 150.356C216.963 151.61 215.97 153.297 214.553 155.206C215.438 153.02 216.103 150.914 215.827 150.084C215.319 148.561 212.108 144.069 210.567 142.014Z" fill="#CBDEEC"/>
<path d="M110.577 83.5662C114.826 85.7382 121.486 88.9059 123.188 88.8054C120.691 89.1175 114.989 88.7607 110.215 85.1287C110.357 84.7997 110.498 84.4772 110.64 84.1619C110.62 83.947 110.598 83.7488 110.577 83.5662Z" fill="#CBDEEC"/>
<path fill-rule="evenodd" clip-rule="evenodd" d="M120.394 104.447C121.313 110.363 123.35 117.773 126.962 118.347C129.754 118.79 132.485 119.257 134.56 119.621C134.602 119.719 134.644 119.817 134.686 119.915C133.084 120.157 128.594 122.399 125.165 120.822C121.77 119.26 120.049 111.084 120.394 104.447Z" fill="#ED8537"/>
<defs>
<filter id="filter0_f_1973_2616" x="73.463" y="30.7528" width="176.639" height="68.9148" filterUnits="userSpaceOnUse" color-interpolation-filters="sRGB">
<feFlood flood-opacity="0" result="BackgroundImageFix"/>
<feBlend mode="normal" in="SourceGraphic" in2="BackgroundImageFix" result="shape"/>
<feGaussianBlur stdDeviation="2.35761" result="effect1_foregroundBlur_1973_2616"/>
</filter>
<filter id="filter1_f_1973_2616" x="187.354" y="78.1767" width="49.113" height="124.953" filterUnits="userSpaceOnUse" color-interpolation-filters="sRGB">
<feFlood flood-opacity="0" result="BackgroundImageFix"/>
<feBlend mode="normal" in="SourceGraphic" in2="BackgroundImageFix" result="shape"/>
<feGaussianBlur stdDeviation="1.90422" result="effect1_foregroundBlur_1973_2616"/>
</filter>
<linearGradient id="paint0_linear_1973_2616" x1="162.689" y1="26.7632" x2="162.689" y2="298.614" gradientUnits="userSpaceOnUse">
<stop stop-color="#27225D"/>
<stop offset="1" stop-color="#45236C"/>
</linearGradient>
<linearGradient id="paint1_linear_1973_2616" x1="162.689" y1="26.7632" x2="162.689" y2="298.614" gradientUnits="userSpaceOnUse">
<stop stop-color="#27225D"/>
<stop offset="1" stop-color="#351E52"/>
</linearGradient>
<linearGradient id="paint2_linear_1973_2616" x1="54.0557" y1="71.1953" x2="54.0557" y2="115.543" gradientUnits="userSpaceOnUse">
<stop stop-color="#DAAFED"/>
<stop offset="1" stop-color="#7C6487" stop-opacity="0"/>
</linearGradient>
<linearGradient id="paint3_linear_1973_2616" x1="256.497" y1="226.435" x2="256.497" y2="262.245" gradientUnits="userSpaceOnUse">
<stop stop-color="#DAAFED"/>
<stop offset="1" stop-color="#7C6487" stop-opacity="0"/>
</linearGradient>
<linearGradient id="paint4_linear_1973_2616" x1="257.058" y1="86.683" x2="256.951" y2="101.17" gradientUnits="userSpaceOnUse">
<stop stop-color="#DAAFED"/>
<stop offset="1" stop-color="#7C6487" stop-opacity="0"/>
</linearGradient>
<linearGradient id="paint5_linear_1973_2616" x1="74.3219" y1="167.386" x2="72.9913" y2="243.828" gradientUnits="userSpaceOnUse">
<stop stop-color="#DAAFED"/>
<stop offset="1" stop-color="#7C6487" stop-opacity="0"/>
</linearGradient>
<linearGradient id="paint6_linear_1973_2616" x1="279.446" y1="152.407" x2="206.36" y2="270.831" gradientUnits="userSpaceOnUse">
<stop stop-color="#FFD591"/>
<stop offset="1" stop-color="white"/>
</linearGradient>
</defs>
</svg>
