<svg width="1920" height="1080" viewBox="0 0 1920 1080" fill="none" xmlns="http://www.w3.org/2000/svg">
<g clip-path="url(#clip0_6_5369)">
<rect width="1920" height="1080" fill="white"/>
<g clip-path="url(#clip1_6_5369)">
<rect width="1920" height="1080" fill="#0D387C"/>
<rect y="328" width="1920" height="1094" fill="url(#paint0_linear_6_5369)"/>
<g opacity="0.8" filter="url(#filter0_f_6_5369)">
<path d="M64.7355 673.602C65.4324 673.11 66.3862 673.66 66.3083 674.51L66.1452 676.289C66.1134 676.636 66.2639 676.974 66.5425 677.182L67.9739 678.251C68.6576 678.762 68.4286 679.839 67.5963 680.028L65.8537 680.422C65.5145 680.499 65.2396 680.747 65.1277 681.076L64.553 682.768C64.2786 683.576 63.1833 683.691 62.7469 682.958L61.833 681.422C61.6551 681.123 61.3347 680.938 60.987 680.934L59.2003 680.91C58.3471 680.899 57.8992 679.893 58.4617 679.251L59.6395 677.907C59.8688 677.646 59.9457 677.284 59.8426 676.952L59.3131 675.245C59.0602 674.43 59.8786 673.693 60.6627 674.03L62.3046 674.735C62.6241 674.872 62.992 674.834 63.2761 674.633L64.7355 673.602Z" fill="#D9D9D9"/>
<path d="M554.969 420.61C554.194 420.252 554.194 419.151 554.969 418.794L556.591 418.045C556.907 417.9 557.124 417.6 557.165 417.255L557.376 415.481C557.476 414.633 558.524 414.293 559.103 414.919L560.316 416.231C560.552 416.487 560.904 416.601 561.245 416.533L562.998 416.185C563.835 416.019 564.482 416.91 564.065 417.654L563.192 419.213C563.023 419.517 563.023 419.887 563.192 420.19L564.065 421.749C564.482 422.494 563.835 423.385 562.998 423.219L561.245 422.87C560.904 422.803 560.552 422.917 560.316 423.172L559.103 424.484C558.524 425.111 557.476 424.77 557.376 423.923L557.165 422.149C557.124 421.803 556.907 421.504 556.591 421.358L554.969 420.61Z" fill="#FE7098"/>
<circle cx="420.253" cy="406.581" r="1.5" transform="rotate(-59.6743 420.253 406.581)" fill="#C9D2E5"/>
<circle cx="144.809" cy="498.038" r="1.5" transform="rotate(77.262 144.809 498.038)" fill="#C9D2E5"/>
<circle cx="257.656" cy="539.168" r="1.5" transform="rotate(-102.738 257.656 539.168)" fill="#C9D2E5"/>
<path d="M655.763 75.3729C655.107 74.8271 655.392 73.7634 656.233 73.6187L657.994 73.3157C658.336 73.2568 658.624 73.0239 658.753 72.701L659.415 71.0415C659.732 70.249 660.831 70.1914 661.229 70.9465L662.061 72.5276C662.223 72.8353 662.534 73.0368 662.881 73.0596L664.663 73.1768C665.515 73.2328 665.91 74.261 665.314 74.8723L664.068 76.1525C663.825 76.4016 663.729 76.759 663.815 77.0961L664.254 78.828C664.464 79.6551 663.608 80.3481 662.843 79.9709L661.24 79.1809C660.928 79.0272 660.559 79.0465 660.265 79.2321L658.753 80.1852C658.032 80.6404 657.108 80.0406 657.23 79.1961L657.486 77.4277C657.536 77.0835 657.404 76.7382 657.136 76.5157L655.763 75.3729Z" fill="#D9D9D9"/>
<path d="M929.883 132.168C929.588 131.367 930.367 130.588 931.167 130.883L932.302 131.302C932.629 131.422 932.994 131.364 933.267 131.149L934.217 130.4C934.887 129.872 935.869 130.372 935.835 131.225L935.788 132.434C935.774 132.781 935.942 133.111 936.232 133.304L937.237 133.976C937.947 134.45 937.774 135.538 936.953 135.77L935.789 136.098C935.454 136.193 935.193 136.455 935.098 136.789L934.77 137.953C934.538 138.775 933.45 138.947 932.976 138.237L932.304 137.232C932.11 136.943 931.781 136.775 931.433 136.788L930.225 136.836C929.372 136.869 928.872 135.888 929.4 135.217L930.149 134.267C930.364 133.994 930.422 133.629 930.302 133.302L929.883 132.168Z" fill="#FE7098"/>
<path d="M715.527 264.033C714.871 263.487 715.156 262.423 715.997 262.278L717.189 262.073C717.532 262.014 717.82 261.782 717.949 261.459L718.397 260.335C718.713 259.543 719.813 259.485 720.211 260.24L720.774 261.31C720.936 261.618 721.246 261.82 721.593 261.843L722.8 261.922C723.652 261.978 724.046 263.006 723.451 263.617L722.607 264.484C722.365 264.733 722.269 265.09 722.354 265.428L722.652 266.6C722.862 267.427 722.006 268.12 721.241 267.743L720.156 267.208C719.844 267.054 719.474 267.074 719.18 267.259L718.157 267.905C717.435 268.36 716.512 267.76 716.634 266.915L716.807 265.718C716.857 265.374 716.724 265.029 716.457 264.806L715.527 264.033Z" fill="#FCDC8F"/>
<circle cx="600.306" cy="15.22" r="1.5" transform="rotate(-105.132 600.306 15.22)" fill="#C9D2E5"/>
<circle cx="547.84" cy="165.84" r="1.5" transform="rotate(-105.132 547.84 165.84)" fill="#C9D2E5"/>
<path d="M62.1061 301.871C62.2508 301.03 63.3146 300.745 63.8603 301.401L65.0032 302.775C65.2256 303.042 65.571 303.175 65.9152 303.125L67.6835 302.869C68.528 302.746 69.1278 303.67 68.6726 304.392L67.7195 305.903C67.534 306.197 67.5146 306.567 67.6684 306.879L68.4583 308.481C68.8356 309.247 68.1425 310.103 67.3154 309.893L65.5835 309.453C65.2464 309.368 64.8891 309.464 64.6399 309.706L63.3598 310.953C62.7484 311.548 61.7203 311.153 61.6643 310.302L61.547 308.519C61.5242 308.172 61.3227 307.862 61.015 307.7L59.4339 306.867C58.6788 306.47 58.7364 305.37 59.5289 305.054L61.1884 304.391C61.5114 304.262 61.7442 303.975 61.8032 303.632L62.1061 301.871Z" fill="#FE7098"/>
<path d="M360.108 227.128C359.813 226.327 360.592 225.549 361.393 225.844L363.069 226.462C363.395 226.582 363.761 226.524 364.034 226.309L365.437 225.203C366.108 224.675 367.089 225.175 367.055 226.028L366.986 227.813C366.972 228.161 367.14 228.49 367.429 228.684L368.915 229.677C369.624 230.151 369.452 231.239 368.631 231.47L366.911 231.956C366.576 232.05 366.315 232.312 366.22 232.646L365.735 234.366C365.503 235.187 364.415 235.36 363.941 234.65L362.948 233.165C362.755 232.876 362.425 232.708 362.078 232.721L360.292 232.791C359.44 232.824 358.94 231.843 359.468 231.173L360.574 229.769C360.789 229.496 360.847 229.131 360.726 228.805L360.108 227.128Z" fill="#FCDC8F"/>
<path d="M471.058 106.256C470.217 106.112 469.932 105.048 470.588 104.502L471.518 103.728C471.785 103.506 471.918 103.161 471.868 102.816L471.695 101.619C471.573 100.775 472.496 100.175 473.218 100.63L474.241 101.275C474.535 101.461 474.905 101.48 475.217 101.326L476.302 100.792C477.067 100.414 477.923 101.108 477.713 101.935L477.415 103.107C477.33 103.444 477.426 103.802 477.668 104.051L478.512 104.917C479.107 105.529 478.713 106.557 477.861 106.613L476.654 106.692C476.307 106.715 475.997 106.916 475.835 107.224L475.272 108.295C474.874 109.05 473.774 108.992 473.458 108.199L473.01 107.076C472.881 106.753 472.593 106.52 472.25 106.461L471.058 106.256Z" fill="#FE7098"/>
<circle cx="365.892" cy="299.478" r="1.5" transform="rotate(120.326 365.892 299.478)" fill="#C9D2E5"/>
<path d="M279.08 89.1559C278.383 89.6482 277.429 89.0976 277.507 88.2478L277.67 86.4685C277.702 86.1222 277.551 85.7842 277.273 85.5761L275.841 84.5067C275.158 83.996 275.387 82.9188 276.219 82.7303L277.961 82.3356C278.301 82.2588 278.576 82.0112 278.687 81.6819L279.262 79.9901C279.537 79.1821 280.632 79.067 281.068 79.8002L281.982 81.3356C282.16 81.6345 282.48 81.8195 282.828 81.8241L284.615 81.8478C285.468 81.8592 285.916 82.8653 285.353 83.5069L284.176 84.8506C283.946 85.1121 283.869 85.4739 283.973 85.8061L284.502 87.5126C284.755 88.3276 283.937 89.0645 283.152 88.7278L281.511 88.0228C281.191 87.8856 280.823 87.9243 280.539 88.125L279.08 89.1559Z" fill="#FE7098"/>
<path d="M67.5272 66.0326C66.8713 65.4868 67.1563 64.4231 67.9973 64.2784L69.1894 64.0733C69.5321 64.0143 69.8196 63.7815 69.9485 63.4585L70.397 62.3351C70.7134 61.5426 71.8131 61.485 72.2106 62.2401L72.774 63.3105C72.936 63.6182 73.2463 63.8197 73.5933 63.8425L74.8003 63.9219C75.6518 63.9778 76.0465 65.006 75.4512 65.6173L74.6073 66.484C74.3647 66.7331 74.2689 67.0905 74.3545 67.4276L74.652 68.6C74.8618 69.4271 74.006 70.1202 73.2406 69.7429L72.1556 69.2081C71.8437 69.0544 71.4742 69.0737 71.1801 69.2593L70.157 69.9045C69.4352 70.3597 68.5116 69.7599 68.6338 68.9154L68.8072 67.7183C68.857 67.3741 68.7244 67.0287 68.4571 66.8063L67.5272 66.0326Z" fill="#FCDC8F"/>
<circle cx="167.5" cy="161.5" r="4.5" fill="#C9D2E5"/>
<circle cx="186.5" cy="83.5" r="1.5" transform="rotate(-180 186.5 83.5)" fill="#C9D2E5"/>
<circle cx="908.5" cy="36.5" r="8.5" fill="#C9D2E5"/>
<path d="M1871.79 447.969C1872.15 447.194 1873.25 447.194 1873.61 447.969L1874.36 449.591C1874.5 449.907 1874.8 450.124 1875.15 450.165L1876.92 450.376C1877.77 450.476 1878.11 451.524 1877.48 452.103L1876.17 453.316C1875.92 453.552 1875.8 453.904 1875.87 454.245L1876.22 455.998C1876.39 456.835 1875.49 457.482 1874.75 457.065L1873.19 456.192C1872.89 456.023 1872.52 456.023 1872.21 456.192L1870.65 457.065C1869.91 457.482 1869.02 456.835 1869.19 455.998L1869.53 454.245C1869.6 453.904 1869.49 453.552 1869.23 453.316L1867.92 452.103C1867.29 451.524 1867.63 450.476 1868.48 450.376L1870.26 450.165C1870.6 450.124 1870.9 449.907 1871.05 449.591L1871.79 447.969Z" fill="#D9D9D9"/>
<path d="M1772.26 328.082C1772.18 327.232 1773.14 326.681 1773.83 327.174L1774.82 327.871C1775.1 328.072 1775.47 328.111 1775.79 327.974L1776.9 327.496C1777.69 327.16 1778.51 327.896 1778.25 328.711L1777.89 329.867C1777.79 330.199 1777.87 330.561 1778.1 330.822L1778.9 331.732C1779.46 332.374 1779.01 333.38 1778.16 333.391L1776.95 333.407C1776.6 333.412 1776.28 333.597 1776.1 333.895L1775.48 334.935C1775.05 335.668 1773.95 335.553 1773.68 334.745L1773.29 333.6C1773.18 333.27 1772.9 333.023 1772.56 332.946L1771.38 332.679C1770.55 332.49 1770.32 331.413 1771 330.902L1771.97 330.179C1772.25 329.97 1772.4 329.632 1772.37 329.286L1772.26 328.082Z" fill="#D9D9D9"/>
<path d="M1685.26 565.082C1685.18 564.232 1686.14 563.681 1686.83 564.174L1687.82 564.871C1688.1 565.072 1688.47 565.111 1688.79 564.974L1689.9 564.496C1690.69 564.16 1691.51 564.896 1691.25 565.711L1690.89 566.867C1690.79 567.199 1690.87 567.561 1691.1 567.822L1691.9 568.732C1692.46 569.374 1692.01 570.38 1691.16 570.391L1689.95 570.407C1689.6 570.412 1689.28 570.597 1689.1 570.895L1688.48 571.935C1688.05 572.668 1686.95 572.553 1686.68 571.745L1686.29 570.6C1686.18 570.27 1685.9 570.023 1685.56 569.946L1684.38 569.679C1683.55 569.49 1683.32 568.413 1684 567.902L1684.97 567.179C1685.25 566.97 1685.4 566.632 1685.37 566.286L1685.26 565.082Z" fill="#D9D9D9"/>
<circle cx="1670.05" cy="128.052" r="1.5" transform="rotate(-59.6743 1670.05 128.052)" fill="#C9D2E5"/>
<circle cx="1793.05" cy="679.052" r="1.5" transform="rotate(120.326 1793.05 679.052)" fill="#C9D2E5"/>
<circle cx="1847.41" cy="786.155" r="1.5" transform="rotate(-59.6743 1847.41 786.155)" fill="#C9D2E5"/>
<circle cx="1807.5" cy="527.5" r="8.5" fill="#C9D2E5"/>
<path d="M1882.18 -3.96737C1881.52 -4.51316 1881.81 -5.57692 1882.65 -5.72161L1883.84 -5.9267C1884.18 -5.98566 1884.47 -6.21847 1884.6 -6.54147L1885.05 -7.66485C1885.37 -8.45737 1886.47 -8.51501 1886.86 -7.7599L1887.43 -6.68955C1887.59 -6.3818 1887.9 -6.18031 1888.25 -6.1575L1889.45 -6.07814C1890.3 -6.02215 1890.7 -4.99401 1890.1 -4.38265L1889.26 -3.51605C1889.02 -3.26688 1888.92 -2.90955 1889.01 -2.57245L1889.3 -1.40002C1889.51 -0.572901 1888.66 0.120163 1887.89 -0.257098L1886.81 -0.791862C1886.5 -0.945618 1886.13 -0.926258 1885.83 -0.740736L1884.81 -0.0954929C1884.09 0.359708 1883.16 -0.240095 1883.29 -1.08462L1883.46 -2.28173C1883.51 -2.62592 1883.38 -2.97128 1883.11 -3.19373L1882.18 -3.96737Z" fill="#FCDC8F"/>
<path d="M1546.76 65.3729C1546.11 64.8271 1546.39 63.7634 1547.23 63.6187L1548.99 63.3157C1549.34 63.2568 1549.62 63.0239 1549.75 62.701L1550.42 61.0415C1550.73 60.249 1551.83 60.1914 1552.23 60.9465L1553.06 62.5276C1553.22 62.8353 1553.53 63.0368 1553.88 63.0596L1555.66 63.1768C1556.51 63.2328 1556.91 64.261 1556.31 64.8723L1555.07 66.1525C1554.83 66.4016 1554.73 66.759 1554.81 67.0961L1555.25 68.828C1555.46 69.6551 1554.61 70.3481 1553.84 69.9709L1552.24 69.1809C1551.93 69.0272 1551.56 69.0465 1551.26 69.2321L1549.75 70.1852C1549.03 70.6404 1548.11 70.0406 1548.23 69.1961L1548.49 67.4277C1548.54 67.0835 1548.4 66.7382 1548.14 66.5157L1546.76 65.3729Z" fill="#D9D9D9"/>
<path d="M1820.88 122.167C1820.59 121.366 1821.37 120.588 1822.17 120.883L1823.3 121.301C1823.63 121.422 1823.99 121.364 1824.27 121.149L1825.22 120.4C1825.89 119.872 1826.87 120.372 1826.84 121.224L1826.79 122.433C1826.77 122.781 1826.94 123.11 1827.23 123.303L1828.24 123.976C1828.95 124.45 1828.77 125.538 1827.95 125.769L1826.79 126.098C1826.45 126.192 1826.19 126.454 1826.1 126.789L1825.77 127.953C1825.54 128.774 1824.45 128.946 1823.98 128.237L1823.3 127.231C1823.11 126.942 1822.78 126.774 1822.43 126.788L1821.22 126.835C1820.37 126.868 1819.87 125.887 1820.4 125.217L1821.15 124.267C1821.36 123.994 1821.42 123.628 1821.3 123.302L1820.88 122.167Z" fill="#FE7098"/>
<path d="M1606.53 254.033C1605.87 253.487 1606.16 252.423 1607 252.278L1608.19 252.073C1608.53 252.014 1608.82 251.782 1608.95 251.459L1609.4 250.335C1609.71 249.543 1610.81 249.485 1611.21 250.24L1611.77 251.31C1611.94 251.618 1612.25 251.82 1612.59 251.843L1613.8 251.922C1614.65 251.978 1615.05 253.006 1614.45 253.617L1613.61 254.484C1613.36 254.733 1613.27 255.09 1613.35 255.428L1613.65 256.6C1613.86 257.427 1613.01 258.12 1612.24 257.743L1611.16 257.208C1610.84 257.054 1610.47 257.074 1610.18 257.259L1609.16 257.905C1608.44 258.36 1607.51 257.76 1607.63 256.915L1607.81 255.718C1607.86 255.374 1607.72 255.029 1607.46 254.806L1606.53 254.033Z" fill="#FCDC8F"/>
<circle cx="1491.31" cy="5.21952" r="1.5" transform="rotate(-105.132 1491.31 5.21952)" fill="#C9D2E5"/>
<circle cx="1438.84" cy="155.84" r="1.5" transform="rotate(-105.132 1438.84 155.84)" fill="#C9D2E5"/>
<path d="M1251.11 217.128C1250.81 216.327 1251.59 215.549 1252.39 215.844L1254.07 216.462C1254.4 216.582 1254.76 216.524 1255.03 216.309L1256.44 215.203C1257.11 214.675 1258.09 215.175 1258.06 216.028L1257.99 217.813C1257.97 218.161 1258.14 218.49 1258.43 218.684L1259.91 219.677C1260.62 220.151 1260.45 221.239 1259.63 221.47L1257.91 221.956C1257.58 222.05 1257.31 222.312 1257.22 222.646L1256.73 224.366C1256.5 225.187 1255.42 225.36 1254.94 224.65L1253.95 223.165C1253.75 222.876 1253.43 222.708 1253.08 222.721L1251.29 222.791C1250.44 222.824 1249.94 221.843 1250.47 221.173L1251.57 219.769C1251.79 219.496 1251.85 219.131 1251.73 218.805L1251.11 217.128Z" fill="#FCDC8F"/>
<path d="M1362.06 96.2562C1361.22 96.1116 1360.93 95.0478 1361.59 94.502L1362.52 93.7284C1362.79 93.5059 1362.92 93.1606 1362.87 92.8164L1362.69 91.6193C1362.57 90.7747 1363.5 90.1749 1364.22 90.6301L1365.24 91.2754C1365.54 91.4609 1365.9 91.4803 1366.22 91.3265L1367.3 90.7917C1368.07 90.4145 1368.92 91.1075 1368.71 91.9347L1368.42 93.1071C1368.33 93.4442 1368.43 93.8015 1368.67 94.0507L1369.51 94.9173C1370.11 95.5286 1369.71 96.5568 1368.86 96.6128L1367.65 96.6921C1367.31 96.715 1367 96.9164 1366.84 97.2242L1366.27 98.2945C1365.87 99.0496 1364.77 98.992 1364.46 98.1995L1364.01 97.0761C1363.88 96.7531 1363.59 96.5203 1363.25 96.4613L1362.06 96.2562Z" fill="#FE7098"/>
<circle cx="1348.05" cy="182.052" r="1.5" transform="rotate(120.326 1348.05 182.052)" fill="#C9D2E5"/>
<path d="M1170.08 79.1559C1169.38 79.6482 1168.43 79.0976 1168.51 78.2478L1168.67 76.4685C1168.7 76.1222 1168.55 75.7842 1168.27 75.5761L1166.84 74.5067C1166.16 73.996 1166.39 72.9188 1167.22 72.7303L1168.96 72.3356C1169.3 72.2588 1169.58 72.0112 1169.69 71.6819L1170.26 69.9901C1170.54 69.1821 1171.63 69.067 1172.07 69.8002L1172.98 71.3356C1173.16 71.6345 1173.48 71.8195 1173.83 71.8241L1175.61 71.8478C1176.47 71.8592 1176.92 72.8653 1176.35 73.5069L1175.18 74.8506C1174.95 75.1121 1174.87 75.4739 1174.97 75.8061L1175.5 77.5126C1175.75 78.3276 1174.94 79.0645 1174.15 78.7278L1172.51 78.0228C1172.19 77.8856 1171.82 77.9243 1171.54 78.125L1170.08 79.1559Z" fill="#FE7098"/>
<circle cx="1058.5" cy="151.5" r="4.5" fill="#C9D2E5"/>
<circle cx="1077.5" cy="73.5" r="1.5" transform="rotate(-180 1077.5 73.5)" fill="#C9D2E5"/>
<circle cx="1799.5" cy="26.5" r="8.5" fill="#C9D2E5"/>
<circle cx="34.5" cy="852.5" r="8.5" fill="#C9D2E5"/>
</g>
<path d="M1864.54 954V971.88H1849.08V986.692H1825.67V971.88H1810L1820.37 954H1864.54Z" fill="#C9D2E5"/>
<path d="M1864.54 1017.12L1854.56 1035H1810V1017.12H1825.67V1002.31H1849.08V1017.12H1864.54Z" fill="#C9D2E5"/>
<g opacity="0.94">
<path d="M1864.54 954V971.88H1849.08V986.692H1825.67V971.88H1810L1820.37 954H1864.54Z" fill="white"/>
<path d="M1864.54 1017.12L1854.56 1035H1810V1017.12H1825.67V1002.31H1849.08V1017.12H1864.54Z" fill="white"/>
</g>
<path d="M1864.54 954V971.88H1849.08V986.692H1825.67V971.88H1810L1820.37 954H1864.54Z" fill="#C9D2E5"/>
<path d="M1864.54 1017.12L1854.56 1035H1810V1017.12H1825.67V1002.31H1849.08V1017.12H1864.54Z" fill="#C9D2E5"/>
</g>
<path opacity="0.149" d="M108.009 1055.63C145.016 1055.63 175.017 1025.6 175.017 988.563C175.017 951.523 145.016 921.496 108.009 921.496C71.0008 921.496 41 951.523 41 988.563C41 1025.6 71.0008 1055.63 108.009 1055.63Z" fill="#C9D2E5"/>
<path opacity="0.149" d="M1678.01 66.1346C1715.02 66.1346 1745.02 36.1076 1745.02 -0.932693C1745.02 -37.9729 1715.02 -68 1678.01 -68C1641 -68 1611 -37.9729 1611 -0.932693C1611 36.1076 1641 66.1346 1678.01 66.1346Z" fill="#C9D2E5"/>
<path opacity="0.0509804" d="M1173.85 233.653C1192.35 233.653 1207.35 218.64 1207.35 200.12C1207.35 181.599 1192.35 166.586 1173.85 166.586C1155.34 166.586 1140.34 181.599 1140.34 200.12C1140.34 218.64 1155.34 233.653 1173.85 233.653Z" fill="white"/>
<path opacity="0.0509804" d="M547.504 971.067C566.008 971.067 581.009 956.054 581.009 937.534C581.009 919.014 566.008 904 547.504 904C529 904 514 919.014 514 937.534C514 956.054 529 971.067 547.504 971.067Z" fill="white"/>
<path opacity="0.0705882" d="M215.892 370.337C308.412 370.337 383.414 295.269 383.414 202.668C383.414 110.068 308.412 35 215.892 35C123.373 35 48.3709 110.068 48.3709 202.668C48.3709 295.269 123.373 370.337 215.892 370.337Z" fill="#FE7098"/>
<path opacity="0.0509804" d="M719.607 496.308C749.213 496.308 773.214 472.286 773.214 442.654C773.214 413.022 749.213 389 719.607 389C690.001 389 666 413.022 666 442.654C666 472.286 690.001 496.308 719.607 496.308Z" fill="#F99557"/>
<path opacity="0.0509804" d="M1713.95 389C1747.06 389 1773.89 362.137 1773.89 329C1773.89 295.863 1747.06 269 1713.95 269C1680.84 269 1654 295.863 1654 329C1654 362.137 1680.84 389 1713.95 389Z" fill="#F99557"/>
<path opacity="0.149" d="M462.618 683.675C484.823 683.675 502.823 665.659 502.823 643.435C502.823 621.211 484.823 603.194 462.618 603.194C440.413 603.194 422.413 621.211 422.413 643.435C422.413 665.659 440.413 683.675 462.618 683.675Z" fill="#B73C94"/>
<path opacity="0.0392157" d="M1439.6 1112.64C1535.82 1112.64 1613.82 1034.57 1613.82 938.263C1613.82 841.958 1535.82 763.888 1439.6 763.888C1343.38 763.888 1265.38 841.958 1265.38 938.263C1265.38 1034.57 1343.38 1112.64 1439.6 1112.64Z" fill="#FCDC8F"/>
</g>
<defs>
<filter id="filter0_f_6_5369" x="22" y="-130.294" width="1872.39" height="995.294" filterUnits="userSpaceOnUse" color-interpolation-filters="sRGB">
<feFlood flood-opacity="0" result="BackgroundImageFix"/>
<feBlend mode="normal" in="SourceGraphic" in2="BackgroundImageFix" result="shape"/>
<feGaussianBlur stdDeviation="2" result="effect1_foregroundBlur_6_5369"/>
</filter>
<linearGradient id="paint0_linear_6_5369" x1="960" y1="328" x2="960" y2="1422" gradientUnits="userSpaceOnUse">
<stop stop-color="#088BC1" stop-opacity="0"/>
<stop offset="1" stop-color="#10689A"/>
</linearGradient>
<clipPath id="clip0_6_5369">
<rect width="1920" height="1080" fill="white"/>
</clipPath>
<clipPath id="clip1_6_5369">
<rect width="1920" height="1080" fill="white"/>
</clipPath>
</defs>
</svg>
